<?xml version="1.0" encoding="utf-8" standalone="no"?>
<!DOCTYPE svg PUBLIC "-//W3C//DTD SVG 1.1//EN"
  "http://www.w3.org/Graphics/SVG/1.1/DTD/svg11.dtd">
<svg xmlns:xlink="http://www.w3.org/1999/xlink" width="460.8pt" height="345.6pt" viewBox="0 0 460.8 345.6" xmlns="http://www.w3.org/2000/svg" version="1.1">
 <metadata>
  <rdf:RDF xmlns:dc="http://purl.org/dc/elements/1.1/" xmlns:cc="http://creativecommons.org/ns#" xmlns:rdf="http://www.w3.org/1999/02/22-rdf-syntax-ns#">
   <cc:Work>
    <dc:type rdf:resource="http://purl.org/dc/dcmitype/StillImage"/>
    <dc:date>2023-12-10T10:30:53.060422</dc:date>
    <dc:format>image/svg+xml</dc:format>
    <dc:creator>
     <cc:Agent>
      <dc:title>Matplotlib v3.7.1, https://matplotlib.org/</dc:title>
     </cc:Agent>
    </dc:creator>
   </cc:Work>
  </rdf:RDF>
 </metadata>
 <defs>
  <style type="text/css">*{stroke-linejoin: round; stroke-linecap: butt}</style>
 </defs>
 <g id="figure_1">
  <g id="patch_1">
   <path d="M 0 345.6 
L 460.8 345.6 
L 460.8 0 
L 0 0 
z
" style="fill: #ffffff"/>
  </g>
  <g id="axes_1">
   <g id="patch_2">
    <path d="M 46.15 89.989739 
L 218.264584 89.989739 
L 218.264584 30.48 
L 46.15 30.48 
z
" style="fill: #ffffff"/>
   </g>
   <g id="matplotlib.axis_1"/>
   <g id="matplotlib.axis_2">
    <g id="ytick_1">
     <g id="line2d_1">
      <defs>
       <path id="m77da69547b" d="M 0 0 
L -3.5 0 
" style="stroke: #000000; stroke-width: 0.8"/>
      </defs>
      <g>
       <use xlink:href="#m77da69547b" x="46.15" y="87.284751" style="stroke: #000000; stroke-width: 0.8"/>
      </g>
     </g>
     <g id="text_1">
      <!-- 0.0 -->
      <g transform="translate(23.246875 91.08397) scale(0.1 -0.1)">
       <defs>
        <path id="DejaVuSans-30" d="M 2034 4250 
Q 1547 4250 1301 3770 
Q 1056 3291 1056 2328 
Q 1056 1369 1301 889 
Q 1547 409 2034 409 
Q 2525 409 2770 889 
Q 3016 1369 3016 2328 
Q 3016 3291 2770 3770 
Q 2525 4250 2034 4250 
z
M 2034 4750 
Q 2819 4750 3233 4129 
Q 3647 3509 3647 2328 
Q 3647 1150 3233 529 
Q 2819 -91 2034 -91 
Q 1250 -91 836 529 
Q 422 1150 422 2328 
Q 422 3509 836 4129 
Q 1250 4750 2034 4750 
z
" transform="scale(0.015625)"/>
        <path id="DejaVuSans-2e" d="M 684 794 
L 1344 794 
L 1344 0 
L 684 0 
L 684 794 
z
" transform="scale(0.015625)"/>
       </defs>
       <use xlink:href="#DejaVuSans-30"/>
       <use xlink:href="#DejaVuSans-2e" x="63.623047"/>
       <use xlink:href="#DejaVuSans-30" x="95.410156"/>
      </g>
     </g>
    </g>
    <g id="ytick_2">
     <g id="line2d_2">
      <g>
       <use xlink:href="#m77da69547b" x="46.15" y="48.126453" style="stroke: #000000; stroke-width: 0.8"/>
      </g>
     </g>
     <g id="text_2">
      <!-- 0.2 -->
      <g transform="translate(23.246875 51.925671) scale(0.1 -0.1)">
       <defs>
        <path id="DejaVuSans-32" d="M 1228 531 
L 3431 531 
L 3431 0 
L 469 0 
L 469 531 
Q 828 903 1448 1529 
Q 2069 2156 2228 2338 
Q 2531 2678 2651 2914 
Q 2772 3150 2772 3378 
Q 2772 3750 2511 3984 
Q 2250 4219 1831 4219 
Q 1534 4219 1204 4116 
Q 875 4013 500 3803 
L 500 4441 
Q 881 4594 1212 4672 
Q 1544 4750 1819 4750 
Q 2544 4750 2975 4387 
Q 3406 4025 3406 3419 
Q 3406 3131 3298 2873 
Q 3191 2616 2906 2266 
Q 2828 2175 2409 1742 
Q 1991 1309 1228 531 
z
" transform="scale(0.015625)"/>
       </defs>
       <use xlink:href="#DejaVuSans-30"/>
       <use xlink:href="#DejaVuSans-2e" x="63.623047"/>
       <use xlink:href="#DejaVuSans-32" x="95.410156"/>
      </g>
     </g>
    </g>
   </g>
   <g id="line2d_3">
    <path d="M 53.97339 87.284751 
L 74.562701 87.284751 
L 74.56842 33.184988 
L 74.678317 34.145421 
L 76.169223 47.929989 
L 76.621013 52.232364 
L 76.737677 87.284751 
L 91.036628 87.284751 
L 91.042347 52.12556 
L 91.149862 53.143171 
L 91.665035 58.135025 
L 91.965085 61.088626 
L 92.648869 68.34187 
L 92.75076 70.023035 
L 93.090937 77.567827 
L 93.204647 87.284751 
L 95.153442 87.284751 
L 95.159161 77.614181 
L 95.267819 79.058963 
L 95.559481 81.808569 
L 95.971238 83.961926 
L 96.417309 85.196771 
L 96.91485 85.948916 
L 97.21223 86.232114 
L 97.326607 87.284751 
L 128.092432 87.284751 
L 128.097388 52.78045 
L 128.202901 53.7873 
L 129.780734 71.233118 
L 130.148933 78.49395 
L 130.261594 87.284751 
L 152.796651 87.284751 
L 152.798747 54.626472 
L 152.907978 55.516471 
L 154.345412 68.247136 
L 154.506398 70.956759 
L 154.855343 77.2468 
L 154.967338 87.284751 
L 169.265812 87.284751 
L 169.270387 79.87246 
L 169.379808 79.911581 
L 170.690188 80.274957 
L 172.063762 80.416498 
L 174.184028 80.375177 
L 179.4469 80.22255 
L 183.295976 80.360278 
L 187.207865 80.717212 
L 191.248522 81.301582 
L 195.994124 82.296144 
L 200.042312 83.480288 
L 205.313762 85.432829 
L 205.977722 85.884682 
L 207.011405 86.292059 
L 208.285757 86.560305 
L 210.36132 86.777536 
L 210.441193 86.783137 
L 210.441193 86.783137 
" clip-path="url(#p3efeb33354)" style="fill: none; stroke: #000000; stroke-width: 2; stroke-linecap: square"/>
   </g>
   <g id="patch_3">
    <path d="M 46.15 89.989739 
L 46.15 30.48 
" style="fill: none; stroke: #000000; stroke-width: 0.8; stroke-linejoin: miter; stroke-linecap: square"/>
   </g>
   <g id="patch_4">
    <path d="M 218.264584 89.989739 
L 218.264584 30.48 
" style="fill: none; stroke: #000000; stroke-width: 0.8; stroke-linejoin: miter; stroke-linecap: square"/>
   </g>
   <g id="patch_5">
    <path d="M 46.15 89.989739 
L 218.264584 89.989739 
" style="fill: none; stroke: #000000; stroke-width: 0.8; stroke-linejoin: miter; stroke-linecap: square"/>
   </g>
   <g id="patch_6">
    <path d="M 46.15 30.48 
L 218.264584 30.48 
" style="fill: none; stroke: #000000; stroke-width: 0.8; stroke-linejoin: miter; stroke-linecap: square"/>
   </g>
   <g id="text_3">
    <!-- O1 Flow -->
    <g transform="translate(132.207292 42.381948) scale(0.1728 -0.1728)">
     <defs>
      <path id="DejaVuSans-4f" d="M 2522 4238 
Q 1834 4238 1429 3725 
Q 1025 3213 1025 2328 
Q 1025 1447 1429 934 
Q 1834 422 2522 422 
Q 3209 422 3611 934 
Q 4013 1447 4013 2328 
Q 4013 3213 3611 3725 
Q 3209 4238 2522 4238 
z
M 2522 4750 
Q 3503 4750 4090 4092 
Q 4678 3434 4678 2328 
Q 4678 1225 4090 567 
Q 3503 -91 2522 -91 
Q 1538 -91 948 565 
Q 359 1222 359 2328 
Q 359 3434 948 4092 
Q 1538 4750 2522 4750 
z
" transform="scale(0.015625)"/>
      <path id="DejaVuSans-31" d="M 794 531 
L 1825 531 
L 1825 4091 
L 703 3866 
L 703 4441 
L 1819 4666 
L 2450 4666 
L 2450 531 
L 3481 531 
L 3481 0 
L 794 0 
L 794 531 
z
" transform="scale(0.015625)"/>
      <path id="DejaVuSans-20" transform="scale(0.015625)"/>
      <path id="DejaVuSans-46" d="M 628 4666 
L 3309 4666 
L 3309 4134 
L 1259 4134 
L 1259 2759 
L 3109 2759 
L 3109 2228 
L 1259 2228 
L 1259 0 
L 628 0 
L 628 4666 
z
" transform="scale(0.015625)"/>
      <path id="DejaVuSans-6c" d="M 603 4863 
L 1178 4863 
L 1178 0 
L 603 0 
L 603 4863 
z
" transform="scale(0.015625)"/>
      <path id="DejaVuSans-6f" d="M 1959 3097 
Q 1497 3097 1228 2736 
Q 959 2375 959 1747 
Q 959 1119 1226 758 
Q 1494 397 1959 397 
Q 2419 397 2687 759 
Q 2956 1122 2956 1747 
Q 2956 2369 2687 2733 
Q 2419 3097 1959 3097 
z
M 1959 3584 
Q 2709 3584 3137 3096 
Q 3566 2609 3566 1747 
Q 3566 888 3137 398 
Q 2709 -91 1959 -91 
Q 1206 -91 779 398 
Q 353 888 353 1747 
Q 353 2609 779 3096 
Q 1206 3584 1959 3584 
z
" transform="scale(0.015625)"/>
      <path id="DejaVuSans-77" d="M 269 3500 
L 844 3500 
L 1563 769 
L 2278 3500 
L 2956 3500 
L 3675 769 
L 4391 3500 
L 4966 3500 
L 4050 0 
L 3372 0 
L 2619 2869 
L 1863 0 
L 1184 0 
L 269 3500 
z
" transform="scale(0.015625)"/>
     </defs>
     <use xlink:href="#DejaVuSans-4f"/>
     <use xlink:href="#DejaVuSans-31" x="78.710938"/>
     <use xlink:href="#DejaVuSans-20" x="142.333984"/>
     <use xlink:href="#DejaVuSans-46" x="174.121094"/>
     <use xlink:href="#DejaVuSans-6c" x="231.640625"/>
     <use xlink:href="#DejaVuSans-6f" x="259.423828"/>
     <use xlink:href="#DejaVuSans-77" x="320.605469"/>
    </g>
   </g>
   <g id="text_4">
    <!-- Valves -->
    <g transform="translate(104.340592 24.48) scale(0.1728 -0.1728)">
     <defs>
      <path id="DejaVuSans-56" d="M 1831 0 
L 50 4666 
L 709 4666 
L 2188 738 
L 3669 4666 
L 4325 4666 
L 2547 0 
L 1831 0 
z
" transform="scale(0.015625)"/>
      <path id="DejaVuSans-61" d="M 2194 1759 
Q 1497 1759 1228 1600 
Q 959 1441 959 1056 
Q 959 750 1161 570 
Q 1363 391 1709 391 
Q 2188 391 2477 730 
Q 2766 1069 2766 1631 
L 2766 1759 
L 2194 1759 
z
M 3341 1997 
L 3341 0 
L 2766 0 
L 2766 531 
Q 2569 213 2275 61 
Q 1981 -91 1556 -91 
Q 1019 -91 701 211 
Q 384 513 384 1019 
Q 384 1609 779 1909 
Q 1175 2209 1959 2209 
L 2766 2209 
L 2766 2266 
Q 2766 2663 2505 2880 
Q 2244 3097 1772 3097 
Q 1472 3097 1187 3025 
Q 903 2953 641 2809 
L 641 3341 
Q 956 3463 1253 3523 
Q 1550 3584 1831 3584 
Q 2591 3584 2966 3190 
Q 3341 2797 3341 1997 
z
" transform="scale(0.015625)"/>
      <path id="DejaVuSans-76" d="M 191 3500 
L 800 3500 
L 1894 563 
L 2988 3500 
L 3597 3500 
L 2284 0 
L 1503 0 
L 191 3500 
z
" transform="scale(0.015625)"/>
      <path id="DejaVuSans-65" d="M 3597 1894 
L 3597 1613 
L 953 1613 
Q 991 1019 1311 708 
Q 1631 397 2203 397 
Q 2534 397 2845 478 
Q 3156 559 3463 722 
L 3463 178 
Q 3153 47 2828 -22 
Q 2503 -91 2169 -91 
Q 1331 -91 842 396 
Q 353 884 353 1716 
Q 353 2575 817 3079 
Q 1281 3584 2069 3584 
Q 2775 3584 3186 3129 
Q 3597 2675 3597 1894 
z
M 3022 2063 
Q 3016 2534 2758 2815 
Q 2500 3097 2075 3097 
Q 1594 3097 1305 2825 
Q 1016 2553 972 2059 
L 3022 2063 
z
" transform="scale(0.015625)"/>
      <path id="DejaVuSans-73" d="M 2834 3397 
L 2834 2853 
Q 2591 2978 2328 3040 
Q 2066 3103 1784 3103 
Q 1356 3103 1142 2972 
Q 928 2841 928 2578 
Q 928 2378 1081 2264 
Q 1234 2150 1697 2047 
L 1894 2003 
Q 2506 1872 2764 1633 
Q 3022 1394 3022 966 
Q 3022 478 2636 193 
Q 2250 -91 1575 -91 
Q 1294 -91 989 -36 
Q 684 19 347 128 
L 347 722 
Q 666 556 975 473 
Q 1284 391 1588 391 
Q 1994 391 2212 530 
Q 2431 669 2431 922 
Q 2431 1156 2273 1281 
Q 2116 1406 1581 1522 
L 1381 1569 
Q 847 1681 609 1914 
Q 372 2147 372 2553 
Q 372 3047 722 3315 
Q 1072 3584 1716 3584 
Q 2034 3584 2315 3537 
Q 2597 3491 2834 3397 
z
" transform="scale(0.015625)"/>
     </defs>
     <use xlink:href="#DejaVuSans-56"/>
     <use xlink:href="#DejaVuSans-61" x="60.658203"/>
     <use xlink:href="#DejaVuSans-6c" x="121.9375"/>
     <use xlink:href="#DejaVuSans-76" x="149.720703"/>
     <use xlink:href="#DejaVuSans-65" x="208.900391"/>
     <use xlink:href="#DejaVuSans-73" x="270.423828"/>
    </g>
   </g>
  </g>
  <g id="axes_2">
   <g id="patch_7">
    <path d="M 264.185789 89.989739 
L 436.300372 89.989739 
L 436.300372 30.48 
L 264.185789 30.48 
z
" style="fill: #ffffff"/>
   </g>
   <g id="matplotlib.axis_3"/>
   <g id="matplotlib.axis_4">
    <g id="ytick_3">
     <g id="line2d_4">
      <g>
       <use xlink:href="#m77da69547b" x="264.185789" y="87.284751" style="stroke: #000000; stroke-width: 0.8"/>
      </g>
     </g>
     <g id="text_5">
      <!-- 0 -->
      <g transform="translate(250.823289 91.08397) scale(0.1 -0.1)">
       <use xlink:href="#DejaVuSans-30"/>
      </g>
     </g>
    </g>
    <g id="ytick_4">
     <g id="line2d_5">
      <g>
       <use xlink:href="#m77da69547b" x="264.185789" y="36.598233" style="stroke: #000000; stroke-width: 0.8"/>
      </g>
     </g>
     <g id="text_6">
      <!-- 1 -->
      <g transform="translate(250.823289 40.397452) scale(0.1 -0.1)">
       <use xlink:href="#DejaVuSans-31"/>
      </g>
     </g>
    </g>
   </g>
   <g id="line2d_6">
    <path d="M 272.009179 87.284751 
L 272.026812 86.38806 
L 272.068369 64.532715 
L 272.205812 39.522453 
L 272.401778 38.236858 
L 272.81487 37.398086 
L 273.524485 36.528682 
L 274.441408 35.776256 
L 275.569453 35.153004 
L 276.965044 34.639425 
L 278.857795 34.189694 
L 281.565197 33.797526 
L 285.435242 33.481099 
L 292.59849 33.184988 
L 292.714106 35.146996 
L 294.087966 57.066245 
L 294.737533 64.637086 
L 305.129457 64.472559 
L 309.083855 64.539605 
L 310.040715 75.023499 
L 310.877193 82.033479 
L 311.194875 83.305161 
L 313.217825 83.390754 
L 313.663896 84.717122 
L 314.161436 85.539273 
L 314.750478 86.091193 
L 315.350958 86.376942 
L 321.844338 86.208861 
L 322.099685 85.849139 
L 322.409361 84.967797 
L 322.811492 83.038183 
L 323.463346 78.420709 
L 324.089752 74.529788 
L 324.690041 72.316759 
L 325.291188 70.844595 
L 326.041216 69.588713 
L 326.882364 68.633657 
L 327.853998 67.878305 
L 329.124251 67.213742 
L 330.530518 66.723628 
L 332.375135 66.300964 
L 335.008001 65.917648 
L 339.164942 65.57304 
L 346.128221 65.270845 
L 346.244409 66.639701 
L 347.173056 76.374531 
L 347.934331 82.407843 
L 348.254301 83.553749 
L 357.61073 83.367357 
L 367.159027 83.12716 
L 367.425812 82.72514 
L 367.730913 81.840163 
L 368.147722 79.853474 
L 368.886408 74.668202 
L 369.422074 71.598715 
L 370.0501 69.358563 
L 370.739031 67.749278 
L 370.832439 67.576355 
L 370.852551 67.76183 
L 372.034447 78.089895 
L 372.759694 82.701532 
L 372.89361 83.199857 
L 372.976915 83.12963 
L 374.002782 82.419664 
L 375.387603 81.487618 
L 375.70357 80.63758 
L 376.178045 78.548162 
L 376.780049 74.825749 
L 377.526265 70.331992 
L 378.119215 68.179302 
L 378.825208 66.494195 
L 379.558556 65.324085 
L 380.484629 64.329526 
L 381.476183 63.610571 
L 382.598223 63.047975 
L 384.129447 62.528988 
L 386.19443 62.07919 
L 387.337439 61.990196 
L 388.182972 63.795568 
L 388.826438 64.711062 
L 389.411001 65.21789 
L 390.077343 65.496038 
L 390.799253 65.543621 
L 391.771935 65.366334 
L 396.047638 64.293589 
L 397.54207 64.255939 
L 399.043937 64.443242 
L 400.592794 64.864386 
L 402.228863 65.544912 
L 403.968539 66.51236 
L 405.533027 67.576733 
L 407.757758 69.366511 
L 410.863192 72.299684 
L 413.086302 74.691415 
L 416.526575 78.792929 
L 419.441762 82.085897 
L 421.32927 83.896857 
L 423.023767 85.215125 
L 423.983772 85.726854 
L 425.139077 86.076697 
L 426.991033 86.371794 
L 428.476982 86.504729 
L 428.476982 86.504729 
" clip-path="url(#p7a7d40e295)" style="fill: none; stroke: #000000; stroke-width: 2; stroke-linecap: square"/>
   </g>
   <g id="patch_8">
    <path d="M 264.185789 89.989739 
L 264.185789 30.48 
" style="fill: none; stroke: #000000; stroke-width: 0.8; stroke-linejoin: miter; stroke-linecap: square"/>
   </g>
   <g id="patch_9">
    <path d="M 436.300372 89.989739 
L 436.300372 30.48 
" style="fill: none; stroke: #000000; stroke-width: 0.8; stroke-linejoin: miter; stroke-linecap: square"/>
   </g>
   <g id="patch_10">
    <path d="M 264.185789 89.989739 
L 436.300372 89.989739 
" style="fill: none; stroke: #000000; stroke-width: 0.8; stroke-linejoin: miter; stroke-linecap: square"/>
   </g>
   <g id="patch_11">
    <path d="M 264.185789 30.48 
L 436.300372 30.48 
" style="fill: none; stroke: #000000; stroke-width: 0.8; stroke-linejoin: miter; stroke-linecap: square"/>
   </g>
   <g id="text_7">
    <!-- 1 Depth -->
    <g transform="translate(350.243081 42.381948) scale(0.1728 -0.1728)">
     <defs>
      <path id="DejaVuSans-44" d="M 1259 4147 
L 1259 519 
L 2022 519 
Q 2988 519 3436 956 
Q 3884 1394 3884 2338 
Q 3884 3275 3436 3711 
Q 2988 4147 2022 4147 
L 1259 4147 
z
M 628 4666 
L 1925 4666 
Q 3281 4666 3915 4102 
Q 4550 3538 4550 2338 
Q 4550 1131 3912 565 
Q 3275 0 1925 0 
L 628 0 
L 628 4666 
z
" transform="scale(0.015625)"/>
      <path id="DejaVuSans-70" d="M 1159 525 
L 1159 -1331 
L 581 -1331 
L 581 3500 
L 1159 3500 
L 1159 2969 
Q 1341 3281 1617 3432 
Q 1894 3584 2278 3584 
Q 2916 3584 3314 3078 
Q 3713 2572 3713 1747 
Q 3713 922 3314 415 
Q 2916 -91 2278 -91 
Q 1894 -91 1617 61 
Q 1341 213 1159 525 
z
M 3116 1747 
Q 3116 2381 2855 2742 
Q 2594 3103 2138 3103 
Q 1681 3103 1420 2742 
Q 1159 2381 1159 1747 
Q 1159 1113 1420 752 
Q 1681 391 2138 391 
Q 2594 391 2855 752 
Q 3116 1113 3116 1747 
z
" transform="scale(0.015625)"/>
      <path id="DejaVuSans-74" d="M 1172 4494 
L 1172 3500 
L 2356 3500 
L 2356 3053 
L 1172 3053 
L 1172 1153 
Q 1172 725 1289 603 
Q 1406 481 1766 481 
L 2356 481 
L 2356 0 
L 1766 0 
Q 1100 0 847 248 
Q 594 497 594 1153 
L 594 3053 
L 172 3053 
L 172 3500 
L 594 3500 
L 594 4494 
L 1172 4494 
z
" transform="scale(0.015625)"/>
      <path id="DejaVuSans-68" d="M 3513 2113 
L 3513 0 
L 2938 0 
L 2938 2094 
Q 2938 2591 2744 2837 
Q 2550 3084 2163 3084 
Q 1697 3084 1428 2787 
Q 1159 2491 1159 1978 
L 1159 0 
L 581 0 
L 581 4863 
L 1159 4863 
L 1159 2956 
Q 1366 3272 1645 3428 
Q 1925 3584 2291 3584 
Q 2894 3584 3203 3211 
Q 3513 2838 3513 2113 
z
" transform="scale(0.015625)"/>
     </defs>
     <use xlink:href="#DejaVuSans-31"/>
     <use xlink:href="#DejaVuSans-20" x="63.623047"/>
     <use xlink:href="#DejaVuSans-44" x="95.410156"/>
     <use xlink:href="#DejaVuSans-65" x="172.412109"/>
     <use xlink:href="#DejaVuSans-70" x="233.935547"/>
     <use xlink:href="#DejaVuSans-74" x="297.412109"/>
     <use xlink:href="#DejaVuSans-68" x="336.621094"/>
    </g>
   </g>
   <g id="text_8">
    <!-- Storage Nodes -->
    <g transform="translate(286.637831 24.48) scale(0.1728 -0.1728)">
     <defs>
      <path id="DejaVuSans-53" d="M 3425 4513 
L 3425 3897 
Q 3066 4069 2747 4153 
Q 2428 4238 2131 4238 
Q 1616 4238 1336 4038 
Q 1056 3838 1056 3469 
Q 1056 3159 1242 3001 
Q 1428 2844 1947 2747 
L 2328 2669 
Q 3034 2534 3370 2195 
Q 3706 1856 3706 1288 
Q 3706 609 3251 259 
Q 2797 -91 1919 -91 
Q 1588 -91 1214 -16 
Q 841 59 441 206 
L 441 856 
Q 825 641 1194 531 
Q 1563 422 1919 422 
Q 2459 422 2753 634 
Q 3047 847 3047 1241 
Q 3047 1584 2836 1778 
Q 2625 1972 2144 2069 
L 1759 2144 
Q 1053 2284 737 2584 
Q 422 2884 422 3419 
Q 422 4038 858 4394 
Q 1294 4750 2059 4750 
Q 2388 4750 2728 4690 
Q 3069 4631 3425 4513 
z
" transform="scale(0.015625)"/>
      <path id="DejaVuSans-72" d="M 2631 2963 
Q 2534 3019 2420 3045 
Q 2306 3072 2169 3072 
Q 1681 3072 1420 2755 
Q 1159 2438 1159 1844 
L 1159 0 
L 581 0 
L 581 3500 
L 1159 3500 
L 1159 2956 
Q 1341 3275 1631 3429 
Q 1922 3584 2338 3584 
Q 2397 3584 2469 3576 
Q 2541 3569 2628 3553 
L 2631 2963 
z
" transform="scale(0.015625)"/>
      <path id="DejaVuSans-67" d="M 2906 1791 
Q 2906 2416 2648 2759 
Q 2391 3103 1925 3103 
Q 1463 3103 1205 2759 
Q 947 2416 947 1791 
Q 947 1169 1205 825 
Q 1463 481 1925 481 
Q 2391 481 2648 825 
Q 2906 1169 2906 1791 
z
M 3481 434 
Q 3481 -459 3084 -895 
Q 2688 -1331 1869 -1331 
Q 1566 -1331 1297 -1286 
Q 1028 -1241 775 -1147 
L 775 -588 
Q 1028 -725 1275 -790 
Q 1522 -856 1778 -856 
Q 2344 -856 2625 -561 
Q 2906 -266 2906 331 
L 2906 616 
Q 2728 306 2450 153 
Q 2172 0 1784 0 
Q 1141 0 747 490 
Q 353 981 353 1791 
Q 353 2603 747 3093 
Q 1141 3584 1784 3584 
Q 2172 3584 2450 3431 
Q 2728 3278 2906 2969 
L 2906 3500 
L 3481 3500 
L 3481 434 
z
" transform="scale(0.015625)"/>
      <path id="DejaVuSans-4e" d="M 628 4666 
L 1478 4666 
L 3547 763 
L 3547 4666 
L 4159 4666 
L 4159 0 
L 3309 0 
L 1241 3903 
L 1241 0 
L 628 0 
L 628 4666 
z
" transform="scale(0.015625)"/>
      <path id="DejaVuSans-64" d="M 2906 2969 
L 2906 4863 
L 3481 4863 
L 3481 0 
L 2906 0 
L 2906 525 
Q 2725 213 2448 61 
Q 2172 -91 1784 -91 
Q 1150 -91 751 415 
Q 353 922 353 1747 
Q 353 2572 751 3078 
Q 1150 3584 1784 3584 
Q 2172 3584 2448 3432 
Q 2725 3281 2906 2969 
z
M 947 1747 
Q 947 1113 1208 752 
Q 1469 391 1925 391 
Q 2381 391 2643 752 
Q 2906 1113 2906 1747 
Q 2906 2381 2643 2742 
Q 2381 3103 1925 3103 
Q 1469 3103 1208 2742 
Q 947 2381 947 1747 
z
" transform="scale(0.015625)"/>
     </defs>
     <use xlink:href="#DejaVuSans-53"/>
     <use xlink:href="#DejaVuSans-74" x="63.476562"/>
     <use xlink:href="#DejaVuSans-6f" x="102.685547"/>
     <use xlink:href="#DejaVuSans-72" x="163.867188"/>
     <use xlink:href="#DejaVuSans-61" x="204.980469"/>
     <use xlink:href="#DejaVuSans-67" x="266.259766"/>
     <use xlink:href="#DejaVuSans-65" x="329.736328"/>
     <use xlink:href="#DejaVuSans-20" x="391.259766"/>
     <use xlink:href="#DejaVuSans-4e" x="423.046875"/>
     <use xlink:href="#DejaVuSans-6f" x="497.851562"/>
     <use xlink:href="#DejaVuSans-64" x="559.033203"/>
     <use xlink:href="#DejaVuSans-65" x="622.509766"/>
     <use xlink:href="#DejaVuSans-73" x="684.033203"/>
    </g>
   </g>
  </g>
  <g id="axes_3">
   <g id="patch_12">
    <path d="M 46.15 165.899826 
L 218.264584 165.899826 
L 218.264584 106.390087 
L 46.15 106.390087 
z
" style="fill: #ffffff"/>
   </g>
   <g id="matplotlib.axis_5"/>
   <g id="matplotlib.axis_6">
    <g id="ytick_5">
     <g id="line2d_7">
      <g>
       <use xlink:href="#m77da69547b" x="46.15" y="163.194838" style="stroke: #000000; stroke-width: 0.8"/>
      </g>
     </g>
     <g id="text_9">
      <!-- 0.0 -->
      <g transform="translate(23.246875 166.994057) scale(0.1 -0.1)">
       <use xlink:href="#DejaVuSans-30"/>
       <use xlink:href="#DejaVuSans-2e" x="63.623047"/>
       <use xlink:href="#DejaVuSans-30" x="95.410156"/>
      </g>
     </g>
    </g>
    <g id="ytick_6">
     <g id="line2d_8">
      <g>
       <use xlink:href="#m77da69547b" x="46.15" y="132.785133" style="stroke: #000000; stroke-width: 0.8"/>
      </g>
     </g>
     <g id="text_10">
      <!-- 0.1 -->
      <g transform="translate(23.246875 136.584352) scale(0.1 -0.1)">
       <use xlink:href="#DejaVuSans-30"/>
       <use xlink:href="#DejaVuSans-2e" x="63.623047"/>
       <use xlink:href="#DejaVuSans-31" x="95.410156"/>
      </g>
     </g>
    </g>
   </g>
   <g id="line2d_9">
    <path d="M 53.97339 163.194838 
L 103.385545 163.194838 
L 103.391263 110.702916 
L 103.499922 115.703926 
L 104.344883 119.182812 
L 104.35165 119.083336 
L 104.381769 118.134399 
L 104.475749 118.331763 
L 104.968524 119.755035 
L 105.44338 121.563665 
L 105.555374 163.194838 
L 148.681171 163.194838 
L 148.68689 109.095075 
L 148.796978 113.889285 
L 149.806451 118.005282 
L 149.833711 118.109377 
L 149.844291 117.709505 
L 149.869645 117.037798 
L 149.961337 117.251264 
L 150.468504 118.851886 
L 150.73729 119.871019 
L 150.848332 163.194838 
L 156.91518 163.194838 
L 156.918421 116.007561 
L 157.02746 122.552932 
L 157.127635 122.976134 
L 157.138883 122.693474 
L 157.169955 121.987193 
L 157.258693 122.105672 
L 157.61126 122.911919 
L 158.25587 124.985303 
L 158.971966 127.850363 
L 159.083103 163.194838 
L 169.265812 163.194838 
L 169.270387 148.839178 
L 169.379808 149.643082 
L 170.447518 149.528382 
L 171.515229 149.67027 
L 173.073998 150.157997 
L 176.115572 151.555031 
L 180.23229 153.57727 
L 185.075017 155.999342 
L 193.323228 159.94464 
L 193.429884 160.283832 
L 193.330281 159.927471 
L 193.432267 160.250765 
L 193.434555 159.934968 
L 193.470298 160.289768 
L 193.541688 160.254525 
L 193.565517 160.268121 
L 193.668265 160.588111 
L 193.579909 160.242024 
L 193.675509 160.567247 
L 193.70906 160.244846 
L 193.701721 160.587526 
L 193.785883 160.579862 
L 194.967208 161.179731 
L 196.323149 161.651755 
L 197.90651 162.026335 
L 200.08892 162.360917 
L 202.905076 162.621677 
L 207.306879 162.841949 
L 210.441193 162.929562 
L 210.441193 162.929562 
" clip-path="url(#p486a3ddcb1)" style="fill: none; stroke: #000000; stroke-width: 2; stroke-linecap: square"/>
   </g>
   <g id="patch_13">
    <path d="M 46.15 165.899826 
L 46.15 106.390087 
" style="fill: none; stroke: #000000; stroke-width: 0.8; stroke-linejoin: miter; stroke-linecap: square"/>
   </g>
   <g id="patch_14">
    <path d="M 218.264584 165.899826 
L 218.264584 106.390087 
" style="fill: none; stroke: #000000; stroke-width: 0.8; stroke-linejoin: miter; stroke-linecap: square"/>
   </g>
   <g id="patch_15">
    <path d="M 46.15 165.899826 
L 218.264584 165.899826 
" style="fill: none; stroke: #000000; stroke-width: 0.8; stroke-linejoin: miter; stroke-linecap: square"/>
   </g>
   <g id="patch_16">
    <path d="M 46.15 106.390087 
L 218.264584 106.390087 
" style="fill: none; stroke: #000000; stroke-width: 0.8; stroke-linejoin: miter; stroke-linecap: square"/>
   </g>
   <g id="text_11">
    <!-- O4 Flow -->
    <g transform="translate(132.207292 118.292035) scale(0.1728 -0.1728)">
     <defs>
      <path id="DejaVuSans-34" d="M 2419 4116 
L 825 1625 
L 2419 1625 
L 2419 4116 
z
M 2253 4666 
L 3047 4666 
L 3047 1625 
L 3713 1625 
L 3713 1100 
L 3047 1100 
L 3047 0 
L 2419 0 
L 2419 1100 
L 313 1100 
L 313 1709 
L 2253 4666 
z
" transform="scale(0.015625)"/>
     </defs>
     <use xlink:href="#DejaVuSans-4f"/>
     <use xlink:href="#DejaVuSans-34" x="78.710938"/>
     <use xlink:href="#DejaVuSans-20" x="142.333984"/>
     <use xlink:href="#DejaVuSans-46" x="174.121094"/>
     <use xlink:href="#DejaVuSans-6c" x="231.640625"/>
     <use xlink:href="#DejaVuSans-6f" x="259.423828"/>
     <use xlink:href="#DejaVuSans-77" x="320.605469"/>
    </g>
   </g>
  </g>
  <g id="axes_4">
   <g id="patch_17">
    <path d="M 264.185789 165.899826 
L 436.300372 165.899826 
L 436.300372 106.390087 
L 264.185789 106.390087 
z
" style="fill: #ffffff"/>
   </g>
   <g id="matplotlib.axis_7"/>
   <g id="matplotlib.axis_8">
    <g id="ytick_7">
     <g id="line2d_10">
      <g>
       <use xlink:href="#m77da69547b" x="264.185789" y="163.194838" style="stroke: #000000; stroke-width: 0.8"/>
      </g>
     </g>
     <g id="text_12">
      <!-- 0 -->
      <g transform="translate(250.823289 166.994057) scale(0.1 -0.1)">
       <use xlink:href="#DejaVuSans-30"/>
      </g>
     </g>
    </g>
    <g id="ytick_8">
     <g id="line2d_11">
      <g>
       <use xlink:href="#m77da69547b" x="264.185789" y="122.928467" style="stroke: #000000; stroke-width: 0.8"/>
      </g>
     </g>
     <g id="text_13">
      <!-- 1 -->
      <g transform="translate(250.823289 126.727686) scale(0.1 -0.1)">
       <use xlink:href="#DejaVuSans-31"/>
      </g>
     </g>
    </g>
   </g>
   <g id="line2d_12">
    <path d="M 272.009179 163.194838 
L 272.026812 162.588962 
L 272.067892 148.383605 
L 272.214676 129.531707 
L 272.51158 125.601765 
L 272.696109 125.065717 
L 273.042862 124.989423 
L 274.762522 124.94809 
L 284.669201 124.776544 
L 286.712739 123.21361 
L 288.618929 123.000102 
L 290.630441 119.83154 
L 293.524373 119.828265 
L 296.969126 119.718406 
L 299.054506 118.207184 
L 301.24521 117.97128 
L 303.102694 116.658078 
L 304.364083 116.640418 
L 305.043674 116.530352 
L 307.094551 113.539254 
L 309.842652 113.535898 
L 317.579882 113.425813 
L 319.584437 112.107413 
L 321.18686 112.091104 
L 321.437537 112.183438 
L 323.512052 125.081887 
L 325.812271 124.970706 
L 327.936921 123.649068 
L 330.051564 123.457949 
L 331.895227 122.342986 
L 333.023844 122.323342 
L 334.087932 122.210958 
L 336.0088 121.201683 
L 337.270094 121.182605 
L 338.260695 121.070669 
L 340.111126 120.317914 
L 341.469164 120.299361 
L 342.10043 120.189449 
L 344.148925 117.298331 
L 346.499374 117.294645 
L 350.346258 117.183649 
L 352.383315 114.525422 
L 354.545423 114.315375 
L 356.501272 111.986053 
L 358.674437 111.781878 
L 360.610842 109.69025 
L 363.557673 109.428624 
L 365.012455 109.10255 
L 366.72897 109.159979 
L 368.782039 122.358332 
L 374.968602 122.460492 
L 377.041306 134.258639 
L 379.178728 134.148833 
L 381.202917 131.948717 
L 383.404963 131.738327 
L 385.304862 129.952306 
L 387.107827 129.948433 
L 388.417349 130.059527 
L 389.114383 130.523722 
L 390.049606 131.474474 
L 390.996649 132.793866 
L 392.441327 135.361904 
L 394.885471 139.783409 
L 398.200692 145.29962 
L 401.238453 149.719206 
L 403.199353 152.217907 
L 405.409691 154.683568 
L 407.587526 156.740157 
L 409.804441 158.451311 
L 411.560702 159.533701 
L 412.964967 160.121886 
L 414.970474 160.713272 
L 417.598574 161.230911 
L 420.930285 161.655034 
L 425.97584 162.046539 
L 428.476982 162.17834 
L 428.476982 162.17834 
" clip-path="url(#pac2ed96bf4)" style="fill: none; stroke: #000000; stroke-width: 2; stroke-linecap: square"/>
   </g>
   <g id="patch_18">
    <path d="M 264.185789 165.899826 
L 264.185789 106.390087 
" style="fill: none; stroke: #000000; stroke-width: 0.8; stroke-linejoin: miter; stroke-linecap: square"/>
   </g>
   <g id="patch_19">
    <path d="M 436.300372 165.899826 
L 436.300372 106.390087 
" style="fill: none; stroke: #000000; stroke-width: 0.8; stroke-linejoin: miter; stroke-linecap: square"/>
   </g>
   <g id="patch_20">
    <path d="M 264.185789 165.899826 
L 436.300372 165.899826 
" style="fill: none; stroke: #000000; stroke-width: 0.8; stroke-linejoin: miter; stroke-linecap: square"/>
   </g>
   <g id="patch_21">
    <path d="M 264.185789 106.390087 
L 436.300372 106.390087 
" style="fill: none; stroke: #000000; stroke-width: 0.8; stroke-linejoin: miter; stroke-linecap: square"/>
   </g>
   <g id="text_14">
    <!-- 4 Depth -->
    <g transform="translate(350.243081 118.292035) scale(0.1728 -0.1728)">
     <use xlink:href="#DejaVuSans-34"/>
     <use xlink:href="#DejaVuSans-20" x="63.623047"/>
     <use xlink:href="#DejaVuSans-44" x="95.410156"/>
     <use xlink:href="#DejaVuSans-65" x="172.412109"/>
     <use xlink:href="#DejaVuSans-70" x="233.935547"/>
     <use xlink:href="#DejaVuSans-74" x="297.412109"/>
     <use xlink:href="#DejaVuSans-68" x="336.621094"/>
    </g>
   </g>
  </g>
  <g id="axes_5">
   <g id="patch_22">
    <path d="M 46.15 241.809913 
L 218.264584 241.809913 
L 218.264584 182.300174 
L 46.15 182.300174 
z
" style="fill: #ffffff"/>
   </g>
   <g id="matplotlib.axis_9"/>
   <g id="matplotlib.axis_10">
    <g id="ytick_9">
     <g id="line2d_13">
      <g>
       <use xlink:href="#m77da69547b" x="46.15" y="239.104925" style="stroke: #000000; stroke-width: 0.8"/>
      </g>
     </g>
     <g id="text_15">
      <!-- 0.00 -->
      <g transform="translate(16.884375 242.904144) scale(0.1 -0.1)">
       <use xlink:href="#DejaVuSans-30"/>
       <use xlink:href="#DejaVuSans-2e" x="63.623047"/>
       <use xlink:href="#DejaVuSans-30" x="95.410156"/>
       <use xlink:href="#DejaVuSans-30" x="159.033203"/>
      </g>
     </g>
    </g>
    <g id="ytick_10">
     <g id="line2d_14">
      <g>
       <use xlink:href="#m77da69547b" x="46.15" y="193.437317" style="stroke: #000000; stroke-width: 0.8"/>
      </g>
     </g>
     <g id="text_16">
      <!-- 0.02 -->
      <g transform="translate(16.884375 197.236536) scale(0.1 -0.1)">
       <use xlink:href="#DejaVuSans-30"/>
       <use xlink:href="#DejaVuSans-2e" x="63.623047"/>
       <use xlink:href="#DejaVuSans-30" x="95.410156"/>
       <use xlink:href="#DejaVuSans-32" x="159.033203"/>
      </g>
     </g>
    </g>
   </g>
   <g id="line2d_15">
    <path d="M 53.97339 239.104925 
L 66.328216 239.104925 
L 66.333554 193.818993 
L 66.443737 194.821903 
L 66.601387 194.862576 
L 68.106208 195.938082 
L 68.386051 196.144795 
L 68.497664 239.104925 
L 78.680659 239.104925 
L 78.686378 195.289129 
L 78.794655 196.308893 
L 78.951923 196.351832 
L 80.259635 197.366142 
L 80.739161 197.758326 
L 80.851918 239.104925 
L 82.801952 239.104925 
L 82.807671 196.88929 
L 82.918236 197.932357 
L 83.074265 197.98999 
L 84.418101 199.165789 
L 84.856737 199.574821 
L 84.967588 239.104925 
L 99.271018 239.104925 
L 99.276737 198.692691 
L 99.385777 199.768844 
L 99.532275 199.830127 
L 100.553948 200.849766 
L 101.325613 201.686749 
L 101.437893 239.104925 
L 107.502644 239.104925 
L 107.504551 200.602239 
L 107.614448 201.905949 
L 107.759707 201.987697 
L 108.49906 202.866358 
L 109.562576 204.272243 
L 109.675142 239.104925 
L 111.620506 239.104925 
L 111.623747 203.222365 
L 111.734026 204.527656 
L 111.875567 204.645288 
L 112.751315 205.988796 
L 113.679104 207.654145 
L 113.792242 239.104925 
L 115.737606 239.104925 
L 115.7418 206.615952 
L 115.850458 207.983968 
L 116.00401 208.202349 
L 116.673974 209.731274 
L 117.543716 212.337888 
L 117.797538 213.16675 
L 117.908103 239.104925 
L 119.857565 239.104925 
L 119.862998 212.089882 
L 119.971085 213.661175 
L 120.20613 214.303696 
L 121.913494 219.82806 
L 122.026156 239.104925 
L 144.562737 239.104925 
L 144.568456 218.628577 
L 144.676256 220.357773 
L 144.906631 220.934488 
L 146.621335 226.3144 
L 146.734187 239.104925 
L 169.265812 239.104925 
L 169.270387 185.005162 
L 169.379808 202.052454 
L 169.655171 211.703493 
L 169.76259 218.258247 
L 169.7807 217.977593 
L 169.806911 217.834722 
L 169.89622 223.475698 
L 170.21009 230.059355 
L 170.603262 233.844612 
L 171.050095 235.88189 
L 171.530669 237.010659 
L 172.039743 237.671353 
L 172.702749 238.158922 
L 173.535605 238.480486 
L 175.01717 238.762729 
L 177.174799 238.922564 
L 182.506107 239.044161 
L 200.672339 239.092092 
L 210.441193 239.096233 
L 210.441193 239.096233 
" clip-path="url(#pa6db21b59d)" style="fill: none; stroke: #000000; stroke-width: 2; stroke-linecap: square"/>
   </g>
   <g id="patch_23">
    <path d="M 46.15 241.809913 
L 46.15 182.300174 
" style="fill: none; stroke: #000000; stroke-width: 0.8; stroke-linejoin: miter; stroke-linecap: square"/>
   </g>
   <g id="patch_24">
    <path d="M 218.264584 241.809913 
L 218.264584 182.300174 
" style="fill: none; stroke: #000000; stroke-width: 0.8; stroke-linejoin: miter; stroke-linecap: square"/>
   </g>
   <g id="patch_25">
    <path d="M 46.15 241.809913 
L 218.264584 241.809913 
" style="fill: none; stroke: #000000; stroke-width: 0.8; stroke-linejoin: miter; stroke-linecap: square"/>
   </g>
   <g id="patch_26">
    <path d="M 46.15 182.300174 
L 218.264584 182.300174 
" style="fill: none; stroke: #000000; stroke-width: 0.8; stroke-linejoin: miter; stroke-linecap: square"/>
   </g>
   <g id="text_17">
    <!-- O6 Flow -->
    <g transform="translate(132.207292 194.202122) scale(0.1728 -0.1728)">
     <defs>
      <path id="DejaVuSans-36" d="M 2113 2584 
Q 1688 2584 1439 2293 
Q 1191 2003 1191 1497 
Q 1191 994 1439 701 
Q 1688 409 2113 409 
Q 2538 409 2786 701 
Q 3034 994 3034 1497 
Q 3034 2003 2786 2293 
Q 2538 2584 2113 2584 
z
M 3366 4563 
L 3366 3988 
Q 3128 4100 2886 4159 
Q 2644 4219 2406 4219 
Q 1781 4219 1451 3797 
Q 1122 3375 1075 2522 
Q 1259 2794 1537 2939 
Q 1816 3084 2150 3084 
Q 2853 3084 3261 2657 
Q 3669 2231 3669 1497 
Q 3669 778 3244 343 
Q 2819 -91 2113 -91 
Q 1303 -91 875 529 
Q 447 1150 447 2328 
Q 447 3434 972 4092 
Q 1497 4750 2381 4750 
Q 2619 4750 2861 4703 
Q 3103 4656 3366 4563 
z
" transform="scale(0.015625)"/>
     </defs>
     <use xlink:href="#DejaVuSans-4f"/>
     <use xlink:href="#DejaVuSans-36" x="78.710938"/>
     <use xlink:href="#DejaVuSans-20" x="142.333984"/>
     <use xlink:href="#DejaVuSans-46" x="174.121094"/>
     <use xlink:href="#DejaVuSans-6c" x="231.640625"/>
     <use xlink:href="#DejaVuSans-6f" x="259.423828"/>
     <use xlink:href="#DejaVuSans-77" x="320.605469"/>
    </g>
   </g>
  </g>
  <g id="axes_6">
   <g id="patch_27">
    <path d="M 264.185789 241.809913 
L 436.300372 241.809913 
L 436.300372 182.300174 
L 264.185789 182.300174 
z
" style="fill: #ffffff"/>
   </g>
   <g id="matplotlib.axis_11"/>
   <g id="matplotlib.axis_12">
    <g id="ytick_11">
     <g id="line2d_16">
      <g>
       <use xlink:href="#m77da69547b" x="264.185789" y="239.104925" style="stroke: #000000; stroke-width: 0.8"/>
      </g>
     </g>
     <g id="text_18">
      <!-- 0 -->
      <g transform="translate(250.823289 242.904144) scale(0.1 -0.1)">
       <use xlink:href="#DejaVuSans-30"/>
      </g>
     </g>
    </g>
    <g id="ytick_12">
     <g id="line2d_17">
      <g>
       <use xlink:href="#m77da69547b" x="264.185789" y="190.678012" style="stroke: #000000; stroke-width: 0.8"/>
      </g>
     </g>
     <g id="text_19">
      <!-- 2 -->
      <g transform="translate(250.823289 194.477231) scale(0.1 -0.1)">
       <use xlink:href="#DejaVuSans-32"/>
      </g>
     </g>
    </g>
   </g>
   <g id="line2d_18">
    <path d="M 272.009179 239.104925 
L 272.029862 237.475204 
L 272.347449 192.335587 
L 272.609373 186.178687 
L 272.834029 185.032722 
L 273.757052 185.010642 
L 284.400891 185.061937 
L 286.551658 188.408905 
L 296.783072 188.516803 
L 298.980543 191.99533 
L 300.900172 192.103914 
L 303.14406 195.872137 
L 317.364186 195.980721 
L 319.556891 200.165709 
L 325.586948 200.272616 
L 327.094343 203.825512 
L 327.731996 205.10878 
L 329.699759 205.218713 
L 331.280927 209.671694 
L 331.846617 211.055516 
L 333.804944 211.154612 
L 334.859978 215.022178 
L 336.033582 219.490774 
L 337.917278 219.58976 
L 339.110803 224.574198 
L 340.02134 227.599842 
L 362.632839 227.709722 
L 363.744585 231.080204 
L 364.672183 233.332146 
L 387.313706 233.420065 
L 387.675709 235.582557 
L 388.05363 236.834075 
L 388.476635 237.497409 
L 389.016209 237.945473 
L 389.810367 238.288041 
L 391.007229 238.540474 
L 393.175533 238.741718 
L 397.428741 238.88718 
L 407.630513 238.983254 
L 428.476982 239.037216 
L 428.476982 239.037216 
" clip-path="url(#pd93903a6a4)" style="fill: none; stroke: #000000; stroke-width: 2; stroke-linecap: square"/>
   </g>
   <g id="patch_28">
    <path d="M 264.185789 241.809913 
L 264.185789 182.300174 
" style="fill: none; stroke: #000000; stroke-width: 0.8; stroke-linejoin: miter; stroke-linecap: square"/>
   </g>
   <g id="patch_29">
    <path d="M 436.300372 241.809913 
L 436.300372 182.300174 
" style="fill: none; stroke: #000000; stroke-width: 0.8; stroke-linejoin: miter; stroke-linecap: square"/>
   </g>
   <g id="patch_30">
    <path d="M 264.185789 241.809913 
L 436.300372 241.809913 
" style="fill: none; stroke: #000000; stroke-width: 0.8; stroke-linejoin: miter; stroke-linecap: square"/>
   </g>
   <g id="patch_31">
    <path d="M 264.185789 182.300174 
L 436.300372 182.300174 
" style="fill: none; stroke: #000000; stroke-width: 0.8; stroke-linejoin: miter; stroke-linecap: square"/>
   </g>
   <g id="text_20">
    <!-- 6 Depth -->
    <g transform="translate(350.243081 194.202122) scale(0.1728 -0.1728)">
     <use xlink:href="#DejaVuSans-36"/>
     <use xlink:href="#DejaVuSans-20" x="63.623047"/>
     <use xlink:href="#DejaVuSans-44" x="95.410156"/>
     <use xlink:href="#DejaVuSans-65" x="172.412109"/>
     <use xlink:href="#DejaVuSans-70" x="233.935547"/>
     <use xlink:href="#DejaVuSans-74" x="297.412109"/>
     <use xlink:href="#DejaVuSans-68" x="336.621094"/>
    </g>
   </g>
  </g>
  <g id="axes_7">
   <g id="patch_32">
    <path d="M 46.15 317.72 
L 218.264584 317.72 
L 218.264584 258.210261 
L 46.15 258.210261 
z
" style="fill: #ffffff"/>
   </g>
   <g id="matplotlib.axis_13">
    <g id="xtick_1">
     <g id="line2d_19">
      <defs>
       <path id="m0385209100" d="M 0 0 
L 0 3.5 
" style="stroke: #000000; stroke-width: 0.8"/>
      </defs>
      <g>
       <use xlink:href="#m0385209100" x="53.973295" y="317.72" style="stroke: #000000; stroke-width: 0.8"/>
      </g>
     </g>
     <g id="text_21">
      <!-- 2020-06-01 -->
      <g transform="translate(24.915482 332.318438) scale(0.1 -0.1)">
       <defs>
        <path id="DejaVuSans-2d" d="M 313 2009 
L 1997 2009 
L 1997 1497 
L 313 1497 
L 313 2009 
z
" transform="scale(0.015625)"/>
       </defs>
       <use xlink:href="#DejaVuSans-32"/>
       <use xlink:href="#DejaVuSans-30" x="63.623047"/>
       <use xlink:href="#DejaVuSans-32" x="127.246094"/>
       <use xlink:href="#DejaVuSans-30" x="190.869141"/>
       <use xlink:href="#DejaVuSans-2d" x="254.492188"/>
       <use xlink:href="#DejaVuSans-30" x="290.576172"/>
       <use xlink:href="#DejaVuSans-36" x="354.199219"/>
       <use xlink:href="#DejaVuSans-2d" x="417.822266"/>
       <use xlink:href="#DejaVuSans-30" x="453.90625"/>
       <use xlink:href="#DejaVuSans-31" x="517.529297"/>
      </g>
     </g>
    </g>
    <g id="xtick_2">
     <g id="line2d_20">
      <g>
       <use xlink:href="#m0385209100" x="70.4436" y="317.72" style="stroke: #000000; stroke-width: 0.8"/>
      </g>
     </g>
     <g id="text_22">
      <!-- 2020-06-03 -->
      <g transform="translate(41.385787 332.318438) scale(0.1 -0.1)">
       <defs>
        <path id="DejaVuSans-33" d="M 2597 2516 
Q 3050 2419 3304 2112 
Q 3559 1806 3559 1356 
Q 3559 666 3084 287 
Q 2609 -91 1734 -91 
Q 1441 -91 1130 -33 
Q 819 25 488 141 
L 488 750 
Q 750 597 1062 519 
Q 1375 441 1716 441 
Q 2309 441 2620 675 
Q 2931 909 2931 1356 
Q 2931 1769 2642 2001 
Q 2353 2234 1838 2234 
L 1294 2234 
L 1294 2753 
L 1863 2753 
Q 2328 2753 2575 2939 
Q 2822 3125 2822 3475 
Q 2822 3834 2567 4026 
Q 2313 4219 1838 4219 
Q 1578 4219 1281 4162 
Q 984 4106 628 3988 
L 628 4550 
Q 988 4650 1302 4700 
Q 1616 4750 1894 4750 
Q 2613 4750 3031 4423 
Q 3450 4097 3450 3541 
Q 3450 3153 3228 2886 
Q 3006 2619 2597 2516 
z
" transform="scale(0.015625)"/>
       </defs>
       <use xlink:href="#DejaVuSans-32"/>
       <use xlink:href="#DejaVuSans-30" x="63.623047"/>
       <use xlink:href="#DejaVuSans-32" x="127.246094"/>
       <use xlink:href="#DejaVuSans-30" x="190.869141"/>
       <use xlink:href="#DejaVuSans-2d" x="254.492188"/>
       <use xlink:href="#DejaVuSans-30" x="290.576172"/>
       <use xlink:href="#DejaVuSans-36" x="354.199219"/>
       <use xlink:href="#DejaVuSans-2d" x="417.822266"/>
       <use xlink:href="#DejaVuSans-30" x="453.90625"/>
       <use xlink:href="#DejaVuSans-33" x="517.529297"/>
      </g>
     </g>
    </g>
    <g id="xtick_3">
     <g id="line2d_21">
      <g>
       <use xlink:href="#m0385209100" x="86.913905" y="317.72" style="stroke: #000000; stroke-width: 0.8"/>
      </g>
     </g>
     <g id="text_23">
      <!-- 2020-06-05 -->
      <g transform="translate(57.856093 332.318438) scale(0.1 -0.1)">
       <defs>
        <path id="DejaVuSans-35" d="M 691 4666 
L 3169 4666 
L 3169 4134 
L 1269 4134 
L 1269 2991 
Q 1406 3038 1543 3061 
Q 1681 3084 1819 3084 
Q 2600 3084 3056 2656 
Q 3513 2228 3513 1497 
Q 3513 744 3044 326 
Q 2575 -91 1722 -91 
Q 1428 -91 1123 -41 
Q 819 9 494 109 
L 494 744 
Q 775 591 1075 516 
Q 1375 441 1709 441 
Q 2250 441 2565 725 
Q 2881 1009 2881 1497 
Q 2881 1984 2565 2268 
Q 2250 2553 1709 2553 
Q 1456 2553 1204 2497 
Q 953 2441 691 2322 
L 691 4666 
z
" transform="scale(0.015625)"/>
       </defs>
       <use xlink:href="#DejaVuSans-32"/>
       <use xlink:href="#DejaVuSans-30" x="63.623047"/>
       <use xlink:href="#DejaVuSans-32" x="127.246094"/>
       <use xlink:href="#DejaVuSans-30" x="190.869141"/>
       <use xlink:href="#DejaVuSans-2d" x="254.492188"/>
       <use xlink:href="#DejaVuSans-30" x="290.576172"/>
       <use xlink:href="#DejaVuSans-36" x="354.199219"/>
       <use xlink:href="#DejaVuSans-2d" x="417.822266"/>
       <use xlink:href="#DejaVuSans-30" x="453.90625"/>
       <use xlink:href="#DejaVuSans-35" x="517.529297"/>
      </g>
     </g>
    </g>
    <g id="xtick_4">
     <g id="line2d_22">
      <g>
       <use xlink:href="#m0385209100" x="103.38421" y="317.72" style="stroke: #000000; stroke-width: 0.8"/>
      </g>
     </g>
     <g id="text_24">
      <!-- 2020-06-07 -->
      <g transform="translate(74.326398 332.318438) scale(0.1 -0.1)">
       <defs>
        <path id="DejaVuSans-37" d="M 525 4666 
L 3525 4666 
L 3525 4397 
L 1831 0 
L 1172 0 
L 2766 4134 
L 525 4134 
L 525 4666 
z
" transform="scale(0.015625)"/>
       </defs>
       <use xlink:href="#DejaVuSans-32"/>
       <use xlink:href="#DejaVuSans-30" x="63.623047"/>
       <use xlink:href="#DejaVuSans-32" x="127.246094"/>
       <use xlink:href="#DejaVuSans-30" x="190.869141"/>
       <use xlink:href="#DejaVuSans-2d" x="254.492188"/>
       <use xlink:href="#DejaVuSans-30" x="290.576172"/>
       <use xlink:href="#DejaVuSans-36" x="354.199219"/>
       <use xlink:href="#DejaVuSans-2d" x="417.822266"/>
       <use xlink:href="#DejaVuSans-30" x="453.90625"/>
       <use xlink:href="#DejaVuSans-37" x="517.529297"/>
      </g>
     </g>
    </g>
    <g id="xtick_5">
     <g id="line2d_23">
      <g>
       <use xlink:href="#m0385209100" x="119.854515" y="317.72" style="stroke: #000000; stroke-width: 0.8"/>
      </g>
     </g>
     <g id="text_25">
      <!-- 2020-06-09 -->
      <g transform="translate(90.796703 332.318438) scale(0.1 -0.1)">
       <defs>
        <path id="DejaVuSans-39" d="M 703 97 
L 703 672 
Q 941 559 1184 500 
Q 1428 441 1663 441 
Q 2288 441 2617 861 
Q 2947 1281 2994 2138 
Q 2813 1869 2534 1725 
Q 2256 1581 1919 1581 
Q 1219 1581 811 2004 
Q 403 2428 403 3163 
Q 403 3881 828 4315 
Q 1253 4750 1959 4750 
Q 2769 4750 3195 4129 
Q 3622 3509 3622 2328 
Q 3622 1225 3098 567 
Q 2575 -91 1691 -91 
Q 1453 -91 1209 -44 
Q 966 3 703 97 
z
M 1959 2075 
Q 2384 2075 2632 2365 
Q 2881 2656 2881 3163 
Q 2881 3666 2632 3958 
Q 2384 4250 1959 4250 
Q 1534 4250 1286 3958 
Q 1038 3666 1038 3163 
Q 1038 2656 1286 2365 
Q 1534 2075 1959 2075 
z
" transform="scale(0.015625)"/>
       </defs>
       <use xlink:href="#DejaVuSans-32"/>
       <use xlink:href="#DejaVuSans-30" x="63.623047"/>
       <use xlink:href="#DejaVuSans-32" x="127.246094"/>
       <use xlink:href="#DejaVuSans-30" x="190.869141"/>
       <use xlink:href="#DejaVuSans-2d" x="254.492188"/>
       <use xlink:href="#DejaVuSans-30" x="290.576172"/>
       <use xlink:href="#DejaVuSans-36" x="354.199219"/>
       <use xlink:href="#DejaVuSans-2d" x="417.822266"/>
       <use xlink:href="#DejaVuSans-30" x="453.90625"/>
       <use xlink:href="#DejaVuSans-39" x="517.529297"/>
      </g>
     </g>
    </g>
    <g id="xtick_6">
     <g id="line2d_24">
      <g>
       <use xlink:href="#m0385209100" x="136.32482" y="317.72" style="stroke: #000000; stroke-width: 0.8"/>
      </g>
     </g>
     <g id="text_26">
      <!-- 2020-06-11 -->
      <g transform="translate(107.267008 332.318438) scale(0.1 -0.1)">
       <use xlink:href="#DejaVuSans-32"/>
       <use xlink:href="#DejaVuSans-30" x="63.623047"/>
       <use xlink:href="#DejaVuSans-32" x="127.246094"/>
       <use xlink:href="#DejaVuSans-30" x="190.869141"/>
       <use xlink:href="#DejaVuSans-2d" x="254.492188"/>
       <use xlink:href="#DejaVuSans-30" x="290.576172"/>
       <use xlink:href="#DejaVuSans-36" x="354.199219"/>
       <use xlink:href="#DejaVuSans-2d" x="417.822266"/>
       <use xlink:href="#DejaVuSans-31" x="453.90625"/>
       <use xlink:href="#DejaVuSans-31" x="517.529297"/>
      </g>
     </g>
    </g>
    <g id="xtick_7">
     <g id="line2d_25">
      <g>
       <use xlink:href="#m0385209100" x="152.795125" y="317.72" style="stroke: #000000; stroke-width: 0.8"/>
      </g>
     </g>
     <g id="text_27">
      <!-- 2020-06-13 -->
      <g transform="translate(123.737313 332.318438) scale(0.1 -0.1)">
       <use xlink:href="#DejaVuSans-32"/>
       <use xlink:href="#DejaVuSans-30" x="63.623047"/>
       <use xlink:href="#DejaVuSans-32" x="127.246094"/>
       <use xlink:href="#DejaVuSans-30" x="190.869141"/>
       <use xlink:href="#DejaVuSans-2d" x="254.492188"/>
       <use xlink:href="#DejaVuSans-30" x="290.576172"/>
       <use xlink:href="#DejaVuSans-36" x="354.199219"/>
       <use xlink:href="#DejaVuSans-2d" x="417.822266"/>
       <use xlink:href="#DejaVuSans-31" x="453.90625"/>
       <use xlink:href="#DejaVuSans-33" x="517.529297"/>
      </g>
     </g>
    </g>
    <g id="xtick_8">
     <g id="line2d_26">
      <g>
       <use xlink:href="#m0385209100" x="169.265431" y="317.72" style="stroke: #000000; stroke-width: 0.8"/>
      </g>
     </g>
     <g id="text_28">
      <!-- 2020-06-15 -->
      <g transform="translate(140.207618 332.318438) scale(0.1 -0.1)">
       <use xlink:href="#DejaVuSans-32"/>
       <use xlink:href="#DejaVuSans-30" x="63.623047"/>
       <use xlink:href="#DejaVuSans-32" x="127.246094"/>
       <use xlink:href="#DejaVuSans-30" x="190.869141"/>
       <use xlink:href="#DejaVuSans-2d" x="254.492188"/>
       <use xlink:href="#DejaVuSans-30" x="290.576172"/>
       <use xlink:href="#DejaVuSans-36" x="354.199219"/>
       <use xlink:href="#DejaVuSans-2d" x="417.822266"/>
       <use xlink:href="#DejaVuSans-31" x="453.90625"/>
       <use xlink:href="#DejaVuSans-35" x="517.529297"/>
      </g>
     </g>
    </g>
    <g id="xtick_9">
     <g id="line2d_27">
      <g>
       <use xlink:href="#m0385209100" x="185.735736" y="317.72" style="stroke: #000000; stroke-width: 0.8"/>
      </g>
     </g>
     <g id="text_29">
      <!-- 2020-06-17 -->
      <g transform="translate(156.677923 332.318438) scale(0.1 -0.1)">
       <use xlink:href="#DejaVuSans-32"/>
       <use xlink:href="#DejaVuSans-30" x="63.623047"/>
       <use xlink:href="#DejaVuSans-32" x="127.246094"/>
       <use xlink:href="#DejaVuSans-30" x="190.869141"/>
       <use xlink:href="#DejaVuSans-2d" x="254.492188"/>
       <use xlink:href="#DejaVuSans-30" x="290.576172"/>
       <use xlink:href="#DejaVuSans-36" x="354.199219"/>
       <use xlink:href="#DejaVuSans-2d" x="417.822266"/>
       <use xlink:href="#DejaVuSans-31" x="453.90625"/>
       <use xlink:href="#DejaVuSans-37" x="517.529297"/>
      </g>
     </g>
    </g>
    <g id="xtick_10">
     <g id="line2d_28">
      <g>
       <use xlink:href="#m0385209100" x="202.206041" y="317.72" style="stroke: #000000; stroke-width: 0.8"/>
      </g>
     </g>
     <g id="text_30">
      <!-- 2020-06-19 -->
      <g transform="translate(173.148228 332.318438) scale(0.1 -0.1)">
       <use xlink:href="#DejaVuSans-32"/>
       <use xlink:href="#DejaVuSans-30" x="63.623047"/>
       <use xlink:href="#DejaVuSans-32" x="127.246094"/>
       <use xlink:href="#DejaVuSans-30" x="190.869141"/>
       <use xlink:href="#DejaVuSans-2d" x="254.492188"/>
       <use xlink:href="#DejaVuSans-30" x="290.576172"/>
       <use xlink:href="#DejaVuSans-36" x="354.199219"/>
       <use xlink:href="#DejaVuSans-2d" x="417.822266"/>
       <use xlink:href="#DejaVuSans-31" x="453.90625"/>
       <use xlink:href="#DejaVuSans-39" x="517.529297"/>
      </g>
     </g>
    </g>
   </g>
   <g id="matplotlib.axis_14">
    <g id="ytick_13">
     <g id="line2d_29">
      <g>
       <use xlink:href="#m77da69547b" x="46.15" y="315.015012" style="stroke: #000000; stroke-width: 0.8"/>
      </g>
     </g>
     <g id="text_31">
      <!-- 0.000 -->
      <g transform="translate(10.521875 318.814231) scale(0.1 -0.1)">
       <use xlink:href="#DejaVuSans-30"/>
       <use xlink:href="#DejaVuSans-2e" x="63.623047"/>
       <use xlink:href="#DejaVuSans-30" x="95.410156"/>
       <use xlink:href="#DejaVuSans-30" x="159.033203"/>
       <use xlink:href="#DejaVuSans-30" x="222.65625"/>
      </g>
     </g>
    </g>
    <g id="ytick_14">
     <g id="line2d_30">
      <g>
       <use xlink:href="#m77da69547b" x="46.15" y="281.549743" style="stroke: #000000; stroke-width: 0.8"/>
      </g>
     </g>
     <g id="text_32">
      <!-- 0.025 -->
      <g transform="translate(10.521875 285.348962) scale(0.1 -0.1)">
       <use xlink:href="#DejaVuSans-30"/>
       <use xlink:href="#DejaVuSans-2e" x="63.623047"/>
       <use xlink:href="#DejaVuSans-30" x="95.410156"/>
       <use xlink:href="#DejaVuSans-32" x="159.033203"/>
       <use xlink:href="#DejaVuSans-35" x="222.65625"/>
      </g>
     </g>
    </g>
   </g>
   <g id="line2d_31">
    <path d="M 53.97339 315.015012 
L 70.445316 315.015012 
L 70.449509 263.02038 
L 70.557786 263.856948 
L 72.50744 266.005352 
L 72.621245 315.015012 
L 86.917336 315.015012 
L 86.923055 265.289325 
L 87.03076 266.134541 
L 88.973456 268.442174 
L 89.087356 315.015012 
L 123.972092 315.015012 
L 123.976857 267.693344 
L 124.085325 268.583036 
L 125.855216 270.861203 
L 126.036313 271.103624 
L 126.149927 315.015012 
L 132.210389 315.015012 
L 132.215251 270.330135 
L 132.321145 271.254099 
L 133.656879 273.121666 
L 134.269559 274.016874 
L 134.380981 315.015012 
L 136.326822 315.015012 
L 136.332541 273.224202 
L 136.441008 274.186327 
L 138.385419 277.198955 
L 138.499797 315.015012 
L 140.444208 315.015012 
L 140.449926 276.368477 
L 140.558585 277.384918 
L 142.50128 280.69052 
L 142.614609 315.015012 
L 161.031803 315.015012 
L 161.0339 279.767338 
L 161.14294 280.896401 
L 162.522709 283.459943 
L 163.090687 284.571432 
L 163.204206 315.015012 
L 165.148712 315.015012 
L 165.151762 283.595519 
L 165.26166 284.796483 
L 167.208644 288.920463 
L 167.319399 315.015012 
L 169.265812 315.015012 
L 169.270387 260.915249 
L 169.379808 264.682324 
L 171.094797 281.780776 
L 172.387735 296.543686 
L 172.751073 301.711573 
L 172.761748 301.693671 
L 172.768897 301.679872 
L 172.875649 304.204979 
L 173.241275 308.364337 
L 173.676861 310.881004 
L 174.125028 312.267565 
L 174.628478 313.155878 
L 175.208847 313.751569 
L 175.935332 314.180817 
L 176.940517 314.503064 
L 178.564958 314.748956 
L 181.406848 314.908918 
L 187.604372 314.991858 
L 210.441193 315.014355 
L 210.441193 315.014355 
" clip-path="url(#p7a89ec1851)" style="fill: none; stroke: #000000; stroke-width: 2; stroke-linecap: square"/>
   </g>
   <g id="patch_33">
    <path d="M 46.15 317.72 
L 46.15 258.210261 
" style="fill: none; stroke: #000000; stroke-width: 0.8; stroke-linejoin: miter; stroke-linecap: square"/>
   </g>
   <g id="patch_34">
    <path d="M 218.264584 317.72 
L 218.264584 258.210261 
" style="fill: none; stroke: #000000; stroke-width: 0.8; stroke-linejoin: miter; stroke-linecap: square"/>
   </g>
   <g id="patch_35">
    <path d="M 46.15 317.72 
L 218.264584 317.72 
" style="fill: none; stroke: #000000; stroke-width: 0.8; stroke-linejoin: miter; stroke-linecap: square"/>
   </g>
   <g id="patch_36">
    <path d="M 46.15 258.210261 
L 218.264584 258.210261 
" style="fill: none; stroke: #000000; stroke-width: 0.8; stroke-linejoin: miter; stroke-linecap: square"/>
   </g>
   <g id="text_33">
    <!-- O10 Flow -->
    <g transform="translate(132.207292 270.112209) scale(0.1728 -0.1728)">
     <use xlink:href="#DejaVuSans-4f"/>
     <use xlink:href="#DejaVuSans-31" x="78.710938"/>
     <use xlink:href="#DejaVuSans-30" x="142.333984"/>
     <use xlink:href="#DejaVuSans-20" x="205.957031"/>
     <use xlink:href="#DejaVuSans-46" x="237.744141"/>
     <use xlink:href="#DejaVuSans-6c" x="295.263672"/>
     <use xlink:href="#DejaVuSans-6f" x="323.046875"/>
     <use xlink:href="#DejaVuSans-77" x="384.228516"/>
    </g>
   </g>
  </g>
  <g id="axes_8">
   <g id="patch_37">
    <path d="M 264.185789 317.72 
L 436.300372 317.72 
L 436.300372 258.210261 
L 264.185789 258.210261 
z
" style="fill: #ffffff"/>
   </g>
   <g id="matplotlib.axis_15">
    <g id="xtick_11">
     <g id="line2d_32">
      <g>
       <use xlink:href="#m0385209100" x="272.009084" y="317.72" style="stroke: #000000; stroke-width: 0.8"/>
      </g>
     </g>
     <g id="text_34">
      <!-- 2020-06-01 -->
      <g transform="translate(242.951271 332.318438) scale(0.1 -0.1)">
       <use xlink:href="#DejaVuSans-32"/>
       <use xlink:href="#DejaVuSans-30" x="63.623047"/>
       <use xlink:href="#DejaVuSans-32" x="127.246094"/>
       <use xlink:href="#DejaVuSans-30" x="190.869141"/>
       <use xlink:href="#DejaVuSans-2d" x="254.492188"/>
       <use xlink:href="#DejaVuSans-30" x="290.576172"/>
       <use xlink:href="#DejaVuSans-36" x="354.199219"/>
       <use xlink:href="#DejaVuSans-2d" x="417.822266"/>
       <use xlink:href="#DejaVuSans-30" x="453.90625"/>
       <use xlink:href="#DejaVuSans-31" x="517.529297"/>
      </g>
     </g>
    </g>
    <g id="xtick_12">
     <g id="line2d_33">
      <g>
       <use xlink:href="#m0385209100" x="288.479389" y="317.72" style="stroke: #000000; stroke-width: 0.8"/>
      </g>
     </g>
     <g id="text_35">
      <!-- 2020-06-03 -->
      <g transform="translate(259.421576 332.318438) scale(0.1 -0.1)">
       <use xlink:href="#DejaVuSans-32"/>
       <use xlink:href="#DejaVuSans-30" x="63.623047"/>
       <use xlink:href="#DejaVuSans-32" x="127.246094"/>
       <use xlink:href="#DejaVuSans-30" x="190.869141"/>
       <use xlink:href="#DejaVuSans-2d" x="254.492188"/>
       <use xlink:href="#DejaVuSans-30" x="290.576172"/>
       <use xlink:href="#DejaVuSans-36" x="354.199219"/>
       <use xlink:href="#DejaVuSans-2d" x="417.822266"/>
       <use xlink:href="#DejaVuSans-30" x="453.90625"/>
       <use xlink:href="#DejaVuSans-33" x="517.529297"/>
      </g>
     </g>
    </g>
    <g id="xtick_13">
     <g id="line2d_34">
      <g>
       <use xlink:href="#m0385209100" x="304.949694" y="317.72" style="stroke: #000000; stroke-width: 0.8"/>
      </g>
     </g>
     <g id="text_36">
      <!-- 2020-06-05 -->
      <g transform="translate(275.891881 332.318438) scale(0.1 -0.1)">
       <use xlink:href="#DejaVuSans-32"/>
       <use xlink:href="#DejaVuSans-30" x="63.623047"/>
       <use xlink:href="#DejaVuSans-32" x="127.246094"/>
       <use xlink:href="#DejaVuSans-30" x="190.869141"/>
       <use xlink:href="#DejaVuSans-2d" x="254.492188"/>
       <use xlink:href="#DejaVuSans-30" x="290.576172"/>
       <use xlink:href="#DejaVuSans-36" x="354.199219"/>
       <use xlink:href="#DejaVuSans-2d" x="417.822266"/>
       <use xlink:href="#DejaVuSans-30" x="453.90625"/>
       <use xlink:href="#DejaVuSans-35" x="517.529297"/>
      </g>
     </g>
    </g>
    <g id="xtick_14">
     <g id="line2d_35">
      <g>
       <use xlink:href="#m0385209100" x="321.419999" y="317.72" style="stroke: #000000; stroke-width: 0.8"/>
      </g>
     </g>
     <g id="text_37">
      <!-- 2020-06-07 -->
      <g transform="translate(292.362186 332.318438) scale(0.1 -0.1)">
       <use xlink:href="#DejaVuSans-32"/>
       <use xlink:href="#DejaVuSans-30" x="63.623047"/>
       <use xlink:href="#DejaVuSans-32" x="127.246094"/>
       <use xlink:href="#DejaVuSans-30" x="190.869141"/>
       <use xlink:href="#DejaVuSans-2d" x="254.492188"/>
       <use xlink:href="#DejaVuSans-30" x="290.576172"/>
       <use xlink:href="#DejaVuSans-36" x="354.199219"/>
       <use xlink:href="#DejaVuSans-2d" x="417.822266"/>
       <use xlink:href="#DejaVuSans-30" x="453.90625"/>
       <use xlink:href="#DejaVuSans-37" x="517.529297"/>
      </g>
     </g>
    </g>
    <g id="xtick_15">
     <g id="line2d_36">
      <g>
       <use xlink:href="#m0385209100" x="337.890304" y="317.72" style="stroke: #000000; stroke-width: 0.8"/>
      </g>
     </g>
     <g id="text_38">
      <!-- 2020-06-09 -->
      <g transform="translate(308.832492 332.318438) scale(0.1 -0.1)">
       <use xlink:href="#DejaVuSans-32"/>
       <use xlink:href="#DejaVuSans-30" x="63.623047"/>
       <use xlink:href="#DejaVuSans-32" x="127.246094"/>
       <use xlink:href="#DejaVuSans-30" x="190.869141"/>
       <use xlink:href="#DejaVuSans-2d" x="254.492188"/>
       <use xlink:href="#DejaVuSans-30" x="290.576172"/>
       <use xlink:href="#DejaVuSans-36" x="354.199219"/>
       <use xlink:href="#DejaVuSans-2d" x="417.822266"/>
       <use xlink:href="#DejaVuSans-30" x="453.90625"/>
       <use xlink:href="#DejaVuSans-39" x="517.529297"/>
      </g>
     </g>
    </g>
    <g id="xtick_16">
     <g id="line2d_37">
      <g>
       <use xlink:href="#m0385209100" x="354.360609" y="317.72" style="stroke: #000000; stroke-width: 0.8"/>
      </g>
     </g>
     <g id="text_39">
      <!-- 2020-06-11 -->
      <g transform="translate(325.302797 332.318438) scale(0.1 -0.1)">
       <use xlink:href="#DejaVuSans-32"/>
       <use xlink:href="#DejaVuSans-30" x="63.623047"/>
       <use xlink:href="#DejaVuSans-32" x="127.246094"/>
       <use xlink:href="#DejaVuSans-30" x="190.869141"/>
       <use xlink:href="#DejaVuSans-2d" x="254.492188"/>
       <use xlink:href="#DejaVuSans-30" x="290.576172"/>
       <use xlink:href="#DejaVuSans-36" x="354.199219"/>
       <use xlink:href="#DejaVuSans-2d" x="417.822266"/>
       <use xlink:href="#DejaVuSans-31" x="453.90625"/>
       <use xlink:href="#DejaVuSans-31" x="517.529297"/>
      </g>
     </g>
    </g>
    <g id="xtick_17">
     <g id="line2d_38">
      <g>
       <use xlink:href="#m0385209100" x="370.830914" y="317.72" style="stroke: #000000; stroke-width: 0.8"/>
      </g>
     </g>
     <g id="text_40">
      <!-- 2020-06-13 -->
      <g transform="translate(341.773102 332.318438) scale(0.1 -0.1)">
       <use xlink:href="#DejaVuSans-32"/>
       <use xlink:href="#DejaVuSans-30" x="63.623047"/>
       <use xlink:href="#DejaVuSans-32" x="127.246094"/>
       <use xlink:href="#DejaVuSans-30" x="190.869141"/>
       <use xlink:href="#DejaVuSans-2d" x="254.492188"/>
       <use xlink:href="#DejaVuSans-30" x="290.576172"/>
       <use xlink:href="#DejaVuSans-36" x="354.199219"/>
       <use xlink:href="#DejaVuSans-2d" x="417.822266"/>
       <use xlink:href="#DejaVuSans-31" x="453.90625"/>
       <use xlink:href="#DejaVuSans-33" x="517.529297"/>
      </g>
     </g>
    </g>
    <g id="xtick_18">
     <g id="line2d_39">
      <g>
       <use xlink:href="#m0385209100" x="387.301219" y="317.72" style="stroke: #000000; stroke-width: 0.8"/>
      </g>
     </g>
     <g id="text_41">
      <!-- 2020-06-15 -->
      <g transform="translate(358.243407 332.318438) scale(0.1 -0.1)">
       <use xlink:href="#DejaVuSans-32"/>
       <use xlink:href="#DejaVuSans-30" x="63.623047"/>
       <use xlink:href="#DejaVuSans-32" x="127.246094"/>
       <use xlink:href="#DejaVuSans-30" x="190.869141"/>
       <use xlink:href="#DejaVuSans-2d" x="254.492188"/>
       <use xlink:href="#DejaVuSans-30" x="290.576172"/>
       <use xlink:href="#DejaVuSans-36" x="354.199219"/>
       <use xlink:href="#DejaVuSans-2d" x="417.822266"/>
       <use xlink:href="#DejaVuSans-31" x="453.90625"/>
       <use xlink:href="#DejaVuSans-35" x="517.529297"/>
      </g>
     </g>
    </g>
    <g id="xtick_19">
     <g id="line2d_40">
      <g>
       <use xlink:href="#m0385209100" x="403.771524" y="317.72" style="stroke: #000000; stroke-width: 0.8"/>
      </g>
     </g>
     <g id="text_42">
      <!-- 2020-06-17 -->
      <g transform="translate(374.713712 332.318438) scale(0.1 -0.1)">
       <use xlink:href="#DejaVuSans-32"/>
       <use xlink:href="#DejaVuSans-30" x="63.623047"/>
       <use xlink:href="#DejaVuSans-32" x="127.246094"/>
       <use xlink:href="#DejaVuSans-30" x="190.869141"/>
       <use xlink:href="#DejaVuSans-2d" x="254.492188"/>
       <use xlink:href="#DejaVuSans-30" x="290.576172"/>
       <use xlink:href="#DejaVuSans-36" x="354.199219"/>
       <use xlink:href="#DejaVuSans-2d" x="417.822266"/>
       <use xlink:href="#DejaVuSans-31" x="453.90625"/>
       <use xlink:href="#DejaVuSans-37" x="517.529297"/>
      </g>
     </g>
    </g>
    <g id="xtick_20">
     <g id="line2d_41">
      <g>
       <use xlink:href="#m0385209100" x="420.24183" y="317.72" style="stroke: #000000; stroke-width: 0.8"/>
      </g>
     </g>
     <g id="text_43">
      <!-- 2020-06-19 -->
      <g transform="translate(391.184017 332.318438) scale(0.1 -0.1)">
       <use xlink:href="#DejaVuSans-32"/>
       <use xlink:href="#DejaVuSans-30" x="63.623047"/>
       <use xlink:href="#DejaVuSans-32" x="127.246094"/>
       <use xlink:href="#DejaVuSans-30" x="190.869141"/>
       <use xlink:href="#DejaVuSans-2d" x="254.492188"/>
       <use xlink:href="#DejaVuSans-30" x="290.576172"/>
       <use xlink:href="#DejaVuSans-36" x="354.199219"/>
       <use xlink:href="#DejaVuSans-2d" x="417.822266"/>
       <use xlink:href="#DejaVuSans-31" x="453.90625"/>
       <use xlink:href="#DejaVuSans-39" x="517.529297"/>
      </g>
     </g>
    </g>
   </g>
   <g id="matplotlib.axis_16">
    <g id="ytick_15">
     <g id="line2d_42">
      <g>
       <use xlink:href="#m77da69547b" x="264.185789" y="315.015012" style="stroke: #000000; stroke-width: 0.8"/>
      </g>
     </g>
     <g id="text_44">
      <!-- 0 -->
      <g transform="translate(250.823289 318.814231) scale(0.1 -0.1)">
       <use xlink:href="#DejaVuSans-30"/>
      </g>
     </g>
    </g>
    <g id="ytick_16">
     <g id="line2d_43">
      <g>
       <use xlink:href="#m77da69547b" x="264.185789" y="263.809447" style="stroke: #000000; stroke-width: 0.8"/>
      </g>
     </g>
     <g id="text_45">
      <!-- 2 -->
      <g transform="translate(250.823289 267.608666) scale(0.1 -0.1)">
       <use xlink:href="#DejaVuSans-32"/>
      </g>
     </g>
    </g>
   </g>
   <g id="line2d_44">
    <path d="M 272.009179 315.015012 
L 272.028909 312.897135 
L 272.279967 271.402716 
L 272.896555 265.985769 
L 273.642294 261.017272 
L 273.858752 260.935644 
L 275.70804 260.920281 
L 288.522089 261.000851 
L 290.661418 265.491195 
L 305.003642 265.598572 
L 307.156886 270.179149 
L 342.053536 270.279675 
L 344.221649 275.027212 
L 350.293073 275.133864 
L 352.455944 280.013478 
L 354.408171 280.118578 
L 356.552742 285.073842 
L 358.525747 285.180608 
L 360.661835 290.163378 
L 379.112675 290.273188 
L 381.226651 295.24535 
L 383.228345 295.350358 
L 385.326594 300.242017 
L 387.325239 300.345168 
L 389.160896 308.292048 
L 390.131005 311.522771 
L 390.785051 313.090517 
L 391.205006 313.661354 
L 391.79624 314.104926 
L 392.648731 314.436987 
L 393.877522 314.670634 
L 396.174882 314.852564 
L 400.936592 314.963883 
L 415.541311 315.009288 
L 428.476982 315.01285 
L 428.476982 315.01285 
" clip-path="url(#p3394373b91)" style="fill: none; stroke: #000000; stroke-width: 2; stroke-linecap: square"/>
   </g>
   <g id="patch_38">
    <path d="M 264.185789 317.72 
L 264.185789 258.210261 
" style="fill: none; stroke: #000000; stroke-width: 0.8; stroke-linejoin: miter; stroke-linecap: square"/>
   </g>
   <g id="patch_39">
    <path d="M 436.300372 317.72 
L 436.300372 258.210261 
" style="fill: none; stroke: #000000; stroke-width: 0.8; stroke-linejoin: miter; stroke-linecap: square"/>
   </g>
   <g id="patch_40">
    <path d="M 264.185789 317.72 
L 436.300372 317.72 
" style="fill: none; stroke: #000000; stroke-width: 0.8; stroke-linejoin: miter; stroke-linecap: square"/>
   </g>
   <g id="patch_41">
    <path d="M 264.185789 258.210261 
L 436.300372 258.210261 
" style="fill: none; stroke: #000000; stroke-width: 0.8; stroke-linejoin: miter; stroke-linecap: square"/>
   </g>
   <g id="text_46">
    <!-- 10 Depth -->
    <g transform="translate(350.243081 270.112209) scale(0.1728 -0.1728)">
     <use xlink:href="#DejaVuSans-31"/>
     <use xlink:href="#DejaVuSans-30" x="63.623047"/>
     <use xlink:href="#DejaVuSans-20" x="127.246094"/>
     <use xlink:href="#DejaVuSans-44" x="159.033203"/>
     <use xlink:href="#DejaVuSans-65" x="236.035156"/>
     <use xlink:href="#DejaVuSans-70" x="297.558594"/>
     <use xlink:href="#DejaVuSans-74" x="361.035156"/>
     <use xlink:href="#DejaVuSans-68" x="400.244141"/>
    </g>
   </g>
  </g>
 </g>
 <defs>
  <clipPath id="p3efeb33354">
   <rect x="46.15" y="30.48" width="172.114584" height="59.509739"/>
  </clipPath>
  <clipPath id="p7a7d40e295">
   <rect x="264.185789" y="30.48" width="172.114584" height="59.509739"/>
  </clipPath>
  <clipPath id="p486a3ddcb1">
   <rect x="46.15" y="106.390087" width="172.114584" height="59.509739"/>
  </clipPath>
  <clipPath id="pac2ed96bf4">
   <rect x="264.185789" y="106.390087" width="172.114584" height="59.509739"/>
  </clipPath>
  <clipPath id="pa6db21b59d">
   <rect x="46.15" y="182.300174" width="172.114584" height="59.509739"/>
  </clipPath>
  <clipPath id="pd93903a6a4">
   <rect x="264.185789" y="182.300174" width="172.114584" height="59.509739"/>
  </clipPath>
  <clipPath id="p7a89ec1851">
   <rect x="46.15" y="258.210261" width="172.114584" height="59.509739"/>
  </clipPath>
  <clipPath id="p3394373b91">
   <rect x="264.185789" y="258.210261" width="172.114584" height="59.509739"/>
  </clipPath>
 </defs>
</svg>
