<?xml version="1.0" encoding="utf-8" standalone="no"?>
<!DOCTYPE svg PUBLIC "-//W3C//DTD SVG 1.1//EN"
  "http://www.w3.org/Graphics/SVG/1.1/DTD/svg11.dtd">
<svg xmlns:xlink="http://www.w3.org/1999/xlink" width="720pt" height="720pt" viewBox="0 0 720 720" xmlns="http://www.w3.org/2000/svg" version="1.1">
 <metadata>
  <rdf:RDF xmlns:dc="http://purl.org/dc/elements/1.1/" xmlns:cc="http://creativecommons.org/ns#" xmlns:rdf="http://www.w3.org/1999/02/22-rdf-syntax-ns#">
   <cc:Work>
    <dc:type rdf:resource="http://purl.org/dc/dcmitype/StillImage"/>
    <dc:date>2023-12-09T16:19:01.155662</dc:date>
    <dc:format>image/svg+xml</dc:format>
    <dc:creator>
     <cc:Agent>
      <dc:title>Matplotlib v3.7.1, https://matplotlib.org/</dc:title>
     </cc:Agent>
    </dc:creator>
   </cc:Work>
  </rdf:RDF>
 </metadata>
 <defs>
  <style type="text/css">*{stroke-linejoin: round; stroke-linecap: butt}</style>
 </defs>
 <g id="figure_1">
  <g id="patch_1">
   <path d="M 0 720 
L 720 720 
L 720 0 
L 0 0 
z
" style="fill: #ffffff"/>
  </g>
  <g id="axes_1">
   <g id="patch_2">
    <path d="M 55.82 170.56 
L 709.2 170.56 
L 709.2 30.48 
L 55.82 30.48 
z
" style="fill: #ffffff"/>
   </g>
   <g id="matplotlib.axis_1">
    <g id="xtick_1">
     <g id="line2d_1">
      <defs>
       <path id="m9cb4929d1c" d="M 0 0 
L 0 3.5 
" style="stroke: #000000; stroke-width: 0.8"/>
      </defs>
      <g>
       <use xlink:href="#m9cb4929d1c" x="85.519091" y="170.56" style="stroke: #000000; stroke-width: 0.8"/>
      </g>
     </g>
     <g id="text_1">
      <!-- 0 -->
      <g transform="translate(82.337841 185.158437) scale(0.1 -0.1)">
       <defs>
        <path id="DejaVuSans-30" d="M 2034 4250 
Q 1547 4250 1301 3770 
Q 1056 3291 1056 2328 
Q 1056 1369 1301 889 
Q 1547 409 2034 409 
Q 2525 409 2770 889 
Q 3016 1369 3016 2328 
Q 3016 3291 2770 3770 
Q 2525 4250 2034 4250 
z
M 2034 4750 
Q 2819 4750 3233 4129 
Q 3647 3509 3647 2328 
Q 3647 1150 3233 529 
Q 2819 -91 2034 -91 
Q 1250 -91 836 529 
Q 422 1150 422 2328 
Q 422 3509 836 4129 
Q 1250 4750 2034 4750 
z
" transform="scale(0.015625)"/>
       </defs>
       <use xlink:href="#DejaVuSans-30"/>
      </g>
     </g>
    </g>
    <g id="xtick_2">
     <g id="line2d_2">
      <g>
       <use xlink:href="#m9cb4929d1c" x="200.098917" y="170.56" style="stroke: #000000; stroke-width: 0.8"/>
      </g>
     </g>
     <g id="text_2">
      <!-- 1000 -->
      <g transform="translate(187.373917 185.158437) scale(0.1 -0.1)">
       <defs>
        <path id="DejaVuSans-31" d="M 794 531 
L 1825 531 
L 1825 4091 
L 703 3866 
L 703 4441 
L 1819 4666 
L 2450 4666 
L 2450 531 
L 3481 531 
L 3481 0 
L 794 0 
L 794 531 
z
" transform="scale(0.015625)"/>
       </defs>
       <use xlink:href="#DejaVuSans-31"/>
       <use xlink:href="#DejaVuSans-30" x="63.623047"/>
       <use xlink:href="#DejaVuSans-30" x="127.246094"/>
       <use xlink:href="#DejaVuSans-30" x="190.869141"/>
      </g>
     </g>
    </g>
    <g id="xtick_3">
     <g id="line2d_3">
      <g>
       <use xlink:href="#m9cb4929d1c" x="314.678743" y="170.56" style="stroke: #000000; stroke-width: 0.8"/>
      </g>
     </g>
     <g id="text_3">
      <!-- 2000 -->
      <g transform="translate(301.953743 185.158437) scale(0.1 -0.1)">
       <defs>
        <path id="DejaVuSans-32" d="M 1228 531 
L 3431 531 
L 3431 0 
L 469 0 
L 469 531 
Q 828 903 1448 1529 
Q 2069 2156 2228 2338 
Q 2531 2678 2651 2914 
Q 2772 3150 2772 3378 
Q 2772 3750 2511 3984 
Q 2250 4219 1831 4219 
Q 1534 4219 1204 4116 
Q 875 4013 500 3803 
L 500 4441 
Q 881 4594 1212 4672 
Q 1544 4750 1819 4750 
Q 2544 4750 2975 4387 
Q 3406 4025 3406 3419 
Q 3406 3131 3298 2873 
Q 3191 2616 2906 2266 
Q 2828 2175 2409 1742 
Q 1991 1309 1228 531 
z
" transform="scale(0.015625)"/>
       </defs>
       <use xlink:href="#DejaVuSans-32"/>
       <use xlink:href="#DejaVuSans-30" x="63.623047"/>
       <use xlink:href="#DejaVuSans-30" x="127.246094"/>
       <use xlink:href="#DejaVuSans-30" x="190.869141"/>
      </g>
     </g>
    </g>
    <g id="xtick_4">
     <g id="line2d_4">
      <g>
       <use xlink:href="#m9cb4929d1c" x="429.258569" y="170.56" style="stroke: #000000; stroke-width: 0.8"/>
      </g>
     </g>
     <g id="text_4">
      <!-- 3000 -->
      <g transform="translate(416.533569 185.158437) scale(0.1 -0.1)">
       <defs>
        <path id="DejaVuSans-33" d="M 2597 2516 
Q 3050 2419 3304 2112 
Q 3559 1806 3559 1356 
Q 3559 666 3084 287 
Q 2609 -91 1734 -91 
Q 1441 -91 1130 -33 
Q 819 25 488 141 
L 488 750 
Q 750 597 1062 519 
Q 1375 441 1716 441 
Q 2309 441 2620 675 
Q 2931 909 2931 1356 
Q 2931 1769 2642 2001 
Q 2353 2234 1838 2234 
L 1294 2234 
L 1294 2753 
L 1863 2753 
Q 2328 2753 2575 2939 
Q 2822 3125 2822 3475 
Q 2822 3834 2567 4026 
Q 2313 4219 1838 4219 
Q 1578 4219 1281 4162 
Q 984 4106 628 3988 
L 628 4550 
Q 988 4650 1302 4700 
Q 1616 4750 1894 4750 
Q 2613 4750 3031 4423 
Q 3450 4097 3450 3541 
Q 3450 3153 3228 2886 
Q 3006 2619 2597 2516 
z
" transform="scale(0.015625)"/>
       </defs>
       <use xlink:href="#DejaVuSans-33"/>
       <use xlink:href="#DejaVuSans-30" x="63.623047"/>
       <use xlink:href="#DejaVuSans-30" x="127.246094"/>
       <use xlink:href="#DejaVuSans-30" x="190.869141"/>
      </g>
     </g>
    </g>
    <g id="xtick_5">
     <g id="line2d_5">
      <g>
       <use xlink:href="#m9cb4929d1c" x="543.838395" y="170.56" style="stroke: #000000; stroke-width: 0.8"/>
      </g>
     </g>
     <g id="text_5">
      <!-- 4000 -->
      <g transform="translate(531.113395 185.158437) scale(0.1 -0.1)">
       <defs>
        <path id="DejaVuSans-34" d="M 2419 4116 
L 825 1625 
L 2419 1625 
L 2419 4116 
z
M 2253 4666 
L 3047 4666 
L 3047 1625 
L 3713 1625 
L 3713 1100 
L 3047 1100 
L 3047 0 
L 2419 0 
L 2419 1100 
L 313 1100 
L 313 1709 
L 2253 4666 
z
" transform="scale(0.015625)"/>
       </defs>
       <use xlink:href="#DejaVuSans-34"/>
       <use xlink:href="#DejaVuSans-30" x="63.623047"/>
       <use xlink:href="#DejaVuSans-30" x="127.246094"/>
       <use xlink:href="#DejaVuSans-30" x="190.869141"/>
      </g>
     </g>
    </g>
    <g id="xtick_6">
     <g id="line2d_6">
      <g>
       <use xlink:href="#m9cb4929d1c" x="658.418221" y="170.56" style="stroke: #000000; stroke-width: 0.8"/>
      </g>
     </g>
     <g id="text_6">
      <!-- 5000 -->
      <g transform="translate(645.693221 185.158437) scale(0.1 -0.1)">
       <defs>
        <path id="DejaVuSans-35" d="M 691 4666 
L 3169 4666 
L 3169 4134 
L 1269 4134 
L 1269 2991 
Q 1406 3038 1543 3061 
Q 1681 3084 1819 3084 
Q 2600 3084 3056 2656 
Q 3513 2228 3513 1497 
Q 3513 744 3044 326 
Q 2575 -91 1722 -91 
Q 1428 -91 1123 -41 
Q 819 9 494 109 
L 494 744 
Q 775 591 1075 516 
Q 1375 441 1709 441 
Q 2250 441 2565 725 
Q 2881 1009 2881 1497 
Q 2881 1984 2565 2268 
Q 2250 2553 1709 2553 
Q 1456 2553 1204 2497 
Q 953 2441 691 2322 
L 691 4666 
z
" transform="scale(0.015625)"/>
       </defs>
       <use xlink:href="#DejaVuSans-35"/>
       <use xlink:href="#DejaVuSans-30" x="63.623047"/>
       <use xlink:href="#DejaVuSans-30" x="127.246094"/>
       <use xlink:href="#DejaVuSans-30" x="190.869141"/>
      </g>
     </g>
    </g>
   </g>
   <g id="matplotlib.axis_2">
    <g id="ytick_1">
     <g id="line2d_7">
      <defs>
       <path id="me25ed0e002" d="M 0 0 
L -3.5 0 
" style="stroke: #000000; stroke-width: 0.8"/>
      </defs>
      <g>
       <use xlink:href="#me25ed0e002" x="55.82" y="166.054654" style="stroke: #000000; stroke-width: 0.8"/>
      </g>
     </g>
     <g id="text_7">
      <!-- 0 -->
      <g transform="translate(42.4575 169.853873) scale(0.1 -0.1)">
       <use xlink:href="#DejaVuSans-30"/>
      </g>
     </g>
    </g>
    <g id="ytick_2">
     <g id="line2d_8">
      <g>
       <use xlink:href="#me25ed0e002" x="55.82" y="129.1788" style="stroke: #000000; stroke-width: 0.8"/>
      </g>
     </g>
     <g id="text_8">
      <!-- 1 -->
      <g transform="translate(42.4575 132.978019) scale(0.1 -0.1)">
       <use xlink:href="#DejaVuSans-31"/>
      </g>
     </g>
    </g>
    <g id="ytick_3">
     <g id="line2d_9">
      <g>
       <use xlink:href="#me25ed0e002" x="55.82" y="92.302946" style="stroke: #000000; stroke-width: 0.8"/>
      </g>
     </g>
     <g id="text_9">
      <!-- 2 -->
      <g transform="translate(42.4575 96.102165) scale(0.1 -0.1)">
       <use xlink:href="#DejaVuSans-32"/>
      </g>
     </g>
    </g>
    <g id="ytick_4">
     <g id="line2d_10">
      <g>
       <use xlink:href="#me25ed0e002" x="55.82" y="55.427092" style="stroke: #000000; stroke-width: 0.8"/>
      </g>
     </g>
     <g id="text_10">
      <!-- 3 -->
      <g transform="translate(42.4575 59.22631) scale(0.1 -0.1)">
       <use xlink:href="#DejaVuSans-33"/>
      </g>
     </g>
    </g>
    <g id="text_11">
     <!-- 1 -->
     <g transform="translate(35.961875 104.3375) rotate(-90) scale(0.12 -0.12)">
      <use xlink:href="#DejaVuSans-31"/>
     </g>
    </g>
   </g>
   <g id="line2d_11">
    <path d="M 85.519091 38.774401 
L 95.602116 38.090864 
L 109.007955 37.536165 
L 130.778122 36.993648 
L 134.902996 36.919291 
L 135.475895 42.472461 
L 136.507113 53.113395 
L 138.340391 71.090022 
L 139.371609 80.719414 
L 143.152743 111.776112 
L 143.381903 111.997326 
L 169.276944 111.715245 
L 200.900976 111.507631 
L 201.244715 113.75658 
L 203.307152 127.769274 
L 205.140429 138.595387 
L 206.973707 148.228035 
L 208.234085 153.764022 
L 209.036143 156.182425 
L 209.265303 156.556819 
L 217.400471 156.510217 
L 217.85879 157.480408 
L 218.775429 159.144441 
L 219.692067 160.37671 
L 220.723286 161.412341 
L 221.869084 162.266028 
L 223.244042 163.014323 
L 224.962739 163.675148 
L 225.993958 163.888659 
L 251.774418 163.658595 
L 252.461897 163.341255 
L 253.149376 162.722368 
L 253.836855 161.760858 
L 254.638914 160.147503 
L 255.326393 158.333558 
L 256.243032 155.363302 
L 257.15967 151.794709 
L 258.649208 145.123213 
L 260.138746 138.892216 
L 261.169964 135.721824 
L 262.086603 133.407599 
L 263.346981 130.807056 
L 264.492779 128.891777 
L 265.753157 127.145674 
L 267.128115 125.569902 
L 268.732233 124.058923 
L 270.68009 122.586782 
L 273.086266 121.163985 
L 275.377863 120.097304 
L 277.4403 119.311944 
L 280.992274 118.245577 
L 284.200509 117.500478 
L 288.783702 116.692466 
L 295.200173 115.877677 
L 304.022819 115.113637 
L 314.449583 114.519634 
L 326.595045 114.067151 
L 345.729876 113.579533 
L 349.39643 113.509032 
L 350.083909 118.113922 
L 351.000548 124.435936 
L 354.208783 143.234108 
L 355.010842 147.359384 
L 356.614959 154.269251 
L 357.646178 157.084925 
L 357.875337 157.151596 
L 381.822521 156.828217 
L 422.956679 156.519086 
L 433.154283 156.381255 
L 433.841762 156.098772 
L 434.414661 155.664422 
L 434.98756 155.003501 
L 435.789619 153.673904 
L 436.706258 151.537999 
L 437.622896 148.755566 
L 438.539535 145.359469 
L 442.206089 130.443924 
L 443.466467 127.100077 
L 444.841425 124.218356 
L 446.101803 122.09874 
L 447.476761 120.200094 
L 448.3934 119.140241 
L 448.737139 120.911521 
L 451.028736 133.393628 
L 453.091173 143.500523 
L 454.92445 151.337982 
L 455.841089 154.369644 
L 456.643147 156.274256 
L 456.872307 156.251104 
L 459.163904 155.209273 
L 462.372139 154.060211 
L 465.924113 152.953996 
L 466.611592 152.381592 
L 467.184491 151.670594 
L 467.98655 150.281121 
L 469.017769 147.850711 
L 470.048987 144.831475 
L 471.423945 140.014174 
L 473.600962 131.166476 
L 474.5176 127.929398 
L 475.892558 124.173976 
L 477.267516 121.254292 
L 478.527894 119.106049 
L 479.902852 117.192598 
L 481.39239 115.499048 
L 482.996507 114.020741 
L 484.944364 112.57794 
L 486.548482 111.605961 
L 488.610919 110.570756 
L 490.444196 109.806812 
L 494.33991 108.54384 
L 499.381423 107.38731 
L 503.620876 106.678802 
L 510.037346 105.891671 
L 514.39138 105.488543 
L 515.308018 106.782374 
L 517.599615 109.639763 
L 519.432892 111.373794 
L 520.80785 112.366601 
L 522.526547 113.252679 
L 524.245245 113.809048 
L 525.963942 114.096403 
L 527.797219 114.174786 
L 529.974236 114.055494 
L 532.838732 113.667304 
L 546.702891 111.402166 
L 550.827764 111.110341 
L 554.723479 111.06716 
L 558.619193 111.254842 
L 562.629487 111.681371 
L 566.296041 112.27032 
L 571.108394 113.322597 
L 575.347847 114.497959 
L 580.38936 116.18033 
L 584.285074 117.675953 
L 588.868267 119.64057 
L 594.940997 122.551152 
L 604.680283 127.846482 
L 613.617509 133.270609 
L 620.606879 137.99469 
L 640.200029 151.742521 
L 645.356121 154.960209 
L 648.335196 156.675292 
L 655.095406 160.067927 
L 658.647381 161.537023 
L 660.824397 162.19656 
L 663.230574 162.725001 
L 666.209649 163.197495 
L 671.136582 163.707493 
L 678.011371 164.130208 
L 679.500909 164.192727 
L 679.500909 164.192727 
" clip-path="url(#pb04f5c533a)" style="fill: none; stroke: #1f77b4; stroke-width: 1.5; stroke-linecap: square"/>
   </g>
   <g id="line2d_12">
    <path d="M 85.519091 38.774401 
L 104.997661 38.012344 
L 113.132829 37.548689 
L 135.017576 36.847273 
L 135.132156 37.495293 
L 137.423752 62.255735 
L 139.600769 83.429158 
L 141.663206 101.33606 
L 143.152743 112.949294 
L 143.381903 113.372205 
L 154.839886 113.102401 
L 162.287574 112.860842 
L 172.256019 112.679187 
L 179.130809 112.550691 
L 201.015556 112.607978 
L 201.244715 113.869184 
L 203.077992 126.408613 
L 204.79669 136.594428 
L 206.286228 144.146204 
L 207.661185 150.009356 
L 208.463244 152.636843 
L 209.150723 154.28174 
L 209.379883 154.401882 
L 217.62963 154.538001 
L 218.546269 156.030013 
L 219.462908 157.117039 
L 220.494126 158.018894 
L 221.754504 158.816725 
L 223.244042 159.482356 
L 225.077319 160.047258 
L 226.108537 160.198737 
L 237.56652 160.120711 
L 245.472528 160.00269 
L 250.7432 160.103941 
L 251.201519 160.168383 
L 251.659839 160.019094 
L 252.232738 159.56794 
L 252.920217 158.680302 
L 253.722276 157.218971 
L 254.638914 155.066979 
L 255.784712 151.773433 
L 257.15967 147.108816 
L 258.763788 140.930193 
L 259.909586 136.302651 
L 261.055384 132.509699 
L 262.201183 129.411547 
L 263.346981 126.89672 
L 264.607359 124.672123 
L 265.867737 122.894169 
L 267.242695 121.345777 
L 268.617653 120.084013 
L 270.107191 119.003532 
L 271.825888 118.044053 
L 273.659165 117.278086 
L 275.607022 116.690492 
L 278.127778 116.216277 
L 281.336014 115.847887 
L 289.242022 115.280612 
L 294.627273 115.075883 
L 305.741517 114.719473 
L 312.616306 114.549619 
L 323.730549 114.266423 
L 330.376179 114.196767 
L 343.323699 114.234002 
L 349.51101 114.294324 
L 349.74017 115.534665 
L 351.573447 127.837551 
L 353.177565 137.190897 
L 354.667102 144.643293 
L 356.04206 150.403052 
L 356.844119 152.884212 
L 357.646178 154.671561 
L 357.875337 154.786863 
L 369.791639 155.302567 
L 384.228697 156.200893 
L 404.967646 157.846525 
L 417.113107 158.739969 
L 433.154283 159.516741 
L 433.727182 159.066616 
L 434.414661 158.165396 
L 435.21672 156.669344 
L 436.133359 154.452443 
L 437.279157 151.063593 
L 438.654115 146.266714 
L 440.258232 139.895882 
L 441.404031 135.113904 
L 442.549829 131.193216 
L 443.695627 127.988924 
L 444.841425 125.385581 
L 446.101803 123.079159 
L 447.362182 121.231201 
L 448.50798 119.864248 
L 448.62256 120.13286 
L 450.799576 132.032464 
L 452.632854 140.854672 
L 454.236971 147.501839 
L 455.382769 151.498142 
L 456.184828 153.529997 
L 456.757727 154.53817 
L 459.278483 153.949421 
L 462.601298 153.419132 
L 465.236634 153.177809 
L 465.694954 153.18293 
L 466.267853 152.939997 
L 466.840752 152.44741 
L 467.528231 151.556358 
L 468.33029 150.145095 
L 469.361508 147.823883 
L 470.621886 144.362347 
L 472.226004 139.2274 
L 475.777978 127.48767 
L 477.038356 124.565976 
L 478.298735 122.219027 
L 479.559113 120.324003 
L 480.934071 118.656021 
L 482.423608 117.21435 
L 484.027726 115.986896 
L 485.746423 114.954451 
L 487.69428 114.048394 
L 489.985877 113.23926 
L 492.735793 112.506936 
L 496.402347 111.777547 
L 501.673019 110.975768 
L 514.50596 109.306704 
L 514.735119 109.565416 
L 515.880918 111.1075 
L 517.026716 112.308294 
L 518.172514 113.220406 
L 519.432892 113.941591 
L 520.80785 114.457879 
L 522.297388 114.771384 
L 524.016085 114.896481 
L 526.078522 114.810265 
L 528.713858 114.460821 
L 532.838732 113.657367 
L 540.057261 112.259988 
L 544.296714 111.679797 
L 548.307008 111.350135 
L 552.317302 111.240574 
L 556.442176 111.351871 
L 560.681629 111.690584 
L 565.150243 112.277009 
L 569.733436 113.103397 
L 574.660368 114.222541 
L 579.81646 115.623582 
L 585.430872 117.38544 
L 591.503603 119.53143 
L 598.149233 122.120352 
L 605.826081 125.358932 
L 614.304988 129.176961 
L 620.950618 132.463919 
L 631.721122 137.791471 
L 637.106373 140.190114 
L 641.918726 142.090829 
L 646.387339 143.61539 
L 650.626793 144.828665 
L 654.751667 145.779596 
L 658.647381 146.453731 
L 661.168137 146.648657 
L 664.490952 146.665282 
L 669.188725 146.448223 
L 678.240531 145.760575 
L 679.500909 145.659346 
L 679.500909 145.659346 
" clip-path="url(#pb04f5c533a)" style="fill: none; stroke: #ff7f0e; stroke-width: 1.5; stroke-linecap: square"/>
   </g>
   <g id="patch_3">
    <path d="M 55.82 170.56 
L 55.82 30.48 
" style="fill: none; stroke: #000000; stroke-width: 0.8; stroke-linejoin: miter; stroke-linecap: square"/>
   </g>
   <g id="patch_4">
    <path d="M 709.2 170.56 
L 709.2 30.48 
" style="fill: none; stroke: #000000; stroke-width: 0.8; stroke-linejoin: miter; stroke-linecap: square"/>
   </g>
   <g id="patch_5">
    <path d="M 55.82 170.56 
L 709.2 170.56 
" style="fill: none; stroke: #000000; stroke-width: 0.8; stroke-linejoin: miter; stroke-linecap: square"/>
   </g>
   <g id="patch_6">
    <path d="M 55.82 30.48 
L 709.2 30.48 
" style="fill: none; stroke: #000000; stroke-width: 0.8; stroke-linejoin: miter; stroke-linecap: square"/>
   </g>
   <g id="text_12">
    <!-- outputs -->
    <g transform="translate(349.51195 24.48) scale(0.1728 -0.1728)">
     <defs>
      <path id="DejaVuSans-6f" d="M 1959 3097 
Q 1497 3097 1228 2736 
Q 959 2375 959 1747 
Q 959 1119 1226 758 
Q 1494 397 1959 397 
Q 2419 397 2687 759 
Q 2956 1122 2956 1747 
Q 2956 2369 2687 2733 
Q 2419 3097 1959 3097 
z
M 1959 3584 
Q 2709 3584 3137 3096 
Q 3566 2609 3566 1747 
Q 3566 888 3137 398 
Q 2709 -91 1959 -91 
Q 1206 -91 779 398 
Q 353 888 353 1747 
Q 353 2609 779 3096 
Q 1206 3584 1959 3584 
z
" transform="scale(0.015625)"/>
      <path id="DejaVuSans-75" d="M 544 1381 
L 544 3500 
L 1119 3500 
L 1119 1403 
Q 1119 906 1312 657 
Q 1506 409 1894 409 
Q 2359 409 2629 706 
Q 2900 1003 2900 1516 
L 2900 3500 
L 3475 3500 
L 3475 0 
L 2900 0 
L 2900 538 
Q 2691 219 2414 64 
Q 2138 -91 1772 -91 
Q 1169 -91 856 284 
Q 544 659 544 1381 
z
M 1991 3584 
L 1991 3584 
z
" transform="scale(0.015625)"/>
      <path id="DejaVuSans-74" d="M 1172 4494 
L 1172 3500 
L 2356 3500 
L 2356 3053 
L 1172 3053 
L 1172 1153 
Q 1172 725 1289 603 
Q 1406 481 1766 481 
L 2356 481 
L 2356 0 
L 1766 0 
Q 1100 0 847 248 
Q 594 497 594 1153 
L 594 3053 
L 172 3053 
L 172 3500 
L 594 3500 
L 594 4494 
L 1172 4494 
z
" transform="scale(0.015625)"/>
      <path id="DejaVuSans-70" d="M 1159 525 
L 1159 -1331 
L 581 -1331 
L 581 3500 
L 1159 3500 
L 1159 2969 
Q 1341 3281 1617 3432 
Q 1894 3584 2278 3584 
Q 2916 3584 3314 3078 
Q 3713 2572 3713 1747 
Q 3713 922 3314 415 
Q 2916 -91 2278 -91 
Q 1894 -91 1617 61 
Q 1341 213 1159 525 
z
M 3116 1747 
Q 3116 2381 2855 2742 
Q 2594 3103 2138 3103 
Q 1681 3103 1420 2742 
Q 1159 2381 1159 1747 
Q 1159 1113 1420 752 
Q 1681 391 2138 391 
Q 2594 391 2855 752 
Q 3116 1113 3116 1747 
z
" transform="scale(0.015625)"/>
      <path id="DejaVuSans-73" d="M 2834 3397 
L 2834 2853 
Q 2591 2978 2328 3040 
Q 2066 3103 1784 3103 
Q 1356 3103 1142 2972 
Q 928 2841 928 2578 
Q 928 2378 1081 2264 
Q 1234 2150 1697 2047 
L 1894 2003 
Q 2506 1872 2764 1633 
Q 3022 1394 3022 966 
Q 3022 478 2636 193 
Q 2250 -91 1575 -91 
Q 1294 -91 989 -36 
Q 684 19 347 128 
L 347 722 
Q 666 556 975 473 
Q 1284 391 1588 391 
Q 1994 391 2212 530 
Q 2431 669 2431 922 
Q 2431 1156 2273 1281 
Q 2116 1406 1581 1522 
L 1381 1569 
Q 847 1681 609 1914 
Q 372 2147 372 2553 
Q 372 3047 722 3315 
Q 1072 3584 1716 3584 
Q 2034 3584 2315 3537 
Q 2597 3491 2834 3397 
z
" transform="scale(0.015625)"/>
     </defs>
     <use xlink:href="#DejaVuSans-6f"/>
     <use xlink:href="#DejaVuSans-75" x="61.181641"/>
     <use xlink:href="#DejaVuSans-74" x="124.560547"/>
     <use xlink:href="#DejaVuSans-70" x="163.769531"/>
     <use xlink:href="#DejaVuSans-75" x="227.246094"/>
     <use xlink:href="#DejaVuSans-74" x="290.625"/>
     <use xlink:href="#DejaVuSans-73" x="329.833984"/>
    </g>
   </g>
   <g id="legend_1">
    <g id="patch_7">
     <path d="M 603.45225 84.273 
L 699.12 84.273 
Q 702 84.273 702 81.393 
L 702 40.56 
Q 702 37.68 699.12 37.68 
L 603.45225 37.68 
Q 600.57225 37.68 600.57225 40.56 
L 600.57225 81.393 
Q 600.57225 84.273 603.45225 84.273 
z
" style="fill: #ffffff; opacity: 0.8; stroke: #cccccc; stroke-linejoin: miter"/>
    </g>
    <g id="line2d_13">
     <path d="M 606.33225 49.34175 
L 620.73225 49.34175 
L 635.13225 49.34175 
" style="fill: none; stroke: #1f77b4; stroke-width: 1.5; stroke-linecap: square"/>
    </g>
    <g id="text_13">
     <!-- actual -->
     <g transform="translate(646.65225 54.38175) scale(0.144 -0.144)">
      <defs>
       <path id="DejaVuSans-61" d="M 2194 1759 
Q 1497 1759 1228 1600 
Q 959 1441 959 1056 
Q 959 750 1161 570 
Q 1363 391 1709 391 
Q 2188 391 2477 730 
Q 2766 1069 2766 1631 
L 2766 1759 
L 2194 1759 
z
M 3341 1997 
L 3341 0 
L 2766 0 
L 2766 531 
Q 2569 213 2275 61 
Q 1981 -91 1556 -91 
Q 1019 -91 701 211 
Q 384 513 384 1019 
Q 384 1609 779 1909 
Q 1175 2209 1959 2209 
L 2766 2209 
L 2766 2266 
Q 2766 2663 2505 2880 
Q 2244 3097 1772 3097 
Q 1472 3097 1187 3025 
Q 903 2953 641 2809 
L 641 3341 
Q 956 3463 1253 3523 
Q 1550 3584 1831 3584 
Q 2591 3584 2966 3190 
Q 3341 2797 3341 1997 
z
" transform="scale(0.015625)"/>
       <path id="DejaVuSans-63" d="M 3122 3366 
L 3122 2828 
Q 2878 2963 2633 3030 
Q 2388 3097 2138 3097 
Q 1578 3097 1268 2742 
Q 959 2388 959 1747 
Q 959 1106 1268 751 
Q 1578 397 2138 397 
Q 2388 397 2633 464 
Q 2878 531 3122 666 
L 3122 134 
Q 2881 22 2623 -34 
Q 2366 -91 2075 -91 
Q 1284 -91 818 406 
Q 353 903 353 1747 
Q 353 2603 823 3093 
Q 1294 3584 2113 3584 
Q 2378 3584 2631 3529 
Q 2884 3475 3122 3366 
z
" transform="scale(0.015625)"/>
       <path id="DejaVuSans-6c" d="M 603 4863 
L 1178 4863 
L 1178 0 
L 603 0 
L 603 4863 
z
" transform="scale(0.015625)"/>
      </defs>
      <use xlink:href="#DejaVuSans-61"/>
      <use xlink:href="#DejaVuSans-63" x="61.279297"/>
      <use xlink:href="#DejaVuSans-74" x="116.259766"/>
      <use xlink:href="#DejaVuSans-75" x="155.46875"/>
      <use xlink:href="#DejaVuSans-61" x="218.847656"/>
      <use xlink:href="#DejaVuSans-6c" x="280.126953"/>
     </g>
    </g>
    <g id="line2d_14">
     <path d="M 606.33225 70.47825 
L 620.73225 70.47825 
L 635.13225 70.47825 
" style="fill: none; stroke: #ff7f0e; stroke-width: 1.5; stroke-linecap: square"/>
    </g>
    <g id="text_14">
     <!-- approx -->
     <g transform="translate(646.65225 75.51825) scale(0.144 -0.144)">
      <defs>
       <path id="DejaVuSans-72" d="M 2631 2963 
Q 2534 3019 2420 3045 
Q 2306 3072 2169 3072 
Q 1681 3072 1420 2755 
Q 1159 2438 1159 1844 
L 1159 0 
L 581 0 
L 581 3500 
L 1159 3500 
L 1159 2956 
Q 1341 3275 1631 3429 
Q 1922 3584 2338 3584 
Q 2397 3584 2469 3576 
Q 2541 3569 2628 3553 
L 2631 2963 
z
" transform="scale(0.015625)"/>
       <path id="DejaVuSans-78" d="M 3513 3500 
L 2247 1797 
L 3578 0 
L 2900 0 
L 1881 1375 
L 863 0 
L 184 0 
L 1544 1831 
L 300 3500 
L 978 3500 
L 1906 2253 
L 2834 3500 
L 3513 3500 
z
" transform="scale(0.015625)"/>
      </defs>
      <use xlink:href="#DejaVuSans-61"/>
      <use xlink:href="#DejaVuSans-70" x="61.279297"/>
      <use xlink:href="#DejaVuSans-70" x="124.755859"/>
      <use xlink:href="#DejaVuSans-72" x="188.232422"/>
      <use xlink:href="#DejaVuSans-6f" x="227.095703"/>
      <use xlink:href="#DejaVuSans-78" x="285.152344"/>
     </g>
    </g>
   </g>
  </g>
  <g id="axes_2">
   <g id="patch_8">
    <path d="M 55.82 338.52 
L 709.2 338.52 
L 709.2 198.44 
L 55.82 198.44 
z
" style="fill: #ffffff"/>
   </g>
   <g id="matplotlib.axis_3">
    <g id="xtick_7">
     <g id="line2d_15">
      <g>
       <use xlink:href="#m9cb4929d1c" x="85.519091" y="338.52" style="stroke: #000000; stroke-width: 0.8"/>
      </g>
     </g>
     <g id="text_15">
      <!-- 0 -->
      <g transform="translate(82.337841 353.118437) scale(0.1 -0.1)">
       <use xlink:href="#DejaVuSans-30"/>
      </g>
     </g>
    </g>
    <g id="xtick_8">
     <g id="line2d_16">
      <g>
       <use xlink:href="#m9cb4929d1c" x="200.098917" y="338.52" style="stroke: #000000; stroke-width: 0.8"/>
      </g>
     </g>
     <g id="text_16">
      <!-- 1000 -->
      <g transform="translate(187.373917 353.118437) scale(0.1 -0.1)">
       <use xlink:href="#DejaVuSans-31"/>
       <use xlink:href="#DejaVuSans-30" x="63.623047"/>
       <use xlink:href="#DejaVuSans-30" x="127.246094"/>
       <use xlink:href="#DejaVuSans-30" x="190.869141"/>
      </g>
     </g>
    </g>
    <g id="xtick_9">
     <g id="line2d_17">
      <g>
       <use xlink:href="#m9cb4929d1c" x="314.678743" y="338.52" style="stroke: #000000; stroke-width: 0.8"/>
      </g>
     </g>
     <g id="text_17">
      <!-- 2000 -->
      <g transform="translate(301.953743 353.118437) scale(0.1 -0.1)">
       <use xlink:href="#DejaVuSans-32"/>
       <use xlink:href="#DejaVuSans-30" x="63.623047"/>
       <use xlink:href="#DejaVuSans-30" x="127.246094"/>
       <use xlink:href="#DejaVuSans-30" x="190.869141"/>
      </g>
     </g>
    </g>
    <g id="xtick_10">
     <g id="line2d_18">
      <g>
       <use xlink:href="#m9cb4929d1c" x="429.258569" y="338.52" style="stroke: #000000; stroke-width: 0.8"/>
      </g>
     </g>
     <g id="text_18">
      <!-- 3000 -->
      <g transform="translate(416.533569 353.118437) scale(0.1 -0.1)">
       <use xlink:href="#DejaVuSans-33"/>
       <use xlink:href="#DejaVuSans-30" x="63.623047"/>
       <use xlink:href="#DejaVuSans-30" x="127.246094"/>
       <use xlink:href="#DejaVuSans-30" x="190.869141"/>
      </g>
     </g>
    </g>
    <g id="xtick_11">
     <g id="line2d_19">
      <g>
       <use xlink:href="#m9cb4929d1c" x="543.838395" y="338.52" style="stroke: #000000; stroke-width: 0.8"/>
      </g>
     </g>
     <g id="text_19">
      <!-- 4000 -->
      <g transform="translate(531.113395 353.118437) scale(0.1 -0.1)">
       <use xlink:href="#DejaVuSans-34"/>
       <use xlink:href="#DejaVuSans-30" x="63.623047"/>
       <use xlink:href="#DejaVuSans-30" x="127.246094"/>
       <use xlink:href="#DejaVuSans-30" x="190.869141"/>
      </g>
     </g>
    </g>
    <g id="xtick_12">
     <g id="line2d_20">
      <g>
       <use xlink:href="#m9cb4929d1c" x="658.418221" y="338.52" style="stroke: #000000; stroke-width: 0.8"/>
      </g>
     </g>
     <g id="text_20">
      <!-- 5000 -->
      <g transform="translate(645.693221 353.118437) scale(0.1 -0.1)">
       <use xlink:href="#DejaVuSans-35"/>
       <use xlink:href="#DejaVuSans-30" x="63.623047"/>
       <use xlink:href="#DejaVuSans-30" x="127.246094"/>
       <use xlink:href="#DejaVuSans-30" x="190.869141"/>
      </g>
     </g>
    </g>
   </g>
   <g id="matplotlib.axis_4">
    <g id="ytick_5">
     <g id="line2d_21">
      <g>
       <use xlink:href="#me25ed0e002" x="55.82" y="310.856733" style="stroke: #000000; stroke-width: 0.8"/>
      </g>
     </g>
     <g id="text_21">
      <!-- −30 -->
      <g transform="translate(27.715313 314.655951) scale(0.1 -0.1)">
       <defs>
        <path id="DejaVuSans-2212" d="M 678 2272 
L 4684 2272 
L 4684 1741 
L 678 1741 
L 678 2272 
z
" transform="scale(0.015625)"/>
       </defs>
       <use xlink:href="#DejaVuSans-2212"/>
       <use xlink:href="#DejaVuSans-33" x="83.789062"/>
       <use xlink:href="#DejaVuSans-30" x="147.412109"/>
      </g>
     </g>
    </g>
    <g id="ytick_6">
     <g id="line2d_22">
      <g>
       <use xlink:href="#me25ed0e002" x="55.82" y="280.589018" style="stroke: #000000; stroke-width: 0.8"/>
      </g>
     </g>
     <g id="text_22">
      <!-- −20 -->
      <g transform="translate(27.715313 284.388237) scale(0.1 -0.1)">
       <use xlink:href="#DejaVuSans-2212"/>
       <use xlink:href="#DejaVuSans-32" x="83.789062"/>
       <use xlink:href="#DejaVuSans-30" x="147.412109"/>
      </g>
     </g>
    </g>
    <g id="ytick_7">
     <g id="line2d_23">
      <g>
       <use xlink:href="#me25ed0e002" x="55.82" y="250.321303" style="stroke: #000000; stroke-width: 0.8"/>
      </g>
     </g>
     <g id="text_23">
      <!-- −10 -->
      <g transform="translate(27.715313 254.120522) scale(0.1 -0.1)">
       <use xlink:href="#DejaVuSans-2212"/>
       <use xlink:href="#DejaVuSans-31" x="83.789062"/>
       <use xlink:href="#DejaVuSans-30" x="147.412109"/>
      </g>
     </g>
    </g>
    <g id="ytick_8">
     <g id="line2d_24">
      <g>
       <use xlink:href="#me25ed0e002" x="55.82" y="220.053588" style="stroke: #000000; stroke-width: 0.8"/>
      </g>
     </g>
     <g id="text_24">
      <!-- 0 -->
      <g transform="translate(42.4575 223.852807) scale(0.1 -0.1)">
       <use xlink:href="#DejaVuSans-30"/>
      </g>
     </g>
    </g>
    <g id="text_25">
     <!-- 4 -->
     <g transform="translate(21.219688 272.2975) rotate(-90) scale(0.12 -0.12)">
      <use xlink:href="#DejaVuSans-34"/>
     </g>
    </g>
   </g>
   <g id="line2d_25">
    <path d="M 85.519091 210.618664 
L 104.539342 210.510299 
L 113.018249 210.190791 
L 119.663879 210.078721 
L 127.111568 209.359007 
L 155.527365 209.18348 
L 162.058415 208.956308 
L 170.881061 208.8429 
L 179.130809 208.572648 
L 185.776439 208.459519 
L 193.797027 207.806443 
L 237.222781 207.686744 
L 245.243368 207.450701 
L 250.62862 207.533356 
L 255.097233 209.2899 
L 258.878368 210.653846 
L 269.992611 210.54368 
L 277.898619 210.298901 
L 286.835845 210.18297 
L 295.200173 209.973904 
L 303.5645 209.8637 
L 311.814247 209.692582 
L 320.980633 209.581268 
L 328.886641 209.474622 
L 334.271893 209.363462 
L 343.438279 208.73333 
L 367.385463 208.623303 
L 374.489412 208.050683 
L 384.457857 207.903365 
L 392.020126 207.423288 
L 400.613613 207.314812 
L 408.6342 206.85698 
L 422.15462 206.745342 
L 431.893905 206.711047 
L 432.695964 207.027623 
L 440.372812 209.982139 
L 465.122055 210.057696 
L 472.226004 212.605536 
L 473.486382 212.917095 
L 483.111087 212.806129 
L 491.131675 212.346693 
L 499.839742 212.235786 
L 507.63117 211.854114 
L 520.92243 211.960053 
L 526.995161 212.355087 
L 533.297051 212.99864 
L 561.827428 215.993269 
L 573.62915 217.00448 
L 586.69125 217.937753 
L 600.09709 218.683181 
L 613.15919 219.195866 
L 629.429525 219.498555 
L 654.980826 219.707343 
L 679.500909 219.802891 
L 679.500909 219.802891 
" clip-path="url(#p42d7382819)" style="fill: none; stroke: #1f77b4; stroke-width: 1.5; stroke-linecap: square"/>
   </g>
   <g id="line2d_26">
    <path d="M 85.519091 210.618664 
L 104.653922 210.489157 
L 112.78909 210.18142 
L 119.549299 210.073388 
L 127.684467 209.269763 
L 155.183625 209.10914 
L 162.402154 208.874595 
L 170.881061 208.769256 
L 178.901649 208.508199 
L 185.661859 208.403787 
L 193.682447 207.663381 
L 238.368579 207.546907 
L 245.128789 207.370897 
L 250.7432 207.45056 
L 256.472191 209.718718 
L 258.878368 210.551428 
L 269.992611 210.450551 
L 278.242358 210.217698 
L 286.835845 210.103552 
L 294.971013 209.895627 
L 303.5645 209.772857 
L 311.814247 209.583585 
L 320.751474 209.437171 
L 329.459541 209.269773 
L 334.157313 209.125272 
L 342.292481 208.330515 
L 366.354245 207.910068 
L 375.520631 206.970098 
L 383.770378 206.669817 
L 391.790966 205.869634 
L 400.728192 205.540935 
L 408.061301 204.908596 
L 424.102477 204.819837 
L 430.404367 205.037658 
L 432.237645 205.205121 
L 440.258232 209.001118 
L 446.445543 209.693597 
L 452.174534 210.553554 
L 457.674366 211.603607 
L 463.059618 212.861254 
L 465.236634 213.4982 
L 474.059281 218.934844 
L 479.329953 220.889976 
L 485.173524 223.074944 
L 489.985877 224.978932 
L 495.485708 227.735756 
L 502.933397 231.498076 
L 507.287431 233.831425 
L 514.620539 238.302169 
L 525.963942 245.853356 
L 532.380412 250.58783 
L 545.557092 260.355375 
L 553.348521 265.844167 
L 560.33789 270.5001 
L 566.86894 274.585075 
L 573.170831 278.264079 
L 579.358141 281.618372 
L 585.545452 284.721275 
L 591.961922 287.689586 
L 598.836712 290.620918 
L 606.74272 293.73988 
L 616.711164 297.421165 
L 630.231584 302.428666 
L 637.106373 305.220936 
L 642.949945 307.827168 
L 648.335196 310.471636 
L 653.376709 313.196299 
L 658.189061 316.050157 
L 662.886834 319.096385 
L 667.470027 322.332791 
L 672.05322 325.843019 
L 676.636413 329.636006 
L 679.500909 332.152727 
L 679.500909 332.152727 
" clip-path="url(#p42d7382819)" style="fill: none; stroke: #ff7f0e; stroke-width: 1.5; stroke-linecap: square"/>
   </g>
   <g id="patch_9">
    <path d="M 55.82 338.52 
L 55.82 198.44 
" style="fill: none; stroke: #000000; stroke-width: 0.8; stroke-linejoin: miter; stroke-linecap: square"/>
   </g>
   <g id="patch_10">
    <path d="M 709.2 338.52 
L 709.2 198.44 
" style="fill: none; stroke: #000000; stroke-width: 0.8; stroke-linejoin: miter; stroke-linecap: square"/>
   </g>
   <g id="patch_11">
    <path d="M 55.82 338.52 
L 709.2 338.52 
" style="fill: none; stroke: #000000; stroke-width: 0.8; stroke-linejoin: miter; stroke-linecap: square"/>
   </g>
   <g id="patch_12">
    <path d="M 55.82 198.44 
L 709.2 198.44 
" style="fill: none; stroke: #000000; stroke-width: 0.8; stroke-linejoin: miter; stroke-linecap: square"/>
   </g>
  </g>
  <g id="axes_3">
   <g id="patch_13">
    <path d="M 55.82 506.48 
L 709.2 506.48 
L 709.2 366.4 
L 55.82 366.4 
z
" style="fill: #ffffff"/>
   </g>
   <g id="matplotlib.axis_5">
    <g id="xtick_13">
     <g id="line2d_27">
      <g>
       <use xlink:href="#m9cb4929d1c" x="85.519091" y="506.48" style="stroke: #000000; stroke-width: 0.8"/>
      </g>
     </g>
     <g id="text_26">
      <!-- 0 -->
      <g transform="translate(82.337841 521.078438) scale(0.1 -0.1)">
       <use xlink:href="#DejaVuSans-30"/>
      </g>
     </g>
    </g>
    <g id="xtick_14">
     <g id="line2d_28">
      <g>
       <use xlink:href="#m9cb4929d1c" x="200.098917" y="506.48" style="stroke: #000000; stroke-width: 0.8"/>
      </g>
     </g>
     <g id="text_27">
      <!-- 1000 -->
      <g transform="translate(187.373917 521.078438) scale(0.1 -0.1)">
       <use xlink:href="#DejaVuSans-31"/>
       <use xlink:href="#DejaVuSans-30" x="63.623047"/>
       <use xlink:href="#DejaVuSans-30" x="127.246094"/>
       <use xlink:href="#DejaVuSans-30" x="190.869141"/>
      </g>
     </g>
    </g>
    <g id="xtick_15">
     <g id="line2d_29">
      <g>
       <use xlink:href="#m9cb4929d1c" x="314.678743" y="506.48" style="stroke: #000000; stroke-width: 0.8"/>
      </g>
     </g>
     <g id="text_28">
      <!-- 2000 -->
      <g transform="translate(301.953743 521.078438) scale(0.1 -0.1)">
       <use xlink:href="#DejaVuSans-32"/>
       <use xlink:href="#DejaVuSans-30" x="63.623047"/>
       <use xlink:href="#DejaVuSans-30" x="127.246094"/>
       <use xlink:href="#DejaVuSans-30" x="190.869141"/>
      </g>
     </g>
    </g>
    <g id="xtick_16">
     <g id="line2d_30">
      <g>
       <use xlink:href="#m9cb4929d1c" x="429.258569" y="506.48" style="stroke: #000000; stroke-width: 0.8"/>
      </g>
     </g>
     <g id="text_29">
      <!-- 3000 -->
      <g transform="translate(416.533569 521.078438) scale(0.1 -0.1)">
       <use xlink:href="#DejaVuSans-33"/>
       <use xlink:href="#DejaVuSans-30" x="63.623047"/>
       <use xlink:href="#DejaVuSans-30" x="127.246094"/>
       <use xlink:href="#DejaVuSans-30" x="190.869141"/>
      </g>
     </g>
    </g>
    <g id="xtick_17">
     <g id="line2d_31">
      <g>
       <use xlink:href="#m9cb4929d1c" x="543.838395" y="506.48" style="stroke: #000000; stroke-width: 0.8"/>
      </g>
     </g>
     <g id="text_30">
      <!-- 4000 -->
      <g transform="translate(531.113395 521.078438) scale(0.1 -0.1)">
       <use xlink:href="#DejaVuSans-34"/>
       <use xlink:href="#DejaVuSans-30" x="63.623047"/>
       <use xlink:href="#DejaVuSans-30" x="127.246094"/>
       <use xlink:href="#DejaVuSans-30" x="190.869141"/>
      </g>
     </g>
    </g>
    <g id="xtick_18">
     <g id="line2d_32">
      <g>
       <use xlink:href="#m9cb4929d1c" x="658.418221" y="506.48" style="stroke: #000000; stroke-width: 0.8"/>
      </g>
     </g>
     <g id="text_31">
      <!-- 5000 -->
      <g transform="translate(645.693221 521.078438) scale(0.1 -0.1)">
       <use xlink:href="#DejaVuSans-35"/>
       <use xlink:href="#DejaVuSans-30" x="63.623047"/>
       <use xlink:href="#DejaVuSans-30" x="127.246094"/>
       <use xlink:href="#DejaVuSans-30" x="190.869141"/>
      </g>
     </g>
    </g>
   </g>
   <g id="matplotlib.axis_6">
    <g id="ytick_9">
     <g id="line2d_33">
      <g>
       <use xlink:href="#me25ed0e002" x="55.82" y="494.338388" style="stroke: #000000; stroke-width: 0.8"/>
      </g>
     </g>
     <g id="text_32">
      <!-- 0 -->
      <g transform="translate(42.4575 498.137607) scale(0.1 -0.1)">
       <use xlink:href="#DejaVuSans-30"/>
      </g>
     </g>
    </g>
    <g id="ytick_10">
     <g id="line2d_34">
      <g>
       <use xlink:href="#me25ed0e002" x="55.82" y="462.244101" style="stroke: #000000; stroke-width: 0.8"/>
      </g>
     </g>
     <g id="text_33">
      <!-- 2 -->
      <g transform="translate(42.4575 466.043319) scale(0.1 -0.1)">
       <use xlink:href="#DejaVuSans-32"/>
      </g>
     </g>
    </g>
    <g id="ytick_11">
     <g id="line2d_35">
      <g>
       <use xlink:href="#me25ed0e002" x="55.82" y="430.149813" style="stroke: #000000; stroke-width: 0.8"/>
      </g>
     </g>
     <g id="text_34">
      <!-- 4 -->
      <g transform="translate(42.4575 433.949032) scale(0.1 -0.1)">
       <use xlink:href="#DejaVuSans-34"/>
      </g>
     </g>
    </g>
    <g id="ytick_12">
     <g id="line2d_36">
      <g>
       <use xlink:href="#me25ed0e002" x="55.82" y="398.055526" style="stroke: #000000; stroke-width: 0.8"/>
      </g>
     </g>
     <g id="text_35">
      <!-- 6 -->
      <g transform="translate(42.4575 401.854745) scale(0.1 -0.1)">
       <defs>
        <path id="DejaVuSans-36" d="M 2113 2584 
Q 1688 2584 1439 2293 
Q 1191 2003 1191 1497 
Q 1191 994 1439 701 
Q 1688 409 2113 409 
Q 2538 409 2786 701 
Q 3034 994 3034 1497 
Q 3034 2003 2786 2293 
Q 2538 2584 2113 2584 
z
M 3366 4563 
L 3366 3988 
Q 3128 4100 2886 4159 
Q 2644 4219 2406 4219 
Q 1781 4219 1451 3797 
Q 1122 3375 1075 2522 
Q 1259 2794 1537 2939 
Q 1816 3084 2150 3084 
Q 2853 3084 3261 2657 
Q 3669 2231 3669 1497 
Q 3669 778 3244 343 
Q 2819 -91 2113 -91 
Q 1303 -91 875 529 
Q 447 1150 447 2328 
Q 447 3434 972 4092 
Q 1497 4750 2381 4750 
Q 2619 4750 2861 4703 
Q 3103 4656 3366 4563 
z
" transform="scale(0.015625)"/>
       </defs>
       <use xlink:href="#DejaVuSans-36"/>
      </g>
     </g>
    </g>
    <g id="text_36">
     <!-- 6 -->
     <g transform="translate(35.961875 440.2575) rotate(-90) scale(0.12 -0.12)">
      <use xlink:href="#DejaVuSans-36"/>
     </g>
    </g>
   </g>
   <g id="line2d_37">
    <path d="M 85.519091 376.702067 
L 102.018586 376.777894 
L 105.455981 379.860309 
L 108.778796 382.837636 
L 110.268333 384.102999 
L 151.517071 384.172392 
L 152.777449 385.345943 
L 156.214844 388.564504 
L 159.652238 391.887708 
L 160.683457 391.901457 
L 168.016566 391.980046 
L 171.68312 395.640231 
L 175.693414 399.822874 
L 176.266313 400.33134 
L 234.014545 400.418801 
L 238.483159 405.358946 
L 242.378873 409.667446 
L 266.898956 409.667435 
L 268.159334 411.187353 
L 274.461224 419.432005 
L 275.263283 420.415853 
L 283.39845 420.415851 
L 284.085929 421.370193 
L 286.606686 425.071535 
L 290.846139 431.914555 
L 291.762778 433.346666 
L 299.897945 433.346664 
L 300.356265 434.14761 
L 302.189542 437.607961 
L 305.168617 444.099607 
L 306.772735 448.201809 
L 308.147693 451.647838 
L 308.491432 451.688619 
L 316.39744 451.688608 
L 316.85576 452.747773 
L 319.147356 458.104017 
L 324.418028 468.88274 
L 324.761768 469.32129 
L 415.39441 469.321239 
L 415.852729 470.107572 
L 419.290124 475.81587 
L 421.581721 479.131261 
L 423.758737 481.785833 
L 514.39138 481.785824 
L 515.193439 484.62083 
L 515.995497 486.938972 
L 516.682976 488.381695 
L 517.485035 489.482997 
L 518.287094 490.261282 
L 519.318312 490.971411 
L 520.92243 491.697276 
L 522.641127 492.201304 
L 524.818144 492.621111 
L 528.255539 493.027808 
L 533.182471 493.358706 
L 540.28642 493.616682 
L 553.92142 493.853299 
L 578.097763 494.016573 
L 639.856289 494.150099 
L 679.500909 494.19116 
L 679.500909 494.19116 
" clip-path="url(#pcbdfc1f8ff)" style="fill: none; stroke: #1f77b4; stroke-width: 1.5; stroke-linecap: square"/>
   </g>
   <g id="line2d_38">
    <path d="M 85.519091 376.702067 
L 99.49783 373.282153 
L 102.018586 372.767273 
L 102.247746 373.004698 
L 108.435056 382.139972 
L 110.268333 384.843317 
L 113.591148 384.792106 
L 117.143123 384.962542 
L 121.497156 385.196364 
L 123.674173 385.119139 
L 128.715685 384.84507 
L 130.778122 384.968096 
L 133.069719 385.370925 
L 135.590475 385.804066 
L 137.996651 385.836214 
L 141.434046 386.140023 
L 144.069382 386.511439 
L 146.017239 386.819641 
L 147.850516 386.880508 
L 149.798373 386.720211 
L 151.631651 386.500667 
L 156.902323 393.581022 
L 159.766818 397.356174 
L 163.547952 396.848997 
L 168.016566 396.472566 
L 168.245725 396.719527 
L 176.380893 408.439639 
L 180.505767 408.67135 
L 188.640934 409.236838 
L 191.50543 409.019815 
L 194.369926 408.850196 
L 196.776102 408.890113 
L 199.296858 409.210745 
L 201.817614 409.502104 
L 204.68211 409.636955 
L 208.921564 410.096136 
L 213.504757 410.579823 
L 216.254672 410.536832 
L 219.004588 410.288167 
L 224.848159 409.750025 
L 234.014545 409.163928 
L 234.243705 409.400492 
L 242.264293 420.454453 
L 247.191225 420.586111 
L 256.701351 421.147817 
L 267.128115 421.828772 
L 274.919543 432.765577 
L 275.263283 433.166057 
L 280.877694 433.801555 
L 283.62761 434.260435 
L 291.648198 445.525129 
L 291.991937 445.66542 
L 297.606349 446.991948 
L 300.127105 447.712799 
L 305.397777 454.992576 
L 308.262273 458.658423 
L 316.053701 461.185404 
L 316.6266 461.431942 
L 320.407734 466.09904 
L 323.959709 470.132554 
L 324.876348 470.997261 
L 335.876011 474.826642 
L 337.938448 475.254178 
L 345.500716 476.543777 
L 348.594371 477.536732 
L 350.198489 477.981737 
L 353.177565 478.634921 
L 357.646178 479.880341 
L 360.968993 480.824597 
L 363.604329 481.296362 
L 366.468824 481.580693 
L 369.791639 481.547991 
L 372.426975 481.235269 
L 376.09353 480.827518 
L 378.385126 480.766295 
L 381.135042 480.969683 
L 385.374496 481.29339 
L 387.666092 481.279183 
L 393.624243 481.119203 
L 395.80126 481.317977 
L 404.623906 482.405662 
L 410.123738 482.672637 
L 412.529914 483.029426 
L 415.62357 483.699003 
L 419.290124 486.903911 
L 422.612939 489.510989 
L 423.873317 490.343773 
L 438.768695 493.837602 
L 447.247602 495.44231 
L 449.195459 495.665581 
L 452.632854 495.790054 
L 457.330626 496.20266 
L 459.965962 496.419325 
L 462.715878 496.406822 
L 466.153273 496.152815 
L 475.205079 495.34482 
L 486.663062 494.548749 
L 491.933734 493.839024 
L 494.22533 493.756229 
L 497.204406 493.909663 
L 502.131338 494.199137 
L 509.693607 494.464384 
L 512.443523 494.887915 
L 514.620539 495.384558 
L 515.880918 497.06769 
L 516.682976 497.828415 
L 517.599615 498.388003 
L 518.745413 498.819058 
L 520.234951 499.12284 
L 522.641127 499.362163 
L 527.56806 499.582906 
L 545.442513 500.085401 
L 550.942344 499.860284 
L 557.015075 499.381868 
L 564.348184 498.571066 
L 574.202049 497.241373 
L 588.868267 495.016693 
L 632.9815 488.202214 
L 645.470701 486.573729 
L 656.355784 485.3758 
L 665.52217 484.580231 
L 674.230237 484.041734 
L 679.500909 483.835425 
L 679.500909 483.835425 
" clip-path="url(#pcbdfc1f8ff)" style="fill: none; stroke: #ff7f0e; stroke-width: 1.5; stroke-linecap: square"/>
   </g>
   <g id="patch_14">
    <path d="M 55.82 506.48 
L 55.82 366.4 
" style="fill: none; stroke: #000000; stroke-width: 0.8; stroke-linejoin: miter; stroke-linecap: square"/>
   </g>
   <g id="patch_15">
    <path d="M 709.2 506.48 
L 709.2 366.4 
" style="fill: none; stroke: #000000; stroke-width: 0.8; stroke-linejoin: miter; stroke-linecap: square"/>
   </g>
   <g id="patch_16">
    <path d="M 55.82 506.48 
L 709.2 506.48 
" style="fill: none; stroke: #000000; stroke-width: 0.8; stroke-linejoin: miter; stroke-linecap: square"/>
   </g>
   <g id="patch_17">
    <path d="M 55.82 366.4 
L 709.2 366.4 
" style="fill: none; stroke: #000000; stroke-width: 0.8; stroke-linejoin: miter; stroke-linecap: square"/>
   </g>
  </g>
  <g id="axes_4">
   <g id="patch_18">
    <path d="M 55.82 674.44 
L 709.2 674.44 
L 709.2 534.36 
L 55.82 534.36 
z
" style="fill: #ffffff"/>
   </g>
   <g id="matplotlib.axis_7">
    <g id="xtick_19">
     <g id="line2d_39">
      <g>
       <use xlink:href="#m9cb4929d1c" x="85.519091" y="674.44" style="stroke: #000000; stroke-width: 0.8"/>
      </g>
     </g>
     <g id="text_37">
      <!-- 0 -->
      <g transform="translate(82.337841 689.038438) scale(0.1 -0.1)">
       <use xlink:href="#DejaVuSans-30"/>
      </g>
     </g>
    </g>
    <g id="xtick_20">
     <g id="line2d_40">
      <g>
       <use xlink:href="#m9cb4929d1c" x="200.098917" y="674.44" style="stroke: #000000; stroke-width: 0.8"/>
      </g>
     </g>
     <g id="text_38">
      <!-- 1000 -->
      <g transform="translate(187.373917 689.038438) scale(0.1 -0.1)">
       <use xlink:href="#DejaVuSans-31"/>
       <use xlink:href="#DejaVuSans-30" x="63.623047"/>
       <use xlink:href="#DejaVuSans-30" x="127.246094"/>
       <use xlink:href="#DejaVuSans-30" x="190.869141"/>
      </g>
     </g>
    </g>
    <g id="xtick_21">
     <g id="line2d_41">
      <g>
       <use xlink:href="#m9cb4929d1c" x="314.678743" y="674.44" style="stroke: #000000; stroke-width: 0.8"/>
      </g>
     </g>
     <g id="text_39">
      <!-- 2000 -->
      <g transform="translate(301.953743 689.038438) scale(0.1 -0.1)">
       <use xlink:href="#DejaVuSans-32"/>
       <use xlink:href="#DejaVuSans-30" x="63.623047"/>
       <use xlink:href="#DejaVuSans-30" x="127.246094"/>
       <use xlink:href="#DejaVuSans-30" x="190.869141"/>
      </g>
     </g>
    </g>
    <g id="xtick_22">
     <g id="line2d_42">
      <g>
       <use xlink:href="#m9cb4929d1c" x="429.258569" y="674.44" style="stroke: #000000; stroke-width: 0.8"/>
      </g>
     </g>
     <g id="text_40">
      <!-- 3000 -->
      <g transform="translate(416.533569 689.038438) scale(0.1 -0.1)">
       <use xlink:href="#DejaVuSans-33"/>
       <use xlink:href="#DejaVuSans-30" x="63.623047"/>
       <use xlink:href="#DejaVuSans-30" x="127.246094"/>
       <use xlink:href="#DejaVuSans-30" x="190.869141"/>
      </g>
     </g>
    </g>
    <g id="xtick_23">
     <g id="line2d_43">
      <g>
       <use xlink:href="#m9cb4929d1c" x="543.838395" y="674.44" style="stroke: #000000; stroke-width: 0.8"/>
      </g>
     </g>
     <g id="text_41">
      <!-- 4000 -->
      <g transform="translate(531.113395 689.038438) scale(0.1 -0.1)">
       <use xlink:href="#DejaVuSans-34"/>
       <use xlink:href="#DejaVuSans-30" x="63.623047"/>
       <use xlink:href="#DejaVuSans-30" x="127.246094"/>
       <use xlink:href="#DejaVuSans-30" x="190.869141"/>
      </g>
     </g>
    </g>
    <g id="xtick_24">
     <g id="line2d_44">
      <g>
       <use xlink:href="#m9cb4929d1c" x="658.418221" y="674.44" style="stroke: #000000; stroke-width: 0.8"/>
      </g>
     </g>
     <g id="text_42">
      <!-- 5000 -->
      <g transform="translate(645.693221 689.038438) scale(0.1 -0.1)">
       <use xlink:href="#DejaVuSans-35"/>
       <use xlink:href="#DejaVuSans-30" x="63.623047"/>
       <use xlink:href="#DejaVuSans-30" x="127.246094"/>
       <use xlink:href="#DejaVuSans-30" x="190.869141"/>
      </g>
     </g>
    </g>
    <g id="text_43">
     <!-- time -->
     <g transform="translate(366.243625 706.059875) scale(0.144 -0.144)">
      <defs>
       <path id="DejaVuSans-69" d="M 603 3500 
L 1178 3500 
L 1178 0 
L 603 0 
L 603 3500 
z
M 603 4863 
L 1178 4863 
L 1178 4134 
L 603 4134 
L 603 4863 
z
" transform="scale(0.015625)"/>
       <path id="DejaVuSans-6d" d="M 3328 2828 
Q 3544 3216 3844 3400 
Q 4144 3584 4550 3584 
Q 5097 3584 5394 3201 
Q 5691 2819 5691 2113 
L 5691 0 
L 5113 0 
L 5113 2094 
Q 5113 2597 4934 2840 
Q 4756 3084 4391 3084 
Q 3944 3084 3684 2787 
Q 3425 2491 3425 1978 
L 3425 0 
L 2847 0 
L 2847 2094 
Q 2847 2600 2669 2842 
Q 2491 3084 2119 3084 
Q 1678 3084 1418 2786 
Q 1159 2488 1159 1978 
L 1159 0 
L 581 0 
L 581 3500 
L 1159 3500 
L 1159 2956 
Q 1356 3278 1631 3431 
Q 1906 3584 2284 3584 
Q 2666 3584 2933 3390 
Q 3200 3197 3328 2828 
z
" transform="scale(0.015625)"/>
       <path id="DejaVuSans-65" d="M 3597 1894 
L 3597 1613 
L 953 1613 
Q 991 1019 1311 708 
Q 1631 397 2203 397 
Q 2534 397 2845 478 
Q 3156 559 3463 722 
L 3463 178 
Q 3153 47 2828 -22 
Q 2503 -91 2169 -91 
Q 1331 -91 842 396 
Q 353 884 353 1716 
Q 353 2575 817 3079 
Q 1281 3584 2069 3584 
Q 2775 3584 3186 3129 
Q 3597 2675 3597 1894 
z
M 3022 2063 
Q 3016 2534 2758 2815 
Q 2500 3097 2075 3097 
Q 1594 3097 1305 2825 
Q 1016 2553 972 2059 
L 3022 2063 
z
" transform="scale(0.015625)"/>
      </defs>
      <use xlink:href="#DejaVuSans-74"/>
      <use xlink:href="#DejaVuSans-69" x="39.208984"/>
      <use xlink:href="#DejaVuSans-6d" x="66.992188"/>
      <use xlink:href="#DejaVuSans-65" x="164.404297"/>
     </g>
    </g>
   </g>
   <g id="matplotlib.axis_8">
    <g id="ytick_13">
     <g id="line2d_45">
      <g>
       <use xlink:href="#me25ed0e002" x="55.82" y="648.259813" style="stroke: #000000; stroke-width: 0.8"/>
      </g>
     </g>
     <g id="text_44">
      <!-- 0 -->
      <g transform="translate(42.4575 652.059032) scale(0.1 -0.1)">
       <use xlink:href="#DejaVuSans-30"/>
      </g>
     </g>
    </g>
    <g id="ytick_14">
     <g id="line2d_46">
      <g>
       <use xlink:href="#me25ed0e002" x="55.82" y="617.781432" style="stroke: #000000; stroke-width: 0.8"/>
      </g>
     </g>
     <g id="text_45">
      <!-- 2 -->
      <g transform="translate(42.4575 621.580651) scale(0.1 -0.1)">
       <use xlink:href="#DejaVuSans-32"/>
      </g>
     </g>
    </g>
    <g id="ytick_15">
     <g id="line2d_47">
      <g>
       <use xlink:href="#me25ed0e002" x="55.82" y="587.303051" style="stroke: #000000; stroke-width: 0.8"/>
      </g>
     </g>
     <g id="text_46">
      <!-- 4 -->
      <g transform="translate(42.4575 591.10227) scale(0.1 -0.1)">
       <use xlink:href="#DejaVuSans-34"/>
      </g>
     </g>
    </g>
    <g id="ytick_16">
     <g id="line2d_48">
      <g>
       <use xlink:href="#me25ed0e002" x="55.82" y="556.82467" style="stroke: #000000; stroke-width: 0.8"/>
      </g>
     </g>
     <g id="text_47">
      <!-- 6 -->
      <g transform="translate(42.4575 560.623889) scale(0.1 -0.1)">
       <use xlink:href="#DejaVuSans-36"/>
      </g>
     </g>
    </g>
    <g id="text_48">
     <!-- 10 -->
     <g transform="translate(35.961875 612.035) rotate(-90) scale(0.12 -0.12)">
      <use xlink:href="#DejaVuSans-31"/>
      <use xlink:href="#DejaVuSans-30" x="63.623047"/>
     </g>
    </g>
   </g>
   <g id="line2d_49">
    <path d="M 85.519091 542.610238 
L 118.518081 542.705996 
L 120.465938 544.779709 
L 122.872114 547.385821 
L 124.017912 548.616896 
L 126.194929 551.008927 
L 126.767828 551.544547 
L 184.516061 551.632701 
L 188.411775 555.925909 
L 192.765808 560.699666 
L 333.011515 560.802855 
L 334.844792 562.884396 
L 335.990591 564.174551 
L 338.167607 566.682463 
L 339.771725 568.524833 
L 341.146683 570.130039 
L 341.605002 570.167467 
L 366.010505 570.256214 
L 367.729202 572.276646 
L 370.364538 575.362105 
L 371.510337 576.734974 
L 374.374832 579.905167 
L 382.51 580.00201 
L 390.874327 589.787574 
L 399.009495 589.885564 
L 407.259242 599.72695 
L 481.39239 599.726915 
L 482.996507 601.644288 
L 489.871297 609.651555 
L 497.891885 609.651552 
L 498.693944 610.594566 
L 505.797893 618.986622 
L 506.256212 619.409568 
L 514.39138 619.409564 
L 516.110077 623.264003 
L 520.234951 632.025629 
L 523.214026 637.559429 
L 525.849362 641.60086 
L 527.68264 643.818553 
L 528.828438 644.880663 
L 529.974236 645.584172 
L 531.463774 646.200049 
L 533.411631 646.721925 
L 535.703227 647.115015 
L 539.484362 647.500069 
L 545.213353 647.80431 
L 554.494319 648.027463 
L 571.108394 648.170019 
L 611.555072 648.241957 
L 679.500909 648.255592 
L 679.500909 648.255592 
" clip-path="url(#p50966d2e01)" style="fill: none; stroke: #1f77b4; stroke-width: 1.5; stroke-linecap: square"/>
   </g>
   <g id="line2d_50">
    <path d="M 85.519091 542.610238 
L 103.393544 541.313637 
L 111.299552 541.304726 
L 118.632661 540.80348 
L 126.309509 551.436949 
L 126.767828 551.977477 
L 135.934214 551.448501 
L 141.548626 551.650691 
L 144.183962 551.588638 
L 152.777449 550.99876 
L 160.912616 550.957791 
L 169.162364 550.409398 
L 177.526691 550.388388 
L 184.63064 549.990045 
L 192.536648 560.557519 
L 192.765808 560.780487 
L 201.703035 560.500943 
L 208.119505 560.71577 
L 212.473538 560.64934 
L 221.525344 560.586943 
L 234.816604 560.70509 
L 243.98299 561.458782 
L 253.263956 561.783667 
L 262.544922 562.193886 
L 272.284207 562.208664 
L 276.179921 562.052614 
L 283.51303 561.441005 
L 286.033786 561.48797 
L 303.44992 562.095252 
L 310.09555 562.57287 
L 318.574457 562.959571 
L 325.907566 563.455663 
L 333.126095 563.699937 
L 339.657145 572.475572 
L 341.261263 574.497885 
L 351.573447 574.831467 
L 356.844119 575.160486 
L 361.198152 575.194963 
L 366.125085 575.271021 
L 372.312395 582.985767 
L 374.260253 585.270963 
L 382.62458 585.39184 
L 388.582731 592.354863 
L 390.759747 594.748868 
L 399.124075 594.991735 
L 404.967646 601.392312 
L 407.259242 603.752615 
L 416.196469 604.267094 
L 434.87298 606.316902 
L 447.705921 608.117379 
L 450.455837 608.506622 
L 454.80987 609.033239 
L 459.049324 609.34379 
L 463.976256 609.789969 
L 467.299071 610.287513 
L 471.996844 611.228736 
L 481.62155 613.385904 
L 486.090163 618.576836 
L 489.756717 622.55446 
L 496.516927 623.955719 
L 498.121044 624.383724 
L 504.766674 631.687458 
L 506.370792 633.257714 
L 514.50596 635.737131 
L 514.735119 636.080334 
L 517.141296 640.374736 
L 519.432892 644.008315 
L 521.724489 647.225254 
L 523.786926 649.752231 
L 525.734783 651.803177 
L 527.56806 653.424343 
L 529.057598 654.481682 
L 530.776295 655.388259 
L 533.182471 656.382022 
L 536.276127 657.40623 
L 540.057261 658.41964 
L 544.525874 659.381237 
L 549.681966 660.259308 
L 555.869277 661.078682 
L 563.431545 661.84399 
L 573.74373 662.6442 
L 634.585617 666.766614 
L 648.793516 667.534572 
L 660.136918 667.9285 
L 670.792842 668.070273 
L 679.500909 668.024516 
L 679.500909 668.024516 
" clip-path="url(#p50966d2e01)" style="fill: none; stroke: #ff7f0e; stroke-width: 1.5; stroke-linecap: square"/>
   </g>
   <g id="patch_19">
    <path d="M 55.82 674.44 
L 55.82 534.36 
" style="fill: none; stroke: #000000; stroke-width: 0.8; stroke-linejoin: miter; stroke-linecap: square"/>
   </g>
   <g id="patch_20">
    <path d="M 709.2 674.44 
L 709.2 534.36 
" style="fill: none; stroke: #000000; stroke-width: 0.8; stroke-linejoin: miter; stroke-linecap: square"/>
   </g>
   <g id="patch_21">
    <path d="M 55.82 674.44 
L 709.2 674.44 
" style="fill: none; stroke: #000000; stroke-width: 0.8; stroke-linejoin: miter; stroke-linecap: square"/>
   </g>
   <g id="patch_22">
    <path d="M 55.82 534.36 
L 709.2 534.36 
" style="fill: none; stroke: #000000; stroke-width: 0.8; stroke-linejoin: miter; stroke-linecap: square"/>
   </g>
  </g>
 </g>
 <defs>
  <clipPath id="pb04f5c533a">
   <rect x="55.82" y="30.48" width="653.38" height="140.08"/>
  </clipPath>
  <clipPath id="p42d7382819">
   <rect x="55.82" y="198.44" width="653.38" height="140.08"/>
  </clipPath>
  <clipPath id="pcbdfc1f8ff">
   <rect x="55.82" y="366.4" width="653.38" height="140.08"/>
  </clipPath>
  <clipPath id="p50966d2e01">
   <rect x="55.82" y="534.36" width="653.38" height="140.08"/>
  </clipPath>
 </defs>
</svg>
