<?xml version="1.0" encoding="utf-8" standalone="no"?>
<!DOCTYPE svg PUBLIC "-//W3C//DTD SVG 1.1//EN"
  "http://www.w3.org/Graphics/SVG/1.1/DTD/svg11.dtd">
<svg xmlns:xlink="http://www.w3.org/1999/xlink" width="720pt" height="720pt" viewBox="0 0 720 720" xmlns="http://www.w3.org/2000/svg" version="1.1">
 <metadata>
  <rdf:RDF xmlns:dc="http://purl.org/dc/elements/1.1/" xmlns:cc="http://creativecommons.org/ns#" xmlns:rdf="http://www.w3.org/1999/02/22-rdf-syntax-ns#">
   <cc:Work>
    <dc:type rdf:resource="http://purl.org/dc/dcmitype/StillImage"/>
    <dc:date>2023-12-07T10:59:25.606478</dc:date>
    <dc:format>image/svg+xml</dc:format>
    <dc:creator>
     <cc:Agent>
      <dc:title>Matplotlib v3.7.1, https://matplotlib.org/</dc:title>
     </cc:Agent>
    </dc:creator>
   </cc:Work>
  </rdf:RDF>
 </metadata>
 <defs>
  <style type="text/css">*{stroke-linejoin: round; stroke-linecap: butt}</style>
 </defs>
 <g id="figure_1">
  <g id="patch_1">
   <path d="M 0 720 
L 720 720 
L 720 0 
L 0 0 
z
" style="fill: #ffffff"/>
  </g>
  <g id="axes_1">
   <g id="patch_2">
    <path d="M 41.15 170.56 
L 709.2 170.56 
L 709.2 30.48 
L 41.15 30.48 
z
" style="fill: #ffffff"/>
   </g>
   <g id="matplotlib.axis_1">
    <g id="xtick_1">
     <g id="line2d_1">
      <defs>
       <path id="mac5288381a" d="M 0 0 
L 0 3.5 
" style="stroke: #000000; stroke-width: 0.8"/>
      </defs>
      <g>
       <use xlink:href="#mac5288381a" x="71.515909" y="170.56" style="stroke: #000000; stroke-width: 0.8"/>
      </g>
     </g>
     <g id="text_1">
      <!-- 0 -->
      <g transform="translate(68.334659 185.158438) scale(0.1 -0.1)">
       <defs>
        <path id="DejaVuSans-30" d="M 2034 4250 
Q 1547 4250 1301 3770 
Q 1056 3291 1056 2328 
Q 1056 1369 1301 889 
Q 1547 409 2034 409 
Q 2525 409 2770 889 
Q 3016 1369 3016 2328 
Q 3016 3291 2770 3770 
Q 2525 4250 2034 4250 
z
M 2034 4750 
Q 2819 4750 3233 4129 
Q 3647 3509 3647 2328 
Q 3647 1150 3233 529 
Q 2819 -91 2034 -91 
Q 1250 -91 836 529 
Q 422 1150 422 2328 
Q 422 3509 836 4129 
Q 1250 4750 2034 4750 
z
" transform="scale(0.015625)"/>
       </defs>
       <use xlink:href="#DejaVuSans-30"/>
      </g>
     </g>
    </g>
    <g id="xtick_2">
     <g id="line2d_2">
      <g>
       <use xlink:href="#mac5288381a" x="188.668336" y="170.56" style="stroke: #000000; stroke-width: 0.8"/>
      </g>
     </g>
     <g id="text_2">
      <!-- 1000 -->
      <g transform="translate(175.943336 185.158438) scale(0.1 -0.1)">
       <defs>
        <path id="DejaVuSans-31" d="M 794 531 
L 1825 531 
L 1825 4091 
L 703 3866 
L 703 4441 
L 1819 4666 
L 2450 4666 
L 2450 531 
L 3481 531 
L 3481 0 
L 794 0 
L 794 531 
z
" transform="scale(0.015625)"/>
       </defs>
       <use xlink:href="#DejaVuSans-31"/>
       <use xlink:href="#DejaVuSans-30" x="63.623047"/>
       <use xlink:href="#DejaVuSans-30" x="127.246094"/>
       <use xlink:href="#DejaVuSans-30" x="190.869141"/>
      </g>
     </g>
    </g>
    <g id="xtick_3">
     <g id="line2d_3">
      <g>
       <use xlink:href="#mac5288381a" x="305.820763" y="170.56" style="stroke: #000000; stroke-width: 0.8"/>
      </g>
     </g>
     <g id="text_3">
      <!-- 2000 -->
      <g transform="translate(293.095763 185.158438) scale(0.1 -0.1)">
       <defs>
        <path id="DejaVuSans-32" d="M 1228 531 
L 3431 531 
L 3431 0 
L 469 0 
L 469 531 
Q 828 903 1448 1529 
Q 2069 2156 2228 2338 
Q 2531 2678 2651 2914 
Q 2772 3150 2772 3378 
Q 2772 3750 2511 3984 
Q 2250 4219 1831 4219 
Q 1534 4219 1204 4116 
Q 875 4013 500 3803 
L 500 4441 
Q 881 4594 1212 4672 
Q 1544 4750 1819 4750 
Q 2544 4750 2975 4387 
Q 3406 4025 3406 3419 
Q 3406 3131 3298 2873 
Q 3191 2616 2906 2266 
Q 2828 2175 2409 1742 
Q 1991 1309 1228 531 
z
" transform="scale(0.015625)"/>
       </defs>
       <use xlink:href="#DejaVuSans-32"/>
       <use xlink:href="#DejaVuSans-30" x="63.623047"/>
       <use xlink:href="#DejaVuSans-30" x="127.246094"/>
       <use xlink:href="#DejaVuSans-30" x="190.869141"/>
      </g>
     </g>
    </g>
    <g id="xtick_4">
     <g id="line2d_4">
      <g>
       <use xlink:href="#mac5288381a" x="422.97319" y="170.56" style="stroke: #000000; stroke-width: 0.8"/>
      </g>
     </g>
     <g id="text_4">
      <!-- 3000 -->
      <g transform="translate(410.24819 185.158438) scale(0.1 -0.1)">
       <defs>
        <path id="DejaVuSans-33" d="M 2597 2516 
Q 3050 2419 3304 2112 
Q 3559 1806 3559 1356 
Q 3559 666 3084 287 
Q 2609 -91 1734 -91 
Q 1441 -91 1130 -33 
Q 819 25 488 141 
L 488 750 
Q 750 597 1062 519 
Q 1375 441 1716 441 
Q 2309 441 2620 675 
Q 2931 909 2931 1356 
Q 2931 1769 2642 2001 
Q 2353 2234 1838 2234 
L 1294 2234 
L 1294 2753 
L 1863 2753 
Q 2328 2753 2575 2939 
Q 2822 3125 2822 3475 
Q 2822 3834 2567 4026 
Q 2313 4219 1838 4219 
Q 1578 4219 1281 4162 
Q 984 4106 628 3988 
L 628 4550 
Q 988 4650 1302 4700 
Q 1616 4750 1894 4750 
Q 2613 4750 3031 4423 
Q 3450 4097 3450 3541 
Q 3450 3153 3228 2886 
Q 3006 2619 2597 2516 
z
" transform="scale(0.015625)"/>
       </defs>
       <use xlink:href="#DejaVuSans-33"/>
       <use xlink:href="#DejaVuSans-30" x="63.623047"/>
       <use xlink:href="#DejaVuSans-30" x="127.246094"/>
       <use xlink:href="#DejaVuSans-30" x="190.869141"/>
      </g>
     </g>
    </g>
    <g id="xtick_5">
     <g id="line2d_5">
      <g>
       <use xlink:href="#mac5288381a" x="540.125617" y="170.56" style="stroke: #000000; stroke-width: 0.8"/>
      </g>
     </g>
     <g id="text_5">
      <!-- 4000 -->
      <g transform="translate(527.400617 185.158438) scale(0.1 -0.1)">
       <defs>
        <path id="DejaVuSans-34" d="M 2419 4116 
L 825 1625 
L 2419 1625 
L 2419 4116 
z
M 2253 4666 
L 3047 4666 
L 3047 1625 
L 3713 1625 
L 3713 1100 
L 3047 1100 
L 3047 0 
L 2419 0 
L 2419 1100 
L 313 1100 
L 313 1709 
L 2253 4666 
z
" transform="scale(0.015625)"/>
       </defs>
       <use xlink:href="#DejaVuSans-34"/>
       <use xlink:href="#DejaVuSans-30" x="63.623047"/>
       <use xlink:href="#DejaVuSans-30" x="127.246094"/>
       <use xlink:href="#DejaVuSans-30" x="190.869141"/>
      </g>
     </g>
    </g>
    <g id="xtick_6">
     <g id="line2d_6">
      <g>
       <use xlink:href="#mac5288381a" x="657.278044" y="170.56" style="stroke: #000000; stroke-width: 0.8"/>
      </g>
     </g>
     <g id="text_6">
      <!-- 5000 -->
      <g transform="translate(644.553044 185.158438) scale(0.1 -0.1)">
       <defs>
        <path id="DejaVuSans-35" d="M 691 4666 
L 3169 4666 
L 3169 4134 
L 1269 4134 
L 1269 2991 
Q 1406 3038 1543 3061 
Q 1681 3084 1819 3084 
Q 2600 3084 3056 2656 
Q 3513 2228 3513 1497 
Q 3513 744 3044 326 
Q 2575 -91 1722 -91 
Q 1428 -91 1123 -41 
Q 819 9 494 109 
L 494 744 
Q 775 591 1075 516 
Q 1375 441 1709 441 
Q 2250 441 2565 725 
Q 2881 1009 2881 1497 
Q 2881 1984 2565 2268 
Q 2250 2553 1709 2553 
Q 1456 2553 1204 2497 
Q 953 2441 691 2322 
L 691 4666 
z
" transform="scale(0.015625)"/>
       </defs>
       <use xlink:href="#DejaVuSans-35"/>
       <use xlink:href="#DejaVuSans-30" x="63.623047"/>
       <use xlink:href="#DejaVuSans-30" x="127.246094"/>
       <use xlink:href="#DejaVuSans-30" x="190.869141"/>
      </g>
     </g>
    </g>
   </g>
   <g id="matplotlib.axis_2">
    <g id="ytick_1">
     <g id="line2d_7">
      <defs>
       <path id="mcf570985d2" d="M 0 0 
L -3.5 0 
" style="stroke: #000000; stroke-width: 0.8"/>
      </defs>
      <g>
       <use xlink:href="#mcf570985d2" x="41.15" y="156.639177" style="stroke: #000000; stroke-width: 0.8"/>
      </g>
     </g>
     <g id="text_7">
      <!-- 0 -->
      <g transform="translate(27.7875 160.438396) scale(0.1 -0.1)">
       <use xlink:href="#DejaVuSans-30"/>
      </g>
     </g>
    </g>
    <g id="ytick_2">
     <g id="line2d_8">
      <g>
       <use xlink:href="#mcf570985d2" x="41.15" y="122.431438" style="stroke: #000000; stroke-width: 0.8"/>
      </g>
     </g>
     <g id="text_8">
      <!-- 1 -->
      <g transform="translate(27.7875 126.230657) scale(0.1 -0.1)">
       <use xlink:href="#DejaVuSans-31"/>
      </g>
     </g>
    </g>
    <g id="ytick_3">
     <g id="line2d_9">
      <g>
       <use xlink:href="#mcf570985d2" x="41.15" y="88.223699" style="stroke: #000000; stroke-width: 0.8"/>
      </g>
     </g>
     <g id="text_9">
      <!-- 2 -->
      <g transform="translate(27.7875 92.022918) scale(0.1 -0.1)">
       <use xlink:href="#DejaVuSans-32"/>
      </g>
     </g>
    </g>
    <g id="ytick_4">
     <g id="line2d_10">
      <g>
       <use xlink:href="#mcf570985d2" x="41.15" y="54.015961" style="stroke: #000000; stroke-width: 0.8"/>
      </g>
     </g>
     <g id="text_10">
      <!-- 3 -->
      <g transform="translate(27.7875 57.815179) scale(0.1 -0.1)">
       <use xlink:href="#DejaVuSans-33"/>
      </g>
     </g>
    </g>
    <g id="text_11">
     <!-- 1 -->
     <g transform="translate(21.291875 104.3375) rotate(-90) scale(0.12 -0.12)">
      <use xlink:href="#DejaVuSans-31"/>
     </g>
    </g>
   </g>
   <g id="line2d_11">
    <path d="M 71.515909 38.568158 
L 82.17678 37.917544 
L 91.197517 37.551518 
L 111.230582 37.03855 
L 122.008605 36.847273 
L 122.594367 41.998649 
L 123.648739 51.869669 
L 125.523178 68.545615 
L 126.57755 77.478283 
L 130.44358 106.287905 
L 130.677885 106.493112 
L 158.325858 106.22316 
L 189.488403 106.038849 
L 189.83986 108.125077 
L 191.948604 121.123897 
L 193.823043 131.166698 
L 195.697482 140.102385 
L 196.986158 145.237822 
L 197.806225 147.481243 
L 198.04053 147.828548 
L 206.358353 147.785318 
L 206.826962 148.685312 
L 207.764182 150.228945 
L 208.701401 151.372055 
L 209.755773 152.332754 
L 211.04445 153.191746 
L 212.567431 153.914365 
L 214.324718 154.498162 
L 215.144785 154.6299 
L 241.504081 154.416482 
L 242.206995 154.122103 
L 242.90991 153.547995 
L 243.612824 152.656054 
L 244.432891 151.159432 
L 245.135806 149.476733 
L 246.073025 146.721387 
L 247.010245 143.410995 
L 248.533226 137.222209 
L 250.056208 131.44205 
L 250.993427 128.790389 
L 252.282104 125.873961 
L 253.453628 123.745584 
L 254.625153 122.002774 
L 255.913829 120.4118 
L 257.319658 118.974231 
L 258.959792 117.594584 
L 260.951384 116.247775 
L 262.591518 115.3399 
L 265.051719 114.231352 
L 268.800596 112.960339 
L 272.432321 112.047265 
L 277.469876 111.121414 
L 282.03882 110.507937 
L 289.653728 109.757835 
L 298.088703 109.199199 
L 313.201366 108.553631 
L 330.188468 108.10716 
L 341.317949 107.89544 
L 342.020863 112.167149 
L 342.958083 118.031739 
L 346.121198 134.949652 
L 348.464247 144.948436 
L 349.167161 147.033768 
L 349.870076 148.382082 
L 380.095402 148.030661 
L 427.30783 147.56068 
L 427.893592 147.268356 
L 428.596507 146.655376 
L 429.299421 145.734909 
L 430.002336 144.477242 
L 430.822403 142.578122 
L 431.876775 139.491935 
L 432.931147 135.647434 
L 435.625652 125.305345 
L 436.914329 121.818641 
L 438.203006 119.091195 
L 439.37453 117.066544 
L 440.546054 115.392188 
L 441.834731 113.848539 
L 442.537646 113.119209 
L 442.889103 114.76233 
L 445.114999 125.790195 
L 447.223743 135.234228 
L 449.215334 142.987315 
L 450.152553 145.799624 
L 450.97262 147.56643 
L 451.206925 147.544953 
L 453.667126 146.536858 
L 455.77587 145.826139 
L 458.938985 144.96074 
L 460.461967 144.486404 
L 461.164881 143.955416 
L 461.867796 143.13644 
L 462.570711 142.006922 
L 463.625082 139.752362 
L 464.679454 136.95158 
L 466.085283 132.482829 
L 468.194027 124.717503 
L 469.014094 121.952492 
L 470.302771 118.583317 
L 471.474295 116.137939 
L 472.645819 114.121797 
L 474.285953 111.86087 
L 475.926087 110.078848 
L 477.683374 108.552283 
L 479.089203 107.545174 
L 480.963642 106.430623 
L 483.30669 105.313077 
L 486.235501 104.224481 
L 490.101531 103.146142 
L 495.490543 102.078714 
L 499.942335 101.438652 
L 506.620023 100.73346 
L 510.017444 100.455266 
L 511.071815 101.796262 
L 512.477645 103.45148 
L 514.000626 104.962224 
L 515.523608 106.167584 
L 517.046589 107.087661 
L 518.569571 107.742867 
L 520.092552 108.173749 
L 521.849839 108.440313 
L 523.84143 108.512197 
L 526.184478 108.381117 
L 529.347594 107.970518 
L 542.000056 106.043414 
L 546.451848 105.70498 
L 550.552183 105.621261 
L 554.652518 105.765914 
L 558.518548 106.103236 
L 563.087493 106.746354 
L 568.125047 107.74921 
L 572.693992 108.910177 
L 578.083004 110.565783 
L 584.877844 113.06331 
L 590.618313 115.488744 
L 599.170441 119.570395 
L 602.099251 121.073943 
L 611.940055 126.501292 
L 620.023573 131.506068 
L 631.621663 139.03155 
L 635.019083 141.160528 
L 637.596437 142.734355 
L 643.454058 146.093332 
L 647.085783 147.993641 
L 653.646319 150.990891 
L 657.512349 152.448414 
L 659.738245 153.060231 
L 662.315599 153.571174 
L 665.478714 154.015058 
L 669.344744 154.389412 
L 674.147994 154.703092 
L 678.834091 154.911968 
L 678.834091 154.911968 
" clip-path="url(#pe1a3fb1e41)" style="fill: none; stroke: #1f77b4; stroke-width: 1.5; stroke-linecap: square"/>
   </g>
   <g id="line2d_12">
    <path d="M 71.515909 38.568158 
L 122.125758 38.573614 
L 122.24291 39.174612 
L 124.585959 62.065541 
L 126.811855 81.634379 
L 128.920598 98.179603 
L 130.44358 108.907234 
L 130.560732 109.300098 
L 189.605556 109.30265 
L 189.722708 109.691344 
L 191.597147 121.351677 
L 193.237281 130.245269 
L 194.760262 137.376194 
L 196.166091 142.944147 
L 197.103311 145.895351 
L 197.923378 147.705221 
L 198.157683 147.814956 
L 206.592657 147.91601 
L 207.529877 149.289685 
L 208.467096 150.289869 
L 209.638621 151.196589 
L 210.927297 151.906865 
L 212.567431 152.538052 
L 214.559023 153.054838 
L 215.37909 153.115077 
L 240.566861 153.222226 
L 241.035471 153.221121 
L 241.621233 152.94917 
L 242.206995 152.412919 
L 242.90991 151.457021 
L 243.729977 149.957261 
L 244.784349 147.513195 
L 245.955873 144.222606 
L 247.478855 139.24146 
L 249.118988 133.129154 
L 250.290513 129.086002 
L 251.462037 125.758513 
L 252.633561 123.040347 
L 253.805086 120.828591 
L 255.093762 118.864665 
L 256.382439 117.289059 
L 257.788268 115.91756 
L 259.31125 114.752495 
L 260.951384 113.788394 
L 262.70867 113.013245 
L 264.700261 112.377747 
L 267.04331 111.868924 
L 269.972121 111.476077 
L 273.838151 111.202273 
L 279.695772 111.038211 
L 291.879624 110.972586 
L 341.435101 110.968792 
L 341.552253 111.349925 
L 343.30954 122.095325 
L 344.949674 130.862827 
L 346.472655 137.871127 
L 347.878484 143.320733 
L 348.698551 145.816111 
L 349.518618 147.596414 
L 349.870076 148.108839 
L 426.019153 148.186585 
L 426.487763 148.23969 
L 426.956373 148.085028 
L 427.542135 147.633968 
L 428.245049 146.755158 
L 429.065116 145.313802 
L 430.002336 143.190637 
L 431.17386 139.954641 
L 432.579689 135.381345 
L 434.219823 129.314396 
L 435.391348 124.778068 
L 436.562872 121.047586 
L 437.734396 117.989631 
L 438.90592 115.499653 
L 440.194597 113.291347 
L 441.483274 111.522731 
L 442.654798 110.21705 
L 442.77195 110.460788 
L 444.997847 121.374099 
L 446.872285 129.482554 
L 448.512419 135.60479 
L 449.683944 139.293399 
L 450.504011 141.173788 
L 451.089773 142.110451 
L 453.549974 141.63817 
L 456.595937 141.286659 
L 459.6419 141.114767 
L 460.227662 141.172118 
L 460.813424 140.968149 
L 461.399186 140.530973 
L 462.102101 139.726303 
L 462.922168 138.43999 
L 463.97654 136.310908 
L 465.265216 133.120777 
L 466.90535 128.371523 
L 470.419923 117.799224 
L 471.591447 115.288253 
L 472.880124 113.062135 
L 474.168801 111.285332 
L 475.57463 109.746249 
L 476.980459 108.531204 
L 478.503441 107.499221 
L 480.143575 106.645241 
L 482.018013 105.91969 
L 484.126757 105.3412 
L 486.704111 104.87499 
L 489.867226 104.537245 
L 494.319018 104.305042 
L 501.582469 104.180362 
L 510.134596 104.150272 
L 510.368901 104.419261 
L 511.540425 105.992139 
L 512.829102 107.342621 
L 514.117778 108.360688 
L 515.406455 109.104718 
L 516.812284 109.668629 
L 518.452418 110.076349 
L 520.326857 110.300282 
L 522.552753 110.335481 
L 525.481564 110.1492 
L 531.339185 109.490961 
L 536.845349 108.976755 
L 541.179989 108.799196 
L 545.280324 108.85478 
L 549.380659 109.136116 
L 553.480994 109.640793 
L 557.698481 110.385371 
L 562.033121 111.378652 
L 566.484913 112.627109 
L 571.17101 114.176793 
L 575.97426 115.999626 
L 581.011814 118.147542 
L 586.400826 120.689998 
L 592.141295 123.64777 
L 598.350374 127.098836 
L 605.379519 131.265292 
L 612.64297 135.8187 
L 619.43781 140.394152 
L 630.918748 148.132846 
L 636.542065 151.633961 
L 641.462467 154.439316 
L 646.031411 156.789195 
L 650.366051 158.768469 
L 654.466386 160.402331 
L 657.980959 161.587901 
L 660.792617 162.263959 
L 664.30719 162.866781 
L 668.993287 163.431443 
L 675.553823 163.979607 
L 678.834091 164.192727 
L 678.834091 164.192727 
" clip-path="url(#pe1a3fb1e41)" style="fill: none; stroke: #ff7f0e; stroke-width: 1.5; stroke-linecap: square"/>
   </g>
   <g id="patch_3">
    <path d="M 41.15 170.56 
L 41.15 30.48 
" style="fill: none; stroke: #000000; stroke-width: 0.8; stroke-linejoin: miter; stroke-linecap: square"/>
   </g>
   <g id="patch_4">
    <path d="M 709.2 170.56 
L 709.2 30.48 
" style="fill: none; stroke: #000000; stroke-width: 0.8; stroke-linejoin: miter; stroke-linecap: square"/>
   </g>
   <g id="patch_5">
    <path d="M 41.15 170.56 
L 709.2 170.56 
" style="fill: none; stroke: #000000; stroke-width: 0.8; stroke-linejoin: miter; stroke-linecap: square"/>
   </g>
   <g id="patch_6">
    <path d="M 41.15 30.48 
L 709.2 30.48 
" style="fill: none; stroke: #000000; stroke-width: 0.8; stroke-linejoin: miter; stroke-linecap: square"/>
   </g>
   <g id="text_12">
    <!-- outputs -->
    <g transform="translate(342.17695 24.48) scale(0.1728 -0.1728)">
     <defs>
      <path id="DejaVuSans-6f" d="M 1959 3097 
Q 1497 3097 1228 2736 
Q 959 2375 959 1747 
Q 959 1119 1226 758 
Q 1494 397 1959 397 
Q 2419 397 2687 759 
Q 2956 1122 2956 1747 
Q 2956 2369 2687 2733 
Q 2419 3097 1959 3097 
z
M 1959 3584 
Q 2709 3584 3137 3096 
Q 3566 2609 3566 1747 
Q 3566 888 3137 398 
Q 2709 -91 1959 -91 
Q 1206 -91 779 398 
Q 353 888 353 1747 
Q 353 2609 779 3096 
Q 1206 3584 1959 3584 
z
" transform="scale(0.015625)"/>
      <path id="DejaVuSans-75" d="M 544 1381 
L 544 3500 
L 1119 3500 
L 1119 1403 
Q 1119 906 1312 657 
Q 1506 409 1894 409 
Q 2359 409 2629 706 
Q 2900 1003 2900 1516 
L 2900 3500 
L 3475 3500 
L 3475 0 
L 2900 0 
L 2900 538 
Q 2691 219 2414 64 
Q 2138 -91 1772 -91 
Q 1169 -91 856 284 
Q 544 659 544 1381 
z
M 1991 3584 
L 1991 3584 
z
" transform="scale(0.015625)"/>
      <path id="DejaVuSans-74" d="M 1172 4494 
L 1172 3500 
L 2356 3500 
L 2356 3053 
L 1172 3053 
L 1172 1153 
Q 1172 725 1289 603 
Q 1406 481 1766 481 
L 2356 481 
L 2356 0 
L 1766 0 
Q 1100 0 847 248 
Q 594 497 594 1153 
L 594 3053 
L 172 3053 
L 172 3500 
L 594 3500 
L 594 4494 
L 1172 4494 
z
" transform="scale(0.015625)"/>
      <path id="DejaVuSans-70" d="M 1159 525 
L 1159 -1331 
L 581 -1331 
L 581 3500 
L 1159 3500 
L 1159 2969 
Q 1341 3281 1617 3432 
Q 1894 3584 2278 3584 
Q 2916 3584 3314 3078 
Q 3713 2572 3713 1747 
Q 3713 922 3314 415 
Q 2916 -91 2278 -91 
Q 1894 -91 1617 61 
Q 1341 213 1159 525 
z
M 3116 1747 
Q 3116 2381 2855 2742 
Q 2594 3103 2138 3103 
Q 1681 3103 1420 2742 
Q 1159 2381 1159 1747 
Q 1159 1113 1420 752 
Q 1681 391 2138 391 
Q 2594 391 2855 752 
Q 3116 1113 3116 1747 
z
" transform="scale(0.015625)"/>
      <path id="DejaVuSans-73" d="M 2834 3397 
L 2834 2853 
Q 2591 2978 2328 3040 
Q 2066 3103 1784 3103 
Q 1356 3103 1142 2972 
Q 928 2841 928 2578 
Q 928 2378 1081 2264 
Q 1234 2150 1697 2047 
L 1894 2003 
Q 2506 1872 2764 1633 
Q 3022 1394 3022 966 
Q 3022 478 2636 193 
Q 2250 -91 1575 -91 
Q 1294 -91 989 -36 
Q 684 19 347 128 
L 347 722 
Q 666 556 975 473 
Q 1284 391 1588 391 
Q 1994 391 2212 530 
Q 2431 669 2431 922 
Q 2431 1156 2273 1281 
Q 2116 1406 1581 1522 
L 1381 1569 
Q 847 1681 609 1914 
Q 372 2147 372 2553 
Q 372 3047 722 3315 
Q 1072 3584 1716 3584 
Q 2034 3584 2315 3537 
Q 2597 3491 2834 3397 
z
" transform="scale(0.015625)"/>
     </defs>
     <use xlink:href="#DejaVuSans-6f"/>
     <use xlink:href="#DejaVuSans-75" x="61.181641"/>
     <use xlink:href="#DejaVuSans-74" x="124.560547"/>
     <use xlink:href="#DejaVuSans-70" x="163.769531"/>
     <use xlink:href="#DejaVuSans-75" x="227.246094"/>
     <use xlink:href="#DejaVuSans-74" x="290.625"/>
     <use xlink:href="#DejaVuSans-73" x="329.833984"/>
    </g>
   </g>
   <g id="legend_1">
    <g id="patch_7">
     <path d="M 603.45225 84.273 
L 699.12 84.273 
Q 702 84.273 702 81.393 
L 702 40.56 
Q 702 37.68 699.12 37.68 
L 603.45225 37.68 
Q 600.57225 37.68 600.57225 40.56 
L 600.57225 81.393 
Q 600.57225 84.273 603.45225 84.273 
z
" style="fill: #ffffff; opacity: 0.8; stroke: #cccccc; stroke-linejoin: miter"/>
    </g>
    <g id="line2d_13">
     <path d="M 606.33225 49.34175 
L 620.73225 49.34175 
L 635.13225 49.34175 
" style="fill: none; stroke: #1f77b4; stroke-width: 1.5; stroke-linecap: square"/>
    </g>
    <g id="text_13">
     <!-- actual -->
     <g transform="translate(646.65225 54.38175) scale(0.144 -0.144)">
      <defs>
       <path id="DejaVuSans-61" d="M 2194 1759 
Q 1497 1759 1228 1600 
Q 959 1441 959 1056 
Q 959 750 1161 570 
Q 1363 391 1709 391 
Q 2188 391 2477 730 
Q 2766 1069 2766 1631 
L 2766 1759 
L 2194 1759 
z
M 3341 1997 
L 3341 0 
L 2766 0 
L 2766 531 
Q 2569 213 2275 61 
Q 1981 -91 1556 -91 
Q 1019 -91 701 211 
Q 384 513 384 1019 
Q 384 1609 779 1909 
Q 1175 2209 1959 2209 
L 2766 2209 
L 2766 2266 
Q 2766 2663 2505 2880 
Q 2244 3097 1772 3097 
Q 1472 3097 1187 3025 
Q 903 2953 641 2809 
L 641 3341 
Q 956 3463 1253 3523 
Q 1550 3584 1831 3584 
Q 2591 3584 2966 3190 
Q 3341 2797 3341 1997 
z
" transform="scale(0.015625)"/>
       <path id="DejaVuSans-63" d="M 3122 3366 
L 3122 2828 
Q 2878 2963 2633 3030 
Q 2388 3097 2138 3097 
Q 1578 3097 1268 2742 
Q 959 2388 959 1747 
Q 959 1106 1268 751 
Q 1578 397 2138 397 
Q 2388 397 2633 464 
Q 2878 531 3122 666 
L 3122 134 
Q 2881 22 2623 -34 
Q 2366 -91 2075 -91 
Q 1284 -91 818 406 
Q 353 903 353 1747 
Q 353 2603 823 3093 
Q 1294 3584 2113 3584 
Q 2378 3584 2631 3529 
Q 2884 3475 3122 3366 
z
" transform="scale(0.015625)"/>
       <path id="DejaVuSans-6c" d="M 603 4863 
L 1178 4863 
L 1178 0 
L 603 0 
L 603 4863 
z
" transform="scale(0.015625)"/>
      </defs>
      <use xlink:href="#DejaVuSans-61"/>
      <use xlink:href="#DejaVuSans-63" x="61.279297"/>
      <use xlink:href="#DejaVuSans-74" x="116.259766"/>
      <use xlink:href="#DejaVuSans-75" x="155.46875"/>
      <use xlink:href="#DejaVuSans-61" x="218.847656"/>
      <use xlink:href="#DejaVuSans-6c" x="280.126953"/>
     </g>
    </g>
    <g id="line2d_14">
     <path d="M 606.33225 70.47825 
L 620.73225 70.47825 
L 635.13225 70.47825 
" style="fill: none; stroke: #ff7f0e; stroke-width: 1.5; stroke-linecap: square"/>
    </g>
    <g id="text_14">
     <!-- approx -->
     <g transform="translate(646.65225 75.51825) scale(0.144 -0.144)">
      <defs>
       <path id="DejaVuSans-72" d="M 2631 2963 
Q 2534 3019 2420 3045 
Q 2306 3072 2169 3072 
Q 1681 3072 1420 2755 
Q 1159 2438 1159 1844 
L 1159 0 
L 581 0 
L 581 3500 
L 1159 3500 
L 1159 2956 
Q 1341 3275 1631 3429 
Q 1922 3584 2338 3584 
Q 2397 3584 2469 3576 
Q 2541 3569 2628 3553 
L 2631 2963 
z
" transform="scale(0.015625)"/>
       <path id="DejaVuSans-78" d="M 3513 3500 
L 2247 1797 
L 3578 0 
L 2900 0 
L 1881 1375 
L 863 0 
L 184 0 
L 1544 1831 
L 300 3500 
L 978 3500 
L 1906 2253 
L 2834 3500 
L 3513 3500 
z
" transform="scale(0.015625)"/>
      </defs>
      <use xlink:href="#DejaVuSans-61"/>
      <use xlink:href="#DejaVuSans-70" x="61.279297"/>
      <use xlink:href="#DejaVuSans-70" x="124.755859"/>
      <use xlink:href="#DejaVuSans-72" x="188.232422"/>
      <use xlink:href="#DejaVuSans-6f" x="227.095703"/>
      <use xlink:href="#DejaVuSans-78" x="285.152344"/>
     </g>
    </g>
   </g>
  </g>
  <g id="axes_2">
   <g id="patch_8">
    <path d="M 41.15 338.52 
L 709.2 338.52 
L 709.2 198.44 
L 41.15 198.44 
z
" style="fill: #ffffff"/>
   </g>
   <g id="matplotlib.axis_3">
    <g id="xtick_7">
     <g id="line2d_15">
      <g>
       <use xlink:href="#mac5288381a" x="71.515909" y="338.52" style="stroke: #000000; stroke-width: 0.8"/>
      </g>
     </g>
     <g id="text_15">
      <!-- 0 -->
      <g transform="translate(68.334659 353.118437) scale(0.1 -0.1)">
       <use xlink:href="#DejaVuSans-30"/>
      </g>
     </g>
    </g>
    <g id="xtick_8">
     <g id="line2d_16">
      <g>
       <use xlink:href="#mac5288381a" x="188.668336" y="338.52" style="stroke: #000000; stroke-width: 0.8"/>
      </g>
     </g>
     <g id="text_16">
      <!-- 1000 -->
      <g transform="translate(175.943336 353.118437) scale(0.1 -0.1)">
       <use xlink:href="#DejaVuSans-31"/>
       <use xlink:href="#DejaVuSans-30" x="63.623047"/>
       <use xlink:href="#DejaVuSans-30" x="127.246094"/>
       <use xlink:href="#DejaVuSans-30" x="190.869141"/>
      </g>
     </g>
    </g>
    <g id="xtick_9">
     <g id="line2d_17">
      <g>
       <use xlink:href="#mac5288381a" x="305.820763" y="338.52" style="stroke: #000000; stroke-width: 0.8"/>
      </g>
     </g>
     <g id="text_17">
      <!-- 2000 -->
      <g transform="translate(293.095763 353.118437) scale(0.1 -0.1)">
       <use xlink:href="#DejaVuSans-32"/>
       <use xlink:href="#DejaVuSans-30" x="63.623047"/>
       <use xlink:href="#DejaVuSans-30" x="127.246094"/>
       <use xlink:href="#DejaVuSans-30" x="190.869141"/>
      </g>
     </g>
    </g>
    <g id="xtick_10">
     <g id="line2d_18">
      <g>
       <use xlink:href="#mac5288381a" x="422.97319" y="338.52" style="stroke: #000000; stroke-width: 0.8"/>
      </g>
     </g>
     <g id="text_18">
      <!-- 3000 -->
      <g transform="translate(410.24819 353.118437) scale(0.1 -0.1)">
       <use xlink:href="#DejaVuSans-33"/>
       <use xlink:href="#DejaVuSans-30" x="63.623047"/>
       <use xlink:href="#DejaVuSans-30" x="127.246094"/>
       <use xlink:href="#DejaVuSans-30" x="190.869141"/>
      </g>
     </g>
    </g>
    <g id="xtick_11">
     <g id="line2d_19">
      <g>
       <use xlink:href="#mac5288381a" x="540.125617" y="338.52" style="stroke: #000000; stroke-width: 0.8"/>
      </g>
     </g>
     <g id="text_19">
      <!-- 4000 -->
      <g transform="translate(527.400617 353.118437) scale(0.1 -0.1)">
       <use xlink:href="#DejaVuSans-34"/>
       <use xlink:href="#DejaVuSans-30" x="63.623047"/>
       <use xlink:href="#DejaVuSans-30" x="127.246094"/>
       <use xlink:href="#DejaVuSans-30" x="190.869141"/>
      </g>
     </g>
    </g>
    <g id="xtick_12">
     <g id="line2d_20">
      <g>
       <use xlink:href="#mac5288381a" x="657.278044" y="338.52" style="stroke: #000000; stroke-width: 0.8"/>
      </g>
     </g>
     <g id="text_20">
      <!-- 5000 -->
      <g transform="translate(644.553044 353.118437) scale(0.1 -0.1)">
       <use xlink:href="#DejaVuSans-35"/>
       <use xlink:href="#DejaVuSans-30" x="63.623047"/>
       <use xlink:href="#DejaVuSans-30" x="127.246094"/>
       <use xlink:href="#DejaVuSans-30" x="190.869141"/>
      </g>
     </g>
    </g>
   </g>
   <g id="matplotlib.axis_4">
    <g id="ytick_5">
     <g id="line2d_21">
      <g>
       <use xlink:href="#mcf570985d2" x="41.15" y="334.591282" style="stroke: #000000; stroke-width: 0.8"/>
      </g>
     </g>
     <g id="text_21">
      <!-- 0 -->
      <g transform="translate(27.7875 338.390501) scale(0.1 -0.1)">
       <use xlink:href="#DejaVuSans-30"/>
      </g>
     </g>
    </g>
    <g id="ytick_6">
     <g id="line2d_22">
      <g>
       <use xlink:href="#mcf570985d2" x="41.15" y="305.149625" style="stroke: #000000; stroke-width: 0.8"/>
      </g>
     </g>
     <g id="text_22">
      <!-- 1 -->
      <g transform="translate(27.7875 308.948844) scale(0.1 -0.1)">
       <use xlink:href="#DejaVuSans-31"/>
      </g>
     </g>
    </g>
    <g id="ytick_7">
     <g id="line2d_23">
      <g>
       <use xlink:href="#mcf570985d2" x="41.15" y="275.707968" style="stroke: #000000; stroke-width: 0.8"/>
      </g>
     </g>
     <g id="text_23">
      <!-- 2 -->
      <g transform="translate(27.7875 279.507186) scale(0.1 -0.1)">
       <use xlink:href="#DejaVuSans-32"/>
      </g>
     </g>
    </g>
    <g id="ytick_8">
     <g id="line2d_24">
      <g>
       <use xlink:href="#mcf570985d2" x="41.15" y="246.26631" style="stroke: #000000; stroke-width: 0.8"/>
      </g>
     </g>
     <g id="text_24">
      <!-- 3 -->
      <g transform="translate(27.7875 250.065529) scale(0.1 -0.1)">
       <use xlink:href="#DejaVuSans-33"/>
      </g>
     </g>
    </g>
    <g id="ytick_9">
     <g id="line2d_25">
      <g>
       <use xlink:href="#mcf570985d2" x="41.15" y="216.824653" style="stroke: #000000; stroke-width: 0.8"/>
      </g>
     </g>
     <g id="text_25">
      <!-- 4 -->
      <g transform="translate(27.7875 220.623872) scale(0.1 -0.1)">
       <use xlink:href="#DejaVuSans-34"/>
      </g>
     </g>
    </g>
    <g id="text_26">
     <!-- 4 -->
     <g transform="translate(21.291875 272.2975) rotate(-90) scale(0.12 -0.12)">
      <use xlink:href="#DejaVuSans-34"/>
     </g>
    </g>
   </g>
   <g id="line2d_26">
    <path d="M 71.515909 242.816994 
L 88.971621 242.733497 
L 90.494602 242.001391 
L 95.766461 239.387746 
L 97.406595 238.715529 
L 99.046729 238.659155 
L 105.490113 238.497156 
L 107.247399 236.765086 
L 109.473295 234.6216 
L 111.230582 232.932757 
L 112.753563 231.52139 
L 113.807935 230.579492 
L 115.096612 230.557051 
L 139.698622 230.437913 
L 141.924518 229.405769 
L 146.37631 227.334629 
L 148.016444 226.701467 
L 149.77373 226.647121 
L 156.568571 226.52576 
L 158.91162 225.492654 
L 162.660497 223.831835 
L 164.886393 222.9725 
L 166.64368 222.918744 
L 172.969911 222.772424 
L 179.530447 216.939884 
L 181.287733 215.48227 
L 182.927867 215.461327 
L 224.048369 215.360054 
L 225.688503 214.690451 
L 232.249039 212.06952 
L 233.772021 212.008932 
L 240.098252 211.99416 
L 240.801166 214.583356 
L 242.792757 222.11036 
L 248.650379 243.159221 
L 257.788268 243.053559 
L 260.131317 242.087614 
L 265.637481 239.854046 
L 266.340395 239.743248 
L 269.034901 239.703041 
L 274.658218 239.60107 
L 276.649809 238.848675 
L 281.570211 237.016906 
L 283.093192 236.590502 
L 285.670546 236.546209 
L 291.64532 236.425395 
L 300.314599 233.835236 
L 305.000696 233.805084 
L 308.632421 233.691462 
L 316.130177 231.817061 
L 317.067396 231.717723 
L 321.167731 231.6874 
L 324.682304 231.643291 
L 326.9082 229.6877 
L 328.314029 228.488221 
L 330.422773 226.694326 
L 332.062907 225.334017 
L 333.117279 224.501105 
L 334.405955 224.478708 
L 358.539355 224.354445 
L 367.091483 217.833842 
L 373.066256 217.826221 
L 375.409305 217.718348 
L 381.384079 213.352865 
L 383.84428 211.746037 
L 387.358852 211.734568 
L 392.279254 211.637795 
L 398.136876 207.747745 
L 400.597077 206.24663 
L 402.120058 206.226556 
L 410.086423 206.116711 
L 417.349874 204.903308 
L 418.755703 204.825978 
L 425.667696 204.807273 
L 425.902001 205.624997 
L 426.722068 208.79855 
L 434.102671 236.600236 
L 434.688433 236.625424 
L 459.407595 236.624818 
L 459.993357 238.594806 
L 466.90535 262.143459 
L 467.959722 265.174019 
L 476.629002 265.063989 
L 485.063977 259.635227 
L 489.047159 259.625324 
L 493.498951 259.53642 
L 495.490543 258.335951 
L 498.887963 256.391086 
L 502.051078 254.840148 
L 508.845919 254.833937 
L 512.24334 254.724452 
L 513.297711 254.808263 
L 514.703541 255.133188 
L 516.343675 255.715078 
L 518.569571 256.793578 
L 520.912619 258.241612 
L 522.787058 259.613445 
L 525.130107 261.632312 
L 527.590308 264.106516 
L 536.493892 273.615404 
L 549.263507 286.577789 
L 555.121128 292.068353 
L 565.547694 301.006238 
L 571.63962 305.719556 
L 580.894662 312.109132 
L 586.400826 315.466762 
L 594.601496 319.832561 
L 599.873355 322.237436 
L 603.97369 323.89938 
L 609.714159 325.897643 
L 613.228732 326.792883 
L 617.094762 327.603861 
L 622.600926 328.52467 
L 630.450139 329.510915 
L 641.111009 330.455535 
L 651.537575 331.107772 
L 661.495532 331.57406 
L 675.436671 332.058774 
L 678.834091 332.152727 
L 678.834091 332.152727 
" clip-path="url(#pdcf3582af9)" style="fill: none; stroke: #1f77b4; stroke-width: 1.5; stroke-linecap: square"/>
   </g>
   <g id="line2d_27">
    <path d="M 71.515909 242.816994 
L 88.971621 242.832405 
L 89.791688 242.511207 
L 97.289443 239.257382 
L 98.226662 239.213716 
L 105.490113 239.14346 
L 107.481704 237.135915 
L 113.690783 231.00832 
L 114.159393 230.965463 
L 139.581469 231.052224 
L 140.518689 230.692256 
L 147.899292 227.611495 
L 148.836511 227.570407 
L 156.568571 227.508935 
L 157.9744 226.948996 
L 164.652089 224.26679 
L 165.472156 224.203145 
L 172.969911 224.145353 
L 175.078655 222.117961 
L 181.170581 216.402599 
L 181.639191 216.362485 
L 224.048369 216.584422 
L 225.454198 216.051176 
L 232.131887 213.508121 
L 232.951954 213.448763 
L 240.215404 213.504251 
L 240.449709 214.212548 
L 243.729977 226.947118 
L 248.533226 244.618058 
L 248.767531 244.824998 
L 257.788268 244.774794 
L 259.31125 244.224894 
L 265.871786 241.874402 
L 266.691853 241.818026 
L 274.892522 241.701201 
L 283.327497 239.060779 
L 291.996777 238.891459 
L 299.260227 236.774356 
L 300.431752 236.673836 
L 308.749574 236.576236 
L 315.661567 235.003312 
L 316.950244 234.842803 
L 324.916609 234.686288 
L 333.000126 227.453484 
L 333.468736 227.415526 
L 358.539355 227.495203 
L 360.882404 225.483952 
L 366.740025 220.622228 
L 367.325787 220.588094 
L 375.409305 220.557476 
L 377.869506 218.592405 
L 383.492822 214.251506 
L 383.84428 214.154228 
L 392.396407 214.055511 
L 399.542705 208.932841 
L 400.597077 208.290174 
L 402.588668 208.299022 
L 409.969271 208.250447 
L 416.529807 207.208224 
L 418.404246 207.059735 
L 425.784848 207.120665 
L 426.019153 207.856128 
L 429.416574 221.561124 
L 434.102671 239.375503 
L 434.336976 239.59088 
L 459.524747 239.749302 
L 459.759052 240.355886 
L 465.148064 258.50999 
L 467.84257 266.84994 
L 468.076875 267.0255 
L 476.629002 266.987131 
L 479.792117 264.88726 
L 484.712519 261.791848 
L 485.063977 261.712956 
L 493.616104 261.62007 
L 499.473725 258.273298 
L 501.816774 257.093143 
L 504.511279 257.101034 
L 512.009035 257.034141 
L 513.180559 257.062244 
L 514.703541 257.353325 
L 516.460827 257.921091 
L 518.452418 258.802731 
L 520.561162 259.981457 
L 522.787058 261.487743 
L 524.895802 263.172111 
L 527.473155 265.604824 
L 544.225952 281.915611 
L 549.849269 286.903372 
L 555.355433 291.488769 
L 560.627292 295.594692 
L 565.899151 299.418426 
L 571.053858 302.882195 
L 576.091412 306.003751 
L 581.128967 308.865111 
L 586.166521 311.467368 
L 591.086923 313.761262 
L 596.007325 315.813523 
L 600.927727 317.628811 
L 605.965281 319.248912 
L 609.948464 320.325066 
L 614.986018 321.325275 
L 620.37503 322.146255 
L 626.818413 322.896092 
L 634.667626 323.580297 
L 644.50843 324.207123 
L 657.160892 324.778481 
L 673.562232 325.286347 
L 678.834091 325.413447 
L 678.834091 325.413447 
" clip-path="url(#pdcf3582af9)" style="fill: none; stroke: #ff7f0e; stroke-width: 1.5; stroke-linecap: square"/>
   </g>
   <g id="patch_9">
    <path d="M 41.15 338.52 
L 41.15 198.44 
" style="fill: none; stroke: #000000; stroke-width: 0.8; stroke-linejoin: miter; stroke-linecap: square"/>
   </g>
   <g id="patch_10">
    <path d="M 709.2 338.52 
L 709.2 198.44 
" style="fill: none; stroke: #000000; stroke-width: 0.8; stroke-linejoin: miter; stroke-linecap: square"/>
   </g>
   <g id="patch_11">
    <path d="M 41.15 338.52 
L 709.2 338.52 
" style="fill: none; stroke: #000000; stroke-width: 0.8; stroke-linejoin: miter; stroke-linecap: square"/>
   </g>
   <g id="patch_12">
    <path d="M 41.15 198.44 
L 709.2 198.44 
" style="fill: none; stroke: #000000; stroke-width: 0.8; stroke-linejoin: miter; stroke-linecap: square"/>
   </g>
  </g>
  <g id="axes_3">
   <g id="patch_13">
    <path d="M 41.15 506.48 
L 709.2 506.48 
L 709.2 366.4 
L 41.15 366.4 
z
" style="fill: #ffffff"/>
   </g>
   <g id="matplotlib.axis_5">
    <g id="xtick_13">
     <g id="line2d_28">
      <g>
       <use xlink:href="#mac5288381a" x="71.515909" y="506.48" style="stroke: #000000; stroke-width: 0.8"/>
      </g>
     </g>
     <g id="text_27">
      <!-- 0 -->
      <g transform="translate(68.334659 521.078437) scale(0.1 -0.1)">
       <use xlink:href="#DejaVuSans-30"/>
      </g>
     </g>
    </g>
    <g id="xtick_14">
     <g id="line2d_29">
      <g>
       <use xlink:href="#mac5288381a" x="188.668336" y="506.48" style="stroke: #000000; stroke-width: 0.8"/>
      </g>
     </g>
     <g id="text_28">
      <!-- 1000 -->
      <g transform="translate(175.943336 521.078437) scale(0.1 -0.1)">
       <use xlink:href="#DejaVuSans-31"/>
       <use xlink:href="#DejaVuSans-30" x="63.623047"/>
       <use xlink:href="#DejaVuSans-30" x="127.246094"/>
       <use xlink:href="#DejaVuSans-30" x="190.869141"/>
      </g>
     </g>
    </g>
    <g id="xtick_15">
     <g id="line2d_30">
      <g>
       <use xlink:href="#mac5288381a" x="305.820763" y="506.48" style="stroke: #000000; stroke-width: 0.8"/>
      </g>
     </g>
     <g id="text_29">
      <!-- 2000 -->
      <g transform="translate(293.095763 521.078437) scale(0.1 -0.1)">
       <use xlink:href="#DejaVuSans-32"/>
       <use xlink:href="#DejaVuSans-30" x="63.623047"/>
       <use xlink:href="#DejaVuSans-30" x="127.246094"/>
       <use xlink:href="#DejaVuSans-30" x="190.869141"/>
      </g>
     </g>
    </g>
    <g id="xtick_16">
     <g id="line2d_31">
      <g>
       <use xlink:href="#mac5288381a" x="422.97319" y="506.48" style="stroke: #000000; stroke-width: 0.8"/>
      </g>
     </g>
     <g id="text_30">
      <!-- 3000 -->
      <g transform="translate(410.24819 521.078437) scale(0.1 -0.1)">
       <use xlink:href="#DejaVuSans-33"/>
       <use xlink:href="#DejaVuSans-30" x="63.623047"/>
       <use xlink:href="#DejaVuSans-30" x="127.246094"/>
       <use xlink:href="#DejaVuSans-30" x="190.869141"/>
      </g>
     </g>
    </g>
    <g id="xtick_17">
     <g id="line2d_32">
      <g>
       <use xlink:href="#mac5288381a" x="540.125617" y="506.48" style="stroke: #000000; stroke-width: 0.8"/>
      </g>
     </g>
     <g id="text_31">
      <!-- 4000 -->
      <g transform="translate(527.400617 521.078437) scale(0.1 -0.1)">
       <use xlink:href="#DejaVuSans-34"/>
       <use xlink:href="#DejaVuSans-30" x="63.623047"/>
       <use xlink:href="#DejaVuSans-30" x="127.246094"/>
       <use xlink:href="#DejaVuSans-30" x="190.869141"/>
      </g>
     </g>
    </g>
    <g id="xtick_18">
     <g id="line2d_33">
      <g>
       <use xlink:href="#mac5288381a" x="657.278044" y="506.48" style="stroke: #000000; stroke-width: 0.8"/>
      </g>
     </g>
     <g id="text_32">
      <!-- 5000 -->
      <g transform="translate(644.553044 521.078437) scale(0.1 -0.1)">
       <use xlink:href="#DejaVuSans-35"/>
       <use xlink:href="#DejaVuSans-30" x="63.623047"/>
       <use xlink:href="#DejaVuSans-30" x="127.246094"/>
       <use xlink:href="#DejaVuSans-30" x="190.869141"/>
      </g>
     </g>
    </g>
   </g>
   <g id="matplotlib.axis_6">
    <g id="ytick_10">
     <g id="line2d_34">
      <g>
       <use xlink:href="#mcf570985d2" x="41.15" y="500.272306" style="stroke: #000000; stroke-width: 0.8"/>
      </g>
     </g>
     <g id="text_33">
      <!-- 0 -->
      <g transform="translate(27.7875 504.071525) scale(0.1 -0.1)">
       <use xlink:href="#DejaVuSans-30"/>
      </g>
     </g>
    </g>
    <g id="ytick_11">
     <g id="line2d_35">
      <g>
       <use xlink:href="#mcf570985d2" x="41.15" y="465.485663" style="stroke: #000000; stroke-width: 0.8"/>
      </g>
     </g>
     <g id="text_34">
      <!-- 2 -->
      <g transform="translate(27.7875 469.284882) scale(0.1 -0.1)">
       <use xlink:href="#DejaVuSans-32"/>
      </g>
     </g>
    </g>
    <g id="ytick_12">
     <g id="line2d_36">
      <g>
       <use xlink:href="#mcf570985d2" x="41.15" y="430.69902" style="stroke: #000000; stroke-width: 0.8"/>
      </g>
     </g>
     <g id="text_35">
      <!-- 4 -->
      <g transform="translate(27.7875 434.498239) scale(0.1 -0.1)">
       <use xlink:href="#DejaVuSans-34"/>
      </g>
     </g>
    </g>
    <g id="ytick_13">
     <g id="line2d_37">
      <g>
       <use xlink:href="#mcf570985d2" x="41.15" y="395.912377" style="stroke: #000000; stroke-width: 0.8"/>
      </g>
     </g>
     <g id="text_36">
      <!-- 6 -->
      <g transform="translate(27.7875 399.711595) scale(0.1 -0.1)">
       <defs>
        <path id="DejaVuSans-36" d="M 2113 2584 
Q 1688 2584 1439 2293 
Q 1191 2003 1191 1497 
Q 1191 994 1439 701 
Q 1688 409 2113 409 
Q 2538 409 2786 701 
Q 3034 994 3034 1497 
Q 3034 2003 2786 2293 
Q 2538 2584 2113 2584 
z
M 3366 4563 
L 3366 3988 
Q 3128 4100 2886 4159 
Q 2644 4219 2406 4219 
Q 1781 4219 1451 3797 
Q 1122 3375 1075 2522 
Q 1259 2794 1537 2939 
Q 1816 3084 2150 3084 
Q 2853 3084 3261 2657 
Q 3669 2231 3669 1497 
Q 3669 778 3244 343 
Q 2819 -91 2113 -91 
Q 1303 -91 875 529 
Q 447 1150 447 2328 
Q 447 3434 972 4092 
Q 1497 4750 2381 4750 
Q 2619 4750 2861 4703 
Q 3103 4656 3366 4563 
z
" transform="scale(0.015625)"/>
       </defs>
       <use xlink:href="#DejaVuSans-36"/>
      </g>
     </g>
    </g>
    <g id="text_37">
     <!-- 6 -->
     <g transform="translate(21.291875 440.2575) rotate(-90) scale(0.12 -0.12)">
      <use xlink:href="#DejaVuSans-36"/>
     </g>
    </g>
   </g>
   <g id="line2d_38">
    <path d="M 71.515909 372.767599 
L 88.385859 372.849787 
L 91.548974 375.853324 
L 95.063547 379.19338 
L 96.820833 380.789387 
L 138.995707 380.864601 
L 140.167231 382.016395 
L 147.313529 389.227147 
L 148.250749 389.242049 
L 155.865657 389.327231 
L 159.614534 393.294465 
L 163.246259 397.296803 
L 164.300631 398.379106 
L 223.345455 398.473904 
L 227.797247 403.687844 
L 231.897582 408.498408 
L 256.968201 408.498396 
L 258.139725 409.999242 
L 260.365621 412.957422 
L 265.637481 420.148488 
L 273.838151 420.148486 
L 274.541065 421.182886 
L 277.118419 425.194731 
L 281.453058 432.611804 
L 282.390278 434.164053 
L 290.7081 434.164051 
L 291.17671 435.032187 
L 292.933996 438.545058 
L 294.57413 442.121891 
L 295.979959 445.523618 
L 297.620093 449.944787 
L 299.143075 454.000491 
L 299.494532 454.044693 
L 307.57805 454.044681 
L 308.046659 455.192698 
L 310.389708 460.998272 
L 315.661567 472.437798 
L 316.130177 473.15655 
L 408.797747 473.156495 
L 409.266356 474.008792 
L 412.663777 480.004958 
L 415.006825 483.616579 
L 416.881264 486.186612 
L 417.349874 486.666731 
L 510.017444 486.66672 
L 510.837511 489.739552 
L 511.657578 492.252161 
L 512.360492 493.815912 
L 513.063407 494.867748 
L 514.000626 495.853176 
L 515.054998 496.622877 
L 516.577979 497.366677 
L 518.569571 497.986265 
L 520.795467 498.429657 
L 523.724277 498.805535 
L 528.293222 499.158277 
L 535.556673 499.462823 
L 546.920458 499.699978 
L 567.422133 499.885278 
L 612.760122 500.028419 
L 678.834091 500.112727 
L 678.834091 500.112727 
" clip-path="url(#p43b63ae304)" style="fill: none; stroke: #1f77b4; stroke-width: 1.5; stroke-linecap: square"/>
   </g>
   <g id="line2d_39">
    <path d="M 71.515909 372.767599 
L 88.503011 372.873614 
L 96.703681 387.411908 
L 96.937986 387.514047 
L 139.112859 387.617397 
L 147.313529 401.643416 
L 147.547834 401.741719 
L 155.982809 401.839976 
L 163.597717 414.355301 
L 164.300631 415.390693 
L 223.462607 415.48598 
L 230.491753 426.503985 
L 231.780429 428.379643 
L 257.202506 428.468755 
L 263.411585 437.652399 
L 265.520328 440.57805 
L 274.072455 440.660555 
L 279.461467 448.043648 
L 282.390278 451.781086 
L 290.942405 451.855449 
L 295.277045 457.163752 
L 298.674465 460.977004 
L 299.260227 461.535747 
L 307.812354 461.596944 
L 311.092622 464.851041 
L 314.138586 467.565462 
L 316.130177 469.134176 
L 409.032051 469.180456 
L 412.078015 471.391996 
L 415.006825 473.247024 
L 417.349874 474.50962 
L 510.251748 474.601929 
L 511.423273 476.228303 
L 512.24334 477.04419 
L 513.297711 477.670107 
L 514.586388 478.141293 
L 516.343675 478.527627 
L 518.921028 478.848593 
L 523.021363 479.112456 
L 530.167661 479.322281 
L 544.225952 479.480359 
L 577.145784 479.588435 
L 678.834091 479.65986 
L 678.834091 479.65986 
" clip-path="url(#p43b63ae304)" style="fill: none; stroke: #ff7f0e; stroke-width: 1.5; stroke-linecap: square"/>
   </g>
   <g id="patch_14">
    <path d="M 41.15 506.48 
L 41.15 366.4 
" style="fill: none; stroke: #000000; stroke-width: 0.8; stroke-linejoin: miter; stroke-linecap: square"/>
   </g>
   <g id="patch_15">
    <path d="M 709.2 506.48 
L 709.2 366.4 
" style="fill: none; stroke: #000000; stroke-width: 0.8; stroke-linejoin: miter; stroke-linecap: square"/>
   </g>
   <g id="patch_16">
    <path d="M 41.15 506.48 
L 709.2 506.48 
" style="fill: none; stroke: #000000; stroke-width: 0.8; stroke-linejoin: miter; stroke-linecap: square"/>
   </g>
   <g id="patch_17">
    <path d="M 41.15 366.4 
L 709.2 366.4 
" style="fill: none; stroke: #000000; stroke-width: 0.8; stroke-linejoin: miter; stroke-linecap: square"/>
   </g>
  </g>
  <g id="axes_4">
   <g id="patch_18">
    <path d="M 41.15 674.44 
L 709.2 674.44 
L 709.2 534.36 
L 41.15 534.36 
z
" style="fill: #ffffff"/>
   </g>
   <g id="matplotlib.axis_7">
    <g id="xtick_19">
     <g id="line2d_40">
      <g>
       <use xlink:href="#mac5288381a" x="71.515909" y="674.44" style="stroke: #000000; stroke-width: 0.8"/>
      </g>
     </g>
     <g id="text_38">
      <!-- 0 -->
      <g transform="translate(68.334659 689.038437) scale(0.1 -0.1)">
       <use xlink:href="#DejaVuSans-30"/>
      </g>
     </g>
    </g>
    <g id="xtick_20">
     <g id="line2d_41">
      <g>
       <use xlink:href="#mac5288381a" x="188.668336" y="674.44" style="stroke: #000000; stroke-width: 0.8"/>
      </g>
     </g>
     <g id="text_39">
      <!-- 1000 -->
      <g transform="translate(175.943336 689.038437) scale(0.1 -0.1)">
       <use xlink:href="#DejaVuSans-31"/>
       <use xlink:href="#DejaVuSans-30" x="63.623047"/>
       <use xlink:href="#DejaVuSans-30" x="127.246094"/>
       <use xlink:href="#DejaVuSans-30" x="190.869141"/>
      </g>
     </g>
    </g>
    <g id="xtick_21">
     <g id="line2d_42">
      <g>
       <use xlink:href="#mac5288381a" x="305.820763" y="674.44" style="stroke: #000000; stroke-width: 0.8"/>
      </g>
     </g>
     <g id="text_40">
      <!-- 2000 -->
      <g transform="translate(293.095763 689.038437) scale(0.1 -0.1)">
       <use xlink:href="#DejaVuSans-32"/>
       <use xlink:href="#DejaVuSans-30" x="63.623047"/>
       <use xlink:href="#DejaVuSans-30" x="127.246094"/>
       <use xlink:href="#DejaVuSans-30" x="190.869141"/>
      </g>
     </g>
    </g>
    <g id="xtick_22">
     <g id="line2d_43">
      <g>
       <use xlink:href="#mac5288381a" x="422.97319" y="674.44" style="stroke: #000000; stroke-width: 0.8"/>
      </g>
     </g>
     <g id="text_41">
      <!-- 3000 -->
      <g transform="translate(410.24819 689.038437) scale(0.1 -0.1)">
       <use xlink:href="#DejaVuSans-33"/>
       <use xlink:href="#DejaVuSans-30" x="63.623047"/>
       <use xlink:href="#DejaVuSans-30" x="127.246094"/>
       <use xlink:href="#DejaVuSans-30" x="190.869141"/>
      </g>
     </g>
    </g>
    <g id="xtick_23">
     <g id="line2d_44">
      <g>
       <use xlink:href="#mac5288381a" x="540.125617" y="674.44" style="stroke: #000000; stroke-width: 0.8"/>
      </g>
     </g>
     <g id="text_42">
      <!-- 4000 -->
      <g transform="translate(527.400617 689.038437) scale(0.1 -0.1)">
       <use xlink:href="#DejaVuSans-34"/>
       <use xlink:href="#DejaVuSans-30" x="63.623047"/>
       <use xlink:href="#DejaVuSans-30" x="127.246094"/>
       <use xlink:href="#DejaVuSans-30" x="190.869141"/>
      </g>
     </g>
    </g>
    <g id="xtick_24">
     <g id="line2d_45">
      <g>
       <use xlink:href="#mac5288381a" x="657.278044" y="674.44" style="stroke: #000000; stroke-width: 0.8"/>
      </g>
     </g>
     <g id="text_43">
      <!-- 5000 -->
      <g transform="translate(644.553044 689.038437) scale(0.1 -0.1)">
       <use xlink:href="#DejaVuSans-35"/>
       <use xlink:href="#DejaVuSans-30" x="63.623047"/>
       <use xlink:href="#DejaVuSans-30" x="127.246094"/>
       <use xlink:href="#DejaVuSans-30" x="190.869141"/>
      </g>
     </g>
    </g>
    <g id="text_44">
     <!-- time -->
     <g transform="translate(358.908625 706.059875) scale(0.144 -0.144)">
      <defs>
       <path id="DejaVuSans-69" d="M 603 3500 
L 1178 3500 
L 1178 0 
L 603 0 
L 603 3500 
z
M 603 4863 
L 1178 4863 
L 1178 4134 
L 603 4134 
L 603 4863 
z
" transform="scale(0.015625)"/>
       <path id="DejaVuSans-6d" d="M 3328 2828 
Q 3544 3216 3844 3400 
Q 4144 3584 4550 3584 
Q 5097 3584 5394 3201 
Q 5691 2819 5691 2113 
L 5691 0 
L 5113 0 
L 5113 2094 
Q 5113 2597 4934 2840 
Q 4756 3084 4391 3084 
Q 3944 3084 3684 2787 
Q 3425 2491 3425 1978 
L 3425 0 
L 2847 0 
L 2847 2094 
Q 2847 2600 2669 2842 
Q 2491 3084 2119 3084 
Q 1678 3084 1418 2786 
Q 1159 2488 1159 1978 
L 1159 0 
L 581 0 
L 581 3500 
L 1159 3500 
L 1159 2956 
Q 1356 3278 1631 3431 
Q 1906 3584 2284 3584 
Q 2666 3584 2933 3390 
Q 3200 3197 3328 2828 
z
" transform="scale(0.015625)"/>
       <path id="DejaVuSans-65" d="M 3597 1894 
L 3597 1613 
L 953 1613 
Q 991 1019 1311 708 
Q 1631 397 2203 397 
Q 2534 397 2845 478 
Q 3156 559 3463 722 
L 3463 178 
Q 3153 47 2828 -22 
Q 2503 -91 2169 -91 
Q 1331 -91 842 396 
Q 353 884 353 1716 
Q 353 2575 817 3079 
Q 1281 3584 2069 3584 
Q 2775 3584 3186 3129 
Q 3597 2675 3597 1894 
z
M 3022 2063 
Q 3016 2534 2758 2815 
Q 2500 3097 2075 3097 
Q 1594 3097 1305 2825 
Q 1016 2553 972 2059 
L 3022 2063 
z
" transform="scale(0.015625)"/>
      </defs>
      <use xlink:href="#DejaVuSans-74"/>
      <use xlink:href="#DejaVuSans-69" x="39.208984"/>
      <use xlink:href="#DejaVuSans-6d" x="66.992188"/>
      <use xlink:href="#DejaVuSans-65" x="164.404297"/>
     </g>
    </g>
   </g>
   <g id="matplotlib.axis_8">
    <g id="ytick_14">
     <g id="line2d_46">
      <g>
       <use xlink:href="#mcf570985d2" x="41.15" y="668.077815" style="stroke: #000000; stroke-width: 0.8"/>
      </g>
     </g>
     <g id="text_45">
      <!-- 0 -->
      <g transform="translate(27.7875 671.877034) scale(0.1 -0.1)">
       <use xlink:href="#DejaVuSans-30"/>
      </g>
     </g>
    </g>
    <g id="ytick_15">
     <g id="line2d_47">
      <g>
       <use xlink:href="#mcf570985d2" x="41.15" y="631.339742" style="stroke: #000000; stroke-width: 0.8"/>
      </g>
     </g>
     <g id="text_46">
      <!-- 2 -->
      <g transform="translate(27.7875 635.13896) scale(0.1 -0.1)">
       <use xlink:href="#DejaVuSans-32"/>
      </g>
     </g>
    </g>
    <g id="ytick_16">
     <g id="line2d_48">
      <g>
       <use xlink:href="#mcf570985d2" x="41.15" y="594.601668" style="stroke: #000000; stroke-width: 0.8"/>
      </g>
     </g>
     <g id="text_47">
      <!-- 4 -->
      <g transform="translate(27.7875 598.400887) scale(0.1 -0.1)">
       <use xlink:href="#DejaVuSans-34"/>
      </g>
     </g>
    </g>
    <g id="ytick_17">
     <g id="line2d_49">
      <g>
       <use xlink:href="#mcf570985d2" x="41.15" y="557.863594" style="stroke: #000000; stroke-width: 0.8"/>
      </g>
     </g>
     <g id="text_48">
      <!-- 6 -->
      <g transform="translate(27.7875 561.662813) scale(0.1 -0.1)">
       <use xlink:href="#DejaVuSans-36"/>
      </g>
     </g>
    </g>
    <g id="text_49">
     <!-- 10 -->
     <g transform="translate(21.291875 612.035) rotate(-90) scale(0.12 -0.12)">
      <use xlink:href="#DejaVuSans-31"/>
      <use xlink:href="#DejaVuSans-30" x="63.623047"/>
     </g>
    </g>
   </g>
   <g id="line2d_50">
    <path d="M 71.515909 540.729783 
L 105.138656 540.727273 
L 105.84157 541.587446 
L 107.598857 543.801033 
L 109.473295 546.188666 
L 110.996277 548.132437 
L 113.105021 550.853406 
L 113.690783 551.499033 
L 172.735606 551.605292 
L 176.367331 556.320421 
L 181.170581 562.534442 
L 324.447999 562.534135 
L 325.033761 563.276051 
L 327.025352 565.958403 
L 328.196877 567.517348 
L 330.071316 570.065192 
L 331.125687 571.471483 
L 332.882974 573.901639 
L 333.234431 573.946754 
L 358.305051 574.053728 
L 359.828032 576.157384 
L 361.468166 578.415828 
L 362.522538 579.897823 
L 364.748434 582.997023 
L 366.857178 585.684396 
L 375.057848 585.68439 
L 375.526457 586.294064 
L 383.609975 597.596465 
L 391.927797 597.59646 
L 392.396407 598.213424 
L 400.479924 609.577205 
L 476.277545 609.577163 
L 477.683374 611.562115 
L 484.361062 621.018887 
L 484.829672 621.54014 
L 493.147494 621.540136 
L 493.967561 622.676827 
L 500.879554 632.313004 
L 501.699621 633.302266 
L 510.017444 633.302262 
L 511.657578 637.64594 
L 515.875065 648.239106 
L 518.686723 654.46841 
L 521.264077 659.283733 
L 523.138515 662.118938 
L 524.427192 663.681154 
L 525.481564 664.550826 
L 526.770241 665.290367 
L 528.410375 665.92647 
L 530.284813 666.41507 
L 533.096472 666.884633 
L 537.196807 667.284406 
L 543.288733 667.598713 
L 552.895232 667.828917 
L 569.648029 667.977918 
L 608.425482 668.055651 
L 678.834091 668.072727 
L 678.834091 668.072727 
" clip-path="url(#p2bf4b36f2c)" style="fill: none; stroke: #1f77b4; stroke-width: 1.5; stroke-linecap: square"/>
   </g>
   <g id="line2d_51">
    <path d="M 71.515909 540.729783 
L 105.372961 540.840691 
L 112.402106 553.803051 
L 113.690783 556.021038 
L 172.852758 556.127544 
L 179.413294 567.679346 
L 181.170581 570.595447 
L 324.682304 570.698206 
L 330.891383 581.068288 
L 333.000126 584.393897 
L 358.422203 584.488498 
L 364.279824 593.692974 
L 366.740025 597.340318 
L 375.292152 597.428338 
L 380.681164 605.318575 
L 383.609975 609.356151 
L 392.162102 609.437302 
L 397.199656 616.219637 
L 400.479924 620.354012 
L 476.511849 620.428262 
L 481.197946 626.129233 
L 484.712519 630.161468 
L 484.946824 630.22687 
L 493.381799 630.29211 
L 497.599286 634.821374 
L 501.582469 638.78997 
L 501.933926 638.846037 
L 510.251748 638.955354 
L 512.594797 643.099973 
L 514.820693 646.601579 
L 516.929437 649.502447 
L 518.803876 651.721819 
L 520.561162 653.483447 
L 522.318448 654.926385 
L 523.958582 655.982386 
L 525.130107 656.508639 
L 526.770241 656.961206 
L 528.996137 657.323025 
L 532.393557 657.624676 
L 537.899721 657.860723 
L 547.857677 658.031522 
L 569.413724 658.134732 
L 642.282534 658.173502 
L 678.834091 658.175178 
L 678.834091 658.175178 
" clip-path="url(#p2bf4b36f2c)" style="fill: none; stroke: #ff7f0e; stroke-width: 1.5; stroke-linecap: square"/>
   </g>
   <g id="patch_19">
    <path d="M 41.15 674.44 
L 41.15 534.36 
" style="fill: none; stroke: #000000; stroke-width: 0.8; stroke-linejoin: miter; stroke-linecap: square"/>
   </g>
   <g id="patch_20">
    <path d="M 709.2 674.44 
L 709.2 534.36 
" style="fill: none; stroke: #000000; stroke-width: 0.8; stroke-linejoin: miter; stroke-linecap: square"/>
   </g>
   <g id="patch_21">
    <path d="M 41.15 674.44 
L 709.2 674.44 
" style="fill: none; stroke: #000000; stroke-width: 0.8; stroke-linejoin: miter; stroke-linecap: square"/>
   </g>
   <g id="patch_22">
    <path d="M 41.15 534.36 
L 709.2 534.36 
" style="fill: none; stroke: #000000; stroke-width: 0.8; stroke-linejoin: miter; stroke-linecap: square"/>
   </g>
  </g>
 </g>
 <defs>
  <clipPath id="pe1a3fb1e41">
   <rect x="41.15" y="30.48" width="668.05" height="140.08"/>
  </clipPath>
  <clipPath id="pdcf3582af9">
   <rect x="41.15" y="198.44" width="668.05" height="140.08"/>
  </clipPath>
  <clipPath id="p43b63ae304">
   <rect x="41.15" y="366.4" width="668.05" height="140.08"/>
  </clipPath>
  <clipPath id="p2bf4b36f2c">
   <rect x="41.15" y="534.36" width="668.05" height="140.08"/>
  </clipPath>
 </defs>
</svg>
