<?xml version="1.0" encoding="utf-8" standalone="no"?>
<!DOCTYPE svg PUBLIC "-//W3C//DTD SVG 1.1//EN"
  "http://www.w3.org/Graphics/SVG/1.1/DTD/svg11.dtd">
<svg xmlns:xlink="http://www.w3.org/1999/xlink" width="720pt" height="720pt" viewBox="0 0 720 720" xmlns="http://www.w3.org/2000/svg" version="1.1">
 <metadata>
  <rdf:RDF xmlns:dc="http://purl.org/dc/elements/1.1/" xmlns:cc="http://creativecommons.org/ns#" xmlns:rdf="http://www.w3.org/1999/02/22-rdf-syntax-ns#">
   <cc:Work>
    <dc:type rdf:resource="http://purl.org/dc/dcmitype/StillImage"/>
    <dc:date>2023-12-10T14:13:17.991273</dc:date>
    <dc:format>image/svg+xml</dc:format>
    <dc:creator>
     <cc:Agent>
      <dc:title>Matplotlib v3.7.1, https://matplotlib.org/</dc:title>
     </cc:Agent>
    </dc:creator>
   </cc:Work>
  </rdf:RDF>
 </metadata>
 <defs>
  <style type="text/css">*{stroke-linejoin: round; stroke-linecap: butt}</style>
 </defs>
 <g id="figure_1">
  <g id="patch_1">
   <path d="M 0 720 
L 720 720 
L 720 0 
L 0 0 
z
" style="fill: #ffffff"/>
  </g>
  <g id="axes_1">
   <g id="patch_2">
    <path d="M 55.82 170.56 
L 709.2 170.56 
L 709.2 30.48 
L 55.82 30.48 
z
" style="fill: #ffffff"/>
   </g>
   <g id="matplotlib.axis_1">
    <g id="xtick_1">
     <g id="line2d_1">
      <defs>
       <path id="mf6bc94bbeb" d="M 0 0 
L 0 3.5 
" style="stroke: #000000; stroke-width: 0.8"/>
      </defs>
      <g>
       <use xlink:href="#mf6bc94bbeb" x="85.519091" y="170.56" style="stroke: #000000; stroke-width: 0.8"/>
      </g>
     </g>
     <g id="text_1">
      <!-- 0 -->
      <g transform="translate(82.337841 185.158438) scale(0.1 -0.1)">
       <defs>
        <path id="DejaVuSans-30" d="M 2034 4250 
Q 1547 4250 1301 3770 
Q 1056 3291 1056 2328 
Q 1056 1369 1301 889 
Q 1547 409 2034 409 
Q 2525 409 2770 889 
Q 3016 1369 3016 2328 
Q 3016 3291 2770 3770 
Q 2525 4250 2034 4250 
z
M 2034 4750 
Q 2819 4750 3233 4129 
Q 3647 3509 3647 2328 
Q 3647 1150 3233 529 
Q 2819 -91 2034 -91 
Q 1250 -91 836 529 
Q 422 1150 422 2328 
Q 422 3509 836 4129 
Q 1250 4750 2034 4750 
z
" transform="scale(0.015625)"/>
       </defs>
       <use xlink:href="#DejaVuSans-30"/>
      </g>
     </g>
    </g>
    <g id="xtick_2">
     <g id="line2d_2">
      <g>
       <use xlink:href="#mf6bc94bbeb" x="200.098917" y="170.56" style="stroke: #000000; stroke-width: 0.8"/>
      </g>
     </g>
     <g id="text_2">
      <!-- 1000 -->
      <g transform="translate(187.373917 185.158438) scale(0.1 -0.1)">
       <defs>
        <path id="DejaVuSans-31" d="M 794 531 
L 1825 531 
L 1825 4091 
L 703 3866 
L 703 4441 
L 1819 4666 
L 2450 4666 
L 2450 531 
L 3481 531 
L 3481 0 
L 794 0 
L 794 531 
z
" transform="scale(0.015625)"/>
       </defs>
       <use xlink:href="#DejaVuSans-31"/>
       <use xlink:href="#DejaVuSans-30" x="63.623047"/>
       <use xlink:href="#DejaVuSans-30" x="127.246094"/>
       <use xlink:href="#DejaVuSans-30" x="190.869141"/>
      </g>
     </g>
    </g>
    <g id="xtick_3">
     <g id="line2d_3">
      <g>
       <use xlink:href="#mf6bc94bbeb" x="314.678743" y="170.56" style="stroke: #000000; stroke-width: 0.8"/>
      </g>
     </g>
     <g id="text_3">
      <!-- 2000 -->
      <g transform="translate(301.953743 185.158438) scale(0.1 -0.1)">
       <defs>
        <path id="DejaVuSans-32" d="M 1228 531 
L 3431 531 
L 3431 0 
L 469 0 
L 469 531 
Q 828 903 1448 1529 
Q 2069 2156 2228 2338 
Q 2531 2678 2651 2914 
Q 2772 3150 2772 3378 
Q 2772 3750 2511 3984 
Q 2250 4219 1831 4219 
Q 1534 4219 1204 4116 
Q 875 4013 500 3803 
L 500 4441 
Q 881 4594 1212 4672 
Q 1544 4750 1819 4750 
Q 2544 4750 2975 4387 
Q 3406 4025 3406 3419 
Q 3406 3131 3298 2873 
Q 3191 2616 2906 2266 
Q 2828 2175 2409 1742 
Q 1991 1309 1228 531 
z
" transform="scale(0.015625)"/>
       </defs>
       <use xlink:href="#DejaVuSans-32"/>
       <use xlink:href="#DejaVuSans-30" x="63.623047"/>
       <use xlink:href="#DejaVuSans-30" x="127.246094"/>
       <use xlink:href="#DejaVuSans-30" x="190.869141"/>
      </g>
     </g>
    </g>
    <g id="xtick_4">
     <g id="line2d_4">
      <g>
       <use xlink:href="#mf6bc94bbeb" x="429.258569" y="170.56" style="stroke: #000000; stroke-width: 0.8"/>
      </g>
     </g>
     <g id="text_4">
      <!-- 3000 -->
      <g transform="translate(416.533569 185.158438) scale(0.1 -0.1)">
       <defs>
        <path id="DejaVuSans-33" d="M 2597 2516 
Q 3050 2419 3304 2112 
Q 3559 1806 3559 1356 
Q 3559 666 3084 287 
Q 2609 -91 1734 -91 
Q 1441 -91 1130 -33 
Q 819 25 488 141 
L 488 750 
Q 750 597 1062 519 
Q 1375 441 1716 441 
Q 2309 441 2620 675 
Q 2931 909 2931 1356 
Q 2931 1769 2642 2001 
Q 2353 2234 1838 2234 
L 1294 2234 
L 1294 2753 
L 1863 2753 
Q 2328 2753 2575 2939 
Q 2822 3125 2822 3475 
Q 2822 3834 2567 4026 
Q 2313 4219 1838 4219 
Q 1578 4219 1281 4162 
Q 984 4106 628 3988 
L 628 4550 
Q 988 4650 1302 4700 
Q 1616 4750 1894 4750 
Q 2613 4750 3031 4423 
Q 3450 4097 3450 3541 
Q 3450 3153 3228 2886 
Q 3006 2619 2597 2516 
z
" transform="scale(0.015625)"/>
       </defs>
       <use xlink:href="#DejaVuSans-33"/>
       <use xlink:href="#DejaVuSans-30" x="63.623047"/>
       <use xlink:href="#DejaVuSans-30" x="127.246094"/>
       <use xlink:href="#DejaVuSans-30" x="190.869141"/>
      </g>
     </g>
    </g>
    <g id="xtick_5">
     <g id="line2d_5">
      <g>
       <use xlink:href="#mf6bc94bbeb" x="543.838395" y="170.56" style="stroke: #000000; stroke-width: 0.8"/>
      </g>
     </g>
     <g id="text_5">
      <!-- 4000 -->
      <g transform="translate(531.113395 185.158438) scale(0.1 -0.1)">
       <defs>
        <path id="DejaVuSans-34" d="M 2419 4116 
L 825 1625 
L 2419 1625 
L 2419 4116 
z
M 2253 4666 
L 3047 4666 
L 3047 1625 
L 3713 1625 
L 3713 1100 
L 3047 1100 
L 3047 0 
L 2419 0 
L 2419 1100 
L 313 1100 
L 313 1709 
L 2253 4666 
z
" transform="scale(0.015625)"/>
       </defs>
       <use xlink:href="#DejaVuSans-34"/>
       <use xlink:href="#DejaVuSans-30" x="63.623047"/>
       <use xlink:href="#DejaVuSans-30" x="127.246094"/>
       <use xlink:href="#DejaVuSans-30" x="190.869141"/>
      </g>
     </g>
    </g>
    <g id="xtick_6">
     <g id="line2d_6">
      <g>
       <use xlink:href="#mf6bc94bbeb" x="658.418221" y="170.56" style="stroke: #000000; stroke-width: 0.8"/>
      </g>
     </g>
     <g id="text_6">
      <!-- 5000 -->
      <g transform="translate(645.693221 185.158438) scale(0.1 -0.1)">
       <defs>
        <path id="DejaVuSans-35" d="M 691 4666 
L 3169 4666 
L 3169 4134 
L 1269 4134 
L 1269 2991 
Q 1406 3038 1543 3061 
Q 1681 3084 1819 3084 
Q 2600 3084 3056 2656 
Q 3513 2228 3513 1497 
Q 3513 744 3044 326 
Q 2575 -91 1722 -91 
Q 1428 -91 1123 -41 
Q 819 9 494 109 
L 494 744 
Q 775 591 1075 516 
Q 1375 441 1709 441 
Q 2250 441 2565 725 
Q 2881 1009 2881 1497 
Q 2881 1984 2565 2268 
Q 2250 2553 1709 2553 
Q 1456 2553 1204 2497 
Q 953 2441 691 2322 
L 691 4666 
z
" transform="scale(0.015625)"/>
       </defs>
       <use xlink:href="#DejaVuSans-35"/>
       <use xlink:href="#DejaVuSans-30" x="63.623047"/>
       <use xlink:href="#DejaVuSans-30" x="127.246094"/>
       <use xlink:href="#DejaVuSans-30" x="190.869141"/>
      </g>
     </g>
    </g>
   </g>
   <g id="matplotlib.axis_2">
    <g id="ytick_1">
     <g id="line2d_7">
      <defs>
       <path id="m72410a3efb" d="M 0 0 
L -3.5 0 
" style="stroke: #000000; stroke-width: 0.8"/>
      </defs>
      <g>
       <use xlink:href="#m72410a3efb" x="55.82" y="144.256504" style="stroke: #000000; stroke-width: 0.8"/>
      </g>
     </g>
     <g id="text_7">
      <!-- −15 -->
      <g transform="translate(27.715313 148.055723) scale(0.1 -0.1)">
       <defs>
        <path id="DejaVuSans-2212" d="M 678 2272 
L 4684 2272 
L 4684 1741 
L 678 1741 
L 678 2272 
z
" transform="scale(0.015625)"/>
       </defs>
       <use xlink:href="#DejaVuSans-2212"/>
       <use xlink:href="#DejaVuSans-31" x="83.789062"/>
       <use xlink:href="#DejaVuSans-35" x="147.412109"/>
      </g>
     </g>
    </g>
    <g id="ytick_2">
     <g id="line2d_8">
      <g>
       <use xlink:href="#m72410a3efb" x="55.82" y="115.229955" style="stroke: #000000; stroke-width: 0.8"/>
      </g>
     </g>
     <g id="text_8">
      <!-- −10 -->
      <g transform="translate(27.715313 119.029174) scale(0.1 -0.1)">
       <use xlink:href="#DejaVuSans-2212"/>
       <use xlink:href="#DejaVuSans-31" x="83.789062"/>
       <use xlink:href="#DejaVuSans-30" x="147.412109"/>
      </g>
     </g>
    </g>
    <g id="ytick_3">
     <g id="line2d_9">
      <g>
       <use xlink:href="#m72410a3efb" x="55.82" y="86.203406" style="stroke: #000000; stroke-width: 0.8"/>
      </g>
     </g>
     <g id="text_9">
      <!-- −5 -->
      <g transform="translate(34.077813 90.002625) scale(0.1 -0.1)">
       <use xlink:href="#DejaVuSans-2212"/>
       <use xlink:href="#DejaVuSans-35" x="83.789062"/>
      </g>
     </g>
    </g>
    <g id="ytick_4">
     <g id="line2d_10">
      <g>
       <use xlink:href="#m72410a3efb" x="55.82" y="57.176857" style="stroke: #000000; stroke-width: 0.8"/>
      </g>
     </g>
     <g id="text_10">
      <!-- 0 -->
      <g transform="translate(42.4575 60.976076) scale(0.1 -0.1)">
       <use xlink:href="#DejaVuSans-30"/>
      </g>
     </g>
    </g>
    <g id="text_11">
     <!-- 1 -->
     <g transform="translate(21.219688 104.3375) rotate(-90) scale(0.12 -0.12)">
      <use xlink:href="#DejaVuSans-31"/>
     </g>
    </g>
   </g>
   <g id="line2d_11">
    <path d="M 85.519091 37.13932 
L 110.955812 36.935094 
L 134.902996 36.847273 
L 135.705055 38.099556 
L 136.736273 39.766821 
L 140.975727 45.931323 
L 143.267323 48.666964 
L 200.900976 48.589602 
L 201.359295 49.072668 
L 203.650892 51.483851 
L 206.171648 53.745236 
L 208.119505 55.176928 
L 209.150723 55.668255 
L 210.181942 55.68076 
L 217.62963 55.747336 
L 219.119168 56.168358 
L 221.181605 56.504691 
L 224.27526 56.765149 
L 227.368916 56.834733 
L 252.805637 56.707152 
L 254.180595 56.402688 
L 255.440973 55.908647 
L 256.815931 55.1566 
L 258.878368 53.719267 
L 260.367905 52.779245 
L 261.972023 52.07889 
L 264.03446 51.440058 
L 266.669796 50.881032 
L 269.648871 50.449588 
L 274.002905 50.037649 
L 280.190215 49.684098 
L 289.127442 49.397902 
L 303.44992 49.163628 
L 328.199162 48.984814 
L 349.39643 48.90468 
L 350.427649 49.999455 
L 351.458867 51.077795 
L 355.698321 54.7428 
L 356.614959 55.321499 
L 357.760758 55.775566 
L 434.87298 55.460382 
L 436.247938 55.071613 
L 437.622896 54.453488 
L 438.997854 53.614401 
L 441.97693 51.683538 
L 443.581047 51.003104 
L 445.414324 50.429324 
L 448.16424 49.830081 
L 448.50798 49.862849 
L 451.487055 52.407561 
L 453.778652 54.116124 
L 455.955668 55.384846 
L 456.872307 55.633499 
L 462.945038 55.261227 
L 466.955332 54.961754 
L 468.44487 54.537548 
L 470.278147 53.718332 
L 471.996844 52.717885 
L 474.86134 51.013778 
L 476.694617 50.303493 
L 478.757054 49.730652 
L 481.39239 49.217965 
L 485.058944 48.74573 
L 490.444196 48.321845 
L 499.037683 47.951421 
L 511.412304 47.683852 
L 514.849699 47.741084 
L 518.057934 48.370509 
L 521.15159 48.75717 
L 524.588984 48.963941 
L 528.943018 49.00358 
L 536.619866 48.820773 
L 550.484025 48.529376 
L 560.10873 48.570482 
L 569.848016 48.827306 
L 580.38936 49.325218 
L 591.045283 50.028566 
L 601.586627 50.886007 
L 611.784232 51.833139 
L 624.617172 53.20771 
L 639.51255 54.853541 
L 650.741373 55.902552 
L 657.730742 56.411033 
L 663.230574 56.652675 
L 672.28238 56.821127 
L 679.500909 56.883737 
L 679.500909 56.883737 
" clip-path="url(#p1b4283dc27)" style="fill: none; stroke: #1f77b4; stroke-width: 1.5; stroke-linecap: square"/>
   </g>
   <g id="line2d_12">
    <path d="M 85.519091 37.13932 
L 92.050141 39.101438 
L 95.258376 39.804829 
L 98.924931 40.374208 
L 103.278964 40.816693 
L 108.205896 41.089273 
L 113.361989 41.152115 
L 118.632661 40.983991 
L 125.39287 40.530584 
L 133.298878 39.780146 
L 135.132156 39.677569 
L 138.68413 45.351246 
L 141.204886 48.948603 
L 143.152743 51.430968 
L 143.381903 51.50794 
L 146.704718 51.534567 
L 156.673163 51.297112 
L 170.308162 50.853768 
L 192.078329 49.835518 
L 201.130135 49.396014 
L 203.650892 51.986952 
L 205.713328 53.801585 
L 207.546606 55.131359 
L 208.692404 55.743069 
L 209.379883 55.947223 
L 215.567193 56.025846 
L 217.85879 56.12257 
L 219.692067 56.518647 
L 222.327403 56.840014 
L 226.223117 57.081174 
L 254.638914 57.47351 
L 257.961729 57.121481 
L 269.075972 55.690168 
L 275.836182 55.123988 
L 287.981644 54.388691 
L 302.074962 53.825667 
L 318.689037 53.33016 
L 349.62559 52.510331 
L 352.146346 55.112174 
L 354.208783 56.933129 
L 356.04206 58.264663 
L 357.187858 58.845128 
L 357.989917 59.054867 
L 365.093866 59.331516 
L 388.697311 60.262259 
L 411.498696 61.387133 
L 432.008485 62.613522 
L 435.21672 62.697736 
L 438.424955 62.557424 
L 443.351888 62.06303 
L 448.50798 61.639936 
L 448.851719 61.920944 
L 451.601635 64.49912 
L 453.778652 66.2497 
L 455.611929 67.450287 
L 456.757727 67.941618 
L 468.44487 68.494248 
L 472.226004 68.407502 
L 481.736129 68.027627 
L 488.1526 68.06783 
L 495.141969 68.337297 
L 503.391716 68.886597 
L 512.901842 69.748382 
L 514.964279 70.059713 
L 525.276463 73.549365 
L 548.650748 81.236636 
L 557.473394 84.451722 
L 565.608562 87.650974 
L 573.39999 90.95343 
L 580.962259 94.400485 
L 588.409947 98.041395 
L 595.743056 101.874913 
L 602.961585 105.897368 
L 610.180114 110.173278 
L 617.284064 114.637193 
L 624.502593 119.439215 
L 631.835701 124.584665 
L 639.39797 130.16357 
L 647.074818 136.103428 
L 654.866246 142.41553 
L 664.147212 150.250428 
L 671.251162 156.497335 
L 677.667632 162.437182 
L 679.500909 164.192727 
L 679.500909 164.192727 
" clip-path="url(#p1b4283dc27)" style="fill: none; stroke: #ff7f0e; stroke-width: 1.5; stroke-linecap: square"/>
   </g>
   <g id="patch_3">
    <path d="M 55.82 170.56 
L 55.82 30.48 
" style="fill: none; stroke: #000000; stroke-width: 0.8; stroke-linejoin: miter; stroke-linecap: square"/>
   </g>
   <g id="patch_4">
    <path d="M 709.2 170.56 
L 709.2 30.48 
" style="fill: none; stroke: #000000; stroke-width: 0.8; stroke-linejoin: miter; stroke-linecap: square"/>
   </g>
   <g id="patch_5">
    <path d="M 55.82 170.56 
L 709.2 170.56 
" style="fill: none; stroke: #000000; stroke-width: 0.8; stroke-linejoin: miter; stroke-linecap: square"/>
   </g>
   <g id="patch_6">
    <path d="M 55.82 30.48 
L 709.2 30.48 
" style="fill: none; stroke: #000000; stroke-width: 0.8; stroke-linejoin: miter; stroke-linecap: square"/>
   </g>
   <g id="text_12">
    <!-- outputs -->
    <g transform="translate(349.51195 24.48) scale(0.1728 -0.1728)">
     <defs>
      <path id="DejaVuSans-6f" d="M 1959 3097 
Q 1497 3097 1228 2736 
Q 959 2375 959 1747 
Q 959 1119 1226 758 
Q 1494 397 1959 397 
Q 2419 397 2687 759 
Q 2956 1122 2956 1747 
Q 2956 2369 2687 2733 
Q 2419 3097 1959 3097 
z
M 1959 3584 
Q 2709 3584 3137 3096 
Q 3566 2609 3566 1747 
Q 3566 888 3137 398 
Q 2709 -91 1959 -91 
Q 1206 -91 779 398 
Q 353 888 353 1747 
Q 353 2609 779 3096 
Q 1206 3584 1959 3584 
z
" transform="scale(0.015625)"/>
      <path id="DejaVuSans-75" d="M 544 1381 
L 544 3500 
L 1119 3500 
L 1119 1403 
Q 1119 906 1312 657 
Q 1506 409 1894 409 
Q 2359 409 2629 706 
Q 2900 1003 2900 1516 
L 2900 3500 
L 3475 3500 
L 3475 0 
L 2900 0 
L 2900 538 
Q 2691 219 2414 64 
Q 2138 -91 1772 -91 
Q 1169 -91 856 284 
Q 544 659 544 1381 
z
M 1991 3584 
L 1991 3584 
z
" transform="scale(0.015625)"/>
      <path id="DejaVuSans-74" d="M 1172 4494 
L 1172 3500 
L 2356 3500 
L 2356 3053 
L 1172 3053 
L 1172 1153 
Q 1172 725 1289 603 
Q 1406 481 1766 481 
L 2356 481 
L 2356 0 
L 1766 0 
Q 1100 0 847 248 
Q 594 497 594 1153 
L 594 3053 
L 172 3053 
L 172 3500 
L 594 3500 
L 594 4494 
L 1172 4494 
z
" transform="scale(0.015625)"/>
      <path id="DejaVuSans-70" d="M 1159 525 
L 1159 -1331 
L 581 -1331 
L 581 3500 
L 1159 3500 
L 1159 2969 
Q 1341 3281 1617 3432 
Q 1894 3584 2278 3584 
Q 2916 3584 3314 3078 
Q 3713 2572 3713 1747 
Q 3713 922 3314 415 
Q 2916 -91 2278 -91 
Q 1894 -91 1617 61 
Q 1341 213 1159 525 
z
M 3116 1747 
Q 3116 2381 2855 2742 
Q 2594 3103 2138 3103 
Q 1681 3103 1420 2742 
Q 1159 2381 1159 1747 
Q 1159 1113 1420 752 
Q 1681 391 2138 391 
Q 2594 391 2855 752 
Q 3116 1113 3116 1747 
z
" transform="scale(0.015625)"/>
      <path id="DejaVuSans-73" d="M 2834 3397 
L 2834 2853 
Q 2591 2978 2328 3040 
Q 2066 3103 1784 3103 
Q 1356 3103 1142 2972 
Q 928 2841 928 2578 
Q 928 2378 1081 2264 
Q 1234 2150 1697 2047 
L 1894 2003 
Q 2506 1872 2764 1633 
Q 3022 1394 3022 966 
Q 3022 478 2636 193 
Q 2250 -91 1575 -91 
Q 1294 -91 989 -36 
Q 684 19 347 128 
L 347 722 
Q 666 556 975 473 
Q 1284 391 1588 391 
Q 1994 391 2212 530 
Q 2431 669 2431 922 
Q 2431 1156 2273 1281 
Q 2116 1406 1581 1522 
L 1381 1569 
Q 847 1681 609 1914 
Q 372 2147 372 2553 
Q 372 3047 722 3315 
Q 1072 3584 1716 3584 
Q 2034 3584 2315 3537 
Q 2597 3491 2834 3397 
z
" transform="scale(0.015625)"/>
     </defs>
     <use xlink:href="#DejaVuSans-6f"/>
     <use xlink:href="#DejaVuSans-75" x="61.181641"/>
     <use xlink:href="#DejaVuSans-74" x="124.560547"/>
     <use xlink:href="#DejaVuSans-70" x="163.769531"/>
     <use xlink:href="#DejaVuSans-75" x="227.246094"/>
     <use xlink:href="#DejaVuSans-74" x="290.625"/>
     <use xlink:href="#DejaVuSans-73" x="329.833984"/>
    </g>
   </g>
   <g id="legend_1">
    <g id="patch_7">
     <path d="M 65.9 163.36 
L 161.56775 163.36 
Q 164.44775 163.36 164.44775 160.48 
L 164.44775 119.647 
Q 164.44775 116.767 161.56775 116.767 
L 65.9 116.767 
Q 63.02 116.767 63.02 119.647 
L 63.02 160.48 
Q 63.02 163.36 65.9 163.36 
z
" style="fill: #ffffff; opacity: 0.8; stroke: #cccccc; stroke-linejoin: miter"/>
    </g>
    <g id="line2d_13">
     <path d="M 68.78 128.42875 
L 83.18 128.42875 
L 97.58 128.42875 
" style="fill: none; stroke: #1f77b4; stroke-width: 1.5; stroke-linecap: square"/>
    </g>
    <g id="text_13">
     <!-- actual -->
     <g transform="translate(109.1 133.46875) scale(0.144 -0.144)">
      <defs>
       <path id="DejaVuSans-61" d="M 2194 1759 
Q 1497 1759 1228 1600 
Q 959 1441 959 1056 
Q 959 750 1161 570 
Q 1363 391 1709 391 
Q 2188 391 2477 730 
Q 2766 1069 2766 1631 
L 2766 1759 
L 2194 1759 
z
M 3341 1997 
L 3341 0 
L 2766 0 
L 2766 531 
Q 2569 213 2275 61 
Q 1981 -91 1556 -91 
Q 1019 -91 701 211 
Q 384 513 384 1019 
Q 384 1609 779 1909 
Q 1175 2209 1959 2209 
L 2766 2209 
L 2766 2266 
Q 2766 2663 2505 2880 
Q 2244 3097 1772 3097 
Q 1472 3097 1187 3025 
Q 903 2953 641 2809 
L 641 3341 
Q 956 3463 1253 3523 
Q 1550 3584 1831 3584 
Q 2591 3584 2966 3190 
Q 3341 2797 3341 1997 
z
" transform="scale(0.015625)"/>
       <path id="DejaVuSans-63" d="M 3122 3366 
L 3122 2828 
Q 2878 2963 2633 3030 
Q 2388 3097 2138 3097 
Q 1578 3097 1268 2742 
Q 959 2388 959 1747 
Q 959 1106 1268 751 
Q 1578 397 2138 397 
Q 2388 397 2633 464 
Q 2878 531 3122 666 
L 3122 134 
Q 2881 22 2623 -34 
Q 2366 -91 2075 -91 
Q 1284 -91 818 406 
Q 353 903 353 1747 
Q 353 2603 823 3093 
Q 1294 3584 2113 3584 
Q 2378 3584 2631 3529 
Q 2884 3475 3122 3366 
z
" transform="scale(0.015625)"/>
       <path id="DejaVuSans-6c" d="M 603 4863 
L 1178 4863 
L 1178 0 
L 603 0 
L 603 4863 
z
" transform="scale(0.015625)"/>
      </defs>
      <use xlink:href="#DejaVuSans-61"/>
      <use xlink:href="#DejaVuSans-63" x="61.279297"/>
      <use xlink:href="#DejaVuSans-74" x="116.259766"/>
      <use xlink:href="#DejaVuSans-75" x="155.46875"/>
      <use xlink:href="#DejaVuSans-61" x="218.847656"/>
      <use xlink:href="#DejaVuSans-6c" x="280.126953"/>
     </g>
    </g>
    <g id="line2d_14">
     <path d="M 68.78 149.56525 
L 83.18 149.56525 
L 97.58 149.56525 
" style="fill: none; stroke: #ff7f0e; stroke-width: 1.5; stroke-linecap: square"/>
    </g>
    <g id="text_14">
     <!-- approx -->
     <g transform="translate(109.1 154.60525) scale(0.144 -0.144)">
      <defs>
       <path id="DejaVuSans-72" d="M 2631 2963 
Q 2534 3019 2420 3045 
Q 2306 3072 2169 3072 
Q 1681 3072 1420 2755 
Q 1159 2438 1159 1844 
L 1159 0 
L 581 0 
L 581 3500 
L 1159 3500 
L 1159 2956 
Q 1341 3275 1631 3429 
Q 1922 3584 2338 3584 
Q 2397 3584 2469 3576 
Q 2541 3569 2628 3553 
L 2631 2963 
z
" transform="scale(0.015625)"/>
       <path id="DejaVuSans-78" d="M 3513 3500 
L 2247 1797 
L 3578 0 
L 2900 0 
L 1881 1375 
L 863 0 
L 184 0 
L 1544 1831 
L 300 3500 
L 978 3500 
L 1906 2253 
L 2834 3500 
L 3513 3500 
z
" transform="scale(0.015625)"/>
      </defs>
      <use xlink:href="#DejaVuSans-61"/>
      <use xlink:href="#DejaVuSans-70" x="61.279297"/>
      <use xlink:href="#DejaVuSans-70" x="124.755859"/>
      <use xlink:href="#DejaVuSans-72" x="188.232422"/>
      <use xlink:href="#DejaVuSans-6f" x="227.095703"/>
      <use xlink:href="#DejaVuSans-78" x="285.152344"/>
     </g>
    </g>
   </g>
  </g>
  <g id="axes_2">
   <g id="patch_8">
    <path d="M 55.82 338.52 
L 709.2 338.52 
L 709.2 198.44 
L 55.82 198.44 
z
" style="fill: #ffffff"/>
   </g>
   <g id="matplotlib.axis_3">
    <g id="xtick_7">
     <g id="line2d_15">
      <g>
       <use xlink:href="#mf6bc94bbeb" x="85.519091" y="338.52" style="stroke: #000000; stroke-width: 0.8"/>
      </g>
     </g>
     <g id="text_15">
      <!-- 0 -->
      <g transform="translate(82.337841 353.118437) scale(0.1 -0.1)">
       <use xlink:href="#DejaVuSans-30"/>
      </g>
     </g>
    </g>
    <g id="xtick_8">
     <g id="line2d_16">
      <g>
       <use xlink:href="#mf6bc94bbeb" x="200.098917" y="338.52" style="stroke: #000000; stroke-width: 0.8"/>
      </g>
     </g>
     <g id="text_16">
      <!-- 1000 -->
      <g transform="translate(187.373917 353.118437) scale(0.1 -0.1)">
       <use xlink:href="#DejaVuSans-31"/>
       <use xlink:href="#DejaVuSans-30" x="63.623047"/>
       <use xlink:href="#DejaVuSans-30" x="127.246094"/>
       <use xlink:href="#DejaVuSans-30" x="190.869141"/>
      </g>
     </g>
    </g>
    <g id="xtick_9">
     <g id="line2d_17">
      <g>
       <use xlink:href="#mf6bc94bbeb" x="314.678743" y="338.52" style="stroke: #000000; stroke-width: 0.8"/>
      </g>
     </g>
     <g id="text_17">
      <!-- 2000 -->
      <g transform="translate(301.953743 353.118437) scale(0.1 -0.1)">
       <use xlink:href="#DejaVuSans-32"/>
       <use xlink:href="#DejaVuSans-30" x="63.623047"/>
       <use xlink:href="#DejaVuSans-30" x="127.246094"/>
       <use xlink:href="#DejaVuSans-30" x="190.869141"/>
      </g>
     </g>
    </g>
    <g id="xtick_10">
     <g id="line2d_18">
      <g>
       <use xlink:href="#mf6bc94bbeb" x="429.258569" y="338.52" style="stroke: #000000; stroke-width: 0.8"/>
      </g>
     </g>
     <g id="text_18">
      <!-- 3000 -->
      <g transform="translate(416.533569 353.118437) scale(0.1 -0.1)">
       <use xlink:href="#DejaVuSans-33"/>
       <use xlink:href="#DejaVuSans-30" x="63.623047"/>
       <use xlink:href="#DejaVuSans-30" x="127.246094"/>
       <use xlink:href="#DejaVuSans-30" x="190.869141"/>
      </g>
     </g>
    </g>
    <g id="xtick_11">
     <g id="line2d_19">
      <g>
       <use xlink:href="#mf6bc94bbeb" x="543.838395" y="338.52" style="stroke: #000000; stroke-width: 0.8"/>
      </g>
     </g>
     <g id="text_19">
      <!-- 4000 -->
      <g transform="translate(531.113395 353.118437) scale(0.1 -0.1)">
       <use xlink:href="#DejaVuSans-34"/>
       <use xlink:href="#DejaVuSans-30" x="63.623047"/>
       <use xlink:href="#DejaVuSans-30" x="127.246094"/>
       <use xlink:href="#DejaVuSans-30" x="190.869141"/>
      </g>
     </g>
    </g>
    <g id="xtick_12">
     <g id="line2d_20">
      <g>
       <use xlink:href="#mf6bc94bbeb" x="658.418221" y="338.52" style="stroke: #000000; stroke-width: 0.8"/>
      </g>
     </g>
     <g id="text_20">
      <!-- 5000 -->
      <g transform="translate(645.693221 353.118437) scale(0.1 -0.1)">
       <use xlink:href="#DejaVuSans-35"/>
       <use xlink:href="#DejaVuSans-30" x="63.623047"/>
       <use xlink:href="#DejaVuSans-30" x="127.246094"/>
       <use xlink:href="#DejaVuSans-30" x="190.869141"/>
      </g>
     </g>
    </g>
   </g>
   <g id="matplotlib.axis_4">
    <g id="ytick_5">
     <g id="line2d_21">
      <g>
       <use xlink:href="#m72410a3efb" x="55.82" y="327.84721" style="stroke: #000000; stroke-width: 0.8"/>
      </g>
     </g>
     <g id="text_21">
      <!-- −1 -->
      <g transform="translate(34.077813 331.646429) scale(0.1 -0.1)">
       <use xlink:href="#DejaVuSans-2212"/>
       <use xlink:href="#DejaVuSans-31" x="83.789062"/>
      </g>
     </g>
    </g>
    <g id="ytick_6">
     <g id="line2d_22">
      <g>
       <use xlink:href="#m72410a3efb" x="55.82" y="305.096483" style="stroke: #000000; stroke-width: 0.8"/>
      </g>
     </g>
     <g id="text_22">
      <!-- 0 -->
      <g transform="translate(42.4575 308.895702) scale(0.1 -0.1)">
       <use xlink:href="#DejaVuSans-30"/>
      </g>
     </g>
    </g>
    <g id="ytick_7">
     <g id="line2d_23">
      <g>
       <use xlink:href="#m72410a3efb" x="55.82" y="282.345756" style="stroke: #000000; stroke-width: 0.8"/>
      </g>
     </g>
     <g id="text_23">
      <!-- 1 -->
      <g transform="translate(42.4575 286.144975) scale(0.1 -0.1)">
       <use xlink:href="#DejaVuSans-31"/>
      </g>
     </g>
    </g>
    <g id="ytick_8">
     <g id="line2d_24">
      <g>
       <use xlink:href="#m72410a3efb" x="55.82" y="259.595029" style="stroke: #000000; stroke-width: 0.8"/>
      </g>
     </g>
     <g id="text_24">
      <!-- 2 -->
      <g transform="translate(42.4575 263.394248) scale(0.1 -0.1)">
       <use xlink:href="#DejaVuSans-32"/>
      </g>
     </g>
    </g>
    <g id="ytick_9">
     <g id="line2d_25">
      <g>
       <use xlink:href="#m72410a3efb" x="55.82" y="236.844302" style="stroke: #000000; stroke-width: 0.8"/>
      </g>
     </g>
     <g id="text_25">
      <!-- 3 -->
      <g transform="translate(42.4575 240.643521) scale(0.1 -0.1)">
       <use xlink:href="#DejaVuSans-33"/>
      </g>
     </g>
    </g>
    <g id="ytick_10">
     <g id="line2d_26">
      <g>
       <use xlink:href="#m72410a3efb" x="55.82" y="214.093575" style="stroke: #000000; stroke-width: 0.8"/>
      </g>
     </g>
     <g id="text_26">
      <!-- 4 -->
      <g transform="translate(42.4575 217.892794) scale(0.1 -0.1)">
       <use xlink:href="#DejaVuSans-34"/>
      </g>
     </g>
    </g>
    <g id="text_27">
     <!-- 4 -->
     <g transform="translate(27.582188 272.2975) rotate(-90) scale(0.12 -0.12)">
      <use xlink:href="#DejaVuSans-34"/>
     </g>
    </g>
   </g>
   <g id="line2d_27">
    <path d="M 85.519091 234.17888 
L 102.706065 234.077927 
L 105.226821 233.093935 
L 111.070392 230.993456 
L 114.164047 230.959347 
L 118.74724 230.840771 
L 120.809677 229.231294 
L 122.528375 227.925591 
L 124.934551 226.125889 
L 126.767828 224.762143 
L 127.226148 224.708685 
L 140.288248 224.704203 
L 152.20455 224.613077 
L 154.954465 223.603153 
L 159.881398 221.804043 
L 160.683457 221.705752 
L 164.464591 221.676907 
L 168.704045 221.590002 
L 171.68312 220.547746 
L 176.953792 218.835806 
L 179.474548 218.798851 
L 184.74522 218.689652 
L 191.62001 213.869557 
L 192.994968 213.049019 
L 197.234421 213.039748 
L 234.816604 212.931132 
L 240.201856 211.16946 
L 242.951772 210.401126 
L 245.587108 210.365855 
L 250.399461 210.360864 
L 251.08694 212.361637 
L 253.034797 218.178049 
L 258.763788 234.443332 
L 267.701014 234.361683 
L 270.68009 233.388804 
L 276.065342 231.803676 
L 279.273577 231.771301 
L 284.315089 231.664584 
L 287.637904 230.664389 
L 292.106517 229.398067 
L 293.481475 229.341601 
L 301.043744 229.180373 
L 308.949752 227.250939 
L 312.157987 227.217266 
L 317.543239 227.103232 
L 324.418028 225.738408 
L 325.678406 225.602037 
L 330.719919 225.577644 
L 333.126095 225.54452 
L 335.761431 223.723994 
L 337.594708 222.493135 
L 340.000885 220.886003 
L 341.605002 220.013776 
L 348.250632 220.007524 
L 366.239665 219.912142 
L 374.603992 214.873416 
L 382.051681 214.867526 
L 382.73916 214.784169 
L 389.04105 211.155508 
L 390.988907 210.169129 
L 395.342941 210.160266 
L 399.238655 210.085486 
L 405.540545 206.793856 
L 407.488402 205.911871 
L 412.415335 205.903736 
L 416.769368 205.8026 
L 423.873317 204.869898 
L 425.706594 204.816758 
L 431.893905 204.807273 
L 432.123065 205.43916 
L 432.925123 207.89149 
L 440.143652 229.374947 
L 440.831131 229.394403 
L 464.892895 229.393942 
L 465.465794 230.916229 
L 472.226004 249.1132 
L 473.257222 251.455033 
L 481.736129 251.370008 
L 489.985877 247.17499 
L 495.027389 247.167338 
L 498.235624 247.098638 
L 500.412641 246.062033 
L 506.714531 243.468093 
L 514.39138 243.464844 
L 514.735119 243.548588 
L 515.766338 243.442953 
L 517.026716 243.390879 
L 518.516254 243.595323 
L 520.349531 244.072071 
L 522.755707 244.979136 
L 525.276463 246.219905 
L 528.255539 248.053871 
L 530.203396 249.513778 
L 549.452807 265.426701 
L 552.431882 267.733 
L 558.848352 272.483508 
L 569.848016 279.868033 
L 575.577007 283.316364 
L 579.93104 285.749126 
L 587.149569 289.40826 
L 592.076502 291.638536 
L 595.857636 293.199233 
L 601.815787 295.395338 
L 606.51356 296.903417 
L 612.357131 298.478982 
L 616.825744 299.332687 
L 623.013055 300.228963 
L 629.085786 300.892068 
L 637.450113 301.573681 
L 648.564356 302.213777 
L 659.564019 302.664815 
L 675.261456 303.117903 
L 679.500909 303.212116 
L 679.500909 303.212116 
" clip-path="url(#pe9b8de991f)" style="fill: none; stroke: #1f77b4; stroke-width: 1.5; stroke-linecap: square"/>
   </g>
   <g id="line2d_28">
    <path d="M 85.519091 234.17888 
L 87.581528 234.923949 
L 89.529385 235.382525 
L 91.706402 235.6517 
L 94.341738 235.737681 
L 97.435393 235.603082 
L 101.904006 235.165974 
L 102.591485 234.974459 
L 110.497493 232.425411 
L 112.67451 232.45793 
L 119.549299 232.739725 
L 121.955476 232.420971 
L 127.340727 231.40421 
L 135.361315 229.957129 
L 152.433709 226.925601 
L 159.423079 224.445625 
L 160.110558 224.344152 
L 162.402154 224.352208 
L 168.360305 224.516756 
L 170.766481 223.796764 
L 176.495473 221.96342 
L 178.787069 221.943307 
L 185.547279 222.052977 
L 188.068035 221.689399 
L 194.140766 220.502125 
L 203.192572 218.840146 
L 234.816604 213.156606 
L 242.035133 210.637385 
L 242.722612 210.551536 
L 245.128789 210.510523 
L 250.51404 210.569944 
L 250.7432 211.095299 
L 253.836855 220.218244 
L 258.763788 234.007998 
L 263.8053 233.931862 
L 267.357275 233.679326 
L 275.836182 231.650673 
L 278.586098 231.753983 
L 283.51303 231.978325 
L 284.658829 231.741618 
L 287.752484 230.890715 
L 291.762778 229.804803 
L 294.283534 229.757182 
L 300.356265 229.777607 
L 303.22076 229.052954 
L 308.376853 227.714091 
L 311.012189 227.622926 
L 316.85576 227.493817 
L 320.063995 226.734096 
L 324.876348 225.60511 
L 327.970003 225.427482 
L 333.584414 225.126711 
L 336.67807 224.674489 
L 364.979287 219.942434 
L 372.999874 218.569086 
L 382.853739 216.868703 
L 392.134705 215.242499 
L 402.676049 213.510428 
L 417.915166 210.825043 
L 423.529578 209.63788 
L 425.019115 209.491368 
L 432.008485 209.026434 
L 432.237645 209.564554 
L 436.018779 221.13839 
L 440.258232 233.562251 
L 445.299745 233.725684 
L 450.226677 233.650949 
L 456.528568 233.312852 
L 465.122055 232.780899 
L 472.684323 252.162314 
L 473.257222 253.406217 
L 478.527894 253.649685 
L 483.569407 253.655692 
L 489.069238 253.413908 
L 506.256212 252.274855 
L 514.50596 251.700259 
L 514.849699 251.882477 
L 517.026716 253.426544 
L 520.349531 256.133018 
L 523.443186 258.905979 
L 531.463774 266.338972 
L 539.484362 273.330506 
L 546.702891 279.335881 
L 553.348521 284.576789 
L 559.650411 289.269149 
L 565.837722 293.601603 
L 571.910452 297.58235 
L 577.868603 301.222446 
L 583.712175 304.534874 
L 589.555746 307.591662 
L 595.399317 310.394449 
L 601.242888 312.947278 
L 607.086459 315.257386 
L 612.127971 317.033125 
L 617.856963 318.691544 
L 624.502593 320.359123 
L 633.439819 322.356224 
L 649.939314 325.766872 
L 669.188725 329.820409 
L 679.500909 332.152727 
L 679.500909 332.152727 
" clip-path="url(#pe9b8de991f)" style="fill: none; stroke: #ff7f0e; stroke-width: 1.5; stroke-linecap: square"/>
   </g>
   <g id="patch_9">
    <path d="M 55.82 338.52 
L 55.82 198.44 
" style="fill: none; stroke: #000000; stroke-width: 0.8; stroke-linejoin: miter; stroke-linecap: square"/>
   </g>
   <g id="patch_10">
    <path d="M 709.2 338.52 
L 709.2 198.44 
" style="fill: none; stroke: #000000; stroke-width: 0.8; stroke-linejoin: miter; stroke-linecap: square"/>
   </g>
   <g id="patch_11">
    <path d="M 55.82 338.52 
L 709.2 338.52 
" style="fill: none; stroke: #000000; stroke-width: 0.8; stroke-linejoin: miter; stroke-linecap: square"/>
   </g>
   <g id="patch_12">
    <path d="M 55.82 198.44 
L 709.2 198.44 
" style="fill: none; stroke: #000000; stroke-width: 0.8; stroke-linejoin: miter; stroke-linecap: square"/>
   </g>
  </g>
  <g id="axes_3">
   <g id="patch_13">
    <path d="M 55.82 506.48 
L 709.2 506.48 
L 709.2 366.4 
L 55.82 366.4 
z
" style="fill: #ffffff"/>
   </g>
   <g id="matplotlib.axis_5">
    <g id="xtick_13">
     <g id="line2d_29">
      <g>
       <use xlink:href="#mf6bc94bbeb" x="85.519091" y="506.48" style="stroke: #000000; stroke-width: 0.8"/>
      </g>
     </g>
     <g id="text_28">
      <!-- 0 -->
      <g transform="translate(82.337841 521.078437) scale(0.1 -0.1)">
       <use xlink:href="#DejaVuSans-30"/>
      </g>
     </g>
    </g>
    <g id="xtick_14">
     <g id="line2d_30">
      <g>
       <use xlink:href="#mf6bc94bbeb" x="200.098917" y="506.48" style="stroke: #000000; stroke-width: 0.8"/>
      </g>
     </g>
     <g id="text_29">
      <!-- 1000 -->
      <g transform="translate(187.373917 521.078437) scale(0.1 -0.1)">
       <use xlink:href="#DejaVuSans-31"/>
       <use xlink:href="#DejaVuSans-30" x="63.623047"/>
       <use xlink:href="#DejaVuSans-30" x="127.246094"/>
       <use xlink:href="#DejaVuSans-30" x="190.869141"/>
      </g>
     </g>
    </g>
    <g id="xtick_15">
     <g id="line2d_31">
      <g>
       <use xlink:href="#mf6bc94bbeb" x="314.678743" y="506.48" style="stroke: #000000; stroke-width: 0.8"/>
      </g>
     </g>
     <g id="text_30">
      <!-- 2000 -->
      <g transform="translate(301.953743 521.078437) scale(0.1 -0.1)">
       <use xlink:href="#DejaVuSans-32"/>
       <use xlink:href="#DejaVuSans-30" x="63.623047"/>
       <use xlink:href="#DejaVuSans-30" x="127.246094"/>
       <use xlink:href="#DejaVuSans-30" x="190.869141"/>
      </g>
     </g>
    </g>
    <g id="xtick_16">
     <g id="line2d_32">
      <g>
       <use xlink:href="#mf6bc94bbeb" x="429.258569" y="506.48" style="stroke: #000000; stroke-width: 0.8"/>
      </g>
     </g>
     <g id="text_31">
      <!-- 3000 -->
      <g transform="translate(416.533569 521.078437) scale(0.1 -0.1)">
       <use xlink:href="#DejaVuSans-33"/>
       <use xlink:href="#DejaVuSans-30" x="63.623047"/>
       <use xlink:href="#DejaVuSans-30" x="127.246094"/>
       <use xlink:href="#DejaVuSans-30" x="190.869141"/>
      </g>
     </g>
    </g>
    <g id="xtick_17">
     <g id="line2d_33">
      <g>
       <use xlink:href="#mf6bc94bbeb" x="543.838395" y="506.48" style="stroke: #000000; stroke-width: 0.8"/>
      </g>
     </g>
     <g id="text_32">
      <!-- 4000 -->
      <g transform="translate(531.113395 521.078437) scale(0.1 -0.1)">
       <use xlink:href="#DejaVuSans-34"/>
       <use xlink:href="#DejaVuSans-30" x="63.623047"/>
       <use xlink:href="#DejaVuSans-30" x="127.246094"/>
       <use xlink:href="#DejaVuSans-30" x="190.869141"/>
      </g>
     </g>
    </g>
    <g id="xtick_18">
     <g id="line2d_34">
      <g>
       <use xlink:href="#mf6bc94bbeb" x="658.418221" y="506.48" style="stroke: #000000; stroke-width: 0.8"/>
      </g>
     </g>
     <g id="text_33">
      <!-- 5000 -->
      <g transform="translate(645.693221 521.078437) scale(0.1 -0.1)">
       <use xlink:href="#DejaVuSans-35"/>
       <use xlink:href="#DejaVuSans-30" x="63.623047"/>
       <use xlink:href="#DejaVuSans-30" x="127.246094"/>
       <use xlink:href="#DejaVuSans-30" x="190.869141"/>
      </g>
     </g>
    </g>
   </g>
   <g id="matplotlib.axis_6">
    <g id="ytick_11">
     <g id="line2d_35">
      <g>
       <use xlink:href="#m72410a3efb" x="55.82" y="500.266568" style="stroke: #000000; stroke-width: 0.8"/>
      </g>
     </g>
     <g id="text_34">
      <!-- 0 -->
      <g transform="translate(42.4575 504.065787) scale(0.1 -0.1)">
       <use xlink:href="#DejaVuSans-30"/>
      </g>
     </g>
    </g>
    <g id="ytick_12">
     <g id="line2d_36">
      <g>
       <use xlink:href="#m72410a3efb" x="55.82" y="466.730762" style="stroke: #000000; stroke-width: 0.8"/>
      </g>
     </g>
     <g id="text_35">
      <!-- 2 -->
      <g transform="translate(42.4575 470.529981) scale(0.1 -0.1)">
       <use xlink:href="#DejaVuSans-32"/>
      </g>
     </g>
    </g>
    <g id="ytick_13">
     <g id="line2d_37">
      <g>
       <use xlink:href="#m72410a3efb" x="55.82" y="433.194955" style="stroke: #000000; stroke-width: 0.8"/>
      </g>
     </g>
     <g id="text_36">
      <!-- 4 -->
      <g transform="translate(42.4575 436.994174) scale(0.1 -0.1)">
       <use xlink:href="#DejaVuSans-34"/>
      </g>
     </g>
    </g>
    <g id="ytick_14">
     <g id="line2d_38">
      <g>
       <use xlink:href="#m72410a3efb" x="55.82" y="399.659149" style="stroke: #000000; stroke-width: 0.8"/>
      </g>
     </g>
     <g id="text_37">
      <!-- 6 -->
      <g transform="translate(42.4575 403.458368) scale(0.1 -0.1)">
       <defs>
        <path id="DejaVuSans-36" d="M 2113 2584 
Q 1688 2584 1439 2293 
Q 1191 2003 1191 1497 
Q 1191 994 1439 701 
Q 1688 409 2113 409 
Q 2538 409 2786 701 
Q 3034 994 3034 1497 
Q 3034 2003 2786 2293 
Q 2538 2584 2113 2584 
z
M 3366 4563 
L 3366 3988 
Q 3128 4100 2886 4159 
Q 2644 4219 2406 4219 
Q 1781 4219 1451 3797 
Q 1122 3375 1075 2522 
Q 1259 2794 1537 2939 
Q 1816 3084 2150 3084 
Q 2853 3084 3261 2657 
Q 3669 2231 3669 1497 
Q 3669 778 3244 343 
Q 2819 -91 2113 -91 
Q 1303 -91 875 529 
Q 447 1150 447 2328 
Q 447 3434 972 4092 
Q 1497 4750 2381 4750 
Q 2619 4750 2861 4703 
Q 3103 4656 3366 4563 
z
" transform="scale(0.015625)"/>
       </defs>
       <use xlink:href="#DejaVuSans-36"/>
      </g>
     </g>
    </g>
    <g id="text_38">
     <!-- 6 -->
     <g transform="translate(35.961875 440.2575) rotate(-90) scale(0.12 -0.12)">
      <use xlink:href="#DejaVuSans-36"/>
     </g>
    </g>
   </g>
   <g id="line2d_39">
    <path d="M 85.519091 377.346597 
L 102.018586 377.42583 
L 105.341401 380.535185 
L 110.153754 385.066845 
L 111.184972 385.079936 
L 151.517071 385.152452 
L 152.662869 386.262831 
L 159.652238 393.214302 
L 160.568877 393.228669 
L 168.016566 393.310788 
L 171.68312 397.135371 
L 175.578834 401.380089 
L 176.266313 402.037182 
L 234.014545 402.128571 
L 238.483159 407.290603 
L 242.378873 411.79262 
L 266.898956 411.792608 
L 268.159334 413.380794 
L 274.461224 421.995755 
L 275.263283 423.023793 
L 283.39845 423.023791 
L 284.085929 424.020997 
L 286.606686 427.888586 
L 290.846139 435.038961 
L 291.762778 436.535395 
L 299.897945 436.535393 
L 300.356265 437.372313 
L 302.189542 440.988087 
L 305.168617 447.771306 
L 306.772735 452.057758 
L 308.147693 455.658567 
L 308.491432 455.701179 
L 316.39744 455.701168 
L 316.85576 456.807905 
L 319.147356 462.404726 
L 324.418028 473.667577 
L 324.761768 474.125824 
L 415.39441 474.12577 
L 415.852729 474.947422 
L 419.290124 480.912109 
L 421.581721 484.376411 
L 423.758737 487.150214 
L 514.39138 487.150204 
L 515.193439 490.112545 
L 515.995497 492.534806 
L 516.682976 494.042329 
L 517.485035 495.193097 
L 518.287094 496.006339 
L 519.318312 496.748363 
L 520.92243 497.50683 
L 522.526547 498.005627 
L 525.047304 498.508971 
L 528.484698 498.918258 
L 533.526211 499.260794 
L 541.661378 499.548353 
L 556.098436 499.783934 
L 581.764317 499.945186 
L 646.731079 500.07857 
L 679.500909 500.112727 
L 679.500909 500.112727 
" clip-path="url(#p7de493224b)" style="fill: none; stroke: #1f77b4; stroke-width: 1.5; stroke-linecap: square"/>
   </g>
   <g id="line2d_40">
    <path d="M 85.519091 377.346597 
L 95.258376 374.689886 
L 102.133166 372.825659 
L 110.268333 383.443148 
L 118.403501 381.732724 
L 123.788753 380.892124 
L 128.944845 380.003619 
L 135.017576 378.687127 
L 151.631651 374.899832 
L 159.766818 385.49291 
L 167.787406 384.2295 
L 168.131145 384.272133 
L 176.380893 395.420632 
L 183.141103 394.896822 
L 188.182615 394.650477 
L 195.171984 394.315944 
L 202.963413 393.624183 
L 216.598412 392.46463 
L 227.139756 391.790673 
L 234.014545 391.487725 
L 234.243705 391.723205 
L 242.378873 402.806151 
L 248.680763 403.219851 
L 259.222107 404.114274 
L 265.294838 404.088104 
L 267.128115 404.134394 
L 275.263283 414.744372 
L 283.169291 415.200484 
L 283.62761 415.312306 
L 291.762778 426.004476 
L 297.720929 426.701885 
L 300.127105 427.049554 
L 305.856096 434.025968 
L 308.262273 436.667207 
L 313.647525 437.352719 
L 316.6266 437.761791 
L 320.522314 441.685957 
L 323.615969 444.505103 
L 324.876348 445.443057 
L 330.261599 446.020585 
L 343.667439 447.18573 
L 349.85475 447.382395 
L 358.219077 447.419394 
L 367.614623 447.236071 
L 379.301765 446.770769 
L 393.280504 445.971988 
L 414.477771 444.521591 
L 415.62357 444.47912 
L 418.946385 446.383514 
L 422.15462 447.959809 
L 423.873317 448.619024 
L 438.768695 447.817013 
L 443.008148 447.173701 
L 453.893232 445.270075 
L 469.246928 442.405292 
L 473.486382 441.307334 
L 505.568733 432.380682 
L 514.50596 430.09442 
L 514.735119 430.273999 
L 515.766338 431.274697 
L 516.568396 431.788468 
L 517.599615 432.083696 
L 518.859993 432.19002 
L 520.69327 432.100228 
L 523.443186 431.718173 
L 528.140959 430.80287 
L 537.192765 428.805216 
L 544.411294 426.947829 
L 556.671336 423.530969 
L 586.003771 415.296927 
L 597.576333 412.320789 
L 607.773938 409.925674 
L 616.940324 407.995985 
L 625.419231 406.436582 
L 633.554399 405.166324 
L 641.345827 404.172498 
L 648.908096 403.430204 
L 656.241204 402.933665 
L 663.230574 402.679487 
L 669.990784 402.652104 
L 676.521834 402.84514 
L 679.500909 403.009332 
L 679.500909 403.009332 
" clip-path="url(#p7de493224b)" style="fill: none; stroke: #ff7f0e; stroke-width: 1.5; stroke-linecap: square"/>
   </g>
   <g id="patch_14">
    <path d="M 55.82 506.48 
L 55.82 366.4 
" style="fill: none; stroke: #000000; stroke-width: 0.8; stroke-linejoin: miter; stroke-linecap: square"/>
   </g>
   <g id="patch_15">
    <path d="M 709.2 506.48 
L 709.2 366.4 
" style="fill: none; stroke: #000000; stroke-width: 0.8; stroke-linejoin: miter; stroke-linecap: square"/>
   </g>
   <g id="patch_16">
    <path d="M 55.82 506.48 
L 709.2 506.48 
" style="fill: none; stroke: #000000; stroke-width: 0.8; stroke-linejoin: miter; stroke-linecap: square"/>
   </g>
   <g id="patch_17">
    <path d="M 55.82 366.4 
L 709.2 366.4 
" style="fill: none; stroke: #000000; stroke-width: 0.8; stroke-linejoin: miter; stroke-linecap: square"/>
   </g>
  </g>
  <g id="axes_4">
   <g id="patch_18">
    <path d="M 55.82 674.44 
L 709.2 674.44 
L 709.2 534.36 
L 55.82 534.36 
z
" style="fill: #ffffff"/>
   </g>
   <g id="matplotlib.axis_7">
    <g id="xtick_19">
     <g id="line2d_41">
      <g>
       <use xlink:href="#mf6bc94bbeb" x="85.519091" y="674.44" style="stroke: #000000; stroke-width: 0.8"/>
      </g>
     </g>
     <g id="text_39">
      <!-- 0 -->
      <g transform="translate(82.337841 689.038437) scale(0.1 -0.1)">
       <use xlink:href="#DejaVuSans-30"/>
      </g>
     </g>
    </g>
    <g id="xtick_20">
     <g id="line2d_42">
      <g>
       <use xlink:href="#mf6bc94bbeb" x="200.098917" y="674.44" style="stroke: #000000; stroke-width: 0.8"/>
      </g>
     </g>
     <g id="text_40">
      <!-- 1000 -->
      <g transform="translate(187.373917 689.038437) scale(0.1 -0.1)">
       <use xlink:href="#DejaVuSans-31"/>
       <use xlink:href="#DejaVuSans-30" x="63.623047"/>
       <use xlink:href="#DejaVuSans-30" x="127.246094"/>
       <use xlink:href="#DejaVuSans-30" x="190.869141"/>
      </g>
     </g>
    </g>
    <g id="xtick_21">
     <g id="line2d_43">
      <g>
       <use xlink:href="#mf6bc94bbeb" x="314.678743" y="674.44" style="stroke: #000000; stroke-width: 0.8"/>
      </g>
     </g>
     <g id="text_41">
      <!-- 2000 -->
      <g transform="translate(301.953743 689.038437) scale(0.1 -0.1)">
       <use xlink:href="#DejaVuSans-32"/>
       <use xlink:href="#DejaVuSans-30" x="63.623047"/>
       <use xlink:href="#DejaVuSans-30" x="127.246094"/>
       <use xlink:href="#DejaVuSans-30" x="190.869141"/>
      </g>
     </g>
    </g>
    <g id="xtick_22">
     <g id="line2d_44">
      <g>
       <use xlink:href="#mf6bc94bbeb" x="429.258569" y="674.44" style="stroke: #000000; stroke-width: 0.8"/>
      </g>
     </g>
     <g id="text_42">
      <!-- 3000 -->
      <g transform="translate(416.533569 689.038437) scale(0.1 -0.1)">
       <use xlink:href="#DejaVuSans-33"/>
       <use xlink:href="#DejaVuSans-30" x="63.623047"/>
       <use xlink:href="#DejaVuSans-30" x="127.246094"/>
       <use xlink:href="#DejaVuSans-30" x="190.869141"/>
      </g>
     </g>
    </g>
    <g id="xtick_23">
     <g id="line2d_45">
      <g>
       <use xlink:href="#mf6bc94bbeb" x="543.838395" y="674.44" style="stroke: #000000; stroke-width: 0.8"/>
      </g>
     </g>
     <g id="text_43">
      <!-- 4000 -->
      <g transform="translate(531.113395 689.038437) scale(0.1 -0.1)">
       <use xlink:href="#DejaVuSans-34"/>
       <use xlink:href="#DejaVuSans-30" x="63.623047"/>
       <use xlink:href="#DejaVuSans-30" x="127.246094"/>
       <use xlink:href="#DejaVuSans-30" x="190.869141"/>
      </g>
     </g>
    </g>
    <g id="xtick_24">
     <g id="line2d_46">
      <g>
       <use xlink:href="#mf6bc94bbeb" x="658.418221" y="674.44" style="stroke: #000000; stroke-width: 0.8"/>
      </g>
     </g>
     <g id="text_44">
      <!-- 5000 -->
      <g transform="translate(645.693221 689.038437) scale(0.1 -0.1)">
       <use xlink:href="#DejaVuSans-35"/>
       <use xlink:href="#DejaVuSans-30" x="63.623047"/>
       <use xlink:href="#DejaVuSans-30" x="127.246094"/>
       <use xlink:href="#DejaVuSans-30" x="190.869141"/>
      </g>
     </g>
    </g>
    <g id="text_45">
     <!-- time -->
     <g transform="translate(366.243625 706.059875) scale(0.144 -0.144)">
      <defs>
       <path id="DejaVuSans-69" d="M 603 3500 
L 1178 3500 
L 1178 0 
L 603 0 
L 603 3500 
z
M 603 4863 
L 1178 4863 
L 1178 4134 
L 603 4134 
L 603 4863 
z
" transform="scale(0.015625)"/>
       <path id="DejaVuSans-6d" d="M 3328 2828 
Q 3544 3216 3844 3400 
Q 4144 3584 4550 3584 
Q 5097 3584 5394 3201 
Q 5691 2819 5691 2113 
L 5691 0 
L 5113 0 
L 5113 2094 
Q 5113 2597 4934 2840 
Q 4756 3084 4391 3084 
Q 3944 3084 3684 2787 
Q 3425 2491 3425 1978 
L 3425 0 
L 2847 0 
L 2847 2094 
Q 2847 2600 2669 2842 
Q 2491 3084 2119 3084 
Q 1678 3084 1418 2786 
Q 1159 2488 1159 1978 
L 1159 0 
L 581 0 
L 581 3500 
L 1159 3500 
L 1159 2956 
Q 1356 3278 1631 3431 
Q 1906 3584 2284 3584 
Q 2666 3584 2933 3390 
Q 3200 3197 3328 2828 
z
" transform="scale(0.015625)"/>
       <path id="DejaVuSans-65" d="M 3597 1894 
L 3597 1613 
L 953 1613 
Q 991 1019 1311 708 
Q 1631 397 2203 397 
Q 2534 397 2845 478 
Q 3156 559 3463 722 
L 3463 178 
Q 3153 47 2828 -22 
Q 2503 -91 2169 -91 
Q 1331 -91 842 396 
Q 353 884 353 1716 
Q 353 2575 817 3079 
Q 1281 3584 2069 3584 
Q 2775 3584 3186 3129 
Q 3597 2675 3597 1894 
z
M 3022 2063 
Q 3016 2534 2758 2815 
Q 2500 3097 2075 3097 
Q 1594 3097 1305 2825 
Q 1016 2553 972 2059 
L 3022 2063 
z
" transform="scale(0.015625)"/>
      </defs>
      <use xlink:href="#DejaVuSans-74"/>
      <use xlink:href="#DejaVuSans-69" x="39.208984"/>
      <use xlink:href="#DejaVuSans-6d" x="66.992188"/>
      <use xlink:href="#DejaVuSans-65" x="164.404297"/>
     </g>
    </g>
   </g>
   <g id="matplotlib.axis_8">
    <g id="ytick_15">
     <g id="line2d_47">
      <g>
       <use xlink:href="#m72410a3efb" x="55.82" y="664.050004" style="stroke: #000000; stroke-width: 0.8"/>
      </g>
     </g>
     <g id="text_46">
      <!-- −30 -->
      <g transform="translate(27.715313 667.849223) scale(0.1 -0.1)">
       <use xlink:href="#DejaVuSans-2212"/>
       <use xlink:href="#DejaVuSans-33" x="83.789062"/>
       <use xlink:href="#DejaVuSans-30" x="147.412109"/>
      </g>
     </g>
    </g>
    <g id="ytick_16">
     <g id="line2d_48">
      <g>
       <use xlink:href="#m72410a3efb" x="55.82" y="630.747812" style="stroke: #000000; stroke-width: 0.8"/>
      </g>
     </g>
     <g id="text_47">
      <!-- −20 -->
      <g transform="translate(27.715313 634.547031) scale(0.1 -0.1)">
       <use xlink:href="#DejaVuSans-2212"/>
       <use xlink:href="#DejaVuSans-32" x="83.789062"/>
       <use xlink:href="#DejaVuSans-30" x="147.412109"/>
      </g>
     </g>
    </g>
    <g id="ytick_17">
     <g id="line2d_49">
      <g>
       <use xlink:href="#m72410a3efb" x="55.82" y="597.445619" style="stroke: #000000; stroke-width: 0.8"/>
      </g>
     </g>
     <g id="text_48">
      <!-- −10 -->
      <g transform="translate(27.715313 601.244838) scale(0.1 -0.1)">
       <use xlink:href="#DejaVuSans-2212"/>
       <use xlink:href="#DejaVuSans-31" x="83.789062"/>
       <use xlink:href="#DejaVuSans-30" x="147.412109"/>
      </g>
     </g>
    </g>
    <g id="ytick_18">
     <g id="line2d_50">
      <g>
       <use xlink:href="#m72410a3efb" x="55.82" y="564.143427" style="stroke: #000000; stroke-width: 0.8"/>
      </g>
     </g>
     <g id="text_49">
      <!-- 0 -->
      <g transform="translate(42.4575 567.942646) scale(0.1 -0.1)">
       <use xlink:href="#DejaVuSans-30"/>
      </g>
     </g>
    </g>
    <g id="text_50">
     <!-- 10 -->
     <g transform="translate(21.219688 612.035) rotate(-90) scale(0.12 -0.12)">
      <use xlink:href="#DejaVuSans-31"/>
      <use xlink:href="#DejaVuSans-30" x="63.623047"/>
     </g>
    </g>
   </g>
   <g id="line2d_51">
    <path d="M 85.519091 541.055833 
L 118.86182 541.158893 
L 122.986694 542.123481 
L 126.882408 543.008246 
L 184.8598 543.108989 
L 193.224127 545.008914 
L 333.355255 545.118635 
L 336.792649 545.969474 
L 341.261263 547.077912 
L 366.354245 547.188577 
L 373.114454 548.925429 
L 374.374832 549.205891 
L 382.853739 549.316421 
L 391.103487 551.365493 
L 399.238655 551.447212 
L 407.602982 553.537544 
L 481.736129 553.623624 
L 489.871297 555.706367 
L 498.235624 555.79356 
L 506.485372 557.838785 
L 514.620539 557.943787 
L 518.516254 559.823578 
L 522.870287 561.676106 
L 526.422262 562.852348 
L 529.057598 563.441354 
L 531.578354 563.701399 
L 535.703227 563.893254 
L 544.640454 564.039097 
L 565.952301 564.117734 
L 665.63675 564.142324 
L 679.500909 564.142505 
L 679.500909 564.142505 
" clip-path="url(#p4042223b9b)" style="fill: none; stroke: #1f77b4; stroke-width: 1.5; stroke-linecap: square"/>
   </g>
   <g id="line2d_52">
    <path d="M 85.519091 541.055833 
L 118.9764 540.85237 
L 127.111568 543.300962 
L 173.860137 543.428014 
L 184.97438 543.354799 
L 193.109548 545.664262 
L 212.015219 545.827597 
L 263.576141 546.635353 
L 298.293828 547.555753 
L 333.355255 548.684483 
L 341.605002 551.314771 
L 362.229371 552.517582 
L 366.354245 552.855014 
L 374.603992 555.568676 
L 382.853739 556.291871 
L 391.103487 558.989523 
L 399.467814 559.883592 
L 407.488402 562.494671 
L 453.778652 567.680823 
L 465.465794 569.281776 
L 476.236298 570.981321 
L 481.850709 572.02852 
L 490.329616 575.325853 
L 498.235624 577.108884 
L 506.829111 580.65283 
L 514.620539 582.746143 
L 519.203732 585.36487 
L 523.443186 587.539366 
L 527.3389 589.297133 
L 530.661715 590.571668 
L 538.911463 593.378919 
L 554.379739 598.707009 
L 566.066881 602.967968 
L 576.149906 606.877187 
L 585.201712 610.620593 
L 593.795199 614.413879 
L 602.044947 618.296911 
L 610.180114 622.371642 
L 618.200702 626.636936 
L 626.22129 631.155402 
L 634.127298 635.863184 
L 642.033306 640.8291 
L 649.939314 646.059458 
L 657.730742 651.479092 
L 665.52217 657.168333 
L 673.313598 663.133871 
L 679.500909 668.072727 
L 679.500909 668.072727 
" clip-path="url(#p4042223b9b)" style="fill: none; stroke: #ff7f0e; stroke-width: 1.5; stroke-linecap: square"/>
   </g>
   <g id="patch_19">
    <path d="M 55.82 674.44 
L 55.82 534.36 
" style="fill: none; stroke: #000000; stroke-width: 0.8; stroke-linejoin: miter; stroke-linecap: square"/>
   </g>
   <g id="patch_20">
    <path d="M 709.2 674.44 
L 709.2 534.36 
" style="fill: none; stroke: #000000; stroke-width: 0.8; stroke-linejoin: miter; stroke-linecap: square"/>
   </g>
   <g id="patch_21">
    <path d="M 55.82 674.44 
L 709.2 674.44 
" style="fill: none; stroke: #000000; stroke-width: 0.8; stroke-linejoin: miter; stroke-linecap: square"/>
   </g>
   <g id="patch_22">
    <path d="M 55.82 534.36 
L 709.2 534.36 
" style="fill: none; stroke: #000000; stroke-width: 0.8; stroke-linejoin: miter; stroke-linecap: square"/>
   </g>
  </g>
 </g>
 <defs>
  <clipPath id="p1b4283dc27">
   <rect x="55.82" y="30.48" width="653.38" height="140.08"/>
  </clipPath>
  <clipPath id="pe9b8de991f">
   <rect x="55.82" y="198.44" width="653.38" height="140.08"/>
  </clipPath>
  <clipPath id="p7de493224b">
   <rect x="55.82" y="366.4" width="653.38" height="140.08"/>
  </clipPath>
  <clipPath id="p4042223b9b">
   <rect x="55.82" y="534.36" width="653.38" height="140.08"/>
  </clipPath>
 </defs>
</svg>
