<?xml version="1.0" encoding="utf-8" standalone="no"?>
<!DOCTYPE svg PUBLIC "-//W3C//DTD SVG 1.1//EN"
  "http://www.w3.org/Graphics/SVG/1.1/DTD/svg11.dtd">
<svg xmlns:xlink="http://www.w3.org/1999/xlink" width="720pt" height="720pt" viewBox="0 0 720 720" xmlns="http://www.w3.org/2000/svg" version="1.1">
 <metadata>
  <rdf:RDF xmlns:dc="http://purl.org/dc/elements/1.1/" xmlns:cc="http://creativecommons.org/ns#" xmlns:rdf="http://www.w3.org/1999/02/22-rdf-syntax-ns#">
   <cc:Work>
    <dc:type rdf:resource="http://purl.org/dc/dcmitype/StillImage"/>
    <dc:date>2023-12-09T14:40:57.376107</dc:date>
    <dc:format>image/svg+xml</dc:format>
    <dc:creator>
     <cc:Agent>
      <dc:title>Matplotlib v3.7.1, https://matplotlib.org/</dc:title>
     </cc:Agent>
    </dc:creator>
   </cc:Work>
  </rdf:RDF>
 </metadata>
 <defs>
  <style type="text/css">*{stroke-linejoin: round; stroke-linecap: butt}</style>
 </defs>
 <g id="figure_1">
  <g id="patch_1">
   <path d="M 0 720 
L 720 720 
L 720 0 
L 0 0 
z
" style="fill: #ffffff"/>
  </g>
  <g id="axes_1">
   <g id="patch_2">
    <path d="M 55.82 170.56 
L 709.2 170.56 
L 709.2 30.48 
L 55.82 30.48 
z
" style="fill: #ffffff"/>
   </g>
   <g id="matplotlib.axis_1">
    <g id="xtick_1">
     <g id="line2d_1">
      <defs>
       <path id="mcfab75fb60" d="M 0 0 
L 0 3.5 
" style="stroke: #000000; stroke-width: 0.8"/>
      </defs>
      <g>
       <use xlink:href="#mcfab75fb60" x="85.519091" y="170.56" style="stroke: #000000; stroke-width: 0.8"/>
      </g>
     </g>
     <g id="text_1">
      <!-- 0 -->
      <g transform="translate(82.337841 185.158438) scale(0.1 -0.1)">
       <defs>
        <path id="DejaVuSans-30" d="M 2034 4250 
Q 1547 4250 1301 3770 
Q 1056 3291 1056 2328 
Q 1056 1369 1301 889 
Q 1547 409 2034 409 
Q 2525 409 2770 889 
Q 3016 1369 3016 2328 
Q 3016 3291 2770 3770 
Q 2525 4250 2034 4250 
z
M 2034 4750 
Q 2819 4750 3233 4129 
Q 3647 3509 3647 2328 
Q 3647 1150 3233 529 
Q 2819 -91 2034 -91 
Q 1250 -91 836 529 
Q 422 1150 422 2328 
Q 422 3509 836 4129 
Q 1250 4750 2034 4750 
z
" transform="scale(0.015625)"/>
       </defs>
       <use xlink:href="#DejaVuSans-30"/>
      </g>
     </g>
    </g>
    <g id="xtick_2">
     <g id="line2d_2">
      <g>
       <use xlink:href="#mcfab75fb60" x="200.098917" y="170.56" style="stroke: #000000; stroke-width: 0.8"/>
      </g>
     </g>
     <g id="text_2">
      <!-- 1000 -->
      <g transform="translate(187.373917 185.158438) scale(0.1 -0.1)">
       <defs>
        <path id="DejaVuSans-31" d="M 794 531 
L 1825 531 
L 1825 4091 
L 703 3866 
L 703 4441 
L 1819 4666 
L 2450 4666 
L 2450 531 
L 3481 531 
L 3481 0 
L 794 0 
L 794 531 
z
" transform="scale(0.015625)"/>
       </defs>
       <use xlink:href="#DejaVuSans-31"/>
       <use xlink:href="#DejaVuSans-30" x="63.623047"/>
       <use xlink:href="#DejaVuSans-30" x="127.246094"/>
       <use xlink:href="#DejaVuSans-30" x="190.869141"/>
      </g>
     </g>
    </g>
    <g id="xtick_3">
     <g id="line2d_3">
      <g>
       <use xlink:href="#mcfab75fb60" x="314.678743" y="170.56" style="stroke: #000000; stroke-width: 0.8"/>
      </g>
     </g>
     <g id="text_3">
      <!-- 2000 -->
      <g transform="translate(301.953743 185.158438) scale(0.1 -0.1)">
       <defs>
        <path id="DejaVuSans-32" d="M 1228 531 
L 3431 531 
L 3431 0 
L 469 0 
L 469 531 
Q 828 903 1448 1529 
Q 2069 2156 2228 2338 
Q 2531 2678 2651 2914 
Q 2772 3150 2772 3378 
Q 2772 3750 2511 3984 
Q 2250 4219 1831 4219 
Q 1534 4219 1204 4116 
Q 875 4013 500 3803 
L 500 4441 
Q 881 4594 1212 4672 
Q 1544 4750 1819 4750 
Q 2544 4750 2975 4387 
Q 3406 4025 3406 3419 
Q 3406 3131 3298 2873 
Q 3191 2616 2906 2266 
Q 2828 2175 2409 1742 
Q 1991 1309 1228 531 
z
" transform="scale(0.015625)"/>
       </defs>
       <use xlink:href="#DejaVuSans-32"/>
       <use xlink:href="#DejaVuSans-30" x="63.623047"/>
       <use xlink:href="#DejaVuSans-30" x="127.246094"/>
       <use xlink:href="#DejaVuSans-30" x="190.869141"/>
      </g>
     </g>
    </g>
    <g id="xtick_4">
     <g id="line2d_4">
      <g>
       <use xlink:href="#mcfab75fb60" x="429.258569" y="170.56" style="stroke: #000000; stroke-width: 0.8"/>
      </g>
     </g>
     <g id="text_4">
      <!-- 3000 -->
      <g transform="translate(416.533569 185.158438) scale(0.1 -0.1)">
       <defs>
        <path id="DejaVuSans-33" d="M 2597 2516 
Q 3050 2419 3304 2112 
Q 3559 1806 3559 1356 
Q 3559 666 3084 287 
Q 2609 -91 1734 -91 
Q 1441 -91 1130 -33 
Q 819 25 488 141 
L 488 750 
Q 750 597 1062 519 
Q 1375 441 1716 441 
Q 2309 441 2620 675 
Q 2931 909 2931 1356 
Q 2931 1769 2642 2001 
Q 2353 2234 1838 2234 
L 1294 2234 
L 1294 2753 
L 1863 2753 
Q 2328 2753 2575 2939 
Q 2822 3125 2822 3475 
Q 2822 3834 2567 4026 
Q 2313 4219 1838 4219 
Q 1578 4219 1281 4162 
Q 984 4106 628 3988 
L 628 4550 
Q 988 4650 1302 4700 
Q 1616 4750 1894 4750 
Q 2613 4750 3031 4423 
Q 3450 4097 3450 3541 
Q 3450 3153 3228 2886 
Q 3006 2619 2597 2516 
z
" transform="scale(0.015625)"/>
       </defs>
       <use xlink:href="#DejaVuSans-33"/>
       <use xlink:href="#DejaVuSans-30" x="63.623047"/>
       <use xlink:href="#DejaVuSans-30" x="127.246094"/>
       <use xlink:href="#DejaVuSans-30" x="190.869141"/>
      </g>
     </g>
    </g>
    <g id="xtick_5">
     <g id="line2d_5">
      <g>
       <use xlink:href="#mcfab75fb60" x="543.838395" y="170.56" style="stroke: #000000; stroke-width: 0.8"/>
      </g>
     </g>
     <g id="text_5">
      <!-- 4000 -->
      <g transform="translate(531.113395 185.158438) scale(0.1 -0.1)">
       <defs>
        <path id="DejaVuSans-34" d="M 2419 4116 
L 825 1625 
L 2419 1625 
L 2419 4116 
z
M 2253 4666 
L 3047 4666 
L 3047 1625 
L 3713 1625 
L 3713 1100 
L 3047 1100 
L 3047 0 
L 2419 0 
L 2419 1100 
L 313 1100 
L 313 1709 
L 2253 4666 
z
" transform="scale(0.015625)"/>
       </defs>
       <use xlink:href="#DejaVuSans-34"/>
       <use xlink:href="#DejaVuSans-30" x="63.623047"/>
       <use xlink:href="#DejaVuSans-30" x="127.246094"/>
       <use xlink:href="#DejaVuSans-30" x="190.869141"/>
      </g>
     </g>
    </g>
    <g id="xtick_6">
     <g id="line2d_6">
      <g>
       <use xlink:href="#mcfab75fb60" x="658.418221" y="170.56" style="stroke: #000000; stroke-width: 0.8"/>
      </g>
     </g>
     <g id="text_6">
      <!-- 5000 -->
      <g transform="translate(645.693221 185.158438) scale(0.1 -0.1)">
       <defs>
        <path id="DejaVuSans-35" d="M 691 4666 
L 3169 4666 
L 3169 4134 
L 1269 4134 
L 1269 2991 
Q 1406 3038 1543 3061 
Q 1681 3084 1819 3084 
Q 2600 3084 3056 2656 
Q 3513 2228 3513 1497 
Q 3513 744 3044 326 
Q 2575 -91 1722 -91 
Q 1428 -91 1123 -41 
Q 819 9 494 109 
L 494 744 
Q 775 591 1075 516 
Q 1375 441 1709 441 
Q 2250 441 2565 725 
Q 2881 1009 2881 1497 
Q 2881 1984 2565 2268 
Q 2250 2553 1709 2553 
Q 1456 2553 1204 2497 
Q 953 2441 691 2322 
L 691 4666 
z
" transform="scale(0.015625)"/>
       </defs>
       <use xlink:href="#DejaVuSans-35"/>
       <use xlink:href="#DejaVuSans-30" x="63.623047"/>
       <use xlink:href="#DejaVuSans-30" x="127.246094"/>
       <use xlink:href="#DejaVuSans-30" x="190.869141"/>
      </g>
     </g>
    </g>
   </g>
   <g id="matplotlib.axis_2">
    <g id="ytick_1">
     <g id="line2d_7">
      <defs>
       <path id="m587c6cd06b" d="M 0 0 
L -3.5 0 
" style="stroke: #000000; stroke-width: 0.8"/>
      </defs>
      <g>
       <use xlink:href="#m587c6cd06b" x="55.82" y="163.060969" style="stroke: #000000; stroke-width: 0.8"/>
      </g>
     </g>
     <g id="text_7">
      <!-- 0 -->
      <g transform="translate(42.4575 166.860188) scale(0.1 -0.1)">
       <use xlink:href="#DejaVuSans-30"/>
      </g>
     </g>
    </g>
    <g id="ytick_2">
     <g id="line2d_8">
      <g>
       <use xlink:href="#m587c6cd06b" x="55.82" y="127.279241" style="stroke: #000000; stroke-width: 0.8"/>
      </g>
     </g>
     <g id="text_8">
      <!-- 1 -->
      <g transform="translate(42.4575 131.07846) scale(0.1 -0.1)">
       <use xlink:href="#DejaVuSans-31"/>
      </g>
     </g>
    </g>
    <g id="ytick_3">
     <g id="line2d_9">
      <g>
       <use xlink:href="#m587c6cd06b" x="55.82" y="91.497514" style="stroke: #000000; stroke-width: 0.8"/>
      </g>
     </g>
     <g id="text_9">
      <!-- 2 -->
      <g transform="translate(42.4575 95.296732) scale(0.1 -0.1)">
       <use xlink:href="#DejaVuSans-32"/>
      </g>
     </g>
    </g>
    <g id="ytick_4">
     <g id="line2d_10">
      <g>
       <use xlink:href="#m587c6cd06b" x="55.82" y="55.715786" style="stroke: #000000; stroke-width: 0.8"/>
      </g>
     </g>
     <g id="text_10">
      <!-- 3 -->
      <g transform="translate(42.4575 59.515005) scale(0.1 -0.1)">
       <use xlink:href="#DejaVuSans-33"/>
      </g>
     </g>
    </g>
    <g id="text_11">
     <!-- 1 -->
     <g transform="translate(35.961875 104.3375) rotate(-90) scale(0.12 -0.12)">
      <use xlink:href="#DejaVuSans-31"/>
     </g>
    </g>
   </g>
   <g id="line2d_11">
    <path d="M 85.519091 39.55719 
L 95.831275 38.882103 
L 109.466275 38.341849 
L 131.694761 37.812523 
L 134.902996 37.757122 
L 135.475895 43.145526 
L 136.507113 53.470739 
L 138.340391 70.913989 
L 139.371609 80.257672 
L 143.152743 110.392901 
L 143.381903 110.607551 
L 169.735263 110.330365 
L 200.900976 110.132385 
L 201.244715 112.314606 
L 203.307152 125.911536 
L 205.140429 136.416433 
L 206.973707 145.763275 
L 208.234085 151.135007 
L 209.036143 153.481654 
L 209.265303 153.84494 
L 217.400471 153.79972 
L 217.85879 154.741125 
L 218.775429 156.355785 
L 219.692067 157.551493 
L 220.723286 158.556395 
L 221.983664 159.454912 
L 223.358622 160.161456 
L 225.077319 160.787152 
L 225.993958 160.959239 
L 251.774418 160.736002 
L 252.461897 160.428077 
L 253.149376 159.827553 
L 253.836855 158.894572 
L 254.638914 157.329086 
L 255.326393 155.568962 
L 256.243032 152.686835 
L 257.15967 149.224123 
L 258.649208 142.750574 
L 260.138746 136.704455 
L 261.169964 133.62813 
L 262.086603 131.382569 
L 263.346981 128.859186 
L 264.492779 127.000734 
L 265.753157 125.306439 
L 267.242695 123.662959 
L 268.846813 122.21983 
L 270.79467 120.811051 
L 272.398787 119.861402 
L 274.804964 118.701848 
L 278.356938 117.407116 
L 281.794333 116.471579 
L 286.377526 115.545387 
L 290.5024 114.925347 
L 295.658492 114.326327 
L 301.502063 113.809074 
L 311.470508 113.200832 
L 323.959709 112.69571 
L 345.959035 112.138363 
L 349.39643 112.074403 
L 350.083909 116.542664 
L 351.000548 122.6771 
L 354.208783 140.917521 
L 355.010842 144.920397 
L 356.614959 151.625245 
L 357.646178 154.357376 
L 357.875337 154.422069 
L 382.28084 154.103758 
L 424.331637 153.801271 
L 433.268863 153.644121 
L 433.956342 153.3352 
L 434.643821 152.747887 
L 435.3313 151.847425 
L 436.133359 150.33943 
L 436.935417 148.352927 
L 437.966636 145.124736 
L 438.997854 141.10334 
L 441.63319 130.285384 
L 442.893568 126.638248 
L 444.153946 123.785304 
L 445.299745 121.667494 
L 446.445543 119.916097 
L 447.705921 118.30142 
L 448.3934 117.538532 
L 448.737139 119.257257 
L 451.028736 131.369013 
L 453.091173 141.176031 
L 454.92445 148.780948 
L 455.841089 151.722659 
L 456.643147 153.570761 
L 456.872307 153.548295 
L 459.163904 152.537376 
L 462.486719 151.390216 
L 466.267853 150.112635 
L 466.955332 149.407914 
L 467.757391 148.182142 
L 468.559449 146.520987 
L 469.476088 144.15679 
L 470.736466 140.232254 
L 472.111424 135.125021 
L 474.5176 126.06691 
L 475.892558 122.422913 
L 477.267516 119.589857 
L 478.527894 117.505354 
L 479.902852 115.648676 
L 481.39239 114.005375 
L 482.996507 112.57093 
L 485.058944 111.094697 
L 487.465121 109.754679 
L 489.412978 108.883153 
L 492.162894 107.893995 
L 494.45449 107.228553 
L 497.777305 106.448753 
L 502.475078 105.614968 
L 509.120708 104.776251 
L 514.39138 104.291887 
L 515.422598 105.694586 
L 516.797556 107.425965 
L 518.287094 109.006222 
L 519.776632 110.267044 
L 521.266169 111.229457 
L 522.641127 111.86932 
L 524.016085 112.310183 
L 525.620203 112.607084 
L 527.56806 112.720589 
L 529.859656 112.615153 
L 532.724152 112.245748 
L 537.536505 111.388842 
L 542.921756 110.488211 
L 546.93205 110.007881 
L 551.056924 109.738291 
L 554.952638 109.709657 
L 558.848352 109.904939 
L 562.629487 110.300971 
L 566.410621 110.894236 
L 570.420915 111.729382 
L 574.660368 112.835009 
L 578.097763 113.889046 
L 581.764317 115.160638 
L 585.889191 116.762269 
L 590.930704 118.947748 
L 598.034653 122.408142 
L 603.305325 125.221768 
L 611.784232 130.124314 
L 617.054904 133.451827 
L 634.929357 145.728316 
L 647.189398 153.329918 
L 649.710154 154.68315 
L 655.668305 157.496938 
L 659.1057 158.831795 
L 661.282717 159.428811 
L 665.52217 160.196605 
L 670.678262 160.746126 
L 676.980153 161.145006 
L 679.500909 161.254286 
L 679.500909 161.254286 
" clip-path="url(#p6bd36eac18)" style="fill: none; stroke: #1f77b4; stroke-width: 1.5; stroke-linecap: square"/>
   </g>
   <g id="line2d_12">
    <path d="M 85.519091 39.55719 
L 135.017576 36.847273 
L 135.132156 37.472764 
L 137.423752 61.423907 
L 139.600769 81.908999 
L 141.663206 99.236419 
L 143.152743 110.475106 
L 143.381903 110.882629 
L 201.015556 109.459097 
L 201.244715 110.676422 
L 203.077992 122.792299 
L 204.79669 132.633918 
L 206.286228 139.929829 
L 207.661185 145.593195 
L 208.463244 148.129445 
L 209.150723 149.71527 
L 209.379883 149.828987 
L 217.62963 149.873163 
L 218.546269 151.310519 
L 219.462908 152.355674 
L 220.494126 153.220585 
L 221.754504 153.982913 
L 223.244042 154.615365 
L 225.077319 155.147424 
L 226.108537 155.285554 
L 250.7432 155.21793 
L 251.201519 155.284972 
L 251.659839 155.142491 
L 252.232738 154.704536 
L 252.920217 153.835141 
L 253.722276 152.398393 
L 254.638914 150.282211 
L 255.784712 147.046496 
L 257.15967 142.46715 
L 258.763788 136.403276 
L 259.909586 131.845254 
L 261.055384 128.111288 
L 262.201183 125.06857 
L 263.346981 122.600091 
L 264.607359 120.416056 
L 265.867737 118.670299 
L 267.242695 117.155791 
L 268.617653 115.960638 
L 270.107191 114.948364 
L 271.825888 114.063112 
L 273.659165 113.370817 
L 275.836182 112.792031 
L 278.471518 112.329462 
L 281.908913 111.961061 
L 287.065005 111.652012 
L 297.377189 111.303875 
L 349.51101 109.829142 
L 349.74017 111.021334 
L 351.573447 122.865459 
L 353.177565 131.860219 
L 354.667102 139.016641 
L 356.04206 144.53651 
L 356.844119 146.904154 
L 357.646178 148.598749 
L 357.875337 148.699605 
L 401.415671 147.94675 
L 432.352224 147.45941 
L 432.810544 147.465788 
L 433.268863 147.261342 
L 433.841762 146.742061 
L 434.529241 145.767977 
L 435.3313 144.200801 
L 436.362518 141.607788 
L 437.622896 137.738302 
L 439.112434 132.38152 
L 440.716552 125.792376 
L 441.86235 121.416581 
L 443.008148 117.830632 
L 444.153946 114.913277 
L 445.299745 112.543446 
L 446.560123 110.440256 
L 447.820501 108.752731 
L 448.50798 107.975058 
L 448.62256 108.233375 
L 450.799576 119.744835 
L 452.632854 128.299816 
L 454.236971 134.760256 
L 455.497349 138.975087 
L 456.299408 140.877082 
L 456.757727 141.628681 
L 459.278483 141.124367 
L 462.486719 140.728305 
L 465.122055 140.549462 
L 465.580374 140.628819 
L 466.153273 140.475597 
L 466.726172 140.073944 
L 467.413651 139.289562 
L 468.21571 137.999965 
L 469.132348 136.099556 
L 470.278147 133.200016 
L 471.767684 128.77029 
L 473.486382 122.936277 
L 474.63218 119.113416 
L 475.777978 115.978385 
L 476.923777 113.424048 
L 478.184155 111.163063 
L 479.444533 109.357514 
L 480.819491 107.791059 
L 482.194449 106.551863 
L 483.683986 105.496707 
L 485.402684 104.565897 
L 487.235961 103.828861 
L 489.412978 103.202009 
L 492.048314 102.688221 
L 495.485708 102.262482 
L 500.527221 101.887589 
L 509.922767 101.453337 
L 514.620539 101.368313 
L 515.766338 103.032081 
L 517.026716 104.456162 
L 518.287094 105.525633 
L 519.547472 106.305783 
L 520.92243 106.896963 
L 522.411968 107.302656 
L 524.130665 107.545853 
L 526.307682 107.613095 
L 529.057598 107.461092 
L 534.21369 106.900676 
L 539.828101 106.37572 
L 543.952975 106.214473 
L 547.848689 106.279058 
L 551.744403 106.563205 
L 555.754697 107.083103 
L 559.764991 107.826474 
L 563.889865 108.814464 
L 568.243898 110.090918 
L 572.712511 111.636398 
L 577.410284 113.501979 
L 582.337217 115.704791 
L 587.493309 118.257591 
L 592.99314 121.232107 
L 598.951291 124.711462 
L 605.596921 128.855651 
L 613.27377 133.912766 
L 619.117341 138.041545 
L 633.898138 148.603742 
L 639.05423 151.949901 
L 643.637424 154.670072 
L 647.991457 156.998247 
L 652.116331 158.952858 
L 656.126625 160.605345 
L 659.33486 161.711115 
L 661.970196 162.354158 
L 665.40759 162.949433 
L 669.876204 163.484102 
L 676.063514 163.984593 
L 679.500909 164.192727 
L 679.500909 164.192727 
" clip-path="url(#p6bd36eac18)" style="fill: none; stroke: #ff7f0e; stroke-width: 1.5; stroke-linecap: square"/>
   </g>
   <g id="patch_3">
    <path d="M 55.82 170.56 
L 55.82 30.48 
" style="fill: none; stroke: #000000; stroke-width: 0.8; stroke-linejoin: miter; stroke-linecap: square"/>
   </g>
   <g id="patch_4">
    <path d="M 709.2 170.56 
L 709.2 30.48 
" style="fill: none; stroke: #000000; stroke-width: 0.8; stroke-linejoin: miter; stroke-linecap: square"/>
   </g>
   <g id="patch_5">
    <path d="M 55.82 170.56 
L 709.2 170.56 
" style="fill: none; stroke: #000000; stroke-width: 0.8; stroke-linejoin: miter; stroke-linecap: square"/>
   </g>
   <g id="patch_6">
    <path d="M 55.82 30.48 
L 709.2 30.48 
" style="fill: none; stroke: #000000; stroke-width: 0.8; stroke-linejoin: miter; stroke-linecap: square"/>
   </g>
   <g id="text_12">
    <!-- outputs -->
    <g transform="translate(349.51195 24.48) scale(0.1728 -0.1728)">
     <defs>
      <path id="DejaVuSans-6f" d="M 1959 3097 
Q 1497 3097 1228 2736 
Q 959 2375 959 1747 
Q 959 1119 1226 758 
Q 1494 397 1959 397 
Q 2419 397 2687 759 
Q 2956 1122 2956 1747 
Q 2956 2369 2687 2733 
Q 2419 3097 1959 3097 
z
M 1959 3584 
Q 2709 3584 3137 3096 
Q 3566 2609 3566 1747 
Q 3566 888 3137 398 
Q 2709 -91 1959 -91 
Q 1206 -91 779 398 
Q 353 888 353 1747 
Q 353 2609 779 3096 
Q 1206 3584 1959 3584 
z
" transform="scale(0.015625)"/>
      <path id="DejaVuSans-75" d="M 544 1381 
L 544 3500 
L 1119 3500 
L 1119 1403 
Q 1119 906 1312 657 
Q 1506 409 1894 409 
Q 2359 409 2629 706 
Q 2900 1003 2900 1516 
L 2900 3500 
L 3475 3500 
L 3475 0 
L 2900 0 
L 2900 538 
Q 2691 219 2414 64 
Q 2138 -91 1772 -91 
Q 1169 -91 856 284 
Q 544 659 544 1381 
z
M 1991 3584 
L 1991 3584 
z
" transform="scale(0.015625)"/>
      <path id="DejaVuSans-74" d="M 1172 4494 
L 1172 3500 
L 2356 3500 
L 2356 3053 
L 1172 3053 
L 1172 1153 
Q 1172 725 1289 603 
Q 1406 481 1766 481 
L 2356 481 
L 2356 0 
L 1766 0 
Q 1100 0 847 248 
Q 594 497 594 1153 
L 594 3053 
L 172 3053 
L 172 3500 
L 594 3500 
L 594 4494 
L 1172 4494 
z
" transform="scale(0.015625)"/>
      <path id="DejaVuSans-70" d="M 1159 525 
L 1159 -1331 
L 581 -1331 
L 581 3500 
L 1159 3500 
L 1159 2969 
Q 1341 3281 1617 3432 
Q 1894 3584 2278 3584 
Q 2916 3584 3314 3078 
Q 3713 2572 3713 1747 
Q 3713 922 3314 415 
Q 2916 -91 2278 -91 
Q 1894 -91 1617 61 
Q 1341 213 1159 525 
z
M 3116 1747 
Q 3116 2381 2855 2742 
Q 2594 3103 2138 3103 
Q 1681 3103 1420 2742 
Q 1159 2381 1159 1747 
Q 1159 1113 1420 752 
Q 1681 391 2138 391 
Q 2594 391 2855 752 
Q 3116 1113 3116 1747 
z
" transform="scale(0.015625)"/>
      <path id="DejaVuSans-73" d="M 2834 3397 
L 2834 2853 
Q 2591 2978 2328 3040 
Q 2066 3103 1784 3103 
Q 1356 3103 1142 2972 
Q 928 2841 928 2578 
Q 928 2378 1081 2264 
Q 1234 2150 1697 2047 
L 1894 2003 
Q 2506 1872 2764 1633 
Q 3022 1394 3022 966 
Q 3022 478 2636 193 
Q 2250 -91 1575 -91 
Q 1294 -91 989 -36 
Q 684 19 347 128 
L 347 722 
Q 666 556 975 473 
Q 1284 391 1588 391 
Q 1994 391 2212 530 
Q 2431 669 2431 922 
Q 2431 1156 2273 1281 
Q 2116 1406 1581 1522 
L 1381 1569 
Q 847 1681 609 1914 
Q 372 2147 372 2553 
Q 372 3047 722 3315 
Q 1072 3584 1716 3584 
Q 2034 3584 2315 3537 
Q 2597 3491 2834 3397 
z
" transform="scale(0.015625)"/>
     </defs>
     <use xlink:href="#DejaVuSans-6f"/>
     <use xlink:href="#DejaVuSans-75" x="61.181641"/>
     <use xlink:href="#DejaVuSans-74" x="124.560547"/>
     <use xlink:href="#DejaVuSans-70" x="163.769531"/>
     <use xlink:href="#DejaVuSans-75" x="227.246094"/>
     <use xlink:href="#DejaVuSans-74" x="290.625"/>
     <use xlink:href="#DejaVuSans-73" x="329.833984"/>
    </g>
   </g>
   <g id="legend_1">
    <g id="patch_7">
     <path d="M 603.45225 84.273 
L 699.12 84.273 
Q 702 84.273 702 81.393 
L 702 40.56 
Q 702 37.68 699.12 37.68 
L 603.45225 37.68 
Q 600.57225 37.68 600.57225 40.56 
L 600.57225 81.393 
Q 600.57225 84.273 603.45225 84.273 
z
" style="fill: #ffffff; opacity: 0.8; stroke: #cccccc; stroke-linejoin: miter"/>
    </g>
    <g id="line2d_13">
     <path d="M 606.33225 49.34175 
L 620.73225 49.34175 
L 635.13225 49.34175 
" style="fill: none; stroke: #1f77b4; stroke-width: 1.5; stroke-linecap: square"/>
    </g>
    <g id="text_13">
     <!-- actual -->
     <g transform="translate(646.65225 54.38175) scale(0.144 -0.144)">
      <defs>
       <path id="DejaVuSans-61" d="M 2194 1759 
Q 1497 1759 1228 1600 
Q 959 1441 959 1056 
Q 959 750 1161 570 
Q 1363 391 1709 391 
Q 2188 391 2477 730 
Q 2766 1069 2766 1631 
L 2766 1759 
L 2194 1759 
z
M 3341 1997 
L 3341 0 
L 2766 0 
L 2766 531 
Q 2569 213 2275 61 
Q 1981 -91 1556 -91 
Q 1019 -91 701 211 
Q 384 513 384 1019 
Q 384 1609 779 1909 
Q 1175 2209 1959 2209 
L 2766 2209 
L 2766 2266 
Q 2766 2663 2505 2880 
Q 2244 3097 1772 3097 
Q 1472 3097 1187 3025 
Q 903 2953 641 2809 
L 641 3341 
Q 956 3463 1253 3523 
Q 1550 3584 1831 3584 
Q 2591 3584 2966 3190 
Q 3341 2797 3341 1997 
z
" transform="scale(0.015625)"/>
       <path id="DejaVuSans-63" d="M 3122 3366 
L 3122 2828 
Q 2878 2963 2633 3030 
Q 2388 3097 2138 3097 
Q 1578 3097 1268 2742 
Q 959 2388 959 1747 
Q 959 1106 1268 751 
Q 1578 397 2138 397 
Q 2388 397 2633 464 
Q 2878 531 3122 666 
L 3122 134 
Q 2881 22 2623 -34 
Q 2366 -91 2075 -91 
Q 1284 -91 818 406 
Q 353 903 353 1747 
Q 353 2603 823 3093 
Q 1294 3584 2113 3584 
Q 2378 3584 2631 3529 
Q 2884 3475 3122 3366 
z
" transform="scale(0.015625)"/>
       <path id="DejaVuSans-6c" d="M 603 4863 
L 1178 4863 
L 1178 0 
L 603 0 
L 603 4863 
z
" transform="scale(0.015625)"/>
      </defs>
      <use xlink:href="#DejaVuSans-61"/>
      <use xlink:href="#DejaVuSans-63" x="61.279297"/>
      <use xlink:href="#DejaVuSans-74" x="116.259766"/>
      <use xlink:href="#DejaVuSans-75" x="155.46875"/>
      <use xlink:href="#DejaVuSans-61" x="218.847656"/>
      <use xlink:href="#DejaVuSans-6c" x="280.126953"/>
     </g>
    </g>
    <g id="line2d_14">
     <path d="M 606.33225 70.47825 
L 620.73225 70.47825 
L 635.13225 70.47825 
" style="fill: none; stroke: #ff7f0e; stroke-width: 1.5; stroke-linecap: square"/>
    </g>
    <g id="text_14">
     <!-- approx -->
     <g transform="translate(646.65225 75.51825) scale(0.144 -0.144)">
      <defs>
       <path id="DejaVuSans-72" d="M 2631 2963 
Q 2534 3019 2420 3045 
Q 2306 3072 2169 3072 
Q 1681 3072 1420 2755 
Q 1159 2438 1159 1844 
L 1159 0 
L 581 0 
L 581 3500 
L 1159 3500 
L 1159 2956 
Q 1341 3275 1631 3429 
Q 1922 3584 2338 3584 
Q 2397 3584 2469 3576 
Q 2541 3569 2628 3553 
L 2631 2963 
z
" transform="scale(0.015625)"/>
       <path id="DejaVuSans-78" d="M 3513 3500 
L 2247 1797 
L 3578 0 
L 2900 0 
L 1881 1375 
L 863 0 
L 184 0 
L 1544 1831 
L 300 3500 
L 978 3500 
L 1906 2253 
L 2834 3500 
L 3513 3500 
z
" transform="scale(0.015625)"/>
      </defs>
      <use xlink:href="#DejaVuSans-61"/>
      <use xlink:href="#DejaVuSans-70" x="61.279297"/>
      <use xlink:href="#DejaVuSans-70" x="124.755859"/>
      <use xlink:href="#DejaVuSans-72" x="188.232422"/>
      <use xlink:href="#DejaVuSans-6f" x="227.095703"/>
      <use xlink:href="#DejaVuSans-78" x="285.152344"/>
     </g>
    </g>
   </g>
  </g>
  <g id="axes_2">
   <g id="patch_8">
    <path d="M 55.82 338.52 
L 709.2 338.52 
L 709.2 198.44 
L 55.82 198.44 
z
" style="fill: #ffffff"/>
   </g>
   <g id="matplotlib.axis_3">
    <g id="xtick_7">
     <g id="line2d_15">
      <g>
       <use xlink:href="#mcfab75fb60" x="85.519091" y="338.52" style="stroke: #000000; stroke-width: 0.8"/>
      </g>
     </g>
     <g id="text_15">
      <!-- 0 -->
      <g transform="translate(82.337841 353.118437) scale(0.1 -0.1)">
       <use xlink:href="#DejaVuSans-30"/>
      </g>
     </g>
    </g>
    <g id="xtick_8">
     <g id="line2d_16">
      <g>
       <use xlink:href="#mcfab75fb60" x="200.098917" y="338.52" style="stroke: #000000; stroke-width: 0.8"/>
      </g>
     </g>
     <g id="text_16">
      <!-- 1000 -->
      <g transform="translate(187.373917 353.118437) scale(0.1 -0.1)">
       <use xlink:href="#DejaVuSans-31"/>
       <use xlink:href="#DejaVuSans-30" x="63.623047"/>
       <use xlink:href="#DejaVuSans-30" x="127.246094"/>
       <use xlink:href="#DejaVuSans-30" x="190.869141"/>
      </g>
     </g>
    </g>
    <g id="xtick_9">
     <g id="line2d_17">
      <g>
       <use xlink:href="#mcfab75fb60" x="314.678743" y="338.52" style="stroke: #000000; stroke-width: 0.8"/>
      </g>
     </g>
     <g id="text_17">
      <!-- 2000 -->
      <g transform="translate(301.953743 353.118437) scale(0.1 -0.1)">
       <use xlink:href="#DejaVuSans-32"/>
       <use xlink:href="#DejaVuSans-30" x="63.623047"/>
       <use xlink:href="#DejaVuSans-30" x="127.246094"/>
       <use xlink:href="#DejaVuSans-30" x="190.869141"/>
      </g>
     </g>
    </g>
    <g id="xtick_10">
     <g id="line2d_18">
      <g>
       <use xlink:href="#mcfab75fb60" x="429.258569" y="338.52" style="stroke: #000000; stroke-width: 0.8"/>
      </g>
     </g>
     <g id="text_18">
      <!-- 3000 -->
      <g transform="translate(416.533569 353.118437) scale(0.1 -0.1)">
       <use xlink:href="#DejaVuSans-33"/>
       <use xlink:href="#DejaVuSans-30" x="63.623047"/>
       <use xlink:href="#DejaVuSans-30" x="127.246094"/>
       <use xlink:href="#DejaVuSans-30" x="190.869141"/>
      </g>
     </g>
    </g>
    <g id="xtick_11">
     <g id="line2d_19">
      <g>
       <use xlink:href="#mcfab75fb60" x="543.838395" y="338.52" style="stroke: #000000; stroke-width: 0.8"/>
      </g>
     </g>
     <g id="text_19">
      <!-- 4000 -->
      <g transform="translate(531.113395 353.118437) scale(0.1 -0.1)">
       <use xlink:href="#DejaVuSans-34"/>
       <use xlink:href="#DejaVuSans-30" x="63.623047"/>
       <use xlink:href="#DejaVuSans-30" x="127.246094"/>
       <use xlink:href="#DejaVuSans-30" x="190.869141"/>
      </g>
     </g>
    </g>
    <g id="xtick_12">
     <g id="line2d_20">
      <g>
       <use xlink:href="#mcfab75fb60" x="658.418221" y="338.52" style="stroke: #000000; stroke-width: 0.8"/>
      </g>
     </g>
     <g id="text_20">
      <!-- 5000 -->
      <g transform="translate(645.693221 353.118437) scale(0.1 -0.1)">
       <use xlink:href="#DejaVuSans-35"/>
       <use xlink:href="#DejaVuSans-30" x="63.623047"/>
       <use xlink:href="#DejaVuSans-30" x="127.246094"/>
       <use xlink:href="#DejaVuSans-30" x="190.869141"/>
      </g>
     </g>
    </g>
   </g>
   <g id="matplotlib.axis_4">
    <g id="ytick_5">
     <g id="line2d_21">
      <g>
       <use xlink:href="#m587c6cd06b" x="55.82" y="333.185749" style="stroke: #000000; stroke-width: 0.8"/>
      </g>
     </g>
     <g id="text_21">
      <!-- 0 -->
      <g transform="translate(42.4575 336.984968) scale(0.1 -0.1)">
       <use xlink:href="#DejaVuSans-30"/>
      </g>
     </g>
    </g>
    <g id="ytick_6">
     <g id="line2d_22">
      <g>
       <use xlink:href="#m587c6cd06b" x="55.82" y="308.241567" style="stroke: #000000; stroke-width: 0.8"/>
      </g>
     </g>
     <g id="text_22">
      <!-- 2 -->
      <g transform="translate(42.4575 312.040785) scale(0.1 -0.1)">
       <use xlink:href="#DejaVuSans-32"/>
      </g>
     </g>
    </g>
    <g id="ytick_7">
     <g id="line2d_23">
      <g>
       <use xlink:href="#m587c6cd06b" x="55.82" y="283.297384" style="stroke: #000000; stroke-width: 0.8"/>
      </g>
     </g>
     <g id="text_23">
      <!-- 4 -->
      <g transform="translate(42.4575 287.096603) scale(0.1 -0.1)">
       <use xlink:href="#DejaVuSans-34"/>
      </g>
     </g>
    </g>
    <g id="ytick_8">
     <g id="line2d_24">
      <g>
       <use xlink:href="#m587c6cd06b" x="55.82" y="258.353201" style="stroke: #000000; stroke-width: 0.8"/>
      </g>
     </g>
     <g id="text_24">
      <!-- 6 -->
      <g transform="translate(42.4575 262.15242) scale(0.1 -0.1)">
       <defs>
        <path id="DejaVuSans-36" d="M 2113 2584 
Q 1688 2584 1439 2293 
Q 1191 2003 1191 1497 
Q 1191 994 1439 701 
Q 1688 409 2113 409 
Q 2538 409 2786 701 
Q 3034 994 3034 1497 
Q 3034 2003 2786 2293 
Q 2538 2584 2113 2584 
z
M 3366 4563 
L 3366 3988 
Q 3128 4100 2886 4159 
Q 2644 4219 2406 4219 
Q 1781 4219 1451 3797 
Q 1122 3375 1075 2522 
Q 1259 2794 1537 2939 
Q 1816 3084 2150 3084 
Q 2853 3084 3261 2657 
Q 3669 2231 3669 1497 
Q 3669 778 3244 343 
Q 2819 -91 2113 -91 
Q 1303 -91 875 529 
Q 447 1150 447 2328 
Q 447 3434 972 4092 
Q 1497 4750 2381 4750 
Q 2619 4750 2861 4703 
Q 3103 4656 3366 4563 
z
" transform="scale(0.015625)"/>
       </defs>
       <use xlink:href="#DejaVuSans-36"/>
      </g>
     </g>
    </g>
    <g id="ytick_9">
     <g id="line2d_25">
      <g>
       <use xlink:href="#m587c6cd06b" x="55.82" y="233.409019" style="stroke: #000000; stroke-width: 0.8"/>
      </g>
     </g>
     <g id="text_25">
      <!-- 8 -->
      <g transform="translate(42.4575 237.208237) scale(0.1 -0.1)">
       <defs>
        <path id="DejaVuSans-38" d="M 2034 2216 
Q 1584 2216 1326 1975 
Q 1069 1734 1069 1313 
Q 1069 891 1326 650 
Q 1584 409 2034 409 
Q 2484 409 2743 651 
Q 3003 894 3003 1313 
Q 3003 1734 2745 1975 
Q 2488 2216 2034 2216 
z
M 1403 2484 
Q 997 2584 770 2862 
Q 544 3141 544 3541 
Q 544 4100 942 4425 
Q 1341 4750 2034 4750 
Q 2731 4750 3128 4425 
Q 3525 4100 3525 3541 
Q 3525 3141 3298 2862 
Q 3072 2584 2669 2484 
Q 3125 2378 3379 2068 
Q 3634 1759 3634 1313 
Q 3634 634 3220 271 
Q 2806 -91 2034 -91 
Q 1263 -91 848 271 
Q 434 634 434 1313 
Q 434 1759 690 2068 
Q 947 2378 1403 2484 
z
M 1172 3481 
Q 1172 3119 1398 2916 
Q 1625 2713 2034 2713 
Q 2441 2713 2670 2916 
Q 2900 3119 2900 3481 
Q 2900 3844 2670 4047 
Q 2441 4250 2034 4250 
Q 1625 4250 1398 4047 
Q 1172 3844 1172 3481 
z
" transform="scale(0.015625)"/>
       </defs>
       <use xlink:href="#DejaVuSans-38"/>
      </g>
     </g>
    </g>
    <g id="ytick_10">
     <g id="line2d_26">
      <g>
       <use xlink:href="#m587c6cd06b" x="55.82" y="208.464836" style="stroke: #000000; stroke-width: 0.8"/>
      </g>
     </g>
     <g id="text_26">
      <!-- 10 -->
      <g transform="translate(36.095 212.264055) scale(0.1 -0.1)">
       <use xlink:href="#DejaVuSans-31"/>
       <use xlink:href="#DejaVuSans-30" x="63.623047"/>
      </g>
     </g>
    </g>
    <g id="text_27">
     <!-- 4 -->
     <g transform="translate(29.599375 272.2975) rotate(-90) scale(0.12 -0.12)">
      <use xlink:href="#DejaVuSans-34"/>
     </g>
    </g>
   </g>
   <g id="line2d_27">
    <path d="M 85.519091 294.308274 
L 102.935224 294.208747 
L 110.955812 292.565865 
L 114.851526 292.542644 
L 118.74724 292.478302 
L 121.840896 291.163117 
L 124.705391 289.985826 
L 126.882408 289.124217 
L 129.746904 289.114429 
L 152.433709 289.022564 
L 160.454297 287.47675 
L 165.03749 287.454248 
L 169.047784 287.346027 
L 177.412111 285.886912 
L 184.97438 285.726543 
L 192.880388 282.728723 
L 196.317783 282.71969 
L 235.045764 282.621099 
L 243.295511 281.265131 
L 250.399461 281.251088 
L 251.08694 282.347925 
L 253.149376 285.718305 
L 258.878368 294.453244 
L 268.044754 294.352113 
L 275.950762 293.009589 
L 280.304795 292.98758 
L 284.658829 292.874825 
L 293.137736 291.658952 
L 301.616643 291.484675 
L 308.033113 290.588118 
L 309.522651 290.500715 
L 318.574457 290.307242 
L 325.105507 289.622521 
L 328.313742 289.594732 
L 333.355255 289.490022 
L 336.56349 288.277202 
L 341.948742 286.540747 
L 366.468824 286.403363 
L 373.916513 283.867399 
L 374.489412 283.72667 
L 381.937101 283.721668 
L 382.853739 283.638559 
L 390.759747 281.168611 
L 391.561806 281.142 
L 399.467814 281.032037 
L 407.259242 278.833588 
L 408.061301 278.808525 
L 417.571427 278.686366 
L 424.675376 278.218423 
L 431.893905 278.206575 
L 432.237645 278.72154 
L 433.956342 281.623278 
L 436.018779 285.007457 
L 440.258232 291.685415 
L 464.892895 291.685141 
L 465.580374 292.691559 
L 473.257222 303.77917 
L 481.850709 303.700064 
L 488.1526 301.884634 
L 490.100457 301.431351 
L 498.693944 301.26799 
L 505.568733 299.575144 
L 506.829111 299.40015 
L 518.516254 299.470427 
L 521.03701 299.857855 
L 524.016085 300.549846 
L 527.10974 301.503307 
L 530.088816 302.66598 
L 534.442849 304.645775 
L 554.723479 313.653031 
L 561.827428 316.45483 
L 566.86894 318.313456 
L 575.462427 321.211087 
L 586.003771 324.285223 
L 592.763981 325.968414 
L 598.034653 327.124154 
L 605.253182 328.482665 
L 610.867593 329.364457 
L 615.450786 329.894037 
L 623.700534 330.563644 
L 632.294021 331.038514 
L 643.752003 331.469592 
L 665.40759 331.956615 
L 679.500909 332.152727 
L 679.500909 332.152727 
" clip-path="url(#pcee49a67c6)" style="fill: none; stroke: #1f77b4; stroke-width: 1.5; stroke-linecap: square"/>
   </g>
   <g id="line2d_28">
    <path d="M 85.519091 294.308274 
L 102.820645 294.278258 
L 107.976737 293.249304 
L 111.184972 292.716529 
L 118.9764 292.502219 
L 126.996988 288.909676 
L 136.621693 288.808033 
L 152.892029 288.585821 
L 160.798037 287.149377 
L 168.933204 286.891331 
L 175.349675 285.504294 
L 177.182952 285.193922 
L 184.74522 284.689888 
L 188.182615 282.929534 
L 193.109548 280.510558 
L 202.275934 279.396237 
L 210.411101 278.153367 
L 217.62963 276.824997 
L 225.077319 275.224255 
L 232.639588 273.368467 
L 235.045764 272.633451 
L 244.32673 268.684336 
L 250.62862 266.824535 
L 253.722276 270.958483 
L 258.534628 276.904017 
L 258.763788 277.083232 
L 267.471855 273.991875 
L 269.305132 273.045861 
L 276.409081 269.408567 
L 284.544249 266.249728 
L 293.023156 261.889013 
L 301.272903 258.613085 
L 308.949752 254.740557 
L 319.605676 250.424362 
L 325.563826 247.685873 
L 333.584414 244.580941 
L 341.375842 238.692337 
L 344.927817 237.450613 
L 356.04206 233.730491 
L 366.583404 230.262309 
L 374.260253 225.058432 
L 375.520631 224.673604 
L 383.082899 222.371103 
L 390.645168 217.648559 
L 391.218067 217.452292 
L 399.696974 215.092981 
L 407.030083 210.93211 
L 407.602982 210.720155 
L 419.404704 207.761416 
L 424.789956 206.296774 
L 432.008485 204.807273 
L 432.237645 205.067319 
L 435.675039 210.281817 
L 440.143652 216.6393 
L 440.372812 216.684007 
L 455.26819 213.900577 
L 465.007475 212.250892 
L 465.236634 212.465937 
L 470.851046 219.593806 
L 473.257222 222.293833 
L 482.079869 220.794462 
L 489.527558 217.530479 
L 490.100457 217.380987 
L 498.808523 215.998191 
L 505.339574 213.490228 
L 506.714531 213.097805 
L 518.974573 211.670938 
L 521.609909 211.737839 
L 524.474404 212.03668 
L 527.45348 212.576476 
L 530.088816 213.270963 
L 535.130328 214.919589 
L 548.421588 219.286059 
L 556.900495 221.817103 
L 564.921083 223.98019 
L 572.597931 225.821441 
L 580.04562 227.379631 
L 587.264149 228.66472 
L 594.368098 229.705096 
L 601.357468 230.506847 
L 608.346837 231.087825 
L 613.846669 231.346996 
L 620.721458 231.413378 
L 629.085786 231.265212 
L 639.16881 230.858198 
L 650.741373 230.164981 
L 663.459733 229.178527 
L 676.521834 227.943208 
L 679.500909 227.630761 
L 679.500909 227.630761 
" clip-path="url(#pcee49a67c6)" style="fill: none; stroke: #ff7f0e; stroke-width: 1.5; stroke-linecap: square"/>
   </g>
   <g id="patch_9">
    <path d="M 55.82 338.52 
L 55.82 198.44 
" style="fill: none; stroke: #000000; stroke-width: 0.8; stroke-linejoin: miter; stroke-linecap: square"/>
   </g>
   <g id="patch_10">
    <path d="M 709.2 338.52 
L 709.2 198.44 
" style="fill: none; stroke: #000000; stroke-width: 0.8; stroke-linejoin: miter; stroke-linecap: square"/>
   </g>
   <g id="patch_11">
    <path d="M 55.82 338.52 
L 709.2 338.52 
" style="fill: none; stroke: #000000; stroke-width: 0.8; stroke-linejoin: miter; stroke-linecap: square"/>
   </g>
   <g id="patch_12">
    <path d="M 55.82 198.44 
L 709.2 198.44 
" style="fill: none; stroke: #000000; stroke-width: 0.8; stroke-linejoin: miter; stroke-linecap: square"/>
   </g>
  </g>
  <g id="axes_3">
   <g id="patch_13">
    <path d="M 55.82 506.48 
L 709.2 506.48 
L 709.2 366.4 
L 55.82 366.4 
z
" style="fill: #ffffff"/>
   </g>
   <g id="matplotlib.axis_5">
    <g id="xtick_13">
     <g id="line2d_29">
      <g>
       <use xlink:href="#mcfab75fb60" x="85.519091" y="506.48" style="stroke: #000000; stroke-width: 0.8"/>
      </g>
     </g>
     <g id="text_28">
      <!-- 0 -->
      <g transform="translate(82.337841 521.078437) scale(0.1 -0.1)">
       <use xlink:href="#DejaVuSans-30"/>
      </g>
     </g>
    </g>
    <g id="xtick_14">
     <g id="line2d_30">
      <g>
       <use xlink:href="#mcfab75fb60" x="200.098917" y="506.48" style="stroke: #000000; stroke-width: 0.8"/>
      </g>
     </g>
     <g id="text_29">
      <!-- 1000 -->
      <g transform="translate(187.373917 521.078437) scale(0.1 -0.1)">
       <use xlink:href="#DejaVuSans-31"/>
       <use xlink:href="#DejaVuSans-30" x="63.623047"/>
       <use xlink:href="#DejaVuSans-30" x="127.246094"/>
       <use xlink:href="#DejaVuSans-30" x="190.869141"/>
      </g>
     </g>
    </g>
    <g id="xtick_15">
     <g id="line2d_31">
      <g>
       <use xlink:href="#mcfab75fb60" x="314.678743" y="506.48" style="stroke: #000000; stroke-width: 0.8"/>
      </g>
     </g>
     <g id="text_30">
      <!-- 2000 -->
      <g transform="translate(301.953743 521.078437) scale(0.1 -0.1)">
       <use xlink:href="#DejaVuSans-32"/>
       <use xlink:href="#DejaVuSans-30" x="63.623047"/>
       <use xlink:href="#DejaVuSans-30" x="127.246094"/>
       <use xlink:href="#DejaVuSans-30" x="190.869141"/>
      </g>
     </g>
    </g>
    <g id="xtick_16">
     <g id="line2d_32">
      <g>
       <use xlink:href="#mcfab75fb60" x="429.258569" y="506.48" style="stroke: #000000; stroke-width: 0.8"/>
      </g>
     </g>
     <g id="text_31">
      <!-- 3000 -->
      <g transform="translate(416.533569 521.078437) scale(0.1 -0.1)">
       <use xlink:href="#DejaVuSans-33"/>
       <use xlink:href="#DejaVuSans-30" x="63.623047"/>
       <use xlink:href="#DejaVuSans-30" x="127.246094"/>
       <use xlink:href="#DejaVuSans-30" x="190.869141"/>
      </g>
     </g>
    </g>
    <g id="xtick_17">
     <g id="line2d_33">
      <g>
       <use xlink:href="#mcfab75fb60" x="543.838395" y="506.48" style="stroke: #000000; stroke-width: 0.8"/>
      </g>
     </g>
     <g id="text_32">
      <!-- 4000 -->
      <g transform="translate(531.113395 521.078437) scale(0.1 -0.1)">
       <use xlink:href="#DejaVuSans-34"/>
       <use xlink:href="#DejaVuSans-30" x="63.623047"/>
       <use xlink:href="#DejaVuSans-30" x="127.246094"/>
       <use xlink:href="#DejaVuSans-30" x="190.869141"/>
      </g>
     </g>
    </g>
    <g id="xtick_18">
     <g id="line2d_34">
      <g>
       <use xlink:href="#mcfab75fb60" x="658.418221" y="506.48" style="stroke: #000000; stroke-width: 0.8"/>
      </g>
     </g>
     <g id="text_33">
      <!-- 5000 -->
      <g transform="translate(645.693221 521.078437) scale(0.1 -0.1)">
       <use xlink:href="#DejaVuSans-35"/>
       <use xlink:href="#DejaVuSans-30" x="63.623047"/>
       <use xlink:href="#DejaVuSans-30" x="127.246094"/>
       <use xlink:href="#DejaVuSans-30" x="190.869141"/>
      </g>
     </g>
    </g>
   </g>
   <g id="matplotlib.axis_6">
    <g id="ytick_11">
     <g id="line2d_35">
      <g>
       <use xlink:href="#m587c6cd06b" x="55.82" y="500.267964" style="stroke: #000000; stroke-width: 0.8"/>
      </g>
     </g>
     <g id="text_34">
      <!-- 0 -->
      <g transform="translate(42.4575 504.067183) scale(0.1 -0.1)">
       <use xlink:href="#DejaVuSans-30"/>
      </g>
     </g>
    </g>
    <g id="ytick_12">
     <g id="line2d_36">
      <g>
       <use xlink:href="#m587c6cd06b" x="55.82" y="466.427836" style="stroke: #000000; stroke-width: 0.8"/>
      </g>
     </g>
     <g id="text_35">
      <!-- 2 -->
      <g transform="translate(42.4575 470.227054) scale(0.1 -0.1)">
       <use xlink:href="#DejaVuSans-32"/>
      </g>
     </g>
    </g>
    <g id="ytick_13">
     <g id="line2d_37">
      <g>
       <use xlink:href="#m587c6cd06b" x="55.82" y="432.587707" style="stroke: #000000; stroke-width: 0.8"/>
      </g>
     </g>
     <g id="text_36">
      <!-- 4 -->
      <g transform="translate(42.4575 436.386926) scale(0.1 -0.1)">
       <use xlink:href="#DejaVuSans-34"/>
      </g>
     </g>
    </g>
    <g id="ytick_14">
     <g id="line2d_38">
      <g>
       <use xlink:href="#m587c6cd06b" x="55.82" y="398.747579" style="stroke: #000000; stroke-width: 0.8"/>
      </g>
     </g>
     <g id="text_37">
      <!-- 6 -->
      <g transform="translate(42.4575 402.546797) scale(0.1 -0.1)">
       <use xlink:href="#DejaVuSans-36"/>
      </g>
     </g>
    </g>
    <g id="text_38">
     <!-- 6 -->
     <g transform="translate(35.961875 440.2575) rotate(-90) scale(0.12 -0.12)">
      <use xlink:href="#DejaVuSans-36"/>
     </g>
    </g>
   </g>
   <g id="line2d_39">
    <path d="M 85.519091 376.232551 
L 102.018586 376.312502 
L 105.341401 379.450073 
L 110.153754 384.022857 
L 111.184972 384.036066 
L 151.517071 384.10924 
L 152.662869 385.229695 
L 159.652238 392.244248 
L 160.568877 392.258745 
L 168.016566 392.341609 
L 171.68312 396.200898 
L 175.578834 400.484135 
L 176.266313 401.147191 
L 234.014545 401.239409 
L 238.483159 406.448285 
L 242.378873 410.991155 
L 266.898956 410.991144 
L 268.159334 412.593741 
L 274.461224 421.286879 
L 275.263283 422.324246 
L 283.39845 422.324244 
L 284.085929 423.3305 
L 286.606686 427.233185 
L 290.846139 434.448446 
L 291.762778 435.95846 
L 299.897945 435.958457 
L 300.356265 436.802973 
L 302.189542 440.451557 
L 305.168617 447.296331 
L 306.772735 451.621681 
L 308.147693 455.255166 
L 308.491432 455.298164 
L 316.39744 455.298153 
L 316.85576 456.414933 
L 319.147356 462.062543 
L 324.418028 473.427599 
L 324.761768 473.890004 
L 415.39441 473.889951 
L 415.852729 474.719058 
L 419.290124 480.737872 
L 421.581721 484.233611 
L 423.758737 487.032585 
L 514.39138 487.032575 
L 515.193439 490.021798 
L 515.995497 492.46604 
L 516.682976 493.987243 
L 517.485035 495.148454 
L 518.287094 495.969075 
L 519.318312 496.717833 
L 520.92243 497.483183 
L 522.526547 497.986506 
L 525.047304 498.494418 
L 528.484698 498.907419 
L 533.526211 499.253063 
L 541.661378 499.543231 
L 555.983857 499.779722 
L 581.535158 499.942762 
L 645.92902 500.077269 
L 679.500909 500.112727 
L 679.500909 500.112727 
" clip-path="url(#pa40cdd79f7)" style="fill: none; stroke: #1f77b4; stroke-width: 1.5; stroke-linecap: square"/>
   </g>
   <g id="line2d_40">
    <path d="M 85.519091 376.232551 
L 102.133166 372.840998 
L 110.268333 384.923841 
L 116.226484 383.9849 
L 119.32014 383.74142 
L 129.174005 383.217892 
L 133.184299 382.552944 
L 141.548626 380.875235 
L 151.631651 378.859767 
L 159.766818 390.501305 
L 165.495809 389.641545 
L 168.016566 389.441375 
L 168.245725 389.705572 
L 174.547616 399.712524 
L 176.266313 402.293497 
L 180.391187 402.191112 
L 184.516061 402.151188 
L 188.297195 402.377978 
L 193.109548 402.641247 
L 196.890682 402.586747 
L 204.68211 402.170558 
L 216.598412 401.628551 
L 231.952109 401.174524 
L 234.129125 401.209972 
L 242.149713 413.14338 
L 242.378873 413.230449 
L 248.222444 413.439725 
L 251.430679 413.790154 
L 256.472191 414.632039 
L 260.138746 415.111644 
L 264.03446 415.377196 
L 267.128115 415.573699 
L 274.575804 426.347195 
L 275.263283 427.240739 
L 281.450593 427.722969 
L 283.51303 428.007281 
L 283.74219 428.27495 
L 291.762778 440.161158 
L 296.002231 440.84658 
L 300.012525 441.514842 
L 300.356265 441.928879 
L 306.428996 450.289062 
L 308.262273 452.536414 
L 312.730886 453.382303 
L 316.51202 454.118571 
L 316.85576 454.4785 
L 321.324373 459.712042 
L 324.303448 462.858523 
L 324.876348 463.29436 
L 330.03244 464.369407 
L 335.073952 465.507049 
L 342.177901 467.145469 
L 347.448573 468.061072 
L 367.385463 471.115941 
L 378.958025 472.751123 
L 393.051344 474.57161 
L 408.290461 476.279747 
L 415.73815 477.132096 
L 419.060965 479.733847 
L 422.15462 481.868083 
L 423.873317 482.849351 
L 432.123065 483.832796 
L 444.956005 485.618135 
L 454.007811 486.4083 
L 466.382433 487.277687 
L 477.382096 487.83051 
L 486.433902 488.075457 
L 494.22533 488.047103 
L 502.360498 487.812173 
L 509.579027 487.371686 
L 514.620539 487.039531 
L 515.766338 488.452722 
L 516.568396 489.138886 
L 517.599615 489.622595 
L 518.859993 489.933108 
L 520.57869 490.105095 
L 522.984867 490.106538 
L 526.766001 489.860592 
L 536.161547 488.971895 
L 540.74474 488.279953 
L 546.244571 487.210753 
L 552.661042 485.733111 
L 559.306672 483.974408 
L 565.952301 481.983536 
L 572.368772 479.83126 
L 578.670662 477.483516 
L 584.743393 474.986223 
L 590.701544 472.295448 
L 596.430535 469.46708 
L 602.044947 466.44988 
L 607.544778 463.243122 
L 612.93003 459.847405 
L 618.200702 456.264828 
L 623.471374 452.412269 
L 628.627466 448.369223 
L 633.783559 444.042234 
L 638.939651 439.418637 
L 643.981163 434.59867 
L 649.022675 429.470567 
L 654.064188 424.021614 
L 659.1057 418.238563 
L 664.032633 412.250825 
L 668.959565 405.917086 
L 673.886498 399.222973 
L 678.81343 392.153344 
L 679.500909 391.136135 
L 679.500909 391.136135 
" clip-path="url(#pa40cdd79f7)" style="fill: none; stroke: #ff7f0e; stroke-width: 1.5; stroke-linecap: square"/>
   </g>
   <g id="patch_14">
    <path d="M 55.82 506.48 
L 55.82 366.4 
" style="fill: none; stroke: #000000; stroke-width: 0.8; stroke-linejoin: miter; stroke-linecap: square"/>
   </g>
   <g id="patch_15">
    <path d="M 709.2 506.48 
L 709.2 366.4 
" style="fill: none; stroke: #000000; stroke-width: 0.8; stroke-linejoin: miter; stroke-linecap: square"/>
   </g>
   <g id="patch_16">
    <path d="M 55.82 506.48 
L 709.2 506.48 
" style="fill: none; stroke: #000000; stroke-width: 0.8; stroke-linejoin: miter; stroke-linecap: square"/>
   </g>
   <g id="patch_17">
    <path d="M 55.82 366.4 
L 709.2 366.4 
" style="fill: none; stroke: #000000; stroke-width: 0.8; stroke-linejoin: miter; stroke-linecap: square"/>
   </g>
  </g>
  <g id="axes_4">
   <g id="patch_18">
    <path d="M 55.82 674.44 
L 709.2 674.44 
L 709.2 534.36 
L 55.82 534.36 
z
" style="fill: #ffffff"/>
   </g>
   <g id="matplotlib.axis_7">
    <g id="xtick_19">
     <g id="line2d_41">
      <g>
       <use xlink:href="#mcfab75fb60" x="85.519091" y="674.44" style="stroke: #000000; stroke-width: 0.8"/>
      </g>
     </g>
     <g id="text_39">
      <!-- 0 -->
      <g transform="translate(82.337841 689.038437) scale(0.1 -0.1)">
       <use xlink:href="#DejaVuSans-30"/>
      </g>
     </g>
    </g>
    <g id="xtick_20">
     <g id="line2d_42">
      <g>
       <use xlink:href="#mcfab75fb60" x="200.098917" y="674.44" style="stroke: #000000; stroke-width: 0.8"/>
      </g>
     </g>
     <g id="text_40">
      <!-- 1000 -->
      <g transform="translate(187.373917 689.038437) scale(0.1 -0.1)">
       <use xlink:href="#DejaVuSans-31"/>
       <use xlink:href="#DejaVuSans-30" x="63.623047"/>
       <use xlink:href="#DejaVuSans-30" x="127.246094"/>
       <use xlink:href="#DejaVuSans-30" x="190.869141"/>
      </g>
     </g>
    </g>
    <g id="xtick_21">
     <g id="line2d_43">
      <g>
       <use xlink:href="#mcfab75fb60" x="314.678743" y="674.44" style="stroke: #000000; stroke-width: 0.8"/>
      </g>
     </g>
     <g id="text_41">
      <!-- 2000 -->
      <g transform="translate(301.953743 689.038437) scale(0.1 -0.1)">
       <use xlink:href="#DejaVuSans-32"/>
       <use xlink:href="#DejaVuSans-30" x="63.623047"/>
       <use xlink:href="#DejaVuSans-30" x="127.246094"/>
       <use xlink:href="#DejaVuSans-30" x="190.869141"/>
      </g>
     </g>
    </g>
    <g id="xtick_22">
     <g id="line2d_44">
      <g>
       <use xlink:href="#mcfab75fb60" x="429.258569" y="674.44" style="stroke: #000000; stroke-width: 0.8"/>
      </g>
     </g>
     <g id="text_42">
      <!-- 3000 -->
      <g transform="translate(416.533569 689.038437) scale(0.1 -0.1)">
       <use xlink:href="#DejaVuSans-33"/>
       <use xlink:href="#DejaVuSans-30" x="63.623047"/>
       <use xlink:href="#DejaVuSans-30" x="127.246094"/>
       <use xlink:href="#DejaVuSans-30" x="190.869141"/>
      </g>
     </g>
    </g>
    <g id="xtick_23">
     <g id="line2d_45">
      <g>
       <use xlink:href="#mcfab75fb60" x="543.838395" y="674.44" style="stroke: #000000; stroke-width: 0.8"/>
      </g>
     </g>
     <g id="text_43">
      <!-- 4000 -->
      <g transform="translate(531.113395 689.038437) scale(0.1 -0.1)">
       <use xlink:href="#DejaVuSans-34"/>
       <use xlink:href="#DejaVuSans-30" x="63.623047"/>
       <use xlink:href="#DejaVuSans-30" x="127.246094"/>
       <use xlink:href="#DejaVuSans-30" x="190.869141"/>
      </g>
     </g>
    </g>
    <g id="xtick_24">
     <g id="line2d_46">
      <g>
       <use xlink:href="#mcfab75fb60" x="658.418221" y="674.44" style="stroke: #000000; stroke-width: 0.8"/>
      </g>
     </g>
     <g id="text_44">
      <!-- 5000 -->
      <g transform="translate(645.693221 689.038437) scale(0.1 -0.1)">
       <use xlink:href="#DejaVuSans-35"/>
       <use xlink:href="#DejaVuSans-30" x="63.623047"/>
       <use xlink:href="#DejaVuSans-30" x="127.246094"/>
       <use xlink:href="#DejaVuSans-30" x="190.869141"/>
      </g>
     </g>
    </g>
    <g id="text_45">
     <!-- time -->
     <g transform="translate(366.243625 706.059875) scale(0.144 -0.144)">
      <defs>
       <path id="DejaVuSans-69" d="M 603 3500 
L 1178 3500 
L 1178 0 
L 603 0 
L 603 3500 
z
M 603 4863 
L 1178 4863 
L 1178 4134 
L 603 4134 
L 603 4863 
z
" transform="scale(0.015625)"/>
       <path id="DejaVuSans-6d" d="M 3328 2828 
Q 3544 3216 3844 3400 
Q 4144 3584 4550 3584 
Q 5097 3584 5394 3201 
Q 5691 2819 5691 2113 
L 5691 0 
L 5113 0 
L 5113 2094 
Q 5113 2597 4934 2840 
Q 4756 3084 4391 3084 
Q 3944 3084 3684 2787 
Q 3425 2491 3425 1978 
L 3425 0 
L 2847 0 
L 2847 2094 
Q 2847 2600 2669 2842 
Q 2491 3084 2119 3084 
Q 1678 3084 1418 2786 
Q 1159 2488 1159 1978 
L 1159 0 
L 581 0 
L 581 3500 
L 1159 3500 
L 1159 2956 
Q 1356 3278 1631 3431 
Q 1906 3584 2284 3584 
Q 2666 3584 2933 3390 
Q 3200 3197 3328 2828 
z
" transform="scale(0.015625)"/>
       <path id="DejaVuSans-65" d="M 3597 1894 
L 3597 1613 
L 953 1613 
Q 991 1019 1311 708 
Q 1631 397 2203 397 
Q 2534 397 2845 478 
Q 3156 559 3463 722 
L 3463 178 
Q 3153 47 2828 -22 
Q 2503 -91 2169 -91 
Q 1331 -91 842 396 
Q 353 884 353 1716 
Q 353 2575 817 3079 
Q 1281 3584 2069 3584 
Q 2775 3584 3186 3129 
Q 3597 2675 3597 1894 
z
M 3022 2063 
Q 3016 2534 2758 2815 
Q 2500 3097 2075 3097 
Q 1594 3097 1305 2825 
Q 1016 2553 972 2059 
L 3022 2063 
z
" transform="scale(0.015625)"/>
      </defs>
      <use xlink:href="#DejaVuSans-74"/>
      <use xlink:href="#DejaVuSans-69" x="39.208984"/>
      <use xlink:href="#DejaVuSans-6d" x="66.992188"/>
      <use xlink:href="#DejaVuSans-65" x="164.404297"/>
     </g>
    </g>
   </g>
   <g id="matplotlib.axis_8">
    <g id="ytick_15">
     <g id="line2d_47">
      <g>
       <use xlink:href="#m587c6cd06b" x="55.82" y="651.5804" style="stroke: #000000; stroke-width: 0.8"/>
      </g>
     </g>
     <g id="text_46">
      <!-- 30 -->
      <g transform="translate(27.715313 655.379619) scale(0.1 -0.1)">
       <defs>
        <path id="DejaVuSans-2212" d="M 678 2272 
L 4684 2272 
L 4684 1741 
L 678 1741 
L 678 2272 
z
" transform="scale(0.015625)"/>
       </defs>
       <use xlink:href="#DejaVuSans-2212"/>
       <use xlink:href="#DejaVuSans-33" x="83.789062"/>
       <use xlink:href="#DejaVuSans-30" x="147.412109"/>
      </g>
     </g>
    </g>
    <g id="ytick_16">
     <g id="line2d_48">
      <g>
       <use xlink:href="#m587c6cd06b" x="55.82" y="621.658275" style="stroke: #000000; stroke-width: 0.8"/>
      </g>
     </g>
     <g id="text_47">
      <!-- 20 -->
      <g transform="translate(27.715313 625.457494) scale(0.1 -0.1)">
       <use xlink:href="#DejaVuSans-2212"/>
       <use xlink:href="#DejaVuSans-32" x="83.789062"/>
       <use xlink:href="#DejaVuSans-30" x="147.412109"/>
      </g>
     </g>
    </g>
    <g id="ytick_17">
     <g id="line2d_49">
      <g>
       <use xlink:href="#m587c6cd06b" x="55.82" y="591.73615" style="stroke: #000000; stroke-width: 0.8"/>
      </g>
     </g>
     <g id="text_48">
      <!-- 10 -->
      <g transform="translate(27.715313 595.535369) scale(0.1 -0.1)">
       <use xlink:href="#DejaVuSans-2212"/>
       <use xlink:href="#DejaVuSans-31" x="83.789062"/>
       <use xlink:href="#DejaVuSans-30" x="147.412109"/>
      </g>
     </g>
    </g>
    <g id="ytick_18">
     <g id="line2d_50">
      <g>
       <use xlink:href="#m587c6cd06b" x="55.82" y="561.814026" style="stroke: #000000; stroke-width: 0.8"/>
      </g>
     </g>
     <g id="text_49">
      <!-- 0 -->
      <g transform="translate(42.4575 565.613244) scale(0.1 -0.1)">
       <use xlink:href="#DejaVuSans-30"/>
      </g>
     </g>
    </g>
    <g id="text_50">
     <!-- 10 -->
     <g transform="translate(21.219688 612.035) rotate(-90) scale(0.12 -0.12)">
      <use xlink:href="#DejaVuSans-31"/>
      <use xlink:href="#DejaVuSans-30" x="63.623047"/>
     </g>
    </g>
   </g>
   <g id="line2d_51">
    <path d="M 85.519091 541.06975 
L 118.86182 541.162349 
L 123.330434 542.104241 
L 126.882408 542.823999 
L 184.8598 542.914517 
L 193.224127 544.621605 
L 333.355255 544.720191 
L 337.250969 545.586933 
L 341.261263 546.480607 
L 366.354245 546.58004 
L 373.801933 548.30157 
L 374.489412 548.392602 
L 382.853739 548.491914 
L 391.103487 550.333011 
L 399.353234 550.43351 
L 407.602982 552.284606 
L 481.850709 552.389428 
L 489.871297 554.233301 
L 498.350204 554.338577 
L 506.599952 556.149285 
L 514.620539 556.24363 
L 518.745413 558.028933 
L 523.557766 559.825204 
L 526.422262 560.653988 
L 529.172177 561.198109 
L 532.036673 561.4448 
L 537.307345 561.626821 
L 548.192428 561.743133 
L 580.962259 561.802972 
L 679.500909 561.813197 
L 679.500909 561.813197 
" clip-path="url(#pc01dd97451)" style="fill: none; stroke: #1f77b4; stroke-width: 1.5; stroke-linecap: square"/>
   </g>
   <g id="line2d_52">
    <path d="M 85.519091 541.06975 
L 119.09098 540.87013 
L 127.111568 543.007487 
L 169.964423 542.911177 
L 184.172321 542.571745 
L 184.8598 542.634909 
L 193.109548 544.652974 
L 215.452614 544.571274 
L 286.950425 544.676424 
L 333.469834 545.091416 
L 341.605002 547.256368 
L 362.80227 547.948678 
L 366.468824 548.184036 
L 374.603992 550.43195 
L 382.968319 550.962565 
L 391.103487 553.207473 
L 399.467814 553.871261 
L 407.602982 556.102961 
L 441.74777 559.07724 
L 455.382769 560.474993 
L 466.611592 561.847829 
L 477.152936 563.360922 
L 481.965289 564.211137 
L 490.558776 567.206843 
L 498.235624 568.81223 
L 507.058271 572.130993 
L 514.620539 574.055344 
L 519.547472 576.652901 
L 524.016085 578.767706 
L 528.255539 580.529574 
L 531.922093 581.816723 
L 554.838058 589.609831 
L 564.806503 593.313113 
L 573.74373 596.866407 
L 581.993477 600.382187 
L 589.784905 603.941915 
L 597.232594 607.585263 
L 604.565703 611.420382 
L 611.669652 615.384212 
L 618.659021 619.534869 
L 625.648391 623.945725 
L 632.52318 628.549497 
L 639.28339 633.344553 
L 645.92902 638.329015 
L 652.57465 643.593957 
L 659.1057 649.053748 
L 665.52217 654.705977 
L 671.938641 660.656886 
L 678.240531 666.805601 
L 679.500909 668.072727 
L 679.500909 668.072727 
" clip-path="url(#pc01dd97451)" style="fill: none; stroke: #ff7f0e; stroke-width: 1.5; stroke-linecap: square"/>
   </g>
   <g id="patch_19">
    <path d="M 55.82 674.44 
L 55.82 534.36 
" style="fill: none; stroke: #000000; stroke-width: 0.8; stroke-linejoin: miter; stroke-linecap: square"/>
   </g>
   <g id="patch_20">
    <path d="M 709.2 674.44 
L 709.2 534.36 
" style="fill: none; stroke: #000000; stroke-width: 0.8; stroke-linejoin: miter; stroke-linecap: square"/>
   </g>
   <g id="patch_21">
    <path d="M 55.82 674.44 
L 709.2 674.44 
" style="fill: none; stroke: #000000; stroke-width: 0.8; stroke-linejoin: miter; stroke-linecap: square"/>
   </g>
   <g id="patch_22">
    <path d="M 55.82 534.36 
L 709.2 534.36 
" style="fill: none; stroke: #000000; stroke-width: 0.8; stroke-linejoin: miter; stroke-linecap: square"/>
   </g>
  </g>
 </g>
 <defs>
  <clipPath id="p6bd36eac18">
   <rect x="55.82" y="30.48" width="653.38" height="140.08"/>
  </clipPath>
  <clipPath id="pcee49a67c6">
   <rect x="55.82" y="198.44" width="653.38" height="140.08"/>
  </clipPath>
  <clipPath id="pa40cdd79f7">
   <rect x="55.82" y="366.4" width="653.38" height="140.08"/>
  </clipPath>
  <clipPath id="pc01dd97451">
   <rect x="55.82" y="534.36" width="653.38" height="140.08"/>
  </clipPath>
 </defs>
</svg>
