<?xml version="1.0" encoding="utf-8" standalone="no"?>
<!DOCTYPE svg PUBLIC "-//W3C//DTD SVG 1.1//EN"
  "http://www.w3.org/Graphics/SVG/1.1/DTD/svg11.dtd">
<svg xmlns:xlink="http://www.w3.org/1999/xlink" width="720pt" height="360pt" viewBox="0 0 720 360" xmlns="http://www.w3.org/2000/svg" version="1.1">
 <metadata>
  <rdf:RDF xmlns:dc="http://purl.org/dc/elements/1.1/" xmlns:cc="http://creativecommons.org/ns#" xmlns:rdf="http://www.w3.org/1999/02/22-rdf-syntax-ns#">
   <cc:Work>
    <dc:type rdf:resource="http://purl.org/dc/dcmitype/StillImage"/>
    <dc:date>2023-12-09T11:03:39.882270</dc:date>
    <dc:format>image/svg+xml</dc:format>
    <dc:creator>
     <cc:Agent>
      <dc:title>Matplotlib v3.7.1, https://matplotlib.org/</dc:title>
     </cc:Agent>
    </dc:creator>
   </cc:Work>
  </rdf:RDF>
 </metadata>
 <defs>
  <style type="text/css">*{stroke-linejoin: round; stroke-linecap: butt}</style>
 </defs>
 <g id="figure_1">
  <g id="patch_1">
   <path d="M 0 360 
L 720 360 
L 720 0 
L 0 0 
z
" style="fill: #ffffff"/>
  </g>
  <g id="axes_1">
   <g id="patch_2">
    <path d="M 10.8 349.2 
L 354.6 349.2 
L 354.6 30.48 
L 10.8 30.48 
z
" style="fill: #ffffff"/>
   </g>
   <g id="patch_3">
    <path d="M 316.572482 187.03324 
Q 296.238981 181.236008 276.980662 186.72718 
" clip-path="url(#p71f45be2ce)" style="fill: none; stroke-dasharray: 3.7,1.6; stroke-dashoffset: 0; stroke: #000000; stroke-opacity: 0.4; stroke-linecap: round"/>
    <path d="M 290.165944 189.206764 
L 276.980662 186.72718 
L 286.875498 177.666705 
z
" clip-path="url(#p71f45be2ce)" style="fill-opacity: 0.4; stroke-dasharray: 3.7,1.6; stroke-dashoffset: 0; stroke: #000000; stroke-opacity: 0.4; stroke-linecap: round"/>
   </g>
   <g id="patch_4">
    <path d="M 227.791082 192.566156 
Q 243.642897 196.741964 258.41356 192.85109 
" clip-path="url(#p71f45be2ce)" style="fill: none; stroke-dasharray: 3.7,1.6; stroke-dashoffset: 0; stroke: #000000; stroke-opacity: 0.4; stroke-linecap: round"/>
    <path d="M 245.281034 190.10577 
L 258.41356 192.85109 
L 248.337788 201.709918 
z
" clip-path="url(#p71f45be2ce)" style="fill-opacity: 0.4; stroke-dasharray: 3.7,1.6; stroke-dashoffset: 0; stroke: #000000; stroke-opacity: 0.4; stroke-linecap: round"/>
   </g>
   <g id="patch_5">
    <path d="M 211.458608 186.81297 
Q 159.337663 168.772964 108.273261 186.446562 
" clip-path="url(#p71f45be2ce)" style="fill: none; stroke-dasharray: 3.7,1.6; stroke-dashoffset: 0; stroke: #000000; stroke-opacity: 0.4; stroke-linecap: round"/>
    <path d="M 121.57568 188.191743 
L 108.273261 186.446562 
L 117.650857 176.851735 
z
" clip-path="url(#p71f45be2ce)" style="fill-opacity: 0.4; stroke-dasharray: 3.7,1.6; stroke-dashoffset: 0; stroke: #000000; stroke-opacity: 0.4; stroke-linecap: round"/>
   </g>
   <g id="patch_6">
    <path d="M 78.491448 238.291921 
Q 94.088771 221.22086 97.848455 199.539032 
" clip-path="url(#p71f45be2ce)" style="fill: none; stroke-dasharray: 3.7,1.6; stroke-dashoffset: 0; stroke: #000000; stroke-opacity: 0.4; stroke-linecap: round"/>
    <path d="M 89.886441 210.337474 
L 97.848455 199.539032 
L 101.709999 212.387708 
z
" clip-path="url(#p71f45be2ce)" style="fill-opacity: 0.4; stroke-dasharray: 3.7,1.6; stroke-dashoffset: 0; stroke: #000000; stroke-opacity: 0.4; stroke-linecap: round"/>
   </g>
   <g id="patch_7">
    <path d="M 66.525983 250.811427 
Q 43.777803 277.745189 41.098852 311.777117 
" clip-path="url(#p71f45be2ce)" style="fill: none; stroke-dasharray: 3.7,1.6; stroke-dashoffset: 0; stroke: #000000; stroke-opacity: 0.4; stroke-linecap: round"/>
    <path d="M 48.02206 300.284981 
L 41.098852 311.777117 
L 36.059068 299.343269 
z
" clip-path="url(#p71f45be2ce)" style="fill-opacity: 0.4; stroke-dasharray: 3.7,1.6; stroke-dashoffset: 0; stroke: #000000; stroke-opacity: 0.4; stroke-linecap: round"/>
   </g>
   <g id="patch_8">
    <path d="M 73.404527 143.883081 
Q 77.35487 166.66668 92.197711 182.91251 
" clip-path="url(#p71f45be2ce)" style="fill: none; stroke-dasharray: 3.7,1.6; stroke-dashoffset: 0; stroke: #000000; stroke-opacity: 0.4; stroke-linecap: round"/>
    <path d="M 88.533193 170.006259 
L 92.197711 182.91251 
L 79.673999 178.100373 
z
" clip-path="url(#p71f45be2ce)" style="fill-opacity: 0.4; stroke-dasharray: 3.7,1.6; stroke-dashoffset: 0; stroke: #000000; stroke-opacity: 0.4; stroke-linecap: round"/>
   </g>
   <g id="patch_9">
    <path d="M 71.966201 126.632545 
Q 69.198454 91.486467 47.170651 65.407265 
" clip-path="url(#p71f45be2ce)" style="fill: none; stroke-dasharray: 3.7,1.6; stroke-dashoffset: 0; stroke: #000000; stroke-opacity: 0.4; stroke-linecap: round"/>
    <path d="M 50.330207 78.44633 
L 47.170651 65.407265 
L 59.497636 70.703059 
z
" clip-path="url(#p71f45be2ce)" style="fill-opacity: 0.4; stroke-dasharray: 3.7,1.6; stroke-dashoffset: 0; stroke: #000000; stroke-opacity: 0.4; stroke-linecap: round"/>
   </g>
   <g id="matplotlib.axis_1">
    <g id="xtick_1"/>
    <g id="xtick_2"/>
    <g id="xtick_3"/>
    <g id="xtick_4"/>
    <g id="xtick_5"/>
    <g id="xtick_6"/>
    <g id="xtick_7"/>
    <g id="xtick_8"/>
    <g id="xtick_9"/>
   </g>
   <g id="matplotlib.axis_2">
    <g id="ytick_1"/>
    <g id="ytick_2"/>
    <g id="ytick_3"/>
    <g id="ytick_4"/>
    <g id="ytick_5"/>
   </g>
   <g id="PathCollection_1">
    <defs>
     <path id="m31f6a4b314" d="M 0 11.18034 
C 2.965061 11.18034 5.80908 10.002309 7.905694 7.905694 
C 10.002309 5.80908 11.18034 2.965061 11.18034 0 
C 11.18034 -2.965061 10.002309 -5.80908 7.905694 -7.905694 
C 5.80908 -10.002309 2.965061 -11.18034 0 -11.18034 
C -2.965061 -11.18034 -5.80908 -10.002309 -7.905694 -7.905694 
C -10.002309 -5.80908 -11.18034 -2.965061 -11.18034 0 
C -11.18034 2.965061 -10.002309 5.80908 -7.905694 7.905694 
C -5.80908 10.002309 -2.965061 11.18034 0 11.18034 
z
" style="stroke: #1f78b4"/>
    </defs>
    <g clip-path="url(#p71f45be2ce)">
     <use xlink:href="#m31f6a4b314" x="267.71363" y="189.84" style="fill: #1f78b4; stroke: #1f78b4"/>
     <use xlink:href="#m31f6a4b314" x="99.10052" y="189.84" style="fill: #1f78b4; stroke: #1f78b4"/>
     <use xlink:href="#m31f6a4b314" x="40.633884" y="321.542479" style="fill: #1f78b4; stroke: #1f78b4"/>
     <use xlink:href="#m31f6a4b314" x="40.633884" y="58.137521" style="fill: #1f78b4; stroke: #1f78b4"/>
     <use xlink:href="#m31f6a4b314" x="324.766116" y="189.84" style="fill: #1f78b4; stroke: #1f78b4"/>
     <use xlink:href="#m31f6a4b314" x="219.572685" y="189.84" style="fill: #1f78b4; stroke: #1f78b4"/>
     <use xlink:href="#m31f6a4b314" x="72.343724" y="244.392953" style="fill: #1f78b4; stroke: #1f78b4"/>
     <use xlink:href="#m31f6a4b314" x="72.343724" y="135.287047" style="fill: #1f78b4; stroke: #1f78b4"/>
    </g>
   </g>
   <g id="patch_10">
    <path d="M 10.8 349.2 
L 10.8 30.48 
" style="fill: none; stroke: #000000; stroke-width: 0.8; stroke-linejoin: miter; stroke-linecap: square"/>
   </g>
   <g id="patch_11">
    <path d="M 354.6 349.2 
L 354.6 30.48 
" style="fill: none; stroke: #000000; stroke-width: 0.8; stroke-linejoin: miter; stroke-linecap: square"/>
   </g>
   <g id="patch_12">
    <path d="M 10.8 349.2 
L 354.6 349.2 
" style="fill: none; stroke: #000000; stroke-width: 0.8; stroke-linejoin: miter; stroke-linecap: square"/>
   </g>
   <g id="patch_13">
    <path d="M 10.8 30.48 
L 354.6 30.48 
" style="fill: none; stroke: #000000; stroke-width: 0.8; stroke-linejoin: miter; stroke-linecap: square"/>
   </g>
   <g id="text_1">
    <g clip-path="url(#p71f45be2ce)">
     <!-- 1 -->
     <g transform="translate(263.89613 193.15125) scale(0.12 -0.12)">
      <defs>
       <path id="DejaVuSans-31" d="M 794 531 
L 1825 531 
L 1825 4091 
L 703 3866 
L 703 4441 
L 1819 4666 
L 2450 4666 
L 2450 531 
L 3481 531 
L 3481 0 
L 794 0 
L 794 531 
z
" transform="scale(0.015625)"/>
      </defs>
      <use xlink:href="#DejaVuSans-31"/>
     </g>
    </g>
   </g>
   <g id="text_2">
    <g clip-path="url(#p71f45be2ce)">
     <!-- 4 -->
     <g transform="translate(95.28302 193.15125) scale(0.12 -0.12)">
      <defs>
       <path id="DejaVuSans-34" d="M 2419 4116 
L 825 1625 
L 2419 1625 
L 2419 4116 
z
M 2253 4666 
L 3047 4666 
L 3047 1625 
L 3713 1625 
L 3713 1100 
L 3047 1100 
L 3047 0 
L 2419 0 
L 2419 1100 
L 313 1100 
L 313 1709 
L 2253 4666 
z
" transform="scale(0.015625)"/>
      </defs>
      <use xlink:href="#DejaVuSans-34"/>
     </g>
    </g>
   </g>
   <g id="text_3">
    <g clip-path="url(#p71f45be2ce)">
     <!-- 6 -->
     <g transform="translate(36.816384 324.853729) scale(0.12 -0.12)">
      <defs>
       <path id="DejaVuSans-36" d="M 2113 2584 
Q 1688 2584 1439 2293 
Q 1191 2003 1191 1497 
Q 1191 994 1439 701 
Q 1688 409 2113 409 
Q 2538 409 2786 701 
Q 3034 994 3034 1497 
Q 3034 2003 2786 2293 
Q 2538 2584 2113 2584 
z
M 3366 4563 
L 3366 3988 
Q 3128 4100 2886 4159 
Q 2644 4219 2406 4219 
Q 1781 4219 1451 3797 
Q 1122 3375 1075 2522 
Q 1259 2794 1537 2939 
Q 1816 3084 2150 3084 
Q 2853 3084 3261 2657 
Q 3669 2231 3669 1497 
Q 3669 778 3244 343 
Q 2819 -91 2113 -91 
Q 1303 -91 875 529 
Q 447 1150 447 2328 
Q 447 3434 972 4092 
Q 1497 4750 2381 4750 
Q 2619 4750 2861 4703 
Q 3103 4656 3366 4563 
z
" transform="scale(0.015625)"/>
      </defs>
      <use xlink:href="#DejaVuSans-36"/>
     </g>
    </g>
   </g>
   <g id="text_4">
    <g clip-path="url(#p71f45be2ce)">
     <!-- 10 -->
     <g transform="translate(32.998884 61.448771) scale(0.12 -0.12)">
      <defs>
       <path id="DejaVuSans-30" d="M 2034 4250 
Q 1547 4250 1301 3770 
Q 1056 3291 1056 2328 
Q 1056 1369 1301 889 
Q 1547 409 2034 409 
Q 2525 409 2770 889 
Q 3016 1369 3016 2328 
Q 3016 3291 2770 3770 
Q 2525 4250 2034 4250 
z
M 2034 4750 
Q 2819 4750 3233 4129 
Q 3647 3509 3647 2328 
Q 3647 1150 3233 529 
Q 2819 -91 2034 -91 
Q 1250 -91 836 529 
Q 422 1150 422 2328 
Q 422 3509 836 4129 
Q 1250 4750 2034 4750 
z
" transform="scale(0.015625)"/>
      </defs>
      <use xlink:href="#DejaVuSans-31"/>
      <use xlink:href="#DejaVuSans-30" x="63.623047"/>
     </g>
    </g>
   </g>
   <g id="text_5">
    <g clip-path="url(#p71f45be2ce)">
     <!-- O1 -->
     <g transform="translate(316.225491 193.15125) scale(0.12 -0.12)">
      <defs>
       <path id="DejaVuSans-4f" d="M 2522 4238 
Q 1834 4238 1429 3725 
Q 1025 3213 1025 2328 
Q 1025 1447 1429 934 
Q 1834 422 2522 422 
Q 3209 422 3611 934 
Q 4013 1447 4013 2328 
Q 4013 3213 3611 3725 
Q 3209 4238 2522 4238 
z
M 2522 4750 
Q 3503 4750 4090 4092 
Q 4678 3434 4678 2328 
Q 4678 1225 4090 567 
Q 3503 -91 2522 -91 
Q 1538 -91 948 565 
Q 359 1222 359 2328 
Q 359 3434 948 4092 
Q 1538 4750 2522 4750 
z
" transform="scale(0.015625)"/>
      </defs>
      <use xlink:href="#DejaVuSans-4f"/>
      <use xlink:href="#DejaVuSans-31" x="78.710938"/>
     </g>
    </g>
   </g>
   <g id="text_6">
    <g clip-path="url(#p71f45be2ce)">
     <!-- O4 -->
     <g transform="translate(211.03206 193.15125) scale(0.12 -0.12)">
      <use xlink:href="#DejaVuSans-4f"/>
      <use xlink:href="#DejaVuSans-34" x="78.710938"/>
     </g>
    </g>
   </g>
   <g id="text_7">
    <g clip-path="url(#p71f45be2ce)">
     <!-- O6 -->
     <g transform="translate(63.803099 247.704203) scale(0.12 -0.12)">
      <use xlink:href="#DejaVuSans-4f"/>
      <use xlink:href="#DejaVuSans-36" x="78.710938"/>
     </g>
    </g>
   </g>
   <g id="text_8">
    <g clip-path="url(#p71f45be2ce)">
     <!-- O10 -->
     <g transform="translate(59.985599 138.598297) scale(0.12 -0.12)">
      <use xlink:href="#DejaVuSans-4f"/>
      <use xlink:href="#DejaVuSans-31" x="78.710938"/>
      <use xlink:href="#DejaVuSans-30" x="142.333984"/>
     </g>
    </g>
   </g>
   <g id="text_9">
    <!-- Correct Topology -->
    <g transform="translate(110.2698 24.48) scale(0.1728 -0.1728)">
     <defs>
      <path id="DejaVuSans-43" d="M 4122 4306 
L 4122 3641 
Q 3803 3938 3442 4084 
Q 3081 4231 2675 4231 
Q 1875 4231 1450 3742 
Q 1025 3253 1025 2328 
Q 1025 1406 1450 917 
Q 1875 428 2675 428 
Q 3081 428 3442 575 
Q 3803 722 4122 1019 
L 4122 359 
Q 3791 134 3420 21 
Q 3050 -91 2638 -91 
Q 1578 -91 968 557 
Q 359 1206 359 2328 
Q 359 3453 968 4101 
Q 1578 4750 2638 4750 
Q 3056 4750 3426 4639 
Q 3797 4528 4122 4306 
z
" transform="scale(0.015625)"/>
      <path id="DejaVuSans-6f" d="M 1959 3097 
Q 1497 3097 1228 2736 
Q 959 2375 959 1747 
Q 959 1119 1226 758 
Q 1494 397 1959 397 
Q 2419 397 2687 759 
Q 2956 1122 2956 1747 
Q 2956 2369 2687 2733 
Q 2419 3097 1959 3097 
z
M 1959 3584 
Q 2709 3584 3137 3096 
Q 3566 2609 3566 1747 
Q 3566 888 3137 398 
Q 2709 -91 1959 -91 
Q 1206 -91 779 398 
Q 353 888 353 1747 
Q 353 2609 779 3096 
Q 1206 3584 1959 3584 
z
" transform="scale(0.015625)"/>
      <path id="DejaVuSans-72" d="M 2631 2963 
Q 2534 3019 2420 3045 
Q 2306 3072 2169 3072 
Q 1681 3072 1420 2755 
Q 1159 2438 1159 1844 
L 1159 0 
L 581 0 
L 581 3500 
L 1159 3500 
L 1159 2956 
Q 1341 3275 1631 3429 
Q 1922 3584 2338 3584 
Q 2397 3584 2469 3576 
Q 2541 3569 2628 3553 
L 2631 2963 
z
" transform="scale(0.015625)"/>
      <path id="DejaVuSans-65" d="M 3597 1894 
L 3597 1613 
L 953 1613 
Q 991 1019 1311 708 
Q 1631 397 2203 397 
Q 2534 397 2845 478 
Q 3156 559 3463 722 
L 3463 178 
Q 3153 47 2828 -22 
Q 2503 -91 2169 -91 
Q 1331 -91 842 396 
Q 353 884 353 1716 
Q 353 2575 817 3079 
Q 1281 3584 2069 3584 
Q 2775 3584 3186 3129 
Q 3597 2675 3597 1894 
z
M 3022 2063 
Q 3016 2534 2758 2815 
Q 2500 3097 2075 3097 
Q 1594 3097 1305 2825 
Q 1016 2553 972 2059 
L 3022 2063 
z
" transform="scale(0.015625)"/>
      <path id="DejaVuSans-63" d="M 3122 3366 
L 3122 2828 
Q 2878 2963 2633 3030 
Q 2388 3097 2138 3097 
Q 1578 3097 1268 2742 
Q 959 2388 959 1747 
Q 959 1106 1268 751 
Q 1578 397 2138 397 
Q 2388 397 2633 464 
Q 2878 531 3122 666 
L 3122 134 
Q 2881 22 2623 -34 
Q 2366 -91 2075 -91 
Q 1284 -91 818 406 
Q 353 903 353 1747 
Q 353 2603 823 3093 
Q 1294 3584 2113 3584 
Q 2378 3584 2631 3529 
Q 2884 3475 3122 3366 
z
" transform="scale(0.015625)"/>
      <path id="DejaVuSans-74" d="M 1172 4494 
L 1172 3500 
L 2356 3500 
L 2356 3053 
L 1172 3053 
L 1172 1153 
Q 1172 725 1289 603 
Q 1406 481 1766 481 
L 2356 481 
L 2356 0 
L 1766 0 
Q 1100 0 847 248 
Q 594 497 594 1153 
L 594 3053 
L 172 3053 
L 172 3500 
L 594 3500 
L 594 4494 
L 1172 4494 
z
" transform="scale(0.015625)"/>
      <path id="DejaVuSans-20" transform="scale(0.015625)"/>
      <path id="DejaVuSans-54" d="M -19 4666 
L 3928 4666 
L 3928 4134 
L 2272 4134 
L 2272 0 
L 1638 0 
L 1638 4134 
L -19 4134 
L -19 4666 
z
" transform="scale(0.015625)"/>
      <path id="DejaVuSans-70" d="M 1159 525 
L 1159 -1331 
L 581 -1331 
L 581 3500 
L 1159 3500 
L 1159 2969 
Q 1341 3281 1617 3432 
Q 1894 3584 2278 3584 
Q 2916 3584 3314 3078 
Q 3713 2572 3713 1747 
Q 3713 922 3314 415 
Q 2916 -91 2278 -91 
Q 1894 -91 1617 61 
Q 1341 213 1159 525 
z
M 3116 1747 
Q 3116 2381 2855 2742 
Q 2594 3103 2138 3103 
Q 1681 3103 1420 2742 
Q 1159 2381 1159 1747 
Q 1159 1113 1420 752 
Q 1681 391 2138 391 
Q 2594 391 2855 752 
Q 3116 1113 3116 1747 
z
" transform="scale(0.015625)"/>
      <path id="DejaVuSans-6c" d="M 603 4863 
L 1178 4863 
L 1178 0 
L 603 0 
L 603 4863 
z
" transform="scale(0.015625)"/>
      <path id="DejaVuSans-67" d="M 2906 1791 
Q 2906 2416 2648 2759 
Q 2391 3103 1925 3103 
Q 1463 3103 1205 2759 
Q 947 2416 947 1791 
Q 947 1169 1205 825 
Q 1463 481 1925 481 
Q 2391 481 2648 825 
Q 2906 1169 2906 1791 
z
M 3481 434 
Q 3481 -459 3084 -895 
Q 2688 -1331 1869 -1331 
Q 1566 -1331 1297 -1286 
Q 1028 -1241 775 -1147 
L 775 -588 
Q 1028 -725 1275 -790 
Q 1522 -856 1778 -856 
Q 2344 -856 2625 -561 
Q 2906 -266 2906 331 
L 2906 616 
Q 2728 306 2450 153 
Q 2172 0 1784 0 
Q 1141 0 747 490 
Q 353 981 353 1791 
Q 353 2603 747 3093 
Q 1141 3584 1784 3584 
Q 2172 3584 2450 3431 
Q 2728 3278 2906 2969 
L 2906 3500 
L 3481 3500 
L 3481 434 
z
" transform="scale(0.015625)"/>
      <path id="DejaVuSans-79" d="M 2059 -325 
Q 1816 -950 1584 -1140 
Q 1353 -1331 966 -1331 
L 506 -1331 
L 506 -850 
L 844 -850 
Q 1081 -850 1212 -737 
Q 1344 -625 1503 -206 
L 1606 56 
L 191 3500 
L 800 3500 
L 1894 763 
L 2988 3500 
L 3597 3500 
L 2059 -325 
z
" transform="scale(0.015625)"/>
     </defs>
     <use xlink:href="#DejaVuSans-43"/>
     <use xlink:href="#DejaVuSans-6f" x="69.824219"/>
     <use xlink:href="#DejaVuSans-72" x="131.005859"/>
     <use xlink:href="#DejaVuSans-72" x="170.369141"/>
     <use xlink:href="#DejaVuSans-65" x="209.232422"/>
     <use xlink:href="#DejaVuSans-63" x="270.755859"/>
     <use xlink:href="#DejaVuSans-74" x="325.736328"/>
     <use xlink:href="#DejaVuSans-20" x="364.945312"/>
     <use xlink:href="#DejaVuSans-54" x="396.732422"/>
     <use xlink:href="#DejaVuSans-6f" x="440.816406"/>
     <use xlink:href="#DejaVuSans-70" x="501.998047"/>
     <use xlink:href="#DejaVuSans-6f" x="565.474609"/>
     <use xlink:href="#DejaVuSans-6c" x="626.65625"/>
     <use xlink:href="#DejaVuSans-6f" x="654.439453"/>
     <use xlink:href="#DejaVuSans-67" x="715.621094"/>
     <use xlink:href="#DejaVuSans-79" x="779.097656"/>
    </g>
   </g>
  </g>
  <g id="axes_2">
   <g id="patch_14">
    <path d="M 365.4 349.2 
L 709.2 349.2 
L 709.2 30.48 
L 365.4 30.48 
z
" style="fill: #ffffff"/>
   </g>
   <g id="patch_15">
    <path d="M 671.262681 187.036816 
Q 651.104807 181.303437 632.022318 186.730717 
" clip-path="url(#p15677a7af3)" style="fill: none; stroke-dasharray: 3.7,1.6; stroke-dashoffset: 0; stroke: #000000; stroke-opacity: 0.4; stroke-linecap: round"/>
    <path d="M 645.205944 189.219093 
L 632.022318 186.730717 
L 641.923194 177.676842 
z
" clip-path="url(#p15677a7af3)" style="fill-opacity: 0.4; stroke-dasharray: 3.7,1.6; stroke-dashoffset: 0; stroke: #000000; stroke-opacity: 0.4; stroke-linecap: round"/>
   </g>
   <g id="patch_16">
    <path d="M 671.374541 186.724626 
Q 567.319253 148.101467 464.312122 186.335858 
" clip-path="url(#p15677a7af3)" style="fill: none; stroke-dasharray: 3.7,1.6; stroke-dashoffset: 0; stroke: #000000; stroke-opacity: 0.4; stroke-linecap: round"/>
    <path d="M 477.650031 187.785061 
L 464.312122 186.335858 
L 473.474231 176.535053 
z
" clip-path="url(#p15677a7af3)" style="fill-opacity: 0.4; stroke-dasharray: 3.7,1.6; stroke-dashoffset: 0; stroke: #000000; stroke-opacity: 0.4; stroke-linecap: round"/>
   </g>
   <g id="patch_17">
    <path d="M 670.810879 190.401516 
Q 513.256855 202.066275 403.846331 314.478852 
" clip-path="url(#p15677a7af3)" style="fill: none; stroke-dasharray: 3.7,1.6; stroke-dashoffset: 0; stroke: #000000; stroke-opacity: 0.4; stroke-linecap: round"/>
    <path d="M 416.515674 310.064362 
L 403.846331 314.478852 
L 407.916345 301.694683 
z
" clip-path="url(#p15677a7af3)" style="fill-opacity: 0.4; stroke-dasharray: 3.7,1.6; stroke-dashoffset: 0; stroke: #000000; stroke-opacity: 0.4; stroke-linecap: round"/>
   </g>
   <g id="patch_18">
    <path d="M 673.469255 183.578855 
Q 563.279201 70.364506 406.840429 58.781723 
" clip-path="url(#p15677a7af3)" style="fill: none; stroke-dasharray: 3.7,1.6; stroke-dashoffset: 0; stroke: #000000; stroke-opacity: 0.4; stroke-linecap: round"/>
    <path d="M 418.364642 65.651403 
L 406.840429 58.781723 
L 419.250701 53.68416 
z
" clip-path="url(#p15677a7af3)" style="fill-opacity: 0.4; stroke-dasharray: 3.7,1.6; stroke-dashoffset: 0; stroke: #000000; stroke-opacity: 0.4; stroke-linecap: round"/>
   </g>
   <g id="patch_19">
    <path d="M 583.131815 192.563106 
Q 598.833204 196.685487 613.453209 192.847025 
" clip-path="url(#p15677a7af3)" style="fill: none; stroke-dasharray: 3.7,1.6; stroke-dashoffset: 0; stroke: #000000; stroke-opacity: 0.4; stroke-linecap: round"/>
    <path d="M 600.322923 190.091014 
L 613.453209 192.847025 
L 603.370229 201.697647 
z
" clip-path="url(#p15677a7af3)" style="fill-opacity: 0.4; stroke-dasharray: 3.7,1.6; stroke-dashoffset: 0; stroke: #000000; stroke-opacity: 0.4; stroke-linecap: round"/>
   </g>
   <g id="patch_20">
    <path d="M 566.796718 186.81401 
Q 515.049359 168.920996 464.358654 186.448048 
" clip-path="url(#p15677a7af3)" style="fill: none; stroke-dasharray: 3.7,1.6; stroke-dashoffset: 0; stroke: #000000; stroke-opacity: 0.4; stroke-linecap: round"/>
    <path d="M 477.660543 188.197262 
L 464.358654 186.448048 
L 473.739159 176.856066 
z
" clip-path="url(#p15677a7af3)" style="fill-opacity: 0.4; stroke-dasharray: 3.7,1.6; stroke-dashoffset: 0; stroke: #000000; stroke-opacity: 0.4; stroke-linecap: round"/>
   </g>
   <g id="patch_21">
    <path d="M 566.564975 192.14651 
Q 461.507829 222.627837 402.330264 313.296691 
" clip-path="url(#p15677a7af3)" style="fill: none; stroke-dasharray: 3.7,1.6; stroke-dashoffset: 0; stroke: #000000; stroke-opacity: 0.4; stroke-linecap: round"/>
    <path d="M 413.913536 306.527065 
L 402.330264 313.296691 
L 403.864527 299.968298 
z
" clip-path="url(#p15677a7af3)" style="fill-opacity: 0.4; stroke-dasharray: 3.7,1.6; stroke-dashoffset: 0; stroke: #000000; stroke-opacity: 0.4; stroke-linecap: round"/>
   </g>
   <g id="patch_22">
    <path d="M 570.271714 182.528467 
Q 510.482577 90.924021 406.49869 60.754895 
" clip-path="url(#p15677a7af3)" style="fill: none; stroke-dasharray: 3.7,1.6; stroke-dashoffset: 0; stroke: #000000; stroke-opacity: 0.4; stroke-linecap: round"/>
    <path d="M 416.351578 69.860969 
L 406.49869 60.754895 
L 419.695282 58.336228 
z
" clip-path="url(#p15677a7af3)" style="fill-opacity: 0.4; stroke-dasharray: 3.7,1.6; stroke-dashoffset: 0; stroke: #000000; stroke-opacity: 0.4; stroke-linecap: round"/>
   </g>
   <g id="patch_23">
    <path d="M 437.216588 245.194576 
Q 535.744859 252.960199 614.904944 195.671153 
" clip-path="url(#p15677a7af3)" style="fill: none; stroke-dasharray: 3.7,1.6; stroke-dashoffset: 0; stroke: #000000; stroke-opacity: 0.4; stroke-linecap: round"/>
    <path d="M 601.66597 197.845912 
L 614.904944 195.671153 
L 608.701367 207.567187 
z
" clip-path="url(#p15677a7af3)" style="fill-opacity: 0.4; stroke-dasharray: 3.7,1.6; stroke-dashoffset: 0; stroke: #000000; stroke-opacity: 0.4; stroke-linecap: round"/>
   </g>
   <g id="patch_24">
    <path d="M 434.724661 238.278489 
Q 450.255104 221.193682 453.95719 199.53716 
" clip-path="url(#p15677a7af3)" style="fill: none; stroke-dasharray: 3.7,1.6; stroke-dashoffset: 0; stroke: #000000; stroke-opacity: 0.4; stroke-linecap: round"/>
    <path d="M 446.020966 210.35457 
L 453.95719 199.53716 
L 457.849383 212.376585 
z
" clip-path="url(#p15677a7af3)" style="fill-opacity: 0.4; stroke-dasharray: 3.7,1.6; stroke-dashoffset: 0; stroke: #000000; stroke-opacity: 0.4; stroke-linecap: round"/>
   </g>
   <g id="patch_25">
    <path d="M 422.792047 250.822437 
Q 400.128985 277.77672 397.524637 311.774815 
" clip-path="url(#p15677a7af3)" style="fill: none; stroke-dasharray: 3.7,1.6; stroke-dashoffset: 0; stroke: #000000; stroke-opacity: 0.4; stroke-linecap: round"/>
    <path d="M 404.423658 300.268142 
L 397.524637 311.774815 
L 392.458712 299.351594 
z
" clip-path="url(#p15677a7af3)" style="fill-opacity: 0.4; stroke-dasharray: 3.7,1.6; stroke-dashoffset: 0; stroke: #000000; stroke-opacity: 0.4; stroke-linecap: round"/>
   </g>
   <g id="patch_26">
    <path d="M 430.297523 235.904621 
Q 447.035924 145.479786 402.036237 66.565681 
" clip-path="url(#p15677a7af3)" style="fill: none; stroke-dasharray: 3.7,1.6; stroke-dashoffset: 0; stroke: #000000; stroke-opacity: 0.4; stroke-linecap: round"/>
    <path d="M 402.768399 79.962097 
L 402.036237 66.565681 
L 413.192667 74.017801 
z
" clip-path="url(#p15677a7af3)" style="fill-opacity: 0.4; stroke-dasharray: 3.7,1.6; stroke-dashoffset: 0; stroke: #000000; stroke-opacity: 0.4; stroke-linecap: round"/>
   </g>
   <g id="patch_27">
    <path d="M 435.537316 140.462162 
Q 515.603039 198.407007 613.016644 190.72954 
" clip-path="url(#p15677a7af3)" style="fill: none; stroke-dasharray: 3.7,1.6; stroke-dashoffset: 0; stroke: #000000; stroke-opacity: 0.4; stroke-linecap: round"/>
    <path d="M 600.582323 185.690921 
L 613.016644 190.72954 
L 601.525156 197.653825 
z
" clip-path="url(#p15677a7af3)" style="fill-opacity: 0.4; stroke-dasharray: 3.7,1.6; stroke-dashoffset: 0; stroke: #000000; stroke-opacity: 0.4; stroke-linecap: round"/>
   </g>
   <g id="patch_28">
    <path d="M 429.633848 143.882967 
Q 433.52453 166.641436 448.303133 182.898842 
" clip-path="url(#p15677a7af3)" style="fill: none; stroke-dasharray: 3.7,1.6; stroke-dashoffset: 0; stroke: #000000; stroke-opacity: 0.4; stroke-linecap: round"/>
    <path d="M 444.671073 169.98342 
L 448.303133 182.898842 
L 435.791559 178.055237 
z
" clip-path="url(#p15677a7af3)" style="fill-opacity: 0.4; stroke-dasharray: 3.7,1.6; stroke-dashoffset: 0; stroke: #000000; stroke-opacity: 0.4; stroke-linecap: round"/>
   </g>
   <g id="patch_29">
    <path d="M 424.192966 142.742516 
Q 378.63888 222.627747 395.173215 311.953126 
" clip-path="url(#p15677a7af3)" style="fill: none; stroke-dasharray: 3.7,1.6; stroke-dashoffset: 0; stroke: #000000; stroke-opacity: 0.4; stroke-linecap: round"/>
    <path d="M 398.888869 299.061505 
L 395.173215 311.953126 
L 387.08931 301.24563 
z
" clip-path="url(#p15677a7af3)" style="fill-opacity: 0.4; stroke-dasharray: 3.7,1.6; stroke-dashoffset: 0; stroke: #000000; stroke-opacity: 0.4; stroke-linecap: round"/>
   </g>
   <g id="patch_30">
    <path d="M 428.235296 126.634138 
Q 425.54555 91.521276 403.601994 65.422743 
" clip-path="url(#p15677a7af3)" style="fill: none; stroke-dasharray: 3.7,1.6; stroke-dashoffset: 0; stroke: #000000; stroke-opacity: 0.4; stroke-linecap: round"/>
    <path d="M 406.732161 78.468894 
L 403.601994 65.422743 
L 415.917015 70.746301 
z
" clip-path="url(#p15677a7af3)" style="fill-opacity: 0.4; stroke-dasharray: 3.7,1.6; stroke-dashoffset: 0; stroke: #000000; stroke-opacity: 0.4; stroke-linecap: round"/>
   </g>
   <g id="patch_31">
    <path d="M 614.662086 186.759286 
Q 538.971661 159.407434 464.332727 186.378106 
" clip-path="url(#p15677a7af3)" style="fill: none; stroke-dasharray: 3.7,1.6; stroke-dashoffset: 0; stroke: #000000; stroke-opacity: 0.4; stroke-linecap: round"/>
    <path d="M 477.65757 187.942897 
L 464.332727 186.378106 
L 473.579465 176.657107 
z
" clip-path="url(#p15677a7af3)" style="fill-opacity: 0.4; stroke-dasharray: 3.7,1.6; stroke-dashoffset: 0; stroke: #000000; stroke-opacity: 0.4; stroke-linecap: round"/>
   </g>
   <g id="patch_32">
    <path d="M 614.204083 191.206419 
Q 485.15344 213.259656 403.180688 313.904861 
" clip-path="url(#p15677a7af3)" style="fill: none; stroke-dasharray: 3.7,1.6; stroke-dashoffset: 0; stroke: #000000; stroke-opacity: 0.4; stroke-linecap: round"/>
    <path d="M 415.411039 308.389563 
L 403.180688 313.904861 
L 406.106659 300.811402 
z
" clip-path="url(#p15677a7af3)" style="fill-opacity: 0.4; stroke-dasharray: 3.7,1.6; stroke-dashoffset: 0; stroke: #000000; stroke-opacity: 0.4; stroke-linecap: round"/>
   </g>
   <g id="patch_33">
    <path d="M 617.359073 183.067457 
Q 534.679855 81.556075 406.730858 59.691869 
" clip-path="url(#p15677a7af3)" style="fill: none; stroke-dasharray: 3.7,1.6; stroke-dashoffset: 0; stroke: #000000; stroke-opacity: 0.4; stroke-linecap: round"/>
    <path d="M 417.548756 67.627427 
L 406.730858 59.691869 
L 419.570043 55.798885 
z
" clip-path="url(#p15677a7af3)" style="fill-opacity: 0.4; stroke-dasharray: 3.7,1.6; stroke-dashoffset: 0; stroke: #000000; stroke-opacity: 0.4; stroke-linecap: round"/>
   </g>
   <g id="matplotlib.axis_3">
    <g id="xtick_10"/>
    <g id="xtick_11"/>
    <g id="xtick_12"/>
    <g id="xtick_13"/>
    <g id="xtick_14"/>
    <g id="xtick_15"/>
    <g id="xtick_16"/>
    <g id="xtick_17"/>
    <g id="xtick_18"/>
   </g>
   <g id="matplotlib.axis_4">
    <g id="ytick_6"/>
    <g id="ytick_7"/>
    <g id="ytick_8"/>
    <g id="ytick_9"/>
    <g id="ytick_10"/>
   </g>
   <g id="PathCollection_2">
    <g clip-path="url(#p15677a7af3)">
     <use xlink:href="#m31f6a4b314" x="679.454049" y="189.84" style="fill: #1f78b4; stroke: #1f78b4"/>
     <use xlink:href="#m31f6a4b314" x="574.911724" y="189.84" style="fill: #1f78b4; stroke: #1f78b4"/>
     <use xlink:href="#m31f6a4b314" x="428.594054" y="244.392953" style="fill: #1f78b4; stroke: #1f78b4"/>
     <use xlink:href="#m31f6a4b314" x="428.594054" y="135.287047" style="fill: #1f78b4; stroke: #1f78b4"/>
     <use xlink:href="#m31f6a4b314" x="622.754696" y="189.84" style="fill: #1f78b4; stroke: #1f78b4"/>
     <use xlink:href="#m31f6a4b314" x="455.185235" y="189.84" style="fill: #1f78b4; stroke: #1f78b4"/>
     <use xlink:href="#m31f6a4b314" x="397.080486" y="321.542479" style="fill: #1f78b4; stroke: #1f78b4"/>
     <use xlink:href="#m31f6a4b314" x="397.080486" y="58.137521" style="fill: #1f78b4; stroke: #1f78b4"/>
    </g>
   </g>
   <g id="patch_34">
    <path d="M 365.4 349.2 
L 365.4 30.48 
" style="fill: none; stroke: #000000; stroke-width: 0.8; stroke-linejoin: miter; stroke-linecap: square"/>
   </g>
   <g id="patch_35">
    <path d="M 709.2 349.2 
L 709.2 30.48 
" style="fill: none; stroke: #000000; stroke-width: 0.8; stroke-linejoin: miter; stroke-linecap: square"/>
   </g>
   <g id="patch_36">
    <path d="M 365.4 349.2 
L 709.2 349.2 
" style="fill: none; stroke: #000000; stroke-width: 0.8; stroke-linejoin: miter; stroke-linecap: square"/>
   </g>
   <g id="patch_37">
    <path d="M 365.4 30.48 
L 709.2 30.48 
" style="fill: none; stroke: #000000; stroke-width: 0.8; stroke-linejoin: miter; stroke-linecap: square"/>
   </g>
   <g id="text_10">
    <g clip-path="url(#p15677a7af3)">
     <!-- O1 -->
     <g transform="translate(670.913424 193.15125) scale(0.12 -0.12)">
      <use xlink:href="#DejaVuSans-4f"/>
      <use xlink:href="#DejaVuSans-31" x="78.710938"/>
     </g>
    </g>
   </g>
   <g id="text_11">
    <g clip-path="url(#p15677a7af3)">
     <!-- O4 -->
     <g transform="translate(566.371099 193.15125) scale(0.12 -0.12)">
      <use xlink:href="#DejaVuSans-4f"/>
      <use xlink:href="#DejaVuSans-34" x="78.710938"/>
     </g>
    </g>
   </g>
   <g id="text_12">
    <g clip-path="url(#p15677a7af3)">
     <!-- O6 -->
     <g transform="translate(420.053429 247.704203) scale(0.12 -0.12)">
      <use xlink:href="#DejaVuSans-4f"/>
      <use xlink:href="#DejaVuSans-36" x="78.710938"/>
     </g>
    </g>
   </g>
   <g id="text_13">
    <g clip-path="url(#p15677a7af3)">
     <!-- O10 -->
     <g transform="translate(416.235929 138.598297) scale(0.12 -0.12)">
      <use xlink:href="#DejaVuSans-4f"/>
      <use xlink:href="#DejaVuSans-31" x="78.710938"/>
      <use xlink:href="#DejaVuSans-30" x="142.333984"/>
     </g>
    </g>
   </g>
   <g id="text_14">
    <g clip-path="url(#p15677a7af3)">
     <!-- 1 -->
     <g transform="translate(618.937196 193.15125) scale(0.12 -0.12)">
      <use xlink:href="#DejaVuSans-31"/>
     </g>
    </g>
   </g>
   <g id="text_15">
    <g clip-path="url(#p15677a7af3)">
     <!-- 4 -->
     <g transform="translate(451.367735 193.15125) scale(0.12 -0.12)">
      <use xlink:href="#DejaVuSans-34"/>
     </g>
    </g>
   </g>
   <g id="text_16">
    <g clip-path="url(#p15677a7af3)">
     <!-- 6 -->
     <g transform="translate(393.262986 324.853729) scale(0.12 -0.12)">
      <use xlink:href="#DejaVuSans-36"/>
     </g>
    </g>
   </g>
   <g id="text_17">
    <g clip-path="url(#p15677a7af3)">
     <!-- 10 -->
     <g transform="translate(389.445486 61.448771) scale(0.12 -0.12)">
      <use xlink:href="#DejaVuSans-31"/>
      <use xlink:href="#DejaVuSans-30" x="63.623047"/>
     </g>
    </g>
   </g>
   <g id="text_18">
    <!-- Inferred Topology -->
    <g transform="translate(462.46005 24.48) scale(0.1728 -0.1728)">
     <defs>
      <path id="DejaVuSans-49" d="M 628 4666 
L 1259 4666 
L 1259 0 
L 628 0 
L 628 4666 
z
" transform="scale(0.015625)"/>
      <path id="DejaVuSans-6e" d="M 3513 2113 
L 3513 0 
L 2938 0 
L 2938 2094 
Q 2938 2591 2744 2837 
Q 2550 3084 2163 3084 
Q 1697 3084 1428 2787 
Q 1159 2491 1159 1978 
L 1159 0 
L 581 0 
L 581 3500 
L 1159 3500 
L 1159 2956 
Q 1366 3272 1645 3428 
Q 1925 3584 2291 3584 
Q 2894 3584 3203 3211 
Q 3513 2838 3513 2113 
z
" transform="scale(0.015625)"/>
      <path id="DejaVuSans-66" d="M 2375 4863 
L 2375 4384 
L 1825 4384 
Q 1516 4384 1395 4259 
Q 1275 4134 1275 3809 
L 1275 3500 
L 2222 3500 
L 2222 3053 
L 1275 3053 
L 1275 0 
L 697 0 
L 697 3053 
L 147 3053 
L 147 3500 
L 697 3500 
L 697 3744 
Q 697 4328 969 4595 
Q 1241 4863 1831 4863 
L 2375 4863 
z
" transform="scale(0.015625)"/>
      <path id="DejaVuSans-64" d="M 2906 2969 
L 2906 4863 
L 3481 4863 
L 3481 0 
L 2906 0 
L 2906 525 
Q 2725 213 2448 61 
Q 2172 -91 1784 -91 
Q 1150 -91 751 415 
Q 353 922 353 1747 
Q 353 2572 751 3078 
Q 1150 3584 1784 3584 
Q 2172 3584 2448 3432 
Q 2725 3281 2906 2969 
z
M 947 1747 
Q 947 1113 1208 752 
Q 1469 391 1925 391 
Q 2381 391 2643 752 
Q 2906 1113 2906 1747 
Q 2906 2381 2643 2742 
Q 2381 3103 1925 3103 
Q 1469 3103 1208 2742 
Q 947 2381 947 1747 
z
" transform="scale(0.015625)"/>
     </defs>
     <use xlink:href="#DejaVuSans-49"/>
     <use xlink:href="#DejaVuSans-6e" x="29.492188"/>
     <use xlink:href="#DejaVuSans-66" x="92.871094"/>
     <use xlink:href="#DejaVuSans-65" x="128.076172"/>
     <use xlink:href="#DejaVuSans-72" x="189.599609"/>
     <use xlink:href="#DejaVuSans-72" x="228.962891"/>
     <use xlink:href="#DejaVuSans-65" x="267.826172"/>
     <use xlink:href="#DejaVuSans-64" x="329.349609"/>
     <use xlink:href="#DejaVuSans-20" x="392.826172"/>
     <use xlink:href="#DejaVuSans-54" x="424.613281"/>
     <use xlink:href="#DejaVuSans-6f" x="468.697266"/>
     <use xlink:href="#DejaVuSans-70" x="529.878906"/>
     <use xlink:href="#DejaVuSans-6f" x="593.355469"/>
     <use xlink:href="#DejaVuSans-6c" x="654.537109"/>
     <use xlink:href="#DejaVuSans-6f" x="682.320312"/>
     <use xlink:href="#DejaVuSans-67" x="743.501953"/>
     <use xlink:href="#DejaVuSans-79" x="806.978516"/>
    </g>
   </g>
  </g>
 </g>
 <defs>
  <clipPath id="p71f45be2ce">
   <rect x="10.8" y="30.48" width="343.8" height="318.72"/>
  </clipPath>
  <clipPath id="p15677a7af3">
   <rect x="365.4" y="30.48" width="343.8" height="318.72"/>
  </clipPath>
 </defs>
</svg>
