<?xml version="1.0" encoding="utf-8" standalone="no"?>
<!DOCTYPE svg PUBLIC "-//W3C//DTD SVG 1.1//EN"
  "http://www.w3.org/Graphics/SVG/1.1/DTD/svg11.dtd">
<svg xmlns:xlink="http://www.w3.org/1999/xlink" width="1440pt" height="720pt" viewBox="0 0 1440 720" xmlns="http://www.w3.org/2000/svg" version="1.1">
 <metadata>
  <rdf:RDF xmlns:dc="http://purl.org/dc/elements/1.1/" xmlns:cc="http://creativecommons.org/ns#" xmlns:rdf="http://www.w3.org/1999/02/22-rdf-syntax-ns#">
   <cc:Work>
    <dc:type rdf:resource="http://purl.org/dc/dcmitype/StillImage"/>
    <dc:date>2023-12-05T16:29:22.683309</dc:date>
    <dc:format>image/svg+xml</dc:format>
    <dc:creator>
     <cc:Agent>
      <dc:title>Matplotlib v3.7.1, https://matplotlib.org/</dc:title>
     </cc:Agent>
    </dc:creator>
   </cc:Work>
  </rdf:RDF>
 </metadata>
 <defs>
  <style type="text/css">*{stroke-linejoin: round; stroke-linecap: butt}</style>
 </defs>
 <g id="figure_1">
  <g id="patch_1">
   <path d="M 0 720 
L 1440 720 
L 1440 0 
L 0 0 
z
" style="fill: #ffffff"/>
  </g>
  <g id="axes_1">
   <g id="patch_2">
    <path d="M 10.8 709.2 
L 714.6 709.2 
L 714.6 30.48 
L 10.8 30.48 
z
" style="fill: #ffffff"/>
   </g>
   <g id="patch_3">
    <path d="M 71.873554 594.210248 
C 86.414876 594.210248 86.414876 650.30281 71.873554 650.30281 
C 57.332231 650.30281 57.332231 594.210248 70.75552 594.210248 
" clip-path="url(#p3465b2cbaa)" style="fill: none; stroke: #000000; stroke-linecap: round"/>
    <path d="M 60.75552 589.210248 
L 70.75552 594.210248 
L 60.75552 599.210248 
z
" clip-path="url(#p3465b2cbaa)" style="stroke: #000000; stroke-linecap: round"/>
   </g>
   <g id="patch_4">
    <path d="M 217.286777 313.747438 
C 231.828099 313.747438 231.828099 369.84 217.286777 369.84 
C 202.745455 369.84 202.745455 313.747438 216.168743 313.747438 
" clip-path="url(#p3465b2cbaa)" style="fill: none; stroke: #000000; stroke-linecap: round"/>
    <path d="M 206.168743 308.747438 
L 216.168743 313.747438 
L 206.168743 318.747438 
z
" clip-path="url(#p3465b2cbaa)" style="stroke: #000000; stroke-linecap: round"/>
   </g>
   <g id="patch_5">
    <path d="M 314.228926 126.772231 
C 328.770248 126.772231 328.770248 182.864793 314.228926 182.864793 
C 299.687603 182.864793 299.687603 126.772231 313.110892 126.772231 
" clip-path="url(#p3465b2cbaa)" style="fill: none; stroke: #000000; stroke-linecap: round"/>
    <path d="M 303.110892 121.772231 
L 313.110892 126.772231 
L 303.110892 131.772231 
z
" clip-path="url(#p3465b2cbaa)" style="stroke: #000000; stroke-linecap: round"/>
   </g>
   <g id="patch_6">
    <path d="M 265.757851 220.259835 
C 280.299174 220.259835 280.299174 276.352397 265.757851 276.352397 
C 251.216529 276.352397 251.216529 220.259835 264.639817 220.259835 
" clip-path="url(#p3465b2cbaa)" style="fill: none; stroke: #000000; stroke-linecap: round"/>
    <path d="M 254.639817 215.259835 
L 264.639817 220.259835 
L 254.639817 225.259835 
z
" clip-path="url(#p3465b2cbaa)" style="stroke: #000000; stroke-linecap: round"/>
   </g>
   <g id="patch_7">
    <path d="M 644.868573 650.30281 
Q 362.701138 650.30281 81.651737 650.30281 
" clip-path="url(#p3465b2cbaa)" style="fill: none; stroke: #000000; stroke-linecap: round"/>
    <path d="M 91.651737 655.30281 
L 81.651737 650.30281 
L 91.651737 645.30281 
z
" clip-path="url(#p3465b2cbaa)" style="stroke: #000000; stroke-linecap: round"/>
   </g>
   <g id="patch_8">
    <path d="M 124.331125 549.126331 
Q 168.815403 463.328181 212.785064 378.522588 
" clip-path="url(#p3465b2cbaa)" style="fill: none; stroke: #000000; stroke-linecap: round"/>
    <path d="M 203.74334 385.098851 
L 212.785064 378.522588 
L 212.62104 389.701725 
z
" clip-path="url(#p3465b2cbaa)" style="stroke: #000000; stroke-linecap: round"/>
   </g>
   <g id="patch_9">
    <path d="M 358.713503 97.066066 
Q 338.464793 136.120354 318.730701 174.182086 
" clip-path="url(#p3465b2cbaa)" style="fill: none; stroke: #000000; stroke-linecap: round"/>
    <path d="M 327.772425 167.605823 
L 318.730701 174.182086 
L 318.894725 163.002949 
z
" clip-path="url(#p3465b2cbaa)" style="stroke: #000000; stroke-linecap: round"/>
   </g>
   <g id="patch_10">
    <path d="M 548.235951 461.02736 
Q 386.936355 416.584027 226.714627 372.437682 
" clip-path="url(#p3465b2cbaa)" style="fill: none; stroke: #000000; stroke-linecap: round"/>
    <path d="M 235.027196 379.914392 
L 226.714627 372.437682 
L 237.683536 370.273653 
z
" clip-path="url(#p3465b2cbaa)" style="stroke: #000000; stroke-linecap: round"/>
   </g>
   <g id="patch_11">
    <path d="M 549.29988 458.644379 
Q 411.170704 369.839762 273.981971 281.639765 
" clip-path="url(#p3465b2cbaa)" style="fill: none; stroke: #000000; stroke-linecap: round"/>
    <path d="M 279.689609 291.253446 
L 273.981971 281.639765 
L 285.097499 282.841863 
z
" clip-path="url(#p3465b2cbaa)" style="stroke: #000000; stroke-linecap: round"/>
   </g>
   <g id="matplotlib.axis_1">
    <g id="xtick_1"/>
    <g id="xtick_2"/>
    <g id="xtick_3"/>
    <g id="xtick_4"/>
    <g id="xtick_5"/>
    <g id="xtick_6"/>
    <g id="xtick_7"/>
    <g id="xtick_8"/>
   </g>
   <g id="matplotlib.axis_2">
    <g id="ytick_1"/>
    <g id="ytick_2"/>
    <g id="ytick_3"/>
    <g id="ytick_4"/>
    <g id="ytick_5"/>
   </g>
   <g id="PathCollection_1">
    <defs>
     <path id="m3f7599d6c6" d="M 0 15.811388 
C 4.193229 15.811388 8.215279 14.145401 11.18034 11.18034 
C 14.145401 8.215279 15.811388 4.193229 15.811388 0 
C 15.811388 -4.193229 14.145401 -8.215279 11.18034 -11.18034 
C 8.215279 -14.145401 4.193229 -15.811388 0 -15.811388 
C -4.193229 -15.811388 -8.215279 -14.145401 -11.18034 -11.18034 
C -14.145401 -8.215279 -15.811388 -4.193229 -15.811388 0 
C -15.811388 4.193229 -14.145401 8.215279 -11.18034 11.18034 
C -8.215279 14.145401 -4.193229 15.811388 0 15.811388 
z
" style="stroke: #1f78b4"/>
    </defs>
    <g clip-path="url(#p3465b2cbaa)">
     <use xlink:href="#m3f7599d6c6" x="71.873554" y="650.30281" style="fill: #1f78b4; stroke: #1f78b4"/>
     <use xlink:href="#m3f7599d6c6" x="217.286777" y="369.84" style="fill: #1f78b4; stroke: #1f78b4"/>
     <use xlink:href="#m3f7599d6c6" x="314.228926" y="182.864793" style="fill: #1f78b4; stroke: #1f78b4"/>
     <use xlink:href="#m3f7599d6c6" x="265.757851" y="276.352397" style="fill: #1f78b4; stroke: #1f78b4"/>
     <use xlink:href="#m3f7599d6c6" x="653.526446" y="650.30281" style="fill: #1f78b4; stroke: #1f78b4"/>
     <use xlink:href="#m3f7599d6c6" x="120.344628" y="556.815207" style="fill: #1f78b4; stroke: #1f78b4"/>
     <use xlink:href="#m3f7599d6c6" x="362.7" y="89.37719" style="fill: #1f78b4; stroke: #1f78b4"/>
     <use xlink:href="#m3f7599d6c6" x="556.584298" y="463.327603" style="fill: #1f78b4; stroke: #1f78b4"/>
    </g>
   </g>
   <g id="patch_12">
    <path d="M 10.8 709.2 
L 10.8 30.48 
" style="fill: none; stroke: #000000; stroke-width: 0.8; stroke-linejoin: miter; stroke-linecap: square"/>
   </g>
   <g id="patch_13">
    <path d="M 714.6 709.2 
L 714.6 30.48 
" style="fill: none; stroke: #000000; stroke-width: 0.8; stroke-linejoin: miter; stroke-linecap: square"/>
   </g>
   <g id="patch_14">
    <path d="M 10.8 709.2 
L 714.6 709.2 
" style="fill: none; stroke: #000000; stroke-width: 0.8; stroke-linejoin: miter; stroke-linecap: square"/>
   </g>
   <g id="patch_15">
    <path d="M 10.8 30.48 
L 714.6 30.48 
" style="fill: none; stroke: #000000; stroke-width: 0.8; stroke-linejoin: miter; stroke-linecap: square"/>
   </g>
   <g id="text_1">
    <g clip-path="url(#p3465b2cbaa)">
     <!-- ('1', 'depthN') -->
     <g transform="translate(3.768866 655.82156) scale(0.2 -0.2)">
      <defs>
       <path id="DejaVuSans-28" d="M 1984 4856 
Q 1566 4138 1362 3434 
Q 1159 2731 1159 2009 
Q 1159 1288 1364 580 
Q 1569 -128 1984 -844 
L 1484 -844 
Q 1016 -109 783 600 
Q 550 1309 550 2009 
Q 550 2706 781 3412 
Q 1013 4119 1484 4856 
L 1984 4856 
z
" transform="scale(0.015625)"/>
       <path id="DejaVuSans-27" d="M 1147 4666 
L 1147 2931 
L 616 2931 
L 616 4666 
L 1147 4666 
z
" transform="scale(0.015625)"/>
       <path id="DejaVuSans-31" d="M 794 531 
L 1825 531 
L 1825 4091 
L 703 3866 
L 703 4441 
L 1819 4666 
L 2450 4666 
L 2450 531 
L 3481 531 
L 3481 0 
L 794 0 
L 794 531 
z
" transform="scale(0.015625)"/>
       <path id="DejaVuSans-2c" d="M 750 794 
L 1409 794 
L 1409 256 
L 897 -744 
L 494 -744 
L 750 256 
L 750 794 
z
" transform="scale(0.015625)"/>
       <path id="DejaVuSans-20" transform="scale(0.015625)"/>
       <path id="DejaVuSans-64" d="M 2906 2969 
L 2906 4863 
L 3481 4863 
L 3481 0 
L 2906 0 
L 2906 525 
Q 2725 213 2448 61 
Q 2172 -91 1784 -91 
Q 1150 -91 751 415 
Q 353 922 353 1747 
Q 353 2572 751 3078 
Q 1150 3584 1784 3584 
Q 2172 3584 2448 3432 
Q 2725 3281 2906 2969 
z
M 947 1747 
Q 947 1113 1208 752 
Q 1469 391 1925 391 
Q 2381 391 2643 752 
Q 2906 1113 2906 1747 
Q 2906 2381 2643 2742 
Q 2381 3103 1925 3103 
Q 1469 3103 1208 2742 
Q 947 2381 947 1747 
z
" transform="scale(0.015625)"/>
       <path id="DejaVuSans-65" d="M 3597 1894 
L 3597 1613 
L 953 1613 
Q 991 1019 1311 708 
Q 1631 397 2203 397 
Q 2534 397 2845 478 
Q 3156 559 3463 722 
L 3463 178 
Q 3153 47 2828 -22 
Q 2503 -91 2169 -91 
Q 1331 -91 842 396 
Q 353 884 353 1716 
Q 353 2575 817 3079 
Q 1281 3584 2069 3584 
Q 2775 3584 3186 3129 
Q 3597 2675 3597 1894 
z
M 3022 2063 
Q 3016 2534 2758 2815 
Q 2500 3097 2075 3097 
Q 1594 3097 1305 2825 
Q 1016 2553 972 2059 
L 3022 2063 
z
" transform="scale(0.015625)"/>
       <path id="DejaVuSans-70" d="M 1159 525 
L 1159 -1331 
L 581 -1331 
L 581 3500 
L 1159 3500 
L 1159 2969 
Q 1341 3281 1617 3432 
Q 1894 3584 2278 3584 
Q 2916 3584 3314 3078 
Q 3713 2572 3713 1747 
Q 3713 922 3314 415 
Q 2916 -91 2278 -91 
Q 1894 -91 1617 61 
Q 1341 213 1159 525 
z
M 3116 1747 
Q 3116 2381 2855 2742 
Q 2594 3103 2138 3103 
Q 1681 3103 1420 2742 
Q 1159 2381 1159 1747 
Q 1159 1113 1420 752 
Q 1681 391 2138 391 
Q 2594 391 2855 752 
Q 3116 1113 3116 1747 
z
" transform="scale(0.015625)"/>
       <path id="DejaVuSans-74" d="M 1172 4494 
L 1172 3500 
L 2356 3500 
L 2356 3053 
L 1172 3053 
L 1172 1153 
Q 1172 725 1289 603 
Q 1406 481 1766 481 
L 2356 481 
L 2356 0 
L 1766 0 
Q 1100 0 847 248 
Q 594 497 594 1153 
L 594 3053 
L 172 3053 
L 172 3500 
L 594 3500 
L 594 4494 
L 1172 4494 
z
" transform="scale(0.015625)"/>
       <path id="DejaVuSans-68" d="M 3513 2113 
L 3513 0 
L 2938 0 
L 2938 2094 
Q 2938 2591 2744 2837 
Q 2550 3084 2163 3084 
Q 1697 3084 1428 2787 
Q 1159 2491 1159 1978 
L 1159 0 
L 581 0 
L 581 4863 
L 1159 4863 
L 1159 2956 
Q 1366 3272 1645 3428 
Q 1925 3584 2291 3584 
Q 2894 3584 3203 3211 
Q 3513 2838 3513 2113 
z
" transform="scale(0.015625)"/>
       <path id="DejaVuSans-4e" d="M 628 4666 
L 1478 4666 
L 3547 763 
L 3547 4666 
L 4159 4666 
L 4159 0 
L 3309 0 
L 1241 3903 
L 1241 0 
L 628 0 
L 628 4666 
z
" transform="scale(0.015625)"/>
       <path id="DejaVuSans-29" d="M 513 4856 
L 1013 4856 
Q 1481 4119 1714 3412 
Q 1947 2706 1947 2009 
Q 1947 1309 1714 600 
Q 1481 -109 1013 -844 
L 513 -844 
Q 928 -128 1133 580 
Q 1338 1288 1338 2009 
Q 1338 2731 1133 3434 
Q 928 4138 513 4856 
z
" transform="scale(0.015625)"/>
      </defs>
      <use xlink:href="#DejaVuSans-28"/>
      <use xlink:href="#DejaVuSans-27" x="39.013672"/>
      <use xlink:href="#DejaVuSans-31" x="66.503906"/>
      <use xlink:href="#DejaVuSans-27" x="130.126953"/>
      <use xlink:href="#DejaVuSans-2c" x="157.617188"/>
      <use xlink:href="#DejaVuSans-20" x="189.404297"/>
      <use xlink:href="#DejaVuSans-27" x="221.191406"/>
      <use xlink:href="#DejaVuSans-64" x="248.681641"/>
      <use xlink:href="#DejaVuSans-65" x="312.158203"/>
      <use xlink:href="#DejaVuSans-70" x="373.681641"/>
      <use xlink:href="#DejaVuSans-74" x="437.158203"/>
      <use xlink:href="#DejaVuSans-68" x="476.367188"/>
      <use xlink:href="#DejaVuSans-4e" x="539.746094"/>
      <use xlink:href="#DejaVuSans-27" x="614.550781"/>
      <use xlink:href="#DejaVuSans-29" x="642.041016"/>
     </g>
    </g>
   </g>
   <g id="text_2">
    <g clip-path="url(#p3465b2cbaa)">
     <!-- ('4', 'depthN') -->
     <g transform="translate(149.182089 375.35875) scale(0.2 -0.2)">
      <defs>
       <path id="DejaVuSans-34" d="M 2419 4116 
L 825 1625 
L 2419 1625 
L 2419 4116 
z
M 2253 4666 
L 3047 4666 
L 3047 1625 
L 3713 1625 
L 3713 1100 
L 3047 1100 
L 3047 0 
L 2419 0 
L 2419 1100 
L 313 1100 
L 313 1709 
L 2253 4666 
z
" transform="scale(0.015625)"/>
      </defs>
      <use xlink:href="#DejaVuSans-28"/>
      <use xlink:href="#DejaVuSans-27" x="39.013672"/>
      <use xlink:href="#DejaVuSans-34" x="66.503906"/>
      <use xlink:href="#DejaVuSans-27" x="130.126953"/>
      <use xlink:href="#DejaVuSans-2c" x="157.617188"/>
      <use xlink:href="#DejaVuSans-20" x="189.404297"/>
      <use xlink:href="#DejaVuSans-27" x="221.191406"/>
      <use xlink:href="#DejaVuSans-64" x="248.681641"/>
      <use xlink:href="#DejaVuSans-65" x="312.158203"/>
      <use xlink:href="#DejaVuSans-70" x="373.681641"/>
      <use xlink:href="#DejaVuSans-74" x="437.158203"/>
      <use xlink:href="#DejaVuSans-68" x="476.367188"/>
      <use xlink:href="#DejaVuSans-4e" x="539.746094"/>
      <use xlink:href="#DejaVuSans-27" x="614.550781"/>
      <use xlink:href="#DejaVuSans-29" x="642.041016"/>
     </g>
    </g>
   </g>
   <g id="text_3">
    <g clip-path="url(#p3465b2cbaa)">
     <!-- ('6', 'depthN') -->
     <g transform="translate(246.124238 188.383543) scale(0.2 -0.2)">
      <defs>
       <path id="DejaVuSans-36" d="M 2113 2584 
Q 1688 2584 1439 2293 
Q 1191 2003 1191 1497 
Q 1191 994 1439 701 
Q 1688 409 2113 409 
Q 2538 409 2786 701 
Q 3034 994 3034 1497 
Q 3034 2003 2786 2293 
Q 2538 2584 2113 2584 
z
M 3366 4563 
L 3366 3988 
Q 3128 4100 2886 4159 
Q 2644 4219 2406 4219 
Q 1781 4219 1451 3797 
Q 1122 3375 1075 2522 
Q 1259 2794 1537 2939 
Q 1816 3084 2150 3084 
Q 2853 3084 3261 2657 
Q 3669 2231 3669 1497 
Q 3669 778 3244 343 
Q 2819 -91 2113 -91 
Q 1303 -91 875 529 
Q 447 1150 447 2328 
Q 447 3434 972 4092 
Q 1497 4750 2381 4750 
Q 2619 4750 2861 4703 
Q 3103 4656 3366 4563 
z
" transform="scale(0.015625)"/>
      </defs>
      <use xlink:href="#DejaVuSans-28"/>
      <use xlink:href="#DejaVuSans-27" x="39.013672"/>
      <use xlink:href="#DejaVuSans-36" x="66.503906"/>
      <use xlink:href="#DejaVuSans-27" x="130.126953"/>
      <use xlink:href="#DejaVuSans-2c" x="157.617188"/>
      <use xlink:href="#DejaVuSans-20" x="189.404297"/>
      <use xlink:href="#DejaVuSans-27" x="221.191406"/>
      <use xlink:href="#DejaVuSans-64" x="248.681641"/>
      <use xlink:href="#DejaVuSans-65" x="312.158203"/>
      <use xlink:href="#DejaVuSans-70" x="373.681641"/>
      <use xlink:href="#DejaVuSans-74" x="437.158203"/>
      <use xlink:href="#DejaVuSans-68" x="476.367188"/>
      <use xlink:href="#DejaVuSans-4e" x="539.746094"/>
      <use xlink:href="#DejaVuSans-27" x="614.550781"/>
      <use xlink:href="#DejaVuSans-29" x="642.041016"/>
     </g>
    </g>
   </g>
   <g id="text_4">
    <g clip-path="url(#p3465b2cbaa)">
     <!-- ('10', 'depthN') -->
     <g transform="translate(191.290664 281.871147) scale(0.2 -0.2)">
      <defs>
       <path id="DejaVuSans-30" d="M 2034 4250 
Q 1547 4250 1301 3770 
Q 1056 3291 1056 2328 
Q 1056 1369 1301 889 
Q 1547 409 2034 409 
Q 2525 409 2770 889 
Q 3016 1369 3016 2328 
Q 3016 3291 2770 3770 
Q 2525 4250 2034 4250 
z
M 2034 4750 
Q 2819 4750 3233 4129 
Q 3647 3509 3647 2328 
Q 3647 1150 3233 529 
Q 2819 -91 2034 -91 
Q 1250 -91 836 529 
Q 422 1150 422 2328 
Q 422 3509 836 4129 
Q 1250 4750 2034 4750 
z
" transform="scale(0.015625)"/>
      </defs>
      <use xlink:href="#DejaVuSans-28"/>
      <use xlink:href="#DejaVuSans-27" x="39.013672"/>
      <use xlink:href="#DejaVuSans-31" x="66.503906"/>
      <use xlink:href="#DejaVuSans-30" x="130.126953"/>
      <use xlink:href="#DejaVuSans-27" x="193.75"/>
      <use xlink:href="#DejaVuSans-2c" x="221.240234"/>
      <use xlink:href="#DejaVuSans-20" x="253.027344"/>
      <use xlink:href="#DejaVuSans-27" x="284.814453"/>
      <use xlink:href="#DejaVuSans-64" x="312.304688"/>
      <use xlink:href="#DejaVuSans-65" x="375.78125"/>
      <use xlink:href="#DejaVuSans-70" x="437.304688"/>
      <use xlink:href="#DejaVuSans-74" x="500.78125"/>
      <use xlink:href="#DejaVuSans-68" x="539.990234"/>
      <use xlink:href="#DejaVuSans-4e" x="603.369141"/>
      <use xlink:href="#DejaVuSans-27" x="678.173828"/>
      <use xlink:href="#DejaVuSans-29" x="705.664062"/>
     </g>
    </g>
   </g>
   <g id="text_5">
    <g clip-path="url(#p3465b2cbaa)">
     <!-- ('O1', 'flow') -->
     <g transform="translate(593.543634 655.82156) scale(0.2 -0.2)">
      <defs>
       <path id="DejaVuSans-4f" d="M 2522 4238 
Q 1834 4238 1429 3725 
Q 1025 3213 1025 2328 
Q 1025 1447 1429 934 
Q 1834 422 2522 422 
Q 3209 422 3611 934 
Q 4013 1447 4013 2328 
Q 4013 3213 3611 3725 
Q 3209 4238 2522 4238 
z
M 2522 4750 
Q 3503 4750 4090 4092 
Q 4678 3434 4678 2328 
Q 4678 1225 4090 567 
Q 3503 -91 2522 -91 
Q 1538 -91 948 565 
Q 359 1222 359 2328 
Q 359 3434 948 4092 
Q 1538 4750 2522 4750 
z
" transform="scale(0.015625)"/>
       <path id="DejaVuSans-66" d="M 2375 4863 
L 2375 4384 
L 1825 4384 
Q 1516 4384 1395 4259 
Q 1275 4134 1275 3809 
L 1275 3500 
L 2222 3500 
L 2222 3053 
L 1275 3053 
L 1275 0 
L 697 0 
L 697 3053 
L 147 3053 
L 147 3500 
L 697 3500 
L 697 3744 
Q 697 4328 969 4595 
Q 1241 4863 1831 4863 
L 2375 4863 
z
" transform="scale(0.015625)"/>
       <path id="DejaVuSans-6c" d="M 603 4863 
L 1178 4863 
L 1178 0 
L 603 0 
L 603 4863 
z
" transform="scale(0.015625)"/>
       <path id="DejaVuSans-6f" d="M 1959 3097 
Q 1497 3097 1228 2736 
Q 959 2375 959 1747 
Q 959 1119 1226 758 
Q 1494 397 1959 397 
Q 2419 397 2687 759 
Q 2956 1122 2956 1747 
Q 2956 2369 2687 2733 
Q 2419 3097 1959 3097 
z
M 1959 3584 
Q 2709 3584 3137 3096 
Q 3566 2609 3566 1747 
Q 3566 888 3137 398 
Q 2709 -91 1959 -91 
Q 1206 -91 779 398 
Q 353 888 353 1747 
Q 353 2609 779 3096 
Q 1206 3584 1959 3584 
z
" transform="scale(0.015625)"/>
       <path id="DejaVuSans-77" d="M 269 3500 
L 844 3500 
L 1563 769 
L 2278 3500 
L 2956 3500 
L 3675 769 
L 4391 3500 
L 4966 3500 
L 4050 0 
L 3372 0 
L 2619 2869 
L 1863 0 
L 1184 0 
L 269 3500 
z
" transform="scale(0.015625)"/>
      </defs>
      <use xlink:href="#DejaVuSans-28"/>
      <use xlink:href="#DejaVuSans-27" x="39.013672"/>
      <use xlink:href="#DejaVuSans-4f" x="66.503906"/>
      <use xlink:href="#DejaVuSans-31" x="145.214844"/>
      <use xlink:href="#DejaVuSans-27" x="208.837891"/>
      <use xlink:href="#DejaVuSans-2c" x="236.328125"/>
      <use xlink:href="#DejaVuSans-20" x="268.115234"/>
      <use xlink:href="#DejaVuSans-27" x="299.902344"/>
      <use xlink:href="#DejaVuSans-66" x="327.392578"/>
      <use xlink:href="#DejaVuSans-6c" x="362.597656"/>
      <use xlink:href="#DejaVuSans-6f" x="390.380859"/>
      <use xlink:href="#DejaVuSans-77" x="451.5625"/>
      <use xlink:href="#DejaVuSans-27" x="533.349609"/>
      <use xlink:href="#DejaVuSans-29" x="560.839844"/>
     </g>
    </g>
   </g>
   <g id="text_6">
    <g clip-path="url(#p3465b2cbaa)">
     <!-- ('O4', 'flow') -->
     <g transform="translate(60.361816 562.333957) scale(0.2 -0.2)">
      <use xlink:href="#DejaVuSans-28"/>
      <use xlink:href="#DejaVuSans-27" x="39.013672"/>
      <use xlink:href="#DejaVuSans-4f" x="66.503906"/>
      <use xlink:href="#DejaVuSans-34" x="145.214844"/>
      <use xlink:href="#DejaVuSans-27" x="208.837891"/>
      <use xlink:href="#DejaVuSans-2c" x="236.328125"/>
      <use xlink:href="#DejaVuSans-20" x="268.115234"/>
      <use xlink:href="#DejaVuSans-27" x="299.902344"/>
      <use xlink:href="#DejaVuSans-66" x="327.392578"/>
      <use xlink:href="#DejaVuSans-6c" x="362.597656"/>
      <use xlink:href="#DejaVuSans-6f" x="390.380859"/>
      <use xlink:href="#DejaVuSans-77" x="451.5625"/>
      <use xlink:href="#DejaVuSans-27" x="533.349609"/>
      <use xlink:href="#DejaVuSans-29" x="560.839844"/>
     </g>
    </g>
   </g>
   <g id="text_7">
    <g clip-path="url(#p3465b2cbaa)">
     <!-- ('O6', 'flow') -->
     <g transform="translate(302.717188 94.89594) scale(0.2 -0.2)">
      <use xlink:href="#DejaVuSans-28"/>
      <use xlink:href="#DejaVuSans-27" x="39.013672"/>
      <use xlink:href="#DejaVuSans-4f" x="66.503906"/>
      <use xlink:href="#DejaVuSans-36" x="145.214844"/>
      <use xlink:href="#DejaVuSans-27" x="208.837891"/>
      <use xlink:href="#DejaVuSans-2c" x="236.328125"/>
      <use xlink:href="#DejaVuSans-20" x="268.115234"/>
      <use xlink:href="#DejaVuSans-27" x="299.902344"/>
      <use xlink:href="#DejaVuSans-66" x="327.392578"/>
      <use xlink:href="#DejaVuSans-6c" x="362.597656"/>
      <use xlink:href="#DejaVuSans-6f" x="390.380859"/>
      <use xlink:href="#DejaVuSans-77" x="451.5625"/>
      <use xlink:href="#DejaVuSans-27" x="533.349609"/>
      <use xlink:href="#DejaVuSans-29" x="560.839844"/>
     </g>
    </g>
   </g>
   <g id="text_8">
    <g clip-path="url(#p3465b2cbaa)">
     <!-- ('O10', 'flow') -->
     <g transform="translate(490.238985 468.846353) scale(0.2 -0.2)">
      <use xlink:href="#DejaVuSans-28"/>
      <use xlink:href="#DejaVuSans-27" x="39.013672"/>
      <use xlink:href="#DejaVuSans-4f" x="66.503906"/>
      <use xlink:href="#DejaVuSans-31" x="145.214844"/>
      <use xlink:href="#DejaVuSans-30" x="208.837891"/>
      <use xlink:href="#DejaVuSans-27" x="272.460938"/>
      <use xlink:href="#DejaVuSans-2c" x="299.951172"/>
      <use xlink:href="#DejaVuSans-20" x="331.738281"/>
      <use xlink:href="#DejaVuSans-27" x="363.525391"/>
      <use xlink:href="#DejaVuSans-66" x="391.015625"/>
      <use xlink:href="#DejaVuSans-6c" x="426.220703"/>
      <use xlink:href="#DejaVuSans-6f" x="454.003906"/>
      <use xlink:href="#DejaVuSans-77" x="515.185547"/>
      <use xlink:href="#DejaVuSans-27" x="596.972656"/>
      <use xlink:href="#DejaVuSans-29" x="624.462891"/>
     </g>
    </g>
   </g>
   <g id="text_9">
    <!-- Correct Topology -->
    <g transform="translate(290.2698 24.48) scale(0.1728 -0.1728)">
     <defs>
      <path id="DejaVuSans-43" d="M 4122 4306 
L 4122 3641 
Q 3803 3938 3442 4084 
Q 3081 4231 2675 4231 
Q 1875 4231 1450 3742 
Q 1025 3253 1025 2328 
Q 1025 1406 1450 917 
Q 1875 428 2675 428 
Q 3081 428 3442 575 
Q 3803 722 4122 1019 
L 4122 359 
Q 3791 134 3420 21 
Q 3050 -91 2638 -91 
Q 1578 -91 968 557 
Q 359 1206 359 2328 
Q 359 3453 968 4101 
Q 1578 4750 2638 4750 
Q 3056 4750 3426 4639 
Q 3797 4528 4122 4306 
z
" transform="scale(0.015625)"/>
      <path id="DejaVuSans-72" d="M 2631 2963 
Q 2534 3019 2420 3045 
Q 2306 3072 2169 3072 
Q 1681 3072 1420 2755 
Q 1159 2438 1159 1844 
L 1159 0 
L 581 0 
L 581 3500 
L 1159 3500 
L 1159 2956 
Q 1341 3275 1631 3429 
Q 1922 3584 2338 3584 
Q 2397 3584 2469 3576 
Q 2541 3569 2628 3553 
L 2631 2963 
z
" transform="scale(0.015625)"/>
      <path id="DejaVuSans-63" d="M 3122 3366 
L 3122 2828 
Q 2878 2963 2633 3030 
Q 2388 3097 2138 3097 
Q 1578 3097 1268 2742 
Q 959 2388 959 1747 
Q 959 1106 1268 751 
Q 1578 397 2138 397 
Q 2388 397 2633 464 
Q 2878 531 3122 666 
L 3122 134 
Q 2881 22 2623 -34 
Q 2366 -91 2075 -91 
Q 1284 -91 818 406 
Q 353 903 353 1747 
Q 353 2603 823 3093 
Q 1294 3584 2113 3584 
Q 2378 3584 2631 3529 
Q 2884 3475 3122 3366 
z
" transform="scale(0.015625)"/>
      <path id="DejaVuSans-54" d="M -19 4666 
L 3928 4666 
L 3928 4134 
L 2272 4134 
L 2272 0 
L 1638 0 
L 1638 4134 
L -19 4134 
L -19 4666 
z
" transform="scale(0.015625)"/>
      <path id="DejaVuSans-67" d="M 2906 1791 
Q 2906 2416 2648 2759 
Q 2391 3103 1925 3103 
Q 1463 3103 1205 2759 
Q 947 2416 947 1791 
Q 947 1169 1205 825 
Q 1463 481 1925 481 
Q 2391 481 2648 825 
Q 2906 1169 2906 1791 
z
M 3481 434 
Q 3481 -459 3084 -895 
Q 2688 -1331 1869 -1331 
Q 1566 -1331 1297 -1286 
Q 1028 -1241 775 -1147 
L 775 -588 
Q 1028 -725 1275 -790 
Q 1522 -856 1778 -856 
Q 2344 -856 2625 -561 
Q 2906 -266 2906 331 
L 2906 616 
Q 2728 306 2450 153 
Q 2172 0 1784 0 
Q 1141 0 747 490 
Q 353 981 353 1791 
Q 353 2603 747 3093 
Q 1141 3584 1784 3584 
Q 2172 3584 2450 3431 
Q 2728 3278 2906 2969 
L 2906 3500 
L 3481 3500 
L 3481 434 
z
" transform="scale(0.015625)"/>
      <path id="DejaVuSans-79" d="M 2059 -325 
Q 1816 -950 1584 -1140 
Q 1353 -1331 966 -1331 
L 506 -1331 
L 506 -850 
L 844 -850 
Q 1081 -850 1212 -737 
Q 1344 -625 1503 -206 
L 1606 56 
L 191 3500 
L 800 3500 
L 1894 763 
L 2988 3500 
L 3597 3500 
L 2059 -325 
z
" transform="scale(0.015625)"/>
     </defs>
     <use xlink:href="#DejaVuSans-43"/>
     <use xlink:href="#DejaVuSans-6f" x="69.824219"/>
     <use xlink:href="#DejaVuSans-72" x="131.005859"/>
     <use xlink:href="#DejaVuSans-72" x="170.369141"/>
     <use xlink:href="#DejaVuSans-65" x="209.232422"/>
     <use xlink:href="#DejaVuSans-63" x="270.755859"/>
     <use xlink:href="#DejaVuSans-74" x="325.736328"/>
     <use xlink:href="#DejaVuSans-20" x="364.945312"/>
     <use xlink:href="#DejaVuSans-54" x="396.732422"/>
     <use xlink:href="#DejaVuSans-6f" x="440.816406"/>
     <use xlink:href="#DejaVuSans-70" x="501.998047"/>
     <use xlink:href="#DejaVuSans-6f" x="565.474609"/>
     <use xlink:href="#DejaVuSans-6c" x="626.65625"/>
     <use xlink:href="#DejaVuSans-6f" x="654.439453"/>
     <use xlink:href="#DejaVuSans-67" x="715.621094"/>
     <use xlink:href="#DejaVuSans-79" x="779.097656"/>
    </g>
   </g>
  </g>
  <g id="axes_2">
   <g id="patch_16">
    <path d="M 725.4 709.2 
L 1429.2 709.2 
L 1429.2 30.48 
L 725.4 30.48 
z
" style="fill: #ffffff"/>
   </g>
   <g id="patch_17">
    <path d="M 1359.468573 650.30281 
Q 1077.301138 650.30281 796.251737 650.30281 
" clip-path="url(#pad8f87dc53)" style="fill: none; stroke: #000000; stroke-linecap: round"/>
    <path d="M 806.251737 655.30281 
L 796.251737 650.30281 
L 806.251737 645.30281 
z
" clip-path="url(#pad8f87dc53)" style="stroke: #000000; stroke-linecap: round"/>
   </g>
   <g id="patch_18">
    <path d="M 1360.840919 645.618872 
Q 1150.004683 510.070165 940.10889 375.126078 
" clip-path="url(#pad8f87dc53)" style="fill: none; stroke: #000000; stroke-linecap: round"/>
    <path d="M 945.816528 384.739759 
L 940.10889 375.126078 
L 951.224418 376.328177 
z
" clip-path="url(#pad8f87dc53)" style="stroke: #000000; stroke-linecap: round"/>
   </g>
   <g id="patch_19">
    <path d="M 1363.039779 643.295091 
Q 1198.477804 416.583965 1034.572593 190.777638 
" clip-path="url(#pad8f87dc53)" style="fill: none; stroke: #000000; stroke-linecap: round"/>
    <path d="M 1036.400477 201.807544 
L 1034.572593 190.777638 
L 1044.493249 195.933274 
z
" clip-path="url(#pad8f87dc53)" style="stroke: #000000; stroke-linecap: round"/>
   </g>
   <g id="patch_20">
    <path d="M 830.958131 564.504083 
Q 810.709421 603.558371 790.975329 641.620102 
" clip-path="url(#pad8f87dc53)" style="fill: none; stroke: #000000; stroke-linecap: round"/>
    <path d="M 800.017053 635.043839 
L 790.975329 641.620102 
L 791.139353 630.440965 
z
" clip-path="url(#pad8f87dc53)" style="stroke: #000000; stroke-linecap: round"/>
   </g>
   <g id="patch_21">
    <path d="M 838.931125 549.126331 
Q 883.415403 463.328181 927.385064 378.522588 
" clip-path="url(#pad8f87dc53)" style="fill: none; stroke: #000000; stroke-linecap: round"/>
    <path d="M 918.34334 385.098851 
L 927.385064 378.522588 
L 927.22104 389.701725 
z
" clip-path="url(#pad8f87dc53)" style="stroke: #000000; stroke-linecap: round"/>
   </g>
   <g id="patch_22">
    <path d="M 838.931125 549.126331 
Q 931.887194 369.839196 1024.328645 191.544618 
" clip-path="url(#pad8f87dc53)" style="fill: none; stroke: #000000; stroke-linecap: round"/>
    <path d="M 1015.286922 198.12088 
L 1024.328645 191.544618 
L 1024.164621 202.723754 
z
" clip-path="url(#pad8f87dc53)" style="stroke: #000000; stroke-linecap: round"/>
   </g>
   <g id="patch_23">
    <path d="M 1073.313503 97.066066 
Q 1053.064793 136.120354 1033.330701 174.182086 
" clip-path="url(#pad8f87dc53)" style="fill: none; stroke: #000000; stroke-linecap: round"/>
    <path d="M 1042.372425 167.605823 
L 1033.330701 174.182086 
L 1033.494725 163.002949 
z
" clip-path="url(#pad8f87dc53)" style="stroke: #000000; stroke-linecap: round"/>
   </g>
   <g id="patch_24">
    <path d="M 1263.104059 466.444522 
Q 1028.827031 556.815937 795.593119 646.784974 
" clip-path="url(#pad8f87dc53)" style="fill: none; stroke: #000000; stroke-linecap: round"/>
    <path d="M 806.722526 647.850955 
L 795.593119 646.784974 
L 803.123548 638.521038 
z
" clip-path="url(#pad8f87dc53)" style="stroke: #000000; stroke-linecap: round"/>
   </g>
   <g id="patch_25">
    <path d="M 1265.520735 456.773514 
Q 1150.005445 323.094849 1035.221163 190.262132 
" clip-path="url(#pad8f87dc53)" style="fill: none; stroke: #000000; stroke-linecap: round"/>
    <path d="M 1037.976289 201.097689 
L 1035.221163 190.262132 
L 1045.542683 194.559366 
z
" clip-path="url(#pad8f87dc53)" style="stroke: #000000; stroke-linecap: round"/>
   </g>
   <g id="patch_26">
    <path d="M 790.460791 642.612507 
Q 859.180881 510.070025 927.386354 378.5201 
" clip-path="url(#pad8f87dc53)" style="fill: none; stroke: #000000; stroke-linecap: round"/>
    <path d="M 918.34463 385.096363 
L 927.386354 378.5201 
L 927.22233 389.699237 
z
" clip-path="url(#pad8f87dc53)" style="stroke: #000000; stroke-linecap: round"/>
   </g>
   <g id="patch_27">
    <path d="M 790.458202 642.6175 
Q 907.651261 416.583761 1024.329703 191.542578 
" clip-path="url(#pad8f87dc53)" style="fill: none; stroke: #000000; stroke-linecap: round"/>
    <path d="M 1015.287979 198.118841 
L 1024.329703 191.542578 
L 1024.165679 202.721715 
z
" clip-path="url(#pad8f87dc53)" style="stroke: #000000; stroke-linecap: round"/>
   </g>
   <g id="patch_28">
    <path d="M 927.89954 377.530303 
Q 859.17945 510.072785 790.973977 641.62271 
" clip-path="url(#pad8f87dc53)" style="fill: none; stroke: #000000; stroke-linecap: round"/>
    <path d="M 800.015701 635.046447 
L 790.973977 641.62271 
L 791.138001 630.443573 
z
" clip-path="url(#pad8f87dc53)" style="stroke: #000000; stroke-linecap: round"/>
   </g>
   <g id="patch_29">
    <path d="M 976.371354 284.041273 
Q 956.122645 323.095561 936.388552 361.157292 
" clip-path="url(#pad8f87dc53)" style="fill: none; stroke: #000000; stroke-linecap: round"/>
    <path d="M 945.430276 354.581029 
L 936.388552 361.157292 
L 936.552576 349.978156 
z
" clip-path="url(#pad8f87dc53)" style="stroke: #000000; stroke-linecap: round"/>
   </g>
   <g id="matplotlib.axis_3">
    <g id="xtick_9"/>
    <g id="xtick_10"/>
    <g id="xtick_11"/>
    <g id="xtick_12"/>
    <g id="xtick_13"/>
    <g id="xtick_14"/>
    <g id="xtick_15"/>
    <g id="xtick_16"/>
   </g>
   <g id="matplotlib.axis_4">
    <g id="ytick_6"/>
    <g id="ytick_7"/>
    <g id="ytick_8"/>
    <g id="ytick_9"/>
    <g id="ytick_10"/>
   </g>
   <g id="PathCollection_2">
    <g clip-path="url(#pad8f87dc53)">
     <use xlink:href="#m3f7599d6c6" x="1368.126446" y="650.30281" style="fill: #1f78b4; stroke: #1f78b4"/>
     <use xlink:href="#m3f7599d6c6" x="834.944628" y="556.815207" style="fill: #1f78b4; stroke: #1f78b4"/>
     <use xlink:href="#m3f7599d6c6" x="1077.3" y="89.37719" style="fill: #1f78b4; stroke: #1f78b4"/>
     <use xlink:href="#m3f7599d6c6" x="1271.184298" y="463.327603" style="fill: #1f78b4; stroke: #1f78b4"/>
     <use xlink:href="#m3f7599d6c6" x="786.473554" y="650.30281" style="fill: #1f78b4; stroke: #1f78b4"/>
     <use xlink:href="#m3f7599d6c6" x="931.886777" y="369.84" style="fill: #1f78b4; stroke: #1f78b4"/>
     <use xlink:href="#m3f7599d6c6" x="1028.828926" y="182.864793" style="fill: #1f78b4; stroke: #1f78b4"/>
     <use xlink:href="#m3f7599d6c6" x="980.357851" y="276.352397" style="fill: #1f78b4; stroke: #1f78b4"/>
    </g>
   </g>
   <g id="patch_30">
    <path d="M 725.4 709.2 
L 725.4 30.48 
" style="fill: none; stroke: #000000; stroke-width: 0.8; stroke-linejoin: miter; stroke-linecap: square"/>
   </g>
   <g id="patch_31">
    <path d="M 1429.2 709.2 
L 1429.2 30.48 
" style="fill: none; stroke: #000000; stroke-width: 0.8; stroke-linejoin: miter; stroke-linecap: square"/>
   </g>
   <g id="patch_32">
    <path d="M 725.4 709.2 
L 1429.2 709.2 
" style="fill: none; stroke: #000000; stroke-width: 0.8; stroke-linejoin: miter; stroke-linecap: square"/>
   </g>
   <g id="patch_33">
    <path d="M 725.4 30.48 
L 1429.2 30.48 
" style="fill: none; stroke: #000000; stroke-width: 0.8; stroke-linejoin: miter; stroke-linecap: square"/>
   </g>
   <g id="text_10">
    <g clip-path="url(#pad8f87dc53)">
     <!-- ('O1', 'flow') -->
     <g transform="translate(1308.143634 655.82156) scale(0.2 -0.2)">
      <use xlink:href="#DejaVuSans-28"/>
      <use xlink:href="#DejaVuSans-27" x="39.013672"/>
      <use xlink:href="#DejaVuSans-4f" x="66.503906"/>
      <use xlink:href="#DejaVuSans-31" x="145.214844"/>
      <use xlink:href="#DejaVuSans-27" x="208.837891"/>
      <use xlink:href="#DejaVuSans-2c" x="236.328125"/>
      <use xlink:href="#DejaVuSans-20" x="268.115234"/>
      <use xlink:href="#DejaVuSans-27" x="299.902344"/>
      <use xlink:href="#DejaVuSans-66" x="327.392578"/>
      <use xlink:href="#DejaVuSans-6c" x="362.597656"/>
      <use xlink:href="#DejaVuSans-6f" x="390.380859"/>
      <use xlink:href="#DejaVuSans-77" x="451.5625"/>
      <use xlink:href="#DejaVuSans-27" x="533.349609"/>
      <use xlink:href="#DejaVuSans-29" x="560.839844"/>
     </g>
    </g>
   </g>
   <g id="text_11">
    <g clip-path="url(#pad8f87dc53)">
     <!-- ('O4', 'flow') -->
     <g transform="translate(774.961816 562.333957) scale(0.2 -0.2)">
      <use xlink:href="#DejaVuSans-28"/>
      <use xlink:href="#DejaVuSans-27" x="39.013672"/>
      <use xlink:href="#DejaVuSans-4f" x="66.503906"/>
      <use xlink:href="#DejaVuSans-34" x="145.214844"/>
      <use xlink:href="#DejaVuSans-27" x="208.837891"/>
      <use xlink:href="#DejaVuSans-2c" x="236.328125"/>
      <use xlink:href="#DejaVuSans-20" x="268.115234"/>
      <use xlink:href="#DejaVuSans-27" x="299.902344"/>
      <use xlink:href="#DejaVuSans-66" x="327.392578"/>
      <use xlink:href="#DejaVuSans-6c" x="362.597656"/>
      <use xlink:href="#DejaVuSans-6f" x="390.380859"/>
      <use xlink:href="#DejaVuSans-77" x="451.5625"/>
      <use xlink:href="#DejaVuSans-27" x="533.349609"/>
      <use xlink:href="#DejaVuSans-29" x="560.839844"/>
     </g>
    </g>
   </g>
   <g id="text_12">
    <g clip-path="url(#pad8f87dc53)">
     <!-- ('O6', 'flow') -->
     <g transform="translate(1017.317187 94.89594) scale(0.2 -0.2)">
      <use xlink:href="#DejaVuSans-28"/>
      <use xlink:href="#DejaVuSans-27" x="39.013672"/>
      <use xlink:href="#DejaVuSans-4f" x="66.503906"/>
      <use xlink:href="#DejaVuSans-36" x="145.214844"/>
      <use xlink:href="#DejaVuSans-27" x="208.837891"/>
      <use xlink:href="#DejaVuSans-2c" x="236.328125"/>
      <use xlink:href="#DejaVuSans-20" x="268.115234"/>
      <use xlink:href="#DejaVuSans-27" x="299.902344"/>
      <use xlink:href="#DejaVuSans-66" x="327.392578"/>
      <use xlink:href="#DejaVuSans-6c" x="362.597656"/>
      <use xlink:href="#DejaVuSans-6f" x="390.380859"/>
      <use xlink:href="#DejaVuSans-77" x="451.5625"/>
      <use xlink:href="#DejaVuSans-27" x="533.349609"/>
      <use xlink:href="#DejaVuSans-29" x="560.839844"/>
     </g>
    </g>
   </g>
   <g id="text_13">
    <g clip-path="url(#pad8f87dc53)">
     <!-- ('O10', 'flow') -->
     <g transform="translate(1204.838985 468.846353) scale(0.2 -0.2)">
      <use xlink:href="#DejaVuSans-28"/>
      <use xlink:href="#DejaVuSans-27" x="39.013672"/>
      <use xlink:href="#DejaVuSans-4f" x="66.503906"/>
      <use xlink:href="#DejaVuSans-31" x="145.214844"/>
      <use xlink:href="#DejaVuSans-30" x="208.837891"/>
      <use xlink:href="#DejaVuSans-27" x="272.460938"/>
      <use xlink:href="#DejaVuSans-2c" x="299.951172"/>
      <use xlink:href="#DejaVuSans-20" x="331.738281"/>
      <use xlink:href="#DejaVuSans-27" x="363.525391"/>
      <use xlink:href="#DejaVuSans-66" x="391.015625"/>
      <use xlink:href="#DejaVuSans-6c" x="426.220703"/>
      <use xlink:href="#DejaVuSans-6f" x="454.003906"/>
      <use xlink:href="#DejaVuSans-77" x="515.185547"/>
      <use xlink:href="#DejaVuSans-27" x="596.972656"/>
      <use xlink:href="#DejaVuSans-29" x="624.462891"/>
     </g>
    </g>
   </g>
   <g id="text_14">
    <g clip-path="url(#pad8f87dc53)">
     <!-- ('1', 'depthN') -->
     <g transform="translate(718.368866 655.82156) scale(0.2 -0.2)">
      <use xlink:href="#DejaVuSans-28"/>
      <use xlink:href="#DejaVuSans-27" x="39.013672"/>
      <use xlink:href="#DejaVuSans-31" x="66.503906"/>
      <use xlink:href="#DejaVuSans-27" x="130.126953"/>
      <use xlink:href="#DejaVuSans-2c" x="157.617188"/>
      <use xlink:href="#DejaVuSans-20" x="189.404297"/>
      <use xlink:href="#DejaVuSans-27" x="221.191406"/>
      <use xlink:href="#DejaVuSans-64" x="248.681641"/>
      <use xlink:href="#DejaVuSans-65" x="312.158203"/>
      <use xlink:href="#DejaVuSans-70" x="373.681641"/>
      <use xlink:href="#DejaVuSans-74" x="437.158203"/>
      <use xlink:href="#DejaVuSans-68" x="476.367188"/>
      <use xlink:href="#DejaVuSans-4e" x="539.746094"/>
      <use xlink:href="#DejaVuSans-27" x="614.550781"/>
      <use xlink:href="#DejaVuSans-29" x="642.041016"/>
     </g>
    </g>
   </g>
   <g id="text_15">
    <g clip-path="url(#pad8f87dc53)">
     <!-- ('4', 'depthN') -->
     <g transform="translate(863.782089 375.35875) scale(0.2 -0.2)">
      <use xlink:href="#DejaVuSans-28"/>
      <use xlink:href="#DejaVuSans-27" x="39.013672"/>
      <use xlink:href="#DejaVuSans-34" x="66.503906"/>
      <use xlink:href="#DejaVuSans-27" x="130.126953"/>
      <use xlink:href="#DejaVuSans-2c" x="157.617188"/>
      <use xlink:href="#DejaVuSans-20" x="189.404297"/>
      <use xlink:href="#DejaVuSans-27" x="221.191406"/>
      <use xlink:href="#DejaVuSans-64" x="248.681641"/>
      <use xlink:href="#DejaVuSans-65" x="312.158203"/>
      <use xlink:href="#DejaVuSans-70" x="373.681641"/>
      <use xlink:href="#DejaVuSans-74" x="437.158203"/>
      <use xlink:href="#DejaVuSans-68" x="476.367188"/>
      <use xlink:href="#DejaVuSans-4e" x="539.746094"/>
      <use xlink:href="#DejaVuSans-27" x="614.550781"/>
      <use xlink:href="#DejaVuSans-29" x="642.041016"/>
     </g>
    </g>
   </g>
   <g id="text_16">
    <g clip-path="url(#pad8f87dc53)">
     <!-- ('6', 'depthN') -->
     <g transform="translate(960.724238 188.383543) scale(0.2 -0.2)">
      <use xlink:href="#DejaVuSans-28"/>
      <use xlink:href="#DejaVuSans-27" x="39.013672"/>
      <use xlink:href="#DejaVuSans-36" x="66.503906"/>
      <use xlink:href="#DejaVuSans-27" x="130.126953"/>
      <use xlink:href="#DejaVuSans-2c" x="157.617188"/>
      <use xlink:href="#DejaVuSans-20" x="189.404297"/>
      <use xlink:href="#DejaVuSans-27" x="221.191406"/>
      <use xlink:href="#DejaVuSans-64" x="248.681641"/>
      <use xlink:href="#DejaVuSans-65" x="312.158203"/>
      <use xlink:href="#DejaVuSans-70" x="373.681641"/>
      <use xlink:href="#DejaVuSans-74" x="437.158203"/>
      <use xlink:href="#DejaVuSans-68" x="476.367188"/>
      <use xlink:href="#DejaVuSans-4e" x="539.746094"/>
      <use xlink:href="#DejaVuSans-27" x="614.550781"/>
      <use xlink:href="#DejaVuSans-29" x="642.041016"/>
     </g>
    </g>
   </g>
   <g id="text_17">
    <g clip-path="url(#pad8f87dc53)">
     <!-- ('10', 'depthN') -->
     <g transform="translate(905.890664 281.871147) scale(0.2 -0.2)">
      <use xlink:href="#DejaVuSans-28"/>
      <use xlink:href="#DejaVuSans-27" x="39.013672"/>
      <use xlink:href="#DejaVuSans-31" x="66.503906"/>
      <use xlink:href="#DejaVuSans-30" x="130.126953"/>
      <use xlink:href="#DejaVuSans-27" x="193.75"/>
      <use xlink:href="#DejaVuSans-2c" x="221.240234"/>
      <use xlink:href="#DejaVuSans-20" x="253.027344"/>
      <use xlink:href="#DejaVuSans-27" x="284.814453"/>
      <use xlink:href="#DejaVuSans-64" x="312.304688"/>
      <use xlink:href="#DejaVuSans-65" x="375.78125"/>
      <use xlink:href="#DejaVuSans-70" x="437.304688"/>
      <use xlink:href="#DejaVuSans-74" x="500.78125"/>
      <use xlink:href="#DejaVuSans-68" x="539.990234"/>
      <use xlink:href="#DejaVuSans-4e" x="603.369141"/>
      <use xlink:href="#DejaVuSans-27" x="678.173828"/>
      <use xlink:href="#DejaVuSans-29" x="705.664062"/>
     </g>
    </g>
   </g>
   <g id="text_18">
    <!-- Inferred Topology -->
    <g transform="translate(1002.46005 24.48) scale(0.1728 -0.1728)">
     <defs>
      <path id="DejaVuSans-49" d="M 628 4666 
L 1259 4666 
L 1259 0 
L 628 0 
L 628 4666 
z
" transform="scale(0.015625)"/>
      <path id="DejaVuSans-6e" d="M 3513 2113 
L 3513 0 
L 2938 0 
L 2938 2094 
Q 2938 2591 2744 2837 
Q 2550 3084 2163 3084 
Q 1697 3084 1428 2787 
Q 1159 2491 1159 1978 
L 1159 0 
L 581 0 
L 581 3500 
L 1159 3500 
L 1159 2956 
Q 1366 3272 1645 3428 
Q 1925 3584 2291 3584 
Q 2894 3584 3203 3211 
Q 3513 2838 3513 2113 
z
" transform="scale(0.015625)"/>
     </defs>
     <use xlink:href="#DejaVuSans-49"/>
     <use xlink:href="#DejaVuSans-6e" x="29.492188"/>
     <use xlink:href="#DejaVuSans-66" x="92.871094"/>
     <use xlink:href="#DejaVuSans-65" x="128.076172"/>
     <use xlink:href="#DejaVuSans-72" x="189.599609"/>
     <use xlink:href="#DejaVuSans-72" x="228.962891"/>
     <use xlink:href="#DejaVuSans-65" x="267.826172"/>
     <use xlink:href="#DejaVuSans-64" x="329.349609"/>
     <use xlink:href="#DejaVuSans-20" x="392.826172"/>
     <use xlink:href="#DejaVuSans-54" x="424.613281"/>
     <use xlink:href="#DejaVuSans-6f" x="468.697266"/>
     <use xlink:href="#DejaVuSans-70" x="529.878906"/>
     <use xlink:href="#DejaVuSans-6f" x="593.355469"/>
     <use xlink:href="#DejaVuSans-6c" x="654.537109"/>
     <use xlink:href="#DejaVuSans-6f" x="682.320312"/>
     <use xlink:href="#DejaVuSans-67" x="743.501953"/>
     <use xlink:href="#DejaVuSans-79" x="806.978516"/>
    </g>
   </g>
  </g>
 </g>
 <defs>
  <clipPath id="p3465b2cbaa">
   <rect x="10.8" y="30.48" width="703.8" height="678.72"/>
  </clipPath>
  <clipPath id="pad8f87dc53">
   <rect x="725.4" y="30.48" width="703.8" height="678.72"/>
  </clipPath>
 </defs>
</svg>
